<svg width="20" height="20" viewBox="0 0 20 20" fill="none" xmlns="http://www.w3.org/2000/svg">
<path d="M20 9.16667H18.3333V7.5H16.6667V9.16667H15V10.8333H16.6667V12.5H18.3333V10.8333H20V9.16667Z" fill="white"/>
<path d="M13.772 9.17038L7.5 9.16666V11.6667H11.0842C10.8908 12.7248 9.83124 14.6549 7.08333 14.6549C4.66487 14.6549 2.69165 12.6513 2.69165 10.1823C2.69165 7.71326 4.66487 5.70968 7.08333 5.70968C8.45952 5.70968 9.38034 6.29658 9.90657 6.80251L11.8292 4.95075C10.5946 3.79714 8.99582 3.09895 7.08333 3.09895C3.16727 3.09895 0 6.26622 0 10.1823C0 14.0984 3.16727 17.2656 7.08333 17.2656C11.9565 17.2656 14.4666 13.2208 13.772 9.17038Z" fill="white"/>
</svg>
