<svg width="60" height="60" viewBox="0 0 60 60" fill="none" xmlns="http://www.w3.org/2000/svg">
<path d="M30 1.5C40.305 1.5 51 9.45582 51 22.5C51 25.4716 49.8665 28.9749 48.0215 32.665C46.189 36.3299 43.7218 40.0481 41.2051 43.4141C36.172 50.1454 31.0403 55.3386 30.6895 55.6895C30.528 55.8509 30.4259 55.9119 30.3594 55.9414C30.2994 55.9681 30.2 56 30 56C29.8 56 29.7006 55.9681 29.6406 55.9414C29.5741 55.9119 29.472 55.8509 29.3105 55.6895C28.9597 55.3386 23.828 50.1454 18.7949 43.4141C16.2782 40.0481 13.811 36.3299 11.9785 32.665C10.1335 28.9749 9 25.4716 9 22.5C9 9.45582 19.695 1.5 30 1.5ZM30 13.5C24.9216 13.5 21 17.4216 21 22.5C21 27.5784 24.9216 31.5 30 31.5C35.0784 31.5 39 27.5784 39 22.5C39 17.4216 35.0784 13.5 30 13.5Z" fill="#FECC2A" stroke="white" stroke-width="3"/>
</svg>
