<svg width="153" height="106" viewBox="0 0 153 106" fill="none" xmlns="http://www.w3.org/2000/svg">
<g clip-path="url(#clip0_466_6653)">
<path fill-rule="evenodd" clip-rule="evenodd" d="M7.60167 59.6495H16.3164C20.4971 59.6495 23.9181 63.0705 23.9181 67.2511V97.4224C23.9181 101.603 20.4977 105.023 16.3164 105.023H7.60167C3.42035 105.023 0 101.603 0 97.4224V67.2511C0 63.0698 3.42035 59.6495 7.60167 59.6495Z" fill="#49493D"/>
<path fill-rule="evenodd" clip-rule="evenodd" d="M136.684 59.6495H145.399C149.58 59.6495 153.001 63.0705 153.001 67.2511V97.4224C153.001 101.603 149.58 105.023 145.399 105.023H136.684C132.503 105.023 129.083 101.603 129.083 97.4224V67.2511C129.083 63.0698 132.503 59.6495 136.684 59.6495Z" fill="#49493D"/>
<path fill-rule="evenodd" clip-rule="evenodd" d="M132.397 24.1785C132.397 24.1785 132.571 20.8221 133.041 20.2834C133.51 19.7447 133.998 19.5884 134.363 19.5706C137.266 19.4321 144.857 19.62 146.449 22.6138C146.885 23.4314 147.354 24.5966 147.197 26.1792C147.04 27.7618 146.102 28.3005 144.919 28.8399C143.737 29.3793 135.372 30.3875 134.92 30.2484C134.467 30.1093 133.163 29.0661 133.163 29.0661L130.798 29.2224L129.007 24.2484L132.397 24.1785Z" fill="#BC8700"/>
<path fill-rule="evenodd" clip-rule="evenodd" d="M132.397 24.1785C132.397 24.1785 132.571 20.8221 133.041 20.2834C133.51 19.7447 133.998 19.5884 134.363 19.5706C137.266 19.4321 144.857 19.62 146.449 22.6138C146.836 23.3417 147.251 24.3447 147.227 25.6734L134.5 26.7937L132.397 24.1785Z" fill="#FECC2A"/>
<path fill-rule="evenodd" clip-rule="evenodd" d="M20.6177 24.1785C20.6177 24.1785 20.4443 20.8221 19.9742 20.2834C19.5047 19.7447 19.0174 19.5884 18.6527 19.5706C15.75 19.4321 8.15887 19.62 6.56639 22.6138C6.13184 23.4314 5.66168 24.5966 5.81862 26.1792C5.9749 27.7618 6.91456 28.3005 8.09688 28.8399C9.2792 29.3793 17.6438 30.3875 18.0962 30.2484C18.5479 30.1093 19.8528 29.0661 19.8528 29.0661L22.2181 29.2224L24.0091 24.2484L20.6177 24.1785Z" fill="#BC8700"/>
<path fill-rule="evenodd" clip-rule="evenodd" d="M20.6178 24.1785C20.6178 24.1785 20.4444 20.8221 19.9743 20.2834C19.5048 19.7447 19.0175 19.5884 18.6528 19.5706C15.7501 19.4321 8.15897 19.62 6.56649 22.6138C6.17942 23.3417 5.76465 24.3447 5.78905 25.6734L18.5163 26.7937L20.6178 24.1785Z" fill="#FECC2A"/>
<path fill-rule="evenodd" clip-rule="evenodd" d="M42.0663 1.70127C34.762 3.02273 33.9971 3.3709 32.6058 4.97062C31.2144 6.57035 20.5544 29.5606 20.5544 29.5606C20.5544 29.5606 7.70254 36.586 7.07676 37.5949C6.45098 38.6038 2.48596 44.3769 1.99865 45.699C1.51135 47.0205 0.189895 63.7154 1.23308 73.0361C2.27626 82.3575 3.45924 90.496 4.43253 91.6783C5.40648 92.8606 10.4147 95.0868 13.0576 95.6433C20.4595 97.2015 132.763 97.2015 140.165 95.6433C142.808 95.0868 147.816 92.8606 148.79 91.6783C149.764 90.496 150.947 82.3569 151.99 73.0361C153.033 63.7154 151.712 47.0205 151.224 45.699C150.738 44.3769 146.772 38.6038 146.146 37.5949C145.52 36.586 132.668 29.5606 132.668 29.5606C132.668 29.5606 122.009 6.57035 120.618 4.97062C119.226 3.3709 118.461 3.02339 111.158 1.70127C98.6218 -0.567092 54.6017 -0.567092 42.0663 1.70127Z" fill="#FECC2A"/>
<path fill-rule="evenodd" clip-rule="evenodd" d="M40.8748 96.6054C61.9851 96.8784 90.7445 96.8797 111.949 96.6107C109.086 94.9166 104.128 92.2051 104.128 92.2051L76.4077 92.1702L48.6874 92.2051C48.6874 92.2051 43.7399 94.9114 40.8748 96.6054Z" fill="#BC8700"/>
<path fill-rule="evenodd" clip-rule="evenodd" d="M8.43778 36.5537C7.69001 37.0423 7.1882 37.4149 7.07676 37.5942C6.45098 38.6031 2.48596 44.3762 1.99865 45.6983C1.51135 47.0198 0.189895 63.7147 1.23308 73.0355C2.27626 82.3569 3.45924 90.4953 4.43253 91.6776C4.43253 91.6776 7.01873 89.0083 7.01873 87.4778C7.01873 85.9473 7.42229 58.8272 7.42229 58.8272C7.42229 58.8272 12.931 42.6809 12.931 41.9852C12.931 41.6423 10.7279 39.0785 8.43778 36.5537Z" fill="#FECC2A"/>
<path fill-rule="evenodd" clip-rule="evenodd" d="M144.786 36.5537C145.533 37.0423 146.035 37.4149 146.147 37.5942C146.773 38.6031 150.738 44.3762 151.225 45.6983C151.712 47.0198 153.034 63.7147 151.99 73.0355C150.947 82.3569 149.764 90.4953 148.791 91.6776C148.791 91.6776 146.205 89.0083 146.205 87.4778C146.205 85.9473 145.801 58.8272 145.801 58.8272C145.801 58.8272 140.293 42.6809 140.293 41.9852C140.293 41.6423 142.496 39.0785 144.786 36.5537Z" fill="#FECC2A"/>
<path fill-rule="evenodd" clip-rule="evenodd" d="M76.6114 51.6093V18.9514L23.4743 29.0905L20.5544 29.56C20.5544 29.56 24.741 30.586 29.1933 35.4551C33.645 40.3242 40.8326 50.882 40.4989 50.7929C40.1652 50.7039 45.6311 51.8309 45.6311 51.8309L76.6114 51.6093Z" fill="#FECC2A"/>
<path fill-rule="evenodd" clip-rule="evenodd" d="M76.6114 51.6093V18.9514L129.749 29.0905L132.668 29.56C132.668 29.56 128.481 30.586 124.03 35.4551C119.578 40.3242 112.39 50.882 112.723 50.7929C113.057 50.7039 107.591 51.8309 107.591 51.8309L76.6114 51.6093Z" fill="#FECC2A"/>
<path fill-rule="evenodd" clip-rule="evenodd" d="M37.8388 4.79655C34.1956 6.13778 32.7264 8.65738 31.9958 9.66562C31.2652 10.6745 23.4743 29.0905 23.4743 29.0905C23.4743 29.0905 36.3426 27.9431 52.6894 27.3167C69.4186 26.6757 83.8042 26.6757 100.533 27.3167C116.88 27.9425 129.749 29.0905 129.749 29.0905C129.749 29.0905 121.958 10.6745 121.227 9.66562C120.496 8.65673 119.015 6.17075 115.384 4.79655C104.951 0.847347 49.0112 0.685132 37.8388 4.79655Z" fill="white"/>
<path fill-rule="evenodd" clip-rule="evenodd" d="M11.4355 57.2545L7.42296 58.8278L7.40714 59.8638L43.2941 65.6013L15.8047 60.1842L11.4355 57.2545Z" fill="#FECC2A"/>
<path fill-rule="evenodd" clip-rule="evenodd" d="M141.788 57.2545L145.801 58.8278L145.816 59.8638L109.929 65.6013L137.419 60.1842L141.788 57.2545Z" fill="#FECC2A"/>
<path fill-rule="evenodd" clip-rule="evenodd" d="M10.2228 46.4811C9.59637 46.4461 9.14468 46.307 8.48395 47.0027C7.82322 47.6983 6.98841 58.5146 7.42296 58.8278C7.85817 59.141 15.0226 60.08 15.8047 60.1842C16.5874 60.2884 33.5771 57.6106 33.9952 57.4365C34.4126 57.2624 40.8464 51.002 40.4989 50.7936C39.9575 50.4692 12.9402 46.3887 10.2228 46.4811Z" fill="#49493D"/>
<path fill-rule="evenodd" clip-rule="evenodd" d="M8.92969 47.3746C8.86243 47.5091 8.79583 47.821 8.76615 47.9562C8.67252 48.3874 8.60262 48.8286 8.53932 49.2651C8.36457 50.4731 8.24061 51.697 8.13642 52.9129C8.03091 54.1408 7.94453 55.3778 7.90233 56.6102C7.88716 57.0547 7.87595 57.5024 7.88518 57.9475C7.88716 58.0517 7.88914 58.233 7.90233 58.3854C7.98937 58.4065 8.07971 58.4249 8.14631 58.4394C8.45887 58.5074 8.77473 58.5647 9.08927 58.6195C9.95903 58.7718 10.8334 58.9037 11.7065 59.0323C13.0919 59.236 14.4793 59.4239 15.8667 59.6092C15.9557 59.6119 16.0691 59.598 16.1568 59.5901C16.3777 59.5703 16.598 59.5446 16.8182 59.5182C17.5132 59.4352 18.2082 59.3395 18.9019 59.2419C20.8775 58.965 22.8511 58.6669 24.8228 58.363C26.8201 58.0557 28.8168 57.7411 30.8115 57.4134C31.5032 57.3 32.1956 57.1853 32.8867 57.0639C33.1016 57.0263 33.3159 56.9881 33.5296 56.9472C33.6021 56.9334 33.6839 56.9195 33.7591 56.9024C33.8712 56.8213 34.0017 56.6986 34.098 56.6135C34.3605 56.3814 34.6183 56.1421 34.8735 55.9027C35.587 55.2341 36.2892 54.5503 36.9836 53.8612C37.6595 53.1899 38.3314 52.51 38.9796 51.8124C39.1741 51.6034 39.368 51.3917 39.5546 51.1747C39.2829 51.1233 39.0113 51.0752 38.7396 51.0277C37.585 50.8253 36.427 50.638 35.2698 50.4533C31.9239 49.9192 28.5715 49.4154 25.2177 48.9281C22.0157 48.4626 18.8083 48.0089 15.5976 47.6014C14.4351 47.4537 13.2693 47.3106 12.1028 47.1919C11.7104 47.1517 11.3167 47.1141 10.9231 47.0871C10.7022 47.0719 10.4641 47.0541 10.2432 47.0614L10.2175 47.062L10.1918 47.0607C9.59305 47.0257 9.37479 46.9183 8.92969 47.3746Z" fill="white"/>
<path fill-rule="evenodd" clip-rule="evenodd" d="M16.7608 57.5756C19.318 57.5756 21.4044 55.4899 21.4044 52.9327C21.4044 50.3755 19.3187 48.2898 16.7608 48.2898C14.2037 48.2898 12.118 50.3755 12.118 52.9327C12.118 55.4899 14.2037 57.5756 16.7608 57.5756Z" fill="#F3F3F3"/>
<path fill-rule="evenodd" clip-rule="evenodd" d="M76.6114 49.1589C76.6088 49.1589 50.636 49.333 48.6538 49.8546C46.6716 50.3762 42.915 54.3412 42.5325 55.3495C42.15 56.3584 49.2796 82.409 50.4619 84.1828C51.6449 85.9566 53.9053 86.5824 54.8443 86.5824H76.6114H98.3785C99.3175 86.5824 101.578 85.9566 102.761 84.1828C103.944 82.409 111.073 56.3584 110.691 55.3495C110.309 54.3412 106.553 50.3762 104.57 49.8546C102.587 49.333 76.6147 49.1589 76.6114 49.1589Z" fill="white"/>
<path fill-rule="evenodd" clip-rule="evenodd" d="M76.6114 50.2944C71.9362 50.3479 67.2636 50.3808 62.5884 50.4593C59.5967 50.5094 56.6023 50.5674 53.6119 50.6696C52.5496 50.7059 51.4846 50.7461 50.4237 50.8121C50.0214 50.8371 49.3251 50.8569 48.9433 50.9525C48.121 51.1695 46.7804 52.3155 46.1546 52.8879C45.5447 53.4458 44.9532 54.0445 44.4118 54.6696C44.2305 54.8793 43.8474 55.3218 43.6634 55.6258C43.6766 55.7425 43.6997 55.8697 43.7155 55.9687C43.7748 56.3294 43.848 56.6887 43.9232 57.0461C44.1573 58.1572 44.4237 59.2657 44.6954 60.3682C45.4583 63.4701 46.2845 66.5621 47.1332 69.6415C47.9792 72.7137 48.851 75.7859 49.7853 78.8323C50.1183 79.9171 50.4579 81.0044 50.8298 82.0766C50.963 82.4604 51.2037 83.22 51.4075 83.5524C51.844 84.2072 52.5061 84.6905 53.2156 85.0136C53.6574 85.2148 54.3524 85.4462 54.845 85.4462H98.3792C98.8711 85.4462 99.5668 85.2148 100.009 85.0136C100.718 84.6905 101.38 84.2072 101.813 83.5577C102.02 83.2194 102.26 82.4598 102.394 82.076C102.766 81.0038 103.106 79.9164 103.438 78.8317C104.373 75.7852 105.244 72.713 106.09 69.6408C106.939 66.5614 107.765 63.4694 108.528 60.3676C108.799 59.265 109.066 58.1566 109.3 57.0455C109.375 56.6881 109.449 56.328 109.508 55.968C109.524 55.8691 109.548 55.7418 109.561 55.6251C109.377 55.3211 108.994 54.8787 108.812 54.669C108.271 54.0445 107.679 53.4451 107.07 52.8872C106.444 52.3149 105.104 51.1682 104.282 50.9525C103.899 50.8569 103.203 50.8371 102.8 50.8121C101.74 50.7461 100.675 50.7059 99.6123 50.6696C96.6218 50.5674 93.6275 50.5101 90.6351 50.4593C85.9592 50.3808 81.2866 50.3498 76.6114 50.2944Z" fill="#49493D"/>
<path fill-rule="evenodd" clip-rule="evenodd" d="M41.9153 76.9339C42.5174 78.529 43.0792 80.1683 43.5783 81.7977C43.97 83.0756 44.9387 86.1392 44.4573 87.4027C44.034 88.5131 42.6182 89.2879 41.5981 89.7719C40.6493 90.2216 39.5902 90.6278 38.582 90.9338L38.4099 90.9859L38.2305 90.9819C33.3905 90.8843 28.5458 90.7459 23.7084 90.5645C20.4984 90.4439 17.2772 90.3107 14.0731 90.0871C12.9508 90.0086 11.8153 89.9229 10.6989 89.7812C10.0903 89.704 9.08005 89.5912 8.59737 89.1936C7.16183 88.0113 7.36625 84.2962 7.49879 82.6239C7.60364 81.3005 7.79025 79.9065 8.116 78.6187C8.51098 77.0579 9.2759 74.444 11.0655 73.9468C11.4592 73.8373 12.4364 73.9296 12.8558 73.9547C13.9828 74.0219 15.1097 74.1044 16.2353 74.1874C19.56 74.4334 22.8841 74.7024 26.2069 74.9735C31.1234 75.375 36.0393 75.7859 40.9539 76.2066L41.6634 76.2672L41.9153 76.9339Z" fill="#BC8700"/>
<path fill-rule="evenodd" clip-rule="evenodd" d="M111.308 76.9339C110.706 78.529 110.144 80.1683 109.645 81.7977C109.253 83.0756 108.284 86.1392 108.766 87.4027C109.188 88.5131 110.604 89.2879 111.625 89.7719C112.573 90.2216 113.633 90.6278 114.64 90.9338L114.812 90.9859L114.991 90.9819C119.831 90.8843 124.676 90.7459 129.513 90.5645C132.723 90.4439 135.944 90.3107 139.148 90.0871C140.271 90.0086 141.406 89.9229 142.523 89.7812C143.131 89.704 144.141 89.5912 144.624 89.1936C146.06 88.0113 145.855 84.2962 145.723 82.6239C145.619 81.3005 145.432 79.9065 145.106 78.6187C144.711 77.0579 143.946 74.444 142.157 73.9468C141.763 73.8373 140.786 73.9296 140.367 73.9547C139.24 74.0219 138.113 74.1044 136.988 74.1874C133.662 74.4334 130.339 74.7024 127.015 74.9735C122.099 75.375 117.184 75.7859 112.268 76.2066L111.559 76.2672L111.308 76.9339Z" fill="#BC8700"/>
<path fill-rule="evenodd" clip-rule="evenodd" d="M40.8576 77.3328C40.8576 77.3328 43.9582 85.5392 43.4016 86.9998C42.8451 88.4604 38.2543 89.8517 38.2543 89.8517C38.2543 89.8517 10.4998 89.2952 9.31677 88.3212C8.13379 87.3473 8.48196 81.7825 9.21193 78.8956C9.94255 76.0087 10.7424 75.2089 11.3682 75.0348C11.9953 74.8614 40.8576 77.3328 40.8576 77.3328Z" fill="#49493D"/>
<path fill-rule="evenodd" clip-rule="evenodd" d="M112.365 77.3328C112.365 77.3328 109.265 85.5392 109.821 86.9998C110.378 88.4604 114.969 89.8517 114.969 89.8517C114.969 89.8517 142.723 89.2952 143.906 88.3212C145.088 87.3473 144.741 81.7825 144.01 78.8956C143.28 76.0087 142.48 75.2089 141.854 75.0348C141.229 74.8614 112.365 77.3328 112.365 77.3328Z" fill="#49493D"/>
<path fill-rule="evenodd" clip-rule="evenodd" d="M16.6375 87.069C19.3767 87.069 21.6108 84.9754 21.6108 82.4083C21.6108 79.8412 19.3767 77.7476 16.6375 77.7476C13.8983 77.7476 11.6636 79.8412 11.6636 82.4083C11.6643 84.9754 13.8983 87.069 16.6375 87.069Z" fill="#F3F3F3"/>
<path fill-rule="evenodd" clip-rule="evenodd" d="M136.586 87.069C139.325 87.069 141.559 84.9754 141.559 82.4083C141.559 79.8412 139.325 77.7476 136.586 77.7476C133.847 77.7476 131.612 79.8412 131.612 82.4083C131.613 84.9754 133.847 87.069 136.586 87.069Z" fill="#F3F3F3"/>
<path fill-rule="evenodd" clip-rule="evenodd" d="M20.5544 29.56C20.5544 29.56 7.70253 36.5853 7.07675 37.5942C7.07675 37.5942 7.68077 40.8378 8.16741 43.2374C8.42195 44.4923 8.70483 45.7373 8.91716 46.64C9.3649 46.3663 9.74274 46.454 10.2228 46.4811C12.9277 46.3894 39.7129 50.4322 40.4897 50.789C40.4936 50.7896 40.5002 50.7903 40.5081 50.7916C40.644 50.6063 33.5863 40.2609 29.1933 35.4558C24.741 30.586 20.5544 29.56 20.5544 29.56Z" fill="#FECC2A"/>
<path fill-rule="evenodd" clip-rule="evenodd" d="M132.669 29.56C132.669 29.56 145.521 36.5853 146.147 37.5942C146.147 37.5942 145.543 40.8378 145.056 43.2374C144.802 44.4923 144.519 45.7373 144.306 46.64C143.859 46.3663 143.481 46.454 143.001 46.4811C140.296 46.3894 113.511 50.4322 112.734 50.789C112.73 50.7896 112.724 50.7903 112.715 50.7916C112.58 50.6063 119.637 40.2609 124.031 35.4558C128.482 30.586 132.669 29.56 132.669 29.56Z" fill="#FECC2A"/>
<path fill-rule="evenodd" clip-rule="evenodd" d="M143.001 46.4811C143.626 46.4461 144.079 46.307 144.74 47.0027C145.4 47.6983 146.235 58.5146 145.801 58.8278C145.366 59.141 138.201 60.08 137.419 60.1842C136.636 60.2884 119.646 57.6106 119.229 57.4365C118.812 57.2624 112.377 51.002 112.725 50.7936C113.266 50.4692 140.283 46.3887 143.001 46.4811Z" fill="#49493D"/>
<path fill-rule="evenodd" clip-rule="evenodd" d="M144.294 47.3746C144.362 47.5091 144.428 47.821 144.458 47.9562C144.552 48.3874 144.622 48.8286 144.685 49.2651C144.86 50.4731 144.984 51.697 145.088 52.9129C145.193 54.1408 145.279 55.3778 145.322 56.6102C145.337 57.0547 145.348 57.5024 145.339 57.9475C145.337 58.0517 145.335 58.233 145.322 58.3854C145.235 58.4065 145.144 58.4249 145.078 58.4394C144.765 58.5074 144.449 58.5647 144.134 58.6195C143.265 58.7718 142.39 58.9037 141.517 59.0323C140.132 59.236 138.745 59.4239 137.357 59.6092C137.268 59.6119 137.154 59.598 137.067 59.5901C136.846 59.5703 136.626 59.5446 136.405 59.5182C135.71 59.4352 135.015 59.3395 134.322 59.2419C132.347 58.965 130.373 58.6669 128.401 58.363C126.404 58.0557 124.407 57.7411 122.413 57.4134C121.721 57.3 121.029 57.1853 120.337 57.0639C120.123 57.0263 119.908 56.9881 119.695 56.9472C119.622 56.9334 119.54 56.9195 119.465 56.9024C119.353 56.8213 119.222 56.6986 119.126 56.6135C118.864 56.3814 118.607 56.1421 118.351 55.9027C117.637 55.2341 116.935 54.5503 116.241 53.8612C115.566 53.1899 114.893 52.51 114.245 51.8124C114.051 51.6034 113.857 51.3917 113.67 51.1747C113.941 51.1233 114.214 51.0752 114.485 51.0277C115.64 50.8253 116.798 50.638 117.955 50.4533C121.302 49.9192 124.654 49.4154 128.006 48.9281C131.209 48.4626 134.417 48.0089 137.627 47.6014C138.79 47.4537 139.955 47.3106 141.121 47.1919C141.514 47.1517 141.908 47.1141 142.302 47.0871C142.523 47.0719 142.761 47.0541 142.982 47.0614L143.007 47.062L143.033 47.0607C143.63 47.0257 143.849 46.9183 144.294 47.3746Z" fill="white"/>
<path d="M137.418 57.4805C139.927 56.9518 141.532 54.4892 141.004 51.9801C140.475 49.471 138.012 47.8656 135.503 48.3944C132.994 48.9231 131.389 51.3857 131.917 53.8948C132.446 56.4039 134.909 58.0093 137.418 57.4805Z" fill="#F3F3F3"/>
<path d="M104.835 51.4339H48.4665L46.6004 52.7527H106.495L104.835 51.4339Z" fill="#D0D2D3" stroke="#231F20" stroke-width="0.5" stroke-miterlimit="22.9256"/>
<path d="M109.132 55.3903H44.0402L43.8507 55.72L44.0402 56.7092H109.3L109.462 55.72L109.132 55.3903Z" fill="#D0D2D3" stroke="#231F20" stroke-width="0.5" stroke-miterlimit="22.9256"/>
<path d="M108.642 59.3468H44.5626L44.8398 60.6656H108.294L108.642 59.3468Z" fill="#D0D2D3" stroke="#231F20" stroke-width="0.5" stroke-miterlimit="22.9256"/>
<path d="M107.484 63.3033H45.4992L45.9155 64.6221H107.162L107.484 63.3033Z" fill="#D0D2D3" stroke="#231F20" stroke-width="0.5" stroke-miterlimit="22.9256"/>
<path d="M106.605 67.2597H46.4883L46.818 68.5785H106.282L106.605 67.2597Z" fill="#D0D2D3" stroke="#231F20" stroke-width="0.5" stroke-miterlimit="22.9256"/>
<path d="M105.505 71.2162H47.6641L48.0598 72.535H105.176L105.505 71.2162Z" fill="#D0D2D3" stroke="#231F20" stroke-width="0.5" stroke-miterlimit="22.9256"/>
<path d="M104.401 75.1726H48.7235L49.126 76.4914H103.994L104.401 75.1726Z" fill="#D0D2D3" stroke="#231F20" stroke-width="0.5" stroke-miterlimit="22.9256"/>
<path d="M103.197 79.1291H50.0337L50.4448 80.4479H102.781L103.197 79.1291Z" fill="#D0D2D3" stroke="#231F20" stroke-width="0.5" stroke-miterlimit="22.9256"/>
<path d="M101.879 83.0855H51.4339L51.7636 83.7449L52.423 84.4043H100.89L101.549 83.7449L101.879 83.0855Z" fill="#D0D2D3" stroke="#231F20" stroke-width="0.5" stroke-miterlimit="22.9256"/>
</g>
<defs>
<clipPath id="clip0_466_6653">
<rect width="153" height="105.023" fill="white"/>
</clipPath>
</defs>
</svg>
