<svg width="46" height="159" viewBox="0 0 46 159" fill="none" xmlns="http://www.w3.org/2000/svg">
<path d="M25.661 23.4543C25.661 23.4543 16.0212 22.8206 10.5199 40.3735C5.01862 57.9265 11.4329 56.4886 14.2492 54.2905C17.0651 52.0928 25.661 23.4543 25.661 23.4543Z" fill="#FECC2A"/>
<path d="M18.8925 53.9255C20.9294 45.2399 17.881 43.713 18.6661 34.1491C19.2514 27.0136 24.5011 22.7681 28.3788 22.7259C30.3177 22.7047 28.9154 22.3207 30.8306 22.625C34.7807 23.2535 38.4228 23.5959 39.8605 33.45C41.0825 42.9676 35.9319 44.8821 38.8079 53.3258C40.9269 59.5476 45.199 71.1258 44.6208 74.177C43.8825 78.0745 33.8247 76.1332 31.8452 76.4411C29.3539 76.8282 26.8497 76.8575 24.3568 76.4138C23.1769 76.2037 15.0846 76.5363 15.2459 74.7623C15.2459 74.7561 15.9688 66.3928 18.8925 53.9255Z" fill="#F6CAAD"/>
<path d="M15.0939 76.0347C15.0287 76.706 15.0256 77.3804 15.0564 78.0538C15.269 82.7307 14.3745 102.392 13.6433 114.465C12.7643 128.973 9.73431 152.771 9.73431 152.771L15.2433 153.013C15.2433 153.013 19.0635 138.835 23.029 115.373C26.6664 93.8503 33.3661 80.3153 34.3207 71.1684C35.2598 62.1641 17.0928 55.4244 15.0939 76.0347Z" fill="#F6CAAD"/>
<path d="M44.8442 76.2885C44.8924 76.9614 44.8786 77.6352 44.8308 78.3081C44.5002 82.9783 43.0506 102.674 41.3002 114.641C39.3034 128.29 36.5014 152.741 36.5014 152.741L30.4363 152.067C30.4363 152.067 31.074 134.087 30.9641 112.258C30.8548 90.4294 26.4698 80.1057 25.7463 70.9373C25.0341 61.9114 43.3649 55.6339 44.8442 76.2885Z" fill="#F6CAAD"/>
<path d="M8.71919 154.428C8.97181 154.986 8.12562 155.765 8.12562 155.765C8.12562 155.765 9.93251 155.784 11.7522 155.765C13.572 155.746 12.6226 154.678 14.26 154.629C14.2169 153.983 14.1522 153.512 14.1522 153.512L8.79004 152.531C8.79004 152.531 8.34076 152.929 7.63115 153.417C8.03525 153.689 8.5672 154.094 8.71919 154.428Z" fill="#F6CAAD"/>
<path d="M14.26 154.629C12.6226 154.678 13.572 155.746 11.7522 155.765C9.932 155.784 8.12562 155.765 8.12562 155.765C8.12562 155.765 8.97182 154.986 8.71919 154.428C8.56772 154.094 8.03525 153.689 7.63167 153.417C6.79369 153.992 5.59217 154.691 4.32031 155.011C1.9712 155.601 0.49755 155.373 0 158.31C2.36708 159.345 5.98035 159.002 8.28736 158.648C10.5939 158.294 12.8208 159.173 13.7476 158.224C14.3478 157.609 14.3401 155.818 14.26 154.629Z" fill="#FED16C"/>
<path d="M35.7328 154.428C35.4802 154.986 36.3264 155.765 36.3264 155.765C36.3264 155.765 34.5195 155.784 32.6997 155.765C30.88 155.746 31.8289 154.678 30.192 154.629C30.2351 153.983 30.2998 153.512 30.2998 153.512L35.6619 152.531C35.6619 152.531 36.1112 152.929 36.8208 153.417C36.4167 153.689 35.8843 154.094 35.7328 154.428Z" fill="#F6CAAD"/>
<path d="M30.1837 154.629C31.8206 154.678 30.8717 155.746 32.6914 155.765C34.5112 155.784 36.3181 155.765 36.3181 155.765C36.3181 155.765 35.4719 154.986 35.7245 154.428C35.876 154.094 36.4084 153.689 36.812 153.417C37.65 153.992 38.8515 154.691 40.1234 155.011C42.4725 155.601 43.9461 155.373 44.4437 158.31C42.0766 159.345 38.4633 159.002 36.1563 158.648C33.8498 158.294 31.6229 159.173 30.6961 158.224C30.0959 157.609 30.1041 155.818 30.1837 154.629Z" fill="#FED16C"/>
<path d="M16.6841 64.6634C16.6841 64.6634 28.4836 64.6469 42.6378 64.6634C50.2623 82.7389 42.1351 151.738 42.1351 151.738C32.5004 155.229 26.8518 153.014 26.8518 153.014L28.327 93.0605L20.4863 151.731C20.4863 151.731 13.7866 155.949 5.681 151.738C9.05859 96.0577 16.6841 64.6634 16.6841 64.6634Z" fill="#49493D"/>
<path d="M24.4985 23.2793C24.4985 23.2793 18.1901 25.3328 17.0107 37.4974C15.8312 49.662 16.6584 56.2122 15.7486 61.9331C14.8387 67.654 12.1543 70.419 13.4328 72.297C14.7114 74.1754 12.0418 76.5868 13.8539 78.8776C24.0185 81.9149 40.4427 80.8982 45.3797 78.8776C46.8436 74.2866 45.239 73.8722 45.3797 71.4676C45.5204 69.063 42.2121 49.8272 40.3103 38.5512C38.4084 27.2751 38.3195 24.6059 33.2778 22.7073C27.6574 25.0373 24.4985 23.2793 24.4985 23.2793Z" fill="#FED16C"/>
<path d="M23.5877 14.0464C23.9856 12.6215 23.0223 11.0848 21.5471 11.0606C21.5328 11.0606 21.5184 11.0601 21.504 11.0601C20.0509 11.0601 20.0648 15.1985 22.134 15.1985C23.0131 15.199 23.4156 14.6626 23.5877 14.0464Z" fill="#F0B498"/>
<path d="M34.5605 14.0464C34.1625 12.6215 35.1258 11.0848 36.601 11.0606C36.6154 11.0606 36.6297 11.0601 36.6446 11.0601C38.0978 11.0601 38.0839 15.1985 36.0146 15.1985C35.135 15.199 34.7325 14.6626 34.5605 14.0464Z" fill="#F0B498"/>
<path d="M33.2778 22.1508C32.3443 20.3758 32.7156 17.6675 32.7156 17.6675L29.0735 17.1058L25.432 17.6675C25.432 17.6675 25.6148 18.9905 25.4074 20.3933C26.7357 21.7472 29.2892 23.3812 33.2778 22.1508Z" fill="#F0B498"/>
<path d="M33.2778 22.1508C29.2892 23.3812 26.7357 21.7472 25.4074 20.3933C25.2836 21.2293 25.0213 22.0937 24.498 22.7233C23.7977 23.566 24.9417 24.1508 26.2603 24.5256C28.0959 25.0471 30.0507 25.0471 31.8863 24.5256C33.2054 24.1513 34.3494 23.566 33.6491 22.7233C33.5053 22.5493 33.3851 22.3547 33.2778 22.1508Z" fill="#F6CAAD"/>
<path d="M32.0912 15.5752C32.0912 14.1081 33.2778 12.9189 34.7407 12.9189C35.3045 12.9189 35.8251 13.0986 36.2544 13.3992C36.4942 12.4453 36.6369 11.3514 36.6369 10.0834C36.6369 4.61373 34.0552 2.2117 31.9084 1.15997C30.1267 0.287395 28.0199 0.287395 26.2387 1.15997C24.0919 2.2117 21.5102 4.61373 21.5102 10.0834C21.5102 11.3514 21.6529 12.4453 21.8927 13.3992C22.3225 13.0981 22.8426 12.9189 23.4064 12.9189C24.8698 12.9189 26.0559 14.1081 26.0559 15.5752C26.0559 16.5848 25.488 17.4517 24.6613 17.9016C24.9663 18.1456 25.2744 18.3675 25.5825 18.5472C27.7524 19.8125 30.3942 19.8125 32.5646 18.5472C32.8727 18.3675 33.1808 18.1456 33.4858 17.9016C32.6596 17.4517 32.0912 16.5848 32.0912 15.5752Z" fill="#F6CAAD"/>
<path d="M26.0564 15.5759C26.0564 14.1087 24.8703 12.9195 23.4069 12.9195C22.8431 12.9195 22.323 13.0992 21.8932 13.3998C22.4395 15.5723 23.5096 16.9802 24.6618 17.9022C25.4885 17.4523 26.0564 16.5854 26.0564 15.5759Z" fill="#F0B498"/>
<path d="M36.2549 13.3998C35.8251 13.0987 35.305 12.9195 34.7412 12.9195C33.2778 12.9195 32.0917 14.1087 32.0917 15.5759C32.0917 16.5854 32.6596 17.4523 33.4863 17.9022C34.6385 16.9807 35.708 15.5723 36.2549 13.3998Z" fill="#F0B498"/>
<path d="M30.3266 16.6942C30.3266 16.6942 29.6337 17.245 28.4798 17.0843L28.4762 17.0838" stroke="#244660" stroke-width="0.5519" stroke-miterlimit="10" stroke-linecap="round" stroke-linejoin="round"/>
<path d="M25.7447 12.3517C25.7447 12.6719 26.0035 12.9314 26.3229 12.9314C26.6423 12.9314 26.9011 12.6719 26.9011 12.3517C26.9011 12.0315 26.6423 11.772 26.3229 11.772C26.004 11.7715 25.7447 12.031 25.7447 12.3517Z" fill="#244660"/>
<path d="M31.3508 12.3517C31.3508 12.6719 31.6096 12.9314 31.9289 12.9314C32.2483 12.9314 32.5071 12.6719 32.5071 12.3517C32.5071 12.0315 32.2483 11.772 31.9289 11.772C31.6101 11.7715 31.3508 12.031 31.3508 12.3517Z" fill="#244660"/>
<path d="M29.1264 15.0013V11.7715C29.1264 11.7715 26.8538 15.0013 29.1264 15.0013Z" fill="#F0B498"/>
<path d="M25.5347 10.529C25.5347 10.529 25.9327 9.84671 26.9016 9.84671" stroke="#244660" stroke-width="0.5519" stroke-miterlimit="10" stroke-linecap="round" stroke-linejoin="round"/>
<path d="M32.6129 10.529C32.6129 10.529 32.2149 9.84671 31.246 9.84671" stroke="#244660" stroke-width="0.5519" stroke-miterlimit="10" stroke-linecap="round" stroke-linejoin="round"/>
<path d="M34.4701 23.218C34.4701 23.218 44.3518 26.9199 42.1926 45.1915C40.034 63.4631 34.771 59.5157 33.1012 56.3528C31.4314 53.1904 34.4701 23.218 34.4701 23.218Z" fill="#FECC2A"/>
<path d="M36.4182 59.007C36.4182 59.007 33.0268 60.1884 28.8353 50.6287C24.6444 41.0689 23.2955 35.4376 23.2955 35.4376L26.6259 34.0147C26.6259 34.0147 33.4678 42.4558 36.7314 49.4833C39.995 56.5112 38.1029 59.3055 36.4182 59.007Z" fill="#FECC2A"/>
<path d="M10.1097 54.9329C10.1097 54.9329 6.92771 53.2654 11.0016 43.6547C15.0759 34.0445 18.2435 29.2019 18.2435 29.2019L21.559 30.6592C21.559 30.6592 20.1141 41.4391 17.2438 48.6374C14.3735 55.8353 11.0473 56.3681 10.1097 54.9329Z" fill="#FECC2A"/>
<path d="M31.8648 0.495976C31.1557 0.516568 30.4512 0.494947 29.7662 0.31065C28.3105 -0.0816231 25.7345 -0.404914 23.6775 1.32943C20.6327 3.89671 23.3807 4.3976 19.9456 7.77929C16.5105 11.161 21.5708 14.73 23.9748 11.3484C26.3789 7.96719 29.9341 11.5991 33.2778 5.9008C34.4357 10.5345 36.6374 11.9749 36.6374 11.9749C36.6374 11.9749 38.8993 10.2843 37.6043 5.7129C36.525 1.90342 33.6984 0.441923 31.8648 0.495976Z" fill="#244660"/>
<path d="M23.2955 23.8316C23.2955 23.8316 26.9308 28.454 35.2316 24.07C33.6496 22.7228 32.6257 20.6239 33.2778 19.497C33.9304 18.3702 32.5646 18.5478 31.9295 19.2386C30.2725 21.0394 27.0341 20.1153 25.5352 18.8C24.0364 17.4852 24.4416 19.9269 24.286 20.9915C24.1299 22.0561 23.2955 23.8316 23.2955 23.8316Z" fill="#FECC2A"/>
<path d="M25.0505 27.7451C24.5057 27.2715 22.0863 27.413 22.0863 27.413L23.6359 26.3567C23.6359 26.3567 24.9761 27.6195 25.2713 27.413C25.7863 27.0532 24.1448 24.9724 23.5271 25.0815C22.9094 25.1907 19.846 25.4208 19.0466 26.2584C18.2471 27.0964 16.6846 31.0671 16.6846 31.0671L19.5189 33.326C22.0991 32.2331 22.2557 29.8171 22.2557 29.8171C22.2557 29.8171 26.4343 29.9628 26.4343 29.4892C26.4338 29.0161 25.5953 28.2187 25.0505 27.7451Z" fill="#F6CAAD"/>
<path d="M20.8724 34.6407L25.6919 33.3368C25.9753 33.2601 26.1427 32.9677 26.0662 32.684L23.3469 22.5838C23.2703 22.3001 22.9787 22.1318 22.6958 22.2085L17.8764 23.5124C17.5929 23.5892 17.4255 23.8816 17.502 24.1652L20.2214 34.266C20.2979 34.5496 20.5895 34.7175 20.8724 34.6407Z" fill="#49493D"/>
<path d="M26.3691 30.4554C25.9075 28.6279 25.5912 28.3113 25.2025 28.579C24.8138 28.8472 25.3483 32.0827 25.3483 32.0827C25.3483 32.0827 21.7027 30.4796 20.7307 29.8948C19.7587 29.31 19.3213 29.3589 19.1754 30.0899C19.1041 30.4466 19.6591 30.93 20.2455 31.3311C19.7069 31.0793 19.1734 30.9475 19.0481 31.3326C18.7626 32.2098 19.5159 32.4533 19.5159 32.4533C19.5159 32.4533 18.9326 32.9161 19.5159 33.9884C19.3213 34.6222 19.6858 34.9629 19.9292 35.4015C20.1726 35.8402 23.1009 37.3753 25.6954 37.4973L27.6096 35.6698C27.6086 35.6698 26.8307 32.2829 26.3691 30.4554Z" fill="#F6CAAD"/>
<path d="M25.661 38.1717C25.661 38.1717 24.3291 39.7402 26.4338 42.8851C28.5385 46.03 27.8366 50.5205 29.5475 54.5298C31.2578 58.539 35.058 60.9446 38.5167 58.6996C41.9754 56.4546 41.6704 48.8665 41.6704 48.8665" stroke="#244660" stroke-width="0.5519" stroke-miterlimit="10" stroke-linecap="round" stroke-linejoin="round"/>
<path d="M28.3952 35.6054C28.3952 35.6054 31.1613 35.9611 31.9294 39.5122C32.6971 43.0632 37.1257 48.4356 37.5509 52.6055" stroke="#244660" stroke-width="0.5519" stroke-miterlimit="10" stroke-linecap="round" stroke-linejoin="round"/>
<path d="M35.7363 24.9158C35.7363 24.9158 33.6501 30.42 34.1728 44.5552" stroke="#244660" stroke-width="0.5519" stroke-miterlimit="10" stroke-linecap="round" stroke-linejoin="round"/>
<path d="M20.3662 37.4973C20.3662 37.4973 19.5595 44.9366 17.0107 49.9337" stroke="#244660" stroke-width="0.5519" stroke-miterlimit="10" stroke-linecap="round" stroke-linejoin="round"/>
<path d="M16.0613 31.5962C16.0613 31.5962 14.3021 31.8443 13.0939 36.7282C11.8857 41.612 9.7338 46.534 9.7338 46.534" stroke="#244660" stroke-width="0.5519" stroke-miterlimit="10" stroke-linecap="round" stroke-linejoin="round"/>
<path d="M24.0986 23.4512C24.0986 23.4512 27.4038 26.6126 33.8093 23.4512" stroke="#244660" stroke-width="0.5519" stroke-miterlimit="10" stroke-linecap="round" stroke-linejoin="round"/>
<path d="M14.4618 72.9728C14.4618 72.9728 15.4713 74.8286 22.0447 76.3065" stroke="#244660" stroke-width="0.5519" stroke-miterlimit="10" stroke-linecap="round" stroke-linejoin="round"/>
<path d="M16.0613 75.0577C16.0613 75.0577 19.1005 77.1426 24.6192 77.784" stroke="#244660" stroke-width="0.5519" stroke-miterlimit="10" stroke-linecap="round" stroke-linejoin="round"/>
<path d="M44.8745 73.5339C44.8745 73.5339 41.5359 76.5006 29.9588 77.784" stroke="#244660" stroke-width="0.5519" stroke-miterlimit="10" stroke-linecap="round" stroke-linejoin="round"/>
<path d="M37.0164 48.8665C37.0164 48.8665 38.2569 49.4523 38.5162 51.7503" stroke="#244660" stroke-width="0.5519" stroke-miterlimit="10" stroke-linecap="round" stroke-linejoin="round"/>
<path d="M16.4849 32.2103L18.9829 34.2546" stroke="#244660" stroke-width="0.5519" stroke-miterlimit="10" stroke-linecap="round" stroke-linejoin="round"/>
<path d="M26.3003 38.1717C26.3003 38.1717 27.4797 37.8767 28.3953 36.1804" stroke="#244660" stroke-width="0.5519" stroke-miterlimit="10" stroke-linecap="round" stroke-linejoin="round"/>
<path d="M21.5102 6.35537C21.5102 6.35537 17.6972 8.92317 18.6019 11.456C19.5066 13.9887 22.6829 13.1568 23.6775 11.456" stroke="#244660" stroke-width="0.5519" stroke-miterlimit="10" stroke-linecap="round" stroke-linejoin="round"/>
<path d="M32.0912 0.757618C32.0912 0.757618 36.7088 0.379759 38.0043 5.5205C39.2998 10.6612 36.6369 11.6064 36.6369 11.6064" stroke="#244660" stroke-width="0.5519" stroke-miterlimit="10" stroke-linecap="round" stroke-linejoin="round"/>
<path d="M7.14952 152.417C7.14952 152.417 12.4896 102.897 16.0618 79.4545" stroke="#BDBDBD" stroke-width="0.5519" stroke-miterlimit="10"/>
<path d="M9.7338 153.231L18.2532 79.8895" stroke="#BDBDBD" stroke-width="0.5519" stroke-miterlimit="10"/>
<path d="M13.0939 153.605L21.559 80.3575" stroke="#BDBDBD" stroke-width="0.5519" stroke-miterlimit="10"/>
<path d="M16.5126 153.231L24.6192 80.6267" stroke="#BDBDBD" stroke-width="0.5519" stroke-miterlimit="10"/>
<path d="M19.0928 152.417L27.3796 80.7935" stroke="#BDBDBD" stroke-width="0.5519" stroke-miterlimit="10"/>
<path d="M40.4386 152.308C40.4386 152.308 45.6478 91.3525 43.0394 79.5791" stroke="#BDBDBD" stroke-width="0.5519" stroke-miterlimit="10"/>
<path d="M37.7938 153.014C37.7938 153.014 42.1947 99.2221 40.4386 80.0635" stroke="#BDBDBD" stroke-width="0.5519" stroke-miterlimit="10"/>
<path d="M35.3004 153.464C35.3004 153.464 39.8553 90.7095 37.7943 80.6267" stroke="#BDBDBD" stroke-width="0.5519" stroke-miterlimit="10"/>
<path d="M32.8917 153.706C32.8917 153.706 36.8762 87.3134 35.0477 80.6267" stroke="#BDBDBD" stroke-width="0.5519" stroke-miterlimit="10"/>
<path d="M30.2915 153.512L32.8917 80.7935" stroke="#BDBDBD" stroke-width="0.5519" stroke-miterlimit="10"/>
<path d="M27.5752 153.231L30.2915 80.7914" stroke="#BDBDBD" stroke-width="0.5519" stroke-miterlimit="10"/>
<path d="M17.0107 59.5613C17.0107 59.5613 18.4525 63.8712 25.2451 67.3301" stroke="#244660" stroke-width="0.5519" stroke-miterlimit="10" stroke-linecap="round" stroke-linejoin="round"/>
</svg>
