<svg width="375" height="245" viewBox="0 0 375 245" fill="none" xmlns="http://www.w3.org/2000/svg">
<g clip-path="url(#clip0_466_5969)">
<path d="M100.775 79.9107H67.237V213.073H100.775V79.9107Z" fill="#BDBDBD"/>
<path d="M95.2947 70.3644H72.7169V126.323H95.2947V70.3644Z" fill="#BDBDBD"/>
<path d="M90.2672 64.3085H77.7434V95.3481H90.2672V64.3085Z" fill="#BDBDBD"/>
<path d="M88.2723 80.2585H79.7383V59.1056H82.8174H85.8674H88.2723V80.2585Z" fill="#BDBDBD"/>
<path d="M83.4433 71.0467H82.5177V49.8938H82.8514H83.1826H83.4433V71.0467Z" fill="#BDBDBD"/>
<path d="M85.493 63.7346H84.5674V42.5817H84.9019H85.2323H85.493V63.7346Z" fill="#BDBDBD"/>
<path d="M101.669 79.5704H66.342V80.9881H101.669V79.5704Z" fill="#BDBDBD"/>
<path d="M96.1182 69.682H71.8925V71.0476H96.1182V69.682Z" fill="#BDBDBD"/>
<path d="M90.7919 63.7346H76.8311V64.7822H90.7919V63.7346Z" fill="#BDBDBD"/>
<path opacity="0.29" d="M75.8424 72.635H74.7931V78.4988H75.8424V72.635Z" fill="#BDBDBD"/>
<path opacity="0.29" d="M78.7471 72.635H77.6969V78.4988H78.7471V72.635Z" fill="#BDBDBD"/>
<path opacity="0.29" d="M81.6511 72.635H80.6009V78.4988H81.6511V72.635Z" fill="#BDBDBD"/>
<path opacity="0.29" d="M84.5558 72.635H83.5057V78.4988H84.5558V72.635Z" fill="#BDBDBD"/>
<path opacity="0.29" d="M87.4596 72.635H86.4094V78.4988H87.4596V72.635Z" fill="#BDBDBD"/>
<path opacity="0.29" d="M90.3636 72.635H89.3134V78.4988H90.3636V72.635Z" fill="#BDBDBD"/>
<path opacity="0.29" d="M93.2683 72.635H92.2182V78.4988H93.2683V72.635Z" fill="#BDBDBD"/>
<path d="M72.7168 85.2205H70.1807V92.1773H72.7168V85.2205Z" fill="#BDBDBD"/>
<path opacity="0.29" d="M77.7393 85.2205H75.2032V92.1773H77.7393V85.2205Z" fill="#BDBDBD"/>
<path d="M82.7618 85.2205H80.2256V92.1773H82.7618V85.2205Z" fill="#BDBDBD"/>
<path d="M87.7851 85.2205H85.249V92.1773H87.7851V85.2205Z" fill="#BDBDBD"/>
<path d="M92.8076 85.2205H90.2714V92.1773H92.8076V85.2205Z" fill="#BDBDBD"/>
<path d="M97.8308 85.2205H95.2946V92.1773H97.8308V85.2205Z" fill="#BDBDBD"/>
<path d="M72.7168 96.0636H70.1807V103.02H72.7168V96.0636Z" fill="#BDBDBD"/>
<path d="M77.7393 96.0636H75.2032V103.02H77.7393V96.0636Z" fill="#BDBDBD"/>
<path d="M82.7618 96.0636H80.2256V103.02H82.7618V96.0636Z" fill="#BDBDBD"/>
<path opacity="0.29" d="M87.7851 96.0636H85.249V103.02H87.7851V96.0636Z" fill="#BDBDBD"/>
<path d="M92.8076 96.0636H90.2714V103.02H92.8076V96.0636Z" fill="#BDBDBD"/>
<path d="M97.8308 96.0636H95.2946V103.02H97.8308V96.0636Z" fill="#BDBDBD"/>
<path d="M72.7168 106.908H70.1807V113.864H72.7168V106.908Z" fill="#BDBDBD"/>
<path d="M77.7393 106.908H75.2032V113.864H77.7393V106.908Z" fill="#BDBDBD"/>
<path d="M82.7618 106.908H80.2256V113.864H82.7618V106.908Z" fill="#BDBDBD"/>
<path d="M87.7851 106.908H85.249V113.864H87.7851V106.908Z" fill="#BDBDBD"/>
<path opacity="0.29" d="M92.8076 106.908H90.2714V113.864H92.8076V106.908Z" fill="#BDBDBD"/>
<path opacity="0.29" d="M97.8308 106.908H95.2946V113.864H97.8308V106.908Z" fill="#BDBDBD"/>
<path opacity="0.29" d="M72.7168 117.751H70.1807V124.708H72.7168V117.751Z" fill="#BDBDBD"/>
<path d="M77.7393 117.751H75.2032V124.708H77.7393V117.751Z" fill="#BDBDBD"/>
<path d="M82.7618 117.751H80.2256V124.708H82.7618V117.751Z" fill="#BDBDBD"/>
<path d="M87.7851 117.751H85.249V124.708H87.7851V117.751Z" fill="#BDBDBD"/>
<path d="M92.8076 117.751H90.2714V124.708H92.8076V117.751Z" fill="#BDBDBD"/>
<path d="M97.8308 117.751H95.2946V124.708H97.8308V117.751Z" fill="#BDBDBD"/>
<path d="M72.7168 128.595H70.1807V135.551H72.7168V128.595Z" fill="#BDBDBD"/>
<path opacity="0.29" d="M77.7393 128.595H75.2032V135.551H77.7393V128.595Z" fill="#BDBDBD"/>
<path d="M82.7618 128.595H80.2256V135.551H82.7618V128.595Z" fill="#BDBDBD"/>
<path opacity="0.29" d="M87.7851 128.595H85.249V135.551H87.7851V128.595Z" fill="#BDBDBD"/>
<path d="M92.8076 128.595H90.2714V135.551H92.8076V128.595Z" fill="#BDBDBD"/>
<path d="M97.8308 128.595H95.2946V135.551H97.8308V128.595Z" fill="#BDBDBD"/>
<path d="M72.7168 139.439H70.1807V146.395H72.7168V139.439Z" fill="#BDBDBD"/>
<path d="M77.7393 139.439H75.2032V146.395H77.7393V139.439Z" fill="#BDBDBD"/>
<path d="M82.7618 139.439H80.2256V146.395H82.7618V139.439Z" fill="#BDBDBD"/>
<path d="M87.7851 139.439H85.249V146.395H87.7851V139.439Z" fill="#BDBDBD"/>
<path d="M92.8076 139.439H90.2714V146.395H92.8076V139.439Z" fill="#BDBDBD"/>
<path opacity="0.29" d="M97.8308 139.439H95.2946V146.395H97.8308V139.439Z" fill="#BDBDBD"/>
<path d="M72.7168 150.282H70.1807V157.239H72.7168V150.282Z" fill="#BDBDBD"/>
<path opacity="0.29" d="M77.7393 150.282H75.2032V157.239H77.7393V150.282Z" fill="#BDBDBD"/>
<path opacity="0.29" d="M82.7618 150.282H80.2256V157.239H82.7618V150.282Z" fill="#BDBDBD"/>
<path d="M87.7851 150.282H85.249V157.239H87.7851V150.282Z" fill="#BDBDBD"/>
<path d="M92.8076 150.282H90.2714V157.239H92.8076V150.282Z" fill="#BDBDBD"/>
<path d="M97.8308 150.282H95.2946V157.239H97.8308V150.282Z" fill="#BDBDBD"/>
<path d="M72.7168 161.126H70.1807V168.083H72.7168V161.126Z" fill="#BDBDBD"/>
<path d="M77.7393 161.126H75.2032V168.083H77.7393V161.126Z" fill="#BDBDBD"/>
<path d="M82.7618 161.126H80.2256V168.083H82.7618V161.126Z" fill="#BDBDBD"/>
<path d="M87.7851 161.126H85.249V168.083H87.7851V161.126Z" fill="#BDBDBD"/>
<path opacity="0.29" d="M92.8076 161.126H90.2714V168.083H92.8076V161.126Z" fill="#BDBDBD"/>
<path d="M97.8308 161.126H95.2946V168.083H97.8308V161.126Z" fill="#BDBDBD"/>
<path d="M72.7168 171.969H70.1807V178.926H72.7168V171.969Z" fill="#BDBDBD"/>
<path opacity="0.29" d="M77.7393 171.969H75.2032V178.926H77.7393V171.969Z" fill="#BDBDBD"/>
<path d="M82.7618 171.969H80.2256V178.926H82.7618V171.969Z" fill="#BDBDBD"/>
<path d="M87.7851 171.969H85.249V178.926H87.7851V171.969Z" fill="#BDBDBD"/>
<path d="M92.8076 171.969H90.2714V178.926H92.8076V171.969Z" fill="#BDBDBD"/>
<path d="M97.8308 171.969H95.2946V178.926H97.8308V171.969Z" fill="#BDBDBD"/>
<path d="M72.7168 182.813H70.1807V189.77H72.7168V182.813Z" fill="#BDBDBD"/>
<path d="M77.7393 182.813H75.2032V189.77H77.7393V182.813Z" fill="#BDBDBD"/>
<path d="M82.7618 182.813H80.2256V189.77H82.7618V182.813Z" fill="#BDBDBD"/>
<path opacity="0.29" d="M87.7851 182.813H85.249V189.77H87.7851V182.813Z" fill="#BDBDBD"/>
<path d="M92.8076 182.813H90.2714V189.77H92.8076V182.813Z" fill="#BDBDBD"/>
<path opacity="0.29" d="M97.8308 182.813H95.2946V189.77H97.8308V182.813Z" fill="#BDBDBD"/>
<path opacity="0.29" d="M72.7168 193.657H70.1807V200.614H72.7168V193.657Z" fill="#BDBDBD"/>
<path d="M77.7393 193.657H75.2032V200.614H77.7393V193.657Z" fill="#BDBDBD"/>
<path opacity="0.29" d="M82.7618 193.657H80.2256V200.614H82.7618V193.657Z" fill="#BDBDBD"/>
<path d="M87.7851 193.657H85.249V200.614H87.7851V193.657Z" fill="#BDBDBD"/>
<path d="M92.8076 193.657H90.2714V200.614H92.8076V193.657Z" fill="#BDBDBD"/>
<path d="M97.8308 193.657H95.2946V200.614H97.8308V193.657Z" fill="#BDBDBD"/>
<path d="M23.7466 84.9762H-30.1656V197.154H23.7466V84.9762Z" fill="#BDBDBD"/>
<path d="M25.279 83.0467H-31.6973V86.2175H25.279V83.0467Z" fill="#BDBDBD"/>
<path d="M21.9343 78.989H-28.3535V94.0596H21.9343V78.989Z" fill="#BDBDBD"/>
<path d="M212.727 111.503V56.3621H203.47V41.5921H200.164V19.929H181.947V4.00883H180.326V19.929H176.757V0H175.136V19.929H163.62V56.3621H157.67V111.503H152.572V211.938H216.312V111.503H212.727Z" fill="#BDBDBD"/>
<path d="M599.6 203.649H-105.513V220.377H599.6V203.649Z" fill="#B5C3C2"/>
<path d="M309.539 216.278H278.315L290.481 153.91H309.539V216.278Z" fill="#BDBDBD"/>
<path d="M609.525 218.708H-130.811V245.085H609.525V218.708Z" fill="#BDBDBD"/>
<path d="M283.951 100.866V73.2288H273.925V62.707H268.561V53.8687H266.679V38.7169H266.193V53.8687H264.311V62.707H258.947V73.2288H248.999V100.866H246.931V151.042H231.505V208.24H246.931H262.356H285.943V100.866H283.951Z" fill="#BDBDBD"/>
<path d="M341.568 132.613H293.042V133.493H295.238V215.343H339.372V133.493H341.568V132.613Z" fill="#BDBDBD"/>
<path d="M120.289 153H77.2652V221.183H120.289V153Z" fill="#BDBDBD"/>
<path d="M70.7851 187.933H-3.20874V221.182H70.7851V187.933Z" fill="#95A9A7"/>
<path d="M52.6958 113.648H36.452V195.299H52.6958V113.648Z" fill="#95A9A7"/>
<path d="M40.8818 91.8677H40.0384V136.27H40.8818V91.8677Z" fill="#95A9A7"/>
<path d="M43.6238 95.2347H42.7804V139.637H43.6238V95.2347Z" fill="#95A9A7"/>
<path d="M47.6335 108.598H37.7048V119.54H47.6335V108.598Z" fill="#95A9A7"/>
<path d="M96.1539 165.206H67.8853V221.182H96.1539V165.206Z" fill="#95A9A7"/>
<path d="M180.328 105.969H127.263V221.182H180.328V105.969Z" fill="#BDBDBD"/>
<path d="M175.114 102.009H132.477V121.199H175.114V102.009Z" fill="#BDBDBD"/>
<path d="M184.441 108.379H123.15V109.726H184.441V108.379Z" fill="#BDBDBD"/>
<path d="M142.652 162.996H117.648V221.183H142.652V162.996Z" fill="#BDBDBD"/>
<path d="M5.01808 144.372H-52.1525V221.183H5.01808V144.372Z" fill="#959595"/>
<path d="M6.4958 141.426H-55.4872V144.372H6.4958V141.426Z" fill="#959595"/>
<path d="M473.846 195.299H175.114V221.183H473.846V195.299Z" fill="#BDBDBD"/>
<path d="M449.993 123.648C448.112 123.648 446.57 125.091 446.416 126.928L442.212 126.791C442.223 126.38 442.23 125.969 442.23 125.556C442.23 120.337 441.327 115.256 439.596 110.49L443.108 109.2C443.659 110.47 444.927 111.359 446.403 111.359C448.386 111.359 449.993 109.755 449.993 107.778C449.993 105.8 448.386 104.196 446.403 104.196C444.421 104.196 442.813 105.8 442.813 107.778C442.813 108.143 442.868 108.495 442.97 108.827L439.459 110.116C437.458 104.763 434.407 99.8166 430.41 95.5303L433.159 92.9616C433.803 93.576 434.675 93.9536 435.638 93.9536C437.62 93.9536 439.227 92.3504 439.227 90.3729C439.227 88.3954 437.62 86.7922 435.638 86.7922C433.655 86.7922 432.048 88.3954 432.048 90.3729C432.048 91.2482 432.363 92.0498 432.886 92.6726L430.138 95.2421C429.855 94.944 429.567 94.6484 429.275 94.3569C425.114 90.2057 420.269 86.9835 414.994 84.7949L416.506 81.1231C416.849 81.2315 417.214 81.2903 417.592 81.2903C419.575 81.2903 421.182 79.6871 421.182 77.7096C421.182 75.7321 419.575 74.1289 417.592 74.1289C415.61 74.1289 414.003 75.7321 414.003 77.7096C414.003 79.1687 414.878 80.4233 416.133 80.9815L414.625 84.645C409.905 82.737 404.848 81.6514 399.633 81.4634L399.796 76.4443C399.834 76.4451 399.872 76.4476 399.91 76.4476C401.892 76.4476 403.5 74.8444 403.5 72.8669C403.5 70.8894 401.892 69.2854 399.91 69.2854C397.928 69.2854 396.32 70.8886 396.32 72.8669C396.32 74.6713 397.659 76.1627 399.399 76.4112L399.234 81.4518C398.823 81.4411 398.41 81.4344 397.997 81.4344C392.975 81.4344 388.082 82.2642 383.473 83.8566L382.025 79.76C383.331 79.2242 384.25 77.9432 384.25 76.4476C384.25 74.4701 382.643 72.8669 380.66 72.8669C378.678 72.8669 377.071 74.4701 377.071 76.4476C377.071 78.4251 378.678 80.0283 380.66 80.0283C381.003 80.0283 381.334 79.9795 381.648 79.89L383.096 83.9883C377.506 85.9774 372.345 89.0952 367.895 93.2249L365.272 90.4326C365.859 89.7949 366.217 88.9453 366.217 88.0112C366.217 86.0337 364.61 84.4297 362.628 84.4297C360.645 84.4297 359.037 86.0329 359.037 88.0112C359.037 89.9887 360.644 91.5919 362.628 91.5919C363.531 91.5919 364.355 91.2582 364.986 90.7091L367.605 93.4973C367.306 93.7797 367.01 94.0662 366.718 94.3577C363.016 98.0502 360.052 102.282 357.898 106.875L354.564 105.34C354.685 104.981 354.751 104.598 354.751 104.199C354.751 102.221 353.144 100.618 351.161 100.618C349.179 100.618 347.572 102.221 347.572 104.199C347.572 106.176 349.179 107.78 351.161 107.78C352.603 107.78 353.845 106.932 354.416 105.71L357.73 107.236C355.351 112.432 354.003 118.079 353.791 123.927L349.512 123.788C349.459 121.856 347.874 120.307 345.925 120.307C343.942 120.307 342.335 121.91 342.335 123.888C342.335 125.865 343.942 127.468 345.925 127.468C347.807 127.468 349.349 126.023 349.501 124.186L353.779 124.325C353.767 124.736 353.761 125.147 353.761 125.56C353.761 130.779 354.665 135.86 356.396 140.626L352.883 141.916C352.331 140.646 351.064 139.757 349.588 139.757C347.606 139.757 345.999 141.361 345.999 143.338C345.999 145.316 347.606 146.919 349.588 146.919C351.571 146.919 353.179 145.316 353.179 143.338C353.179 142.973 353.124 142.621 353.022 142.289L356.533 141C358.534 146.353 361.585 151.3 365.582 155.586L362.833 158.154C362.189 157.541 361.317 157.162 360.355 157.162C358.372 157.162 356.765 158.766 356.765 160.744C356.765 162.721 358.372 164.325 360.355 164.325C362.337 164.325 363.945 162.721 363.945 160.744C363.945 159.869 363.63 159.067 363.107 158.444L365.855 155.875C366.138 156.173 366.426 156.468 366.718 156.76C369.52 159.556 372.633 161.93 375.979 163.851L354.333 203.65H350.447V204.788H348.545V207.048H447.447V204.788H445.545V203.65H441.66L420.013 163.851C422.897 162.195 425.608 160.203 428.096 157.894L431.604 161.628C430.851 162.284 430.374 163.248 430.374 164.325C430.374 166.302 431.982 167.905 433.964 167.905C435.946 167.905 437.554 166.302 437.554 164.325C437.554 162.347 435.946 160.744 433.964 160.744C433.204 160.744 432.5 160.98 431.919 161.382L428.387 157.622C428.686 157.34 428.982 157.053 429.274 156.762C432.976 153.069 435.94 148.838 438.095 144.244L442.002 146.043C441.931 146.323 441.893 146.617 441.893 146.92C441.893 148.897 443.5 150.5 445.482 150.5C447.465 150.5 449.072 148.897 449.072 146.92C449.072 144.942 447.465 143.339 445.482 143.339C443.944 143.339 442.633 144.304 442.121 145.66L438.263 143.883C440.642 138.688 441.99 133.04 442.202 127.192L446.407 127.328C446.459 129.261 448.044 130.812 449.994 130.812C451.977 130.812 453.585 129.209 453.585 127.232C453.583 125.251 451.975 123.648 449.993 123.648ZM441.033 125.557C441.033 125.956 441.027 126.355 441.016 126.753L428.631 126.351C428.638 126.087 428.641 125.823 428.641 125.557C428.641 121.916 427.998 118.422 426.822 115.181L438.471 110.903C440.155 115.539 441.033 120.48 441.033 125.557ZM428.033 126.332L400.405 125.436C400.396 125.257 400.367 125.082 400.32 124.915L426.261 115.387C427.413 118.564 428.042 121.988 428.042 125.557C428.043 125.816 428.04 126.075 428.033 126.332ZM367.956 124.782L395.584 125.678C395.593 125.858 395.622 126.033 395.669 126.2L369.728 135.727C368.576 132.55 367.946 129.126 367.946 125.557C367.946 125.298 367.949 125.04 367.956 124.782ZM399.886 124.062L420.046 105.219C422.661 108.038 424.74 111.357 426.122 115.015L400.182 124.542C400.103 124.37 400.002 124.209 399.886 124.062ZM399.614 123.772C399.458 123.631 399.282 123.51 399.093 123.414L409.594 97.9078C413.464 99.5292 416.925 101.937 419.774 104.928L399.614 123.772ZM398.724 123.262C398.578 123.216 398.427 123.184 398.272 123.166L399.17 95.6082C402.712 95.7448 406.098 96.4951 409.224 97.7563L398.724 123.262ZM397.874 123.152C397.705 123.161 397.541 123.186 397.383 123.228L388.194 97.2213C391.267 96.1605 394.564 95.5825 397.994 95.5825C398.254 95.5825 398.513 95.5858 398.771 95.5924L397.874 123.152ZM397.007 123.36C396.823 123.443 396.652 123.547 396.496 123.671L377.605 103.561C380.532 100.86 383.996 98.7309 387.818 97.3546L397.007 123.36ZM396.204 123.942C396.085 124.073 395.982 124.216 395.895 124.371L370.8 112.816C372.403 109.427 374.622 106.384 377.314 103.833L396.204 123.942ZM395.727 124.732C395.663 124.905 395.62 125.089 395.597 125.28L367.971 124.384C368.126 120.401 369.061 116.615 370.631 113.175L395.727 124.732ZM395.807 126.573C395.871 126.712 395.949 126.843 396.038 126.966L395.874 127.268L375.944 145.896C373.329 143.077 371.25 139.758 369.867 136.1L395.807 126.573ZM395.27 128.376L382.758 151.381C380.341 149.957 378.138 148.206 376.216 146.187L395.27 128.376ZM396.631 127.544C396.716 127.602 396.804 127.654 396.897 127.701L386.396 153.207C385.385 152.783 384.402 152.306 383.45 151.778L396.631 127.544ZM397.265 127.853C397.41 127.898 397.561 127.931 397.717 127.949L396.819 155.506C393.277 155.37 389.891 154.619 386.764 153.358L397.265 127.853ZM397.995 155.531C397.735 155.531 397.476 155.528 397.218 155.521L398.116 127.961C398.285 127.953 398.449 127.927 398.607 127.886L407.796 153.892C404.722 154.953 401.425 155.531 397.995 155.531ZM398.982 127.754C399.114 127.695 399.24 127.624 399.358 127.544L412.538 151.778C411.146 152.55 409.687 153.215 408.17 153.761L398.982 127.754ZM401.2 129.26L418.384 147.554C416.813 149.005 415.086 150.29 413.232 151.382L401.2 129.26ZM400.448 127.878L399.952 126.965C400.003 126.894 400.051 126.82 400.094 126.743L425.188 138.298C423.586 141.687 421.368 144.73 418.675 147.282L400.448 127.878ZM400.263 126.383C400.327 126.209 400.37 126.025 400.392 125.835L428.018 126.731C427.864 130.714 426.928 134.5 425.359 137.94L400.263 126.383ZM386.168 153.759L381.451 165.216C380.014 164.619 378.609 163.943 377.242 163.191L383.164 152.302C384.135 152.84 385.137 153.327 386.168 153.759ZM386.538 153.91C389.729 155.197 393.185 155.963 396.8 156.102L396.398 168.46C391.327 168.277 386.411 167.221 381.822 165.366L386.538 153.91ZM397.198 156.117C397.463 156.124 397.728 156.127 397.994 156.127C401.494 156.127 404.858 155.538 407.993 154.455L412.119 166.132C407.636 167.681 402.877 168.487 397.994 168.487C397.593 168.487 397.194 168.482 396.795 168.471L397.198 156.117ZM408.37 154.323C409.916 153.766 411.404 153.089 412.825 152.302L418.747 163.191C416.741 164.296 414.652 165.236 412.497 166.002L408.37 154.323ZM438.335 110.53L426.684 114.808C425.274 111.075 423.151 107.688 420.482 104.811L429.537 96.3477C433.422 100.515 436.389 105.324 438.335 110.53ZM428.428 95.1999C428.711 95.4823 428.989 95.7688 429.264 96.0578L420.211 104.52C417.303 101.466 413.771 99.01 409.821 97.3555L414.537 85.8987C419.668 88.0278 424.38 91.1621 428.428 95.1999ZM414.168 85.748L409.452 97.2047C406.261 95.9171 402.805 95.1511 399.19 95.0119L399.593 82.6542C404.663 82.8372 409.579 83.893 414.168 85.748ZM397.995 82.6252C398.395 82.6252 398.795 82.631 399.194 82.6418L398.791 94.9962C398.526 94.9896 398.261 94.9863 397.995 94.9863C394.495 94.9863 391.131 95.5759 387.996 96.659L383.869 84.9812C388.352 83.4318 393.111 82.6252 397.995 82.6252ZM383.493 85.112L387.62 96.7907C383.719 98.1952 380.183 100.368 377.197 103.125L368.713 94.0927C373.039 90.0781 378.058 87.0473 383.493 85.112ZM367.562 95.1999C367.845 94.9175 368.132 94.6401 368.422 94.366L376.905 103.396C374.158 106 371.892 109.106 370.258 112.565L358.983 107.374C361.079 102.907 363.962 98.7914 367.562 95.1999ZM358.815 107.735L370.088 112.926C368.485 116.437 367.53 120.301 367.373 124.366L354.985 123.964C355.192 118.278 356.503 112.786 358.815 107.735ZM354.956 125.557C354.956 125.158 354.962 124.759 354.973 124.361L367.358 124.763C367.351 125.027 367.348 125.292 367.348 125.557C367.348 129.198 367.99 132.692 369.167 135.933L357.518 140.211C355.834 135.576 354.956 130.633 354.956 125.557ZM357.654 140.585L369.305 136.306C370.715 140.04 372.838 143.427 375.507 146.304L366.452 154.767C362.567 150.6 359.6 145.79 357.654 140.585ZM367.562 155.914C367.279 155.632 367.001 155.346 366.726 155.057L375.779 146.594C377.746 148.659 379.999 150.451 382.472 151.906L376.548 162.799C373.303 160.933 370.282 158.628 367.562 155.914ZM440.751 203.649H355.238L376.671 164.241C378.076 165.014 379.52 165.708 380.997 166.321L379.486 169.993C379.143 169.885 378.778 169.826 378.399 169.826C376.417 169.826 374.809 171.429 374.809 173.406C374.809 175.384 376.417 176.987 378.399 176.987C380.381 176.987 381.989 175.384 381.989 173.406C381.989 171.947 381.114 170.693 379.858 170.135L381.367 166.471C386.086 168.379 391.144 169.465 396.359 169.653L396.237 173.408C394.292 173.452 392.729 175.037 392.729 176.987C392.729 178.965 394.336 180.568 396.32 180.568C398.303 180.568 399.909 178.965 399.909 176.987C399.909 175.116 398.47 173.58 396.635 173.42L396.757 169.665C397.169 169.677 397.581 169.682 397.995 169.682C403.016 169.682 407.909 168.853 412.518 167.26L413.809 170.911C412.587 171.483 411.741 172.72 411.741 174.155C411.741 176.133 413.348 177.736 415.33 177.736C417.313 177.736 418.92 176.133 418.92 174.155C418.92 172.178 417.313 170.574 415.33 170.574C414.928 170.574 414.54 170.641 414.179 170.764L412.895 167.129C415.109 166.342 417.255 165.376 419.317 164.242L440.751 203.649ZM419.441 162.799L413.517 151.906C415.417 150.789 417.184 149.474 418.793 147.989L427.277 157.021C424.865 159.259 422.236 161.192 419.441 162.799ZM428.428 155.914C428.145 156.197 427.857 156.474 427.568 156.748L419.085 147.718C421.834 145.114 424.098 142.008 425.732 138.549L437.007 143.741C434.91 148.207 432.027 152.323 428.428 155.914ZM437.174 143.38L425.902 138.188C427.505 134.678 428.459 130.813 428.617 126.749L441.005 127.15C440.798 132.836 439.487 138.328 437.174 143.38Z" fill="#BDBDBD"/>
<path d="M345.019 173.978H319.141V208.24H345.019V173.978Z" fill="#95A9A7"/>
<path d="M358.127 119.314H319.011V245.085H358.127V119.314Z" fill="#959595"/>
<path d="M361.05 120.059H316.088V121.334H361.05V120.059Z" fill="#959595"/>
<path d="M359.833 137.726H317.305V138.996H359.833V137.726Z" fill="#959595"/>
<path d="M359.833 154.835H317.305V156.106H359.833V154.835Z" fill="#959595"/>
<path d="M359.833 171.945H317.305V173.215H359.833V171.945Z" fill="#959595"/>
<path d="M359.833 189.054H317.305V190.324H359.833V189.054Z" fill="#959595"/>
<path d="M359.833 206.163H317.305V207.434H359.833V206.163Z" fill="#959595"/>
<path d="M359.833 223.273H317.305V224.543H359.833V223.273Z" fill="#959595"/>
<path d="M362.536 116.585H314.601V120.059H362.536V116.585Z" fill="#959595"/>
<path opacity="0.29" d="M326.596 125.465H322.532V135.513H326.596V125.465Z" fill="#959595"/>
<path d="M335.687 125.465H331.623V135.513H335.687V125.465Z" fill="#959595"/>
<path d="M344.778 125.465H340.713V135.513H344.778V125.465Z" fill="#959595"/>
<path d="M353.869 125.465H349.804V135.513H353.869V125.465Z" fill="#959595"/>
<path d="M326.596 141.892H322.532V151.94H326.596V141.892Z" fill="#959595"/>
<path opacity="0.29" d="M335.687 141.892H331.623V151.94H335.687V141.892Z" fill="#959595"/>
<path d="M344.778 141.892H340.713V151.94H344.778V141.892Z" fill="#959595"/>
<path d="M353.869 141.892H349.804V151.94H353.869V141.892Z" fill="#959595"/>
<path d="M326.596 159.002H322.532V169.049H326.596V159.002Z" fill="#959595"/>
<path d="M335.687 159.002H331.623V169.049H335.687V159.002Z" fill="#959595"/>
<path d="M344.778 159.002H340.713V169.049H344.778V159.002Z" fill="#959595"/>
<path opacity="0.29" d="M353.869 159.002H349.804V169.049H353.869V159.002Z" fill="#959595"/>
<path d="M326.596 176.111H322.532V186.158H326.596V176.111Z" fill="#959595"/>
<path opacity="0.29" d="M335.687 176.111H331.623V186.158H335.687V176.111Z" fill="#959595"/>
<path opacity="0.29" d="M344.778 176.111H340.713V186.158H344.778V176.111Z" fill="#959595"/>
<path d="M353.869 176.111H349.804V186.158H353.869V176.111Z" fill="#959595"/>
<path opacity="0.29" d="M326.596 193.22H322.532V203.268H326.596V193.22Z" fill="#959595"/>
<path d="M335.687 193.22H331.623V203.268H335.687V193.22Z" fill="#959595"/>
<path d="M344.778 193.22H340.713V203.268H344.778V193.22Z" fill="#959595"/>
<path d="M353.869 193.22H349.804V203.268H353.869V193.22Z" fill="#959595"/>
<path d="M326.596 210.33H322.532V220.377H326.596V210.33Z" fill="#959595"/>
<path d="M335.687 210.33H331.623V220.377H335.687V210.33Z" fill="#959595"/>
<path opacity="0.29" d="M344.778 210.33H340.713V220.377H344.778V210.33Z" fill="#959595"/>
<path d="M353.869 210.33H349.804V220.377H353.869V210.33Z" fill="#959595"/>
<path d="M326.596 227.439H322.532V237.486H326.596V227.439Z" fill="#959595"/>
<path opacity="0.29" d="M335.687 227.439H331.623V237.486H335.687V227.439Z" fill="#959595"/>
<path d="M344.778 227.439H340.713V237.486H344.778V227.439Z" fill="#959595"/>
<path opacity="0.29" d="M353.869 227.439H349.804V237.486H353.869V227.439Z" fill="#959595"/>
<path d="M334.784 111.79H321.48V118.322H334.784V111.79Z" fill="#959595"/>
<path d="M335.686 111.604H320.578V112.72H335.686V111.604Z" fill="#959595"/>
<path d="M262.946 245.085H210.84V125.585L262.946 112.872V245.085Z" fill="#959595"/>
<path d="M213.129 123.482H208.551V245.085H213.129V123.482Z" fill="#959595"/>
<path d="M226.156 120.055H221.578V245.085H226.156V120.055Z" fill="#959595"/>
<path d="M239.182 116.497H234.604V245.086H239.182V116.497Z" fill="#959595"/>
<path d="M252.209 113.596H247.631V245.085H252.209V113.596Z" fill="#959595"/>
<path d="M265.236 110.512H260.657V245.085H265.236V110.512Z" fill="#959595"/>
<path opacity="0.29" d="M220.391 133.687H214.315V142.922H220.391V133.687Z" fill="#959595"/>
<path opacity="0.29" d="M233.418 133.687H227.341V142.922H233.418V133.687Z" fill="#959595"/>
<path d="M246.445 133.687H240.368V142.922H246.445V133.687Z" fill="#959595"/>
<path opacity="0.29" d="M259.471 133.687H253.394V142.922H259.471V133.687Z" fill="#959595"/>
<path d="M220.391 149.767H214.315V159.002H220.391V149.767Z" fill="#959595"/>
<path d="M233.418 149.767H227.341V159.002H233.418V149.767Z" fill="#959595"/>
<path opacity="0.29" d="M246.445 149.767H240.368V159.002H246.445V149.767Z" fill="#959595"/>
<path opacity="0.29" d="M259.471 149.767H253.394V159.002H259.471V149.767Z" fill="#959595"/>
<path opacity="0.29" d="M220.391 165.848H214.315V175.083H220.391V165.848Z" fill="#959595"/>
<path opacity="0.29" d="M233.418 165.848H227.341V175.083H233.418V165.848Z" fill="#959595"/>
<path opacity="0.29" d="M246.445 165.848H240.368V175.083H246.445V165.848Z" fill="#959595"/>
<path d="M259.471 165.848H253.394V175.083H259.471V165.848Z" fill="#959595"/>
<path opacity="0.29" d="M220.391 181.929H214.315V191.164H220.391V181.929Z" fill="#959595"/>
<path d="M233.418 181.929H227.341V191.164H233.418V181.929Z" fill="#959595"/>
<path opacity="0.29" d="M246.445 181.929H240.368V191.164H246.445V181.929Z" fill="#959595"/>
<path opacity="0.29" d="M259.471 181.929H253.394V191.164H259.471V181.929Z" fill="#959595"/>
<path opacity="0.29" d="M220.391 198.009H214.315V207.244H220.391V198.009Z" fill="#959595"/>
<path opacity="0.29" d="M233.418 198.009H227.341V207.244H233.418V198.009Z" fill="#959595"/>
<path d="M246.445 198.009H240.368V207.244H246.445V198.009Z" fill="#959595"/>
<path opacity="0.29" d="M259.471 198.009H253.394V207.244H259.471V198.009Z" fill="#959595"/>
<path d="M220.391 214.09H214.315V223.325H220.391V214.09Z" fill="#959595"/>
<path d="M233.418 214.09H227.341V223.325H233.418V214.09Z" fill="#959595"/>
<path opacity="0.29" d="M246.445 214.09H240.368V223.325H246.445V214.09Z" fill="#959595"/>
<path opacity="0.29" d="M259.471 214.09H253.394V223.325H259.471V214.09Z" fill="#959595"/>
<path opacity="0.29" d="M220.391 230.171H214.315V239.406H220.391V230.171Z" fill="#959595"/>
<path d="M233.418 230.171H227.341V239.406H233.418V230.171Z" fill="#959595"/>
<path opacity="0.29" d="M246.445 230.171H240.368V239.406H246.445V230.171Z" fill="#959595"/>
<path d="M259.471 230.171H253.394V239.406H259.471V230.171Z" fill="#959595"/>
<path d="M62.1987 131.31V132.55H60.9601V136.086H82.7626V245.085H46.9844V141.774V136.086V132.55H45.6852V131.31H62.1987Z" fill="#959595"/>
<path d="M153.796 180.82H123.15V245.085H153.796V180.82Z" fill="#959595"/>
<path d="M14.4903 166.088H-10.4211V245.085H14.4903V166.088Z" fill="#959595"/>
<path d="M36.7028 182.548H9.55576V245.085H36.7028V182.548Z" fill="#959595"/>
<path d="M9.55667 162.918H-1.45789V172.371H9.55667V162.918Z" fill="#959595"/>
<path d="M40.358 181.518H11.4195V183.83H40.358V181.518Z" fill="#959595"/>
<path d="M64.2235 209.371H33.7874V245.085H64.2235V209.371Z" fill="#959595"/>
<path d="M132.478 234.788H72.7168V245.085H132.478V234.788Z" fill="#959595"/>
<path d="M238.432 234.788H178.671V245.085H238.432V234.788Z" fill="#959595"/>
<path d="M130.151 204.558H107.436L97.8309 239.937H130.151V204.558Z" fill="#959595"/>
<path d="M141.281 153.082H140.648V192.328H141.281V153.082Z" fill="#959595"/>
<path d="M144.656 166.362H143.812V189.52H144.656V166.362Z" fill="#959595"/>
<path d="M150.783 170.466H139.291V181.929H150.783V170.466Z" fill="#959595"/>
<path d="M152.572 169.575H137.351V170.602H152.572V169.575Z" fill="#959595"/>
<path d="M185.354 211.938H148.221V245.085H185.354V211.938Z" fill="#959595"/>
<path d="M202.11 175.448H178.253V239.406H202.11V175.448Z" fill="#959595"/>
<path d="M309.538 187.472H271.424V245.085H309.538V187.472Z" fill="#959595"/>
<path d="M302.927 223.856H259.472V245.085H302.927V223.856Z" fill="#959595"/>
<path d="M335.686 237.486H307.428V245.085H335.686V237.486Z" fill="#959595"/>
<path d="M396.897 223.856H350.952V245.085H396.897V223.856Z" fill="#959595"/>
<path d="M369.257 245.085H426.428V168.275H369.257V245.085Z" fill="#959595"/>
<path d="M367.779 168.275H429.762V165.328H367.779V168.275Z" fill="#959595"/>
<g opacity="0.52">
<path opacity="0.52" d="M2.03454 170.088H0.149231V171.969H2.03454V170.088Z" fill="white"/>
</g>
<path opacity="0.5" d="M131.436 113.596H130.151V120.697H131.436V113.596Z" fill="white"/>
<path opacity="0.5" d="M135.869 113.596H134.583V120.697H135.869V113.596Z" fill="white"/>
<path opacity="0.5" d="M140.301 113.596H139.015V120.697H140.301V113.596Z" fill="white"/>
<path opacity="0.5" d="M144.733 113.596H143.447V120.697H144.733V113.596Z" fill="white"/>
<path opacity="0.5" d="M149.164 113.596H147.879V120.697H149.164V113.596Z" fill="white"/>
<path opacity="0.5" d="M153.597 113.596H152.311V120.697H153.597V113.596Z" fill="white"/>
<path opacity="0.5" d="M158.029 113.596H156.743V120.697H158.029V113.596Z" fill="white"/>
<path opacity="0.5" d="M162.461 113.596H161.175V120.697H162.461V113.596Z" fill="white"/>
<path opacity="0.5" d="M166.893 113.596H165.607V120.697H166.893V113.596Z" fill="white"/>
<path opacity="0.5" d="M171.326 113.596H170.04V120.697H171.326V113.596Z" fill="white"/>
<path opacity="0.5" d="M175.757 113.596H174.471V120.697H175.757V113.596Z" fill="white"/>
<path opacity="0.5" d="M131.436 123.482H130.151V130.583H131.436V123.482Z" fill="white"/>
<path opacity="0.5" d="M135.869 123.482H134.583V130.583H135.869V123.482Z" fill="white"/>
<path opacity="0.5" d="M140.301 123.482H139.015V130.583H140.301V123.482Z" fill="white"/>
<path opacity="0.5" d="M144.733 123.482H143.447V130.583H144.733V123.482Z" fill="white"/>
<path opacity="0.5" d="M149.164 123.482H147.879V130.583H149.164V123.482Z" fill="white"/>
<path opacity="0.5" d="M153.597 123.482H152.311V130.583H153.597V123.482Z" fill="white"/>
<path opacity="0.5" d="M158.029 123.482H156.743V130.583H158.029V123.482Z" fill="white"/>
<path opacity="0.5" d="M162.461 123.482H161.175V130.583H162.461V123.482Z" fill="white"/>
<path opacity="0.5" d="M166.893 123.482H165.607V130.583H166.893V123.482Z" fill="white"/>
<path opacity="0.5" d="M171.326 123.482H170.04V130.583H171.326V123.482Z" fill="white"/>
<path opacity="0.5" d="M175.757 123.482H174.471V130.583H175.757V123.482Z" fill="white"/>
<path opacity="0.5" d="M131.436 133.368H130.151V140.469H131.436V133.368Z" fill="white"/>
<path opacity="0.5" d="M135.869 133.368H134.583V140.469H135.869V133.368Z" fill="white"/>
<path opacity="0.5" d="M140.301 133.368H139.015V140.469H140.301V133.368Z" fill="white"/>
<path opacity="0.5" d="M144.733 133.368H143.447V140.469H144.733V133.368Z" fill="white"/>
<path opacity="0.5" d="M149.164 133.368H147.879V140.469H149.164V133.368Z" fill="white"/>
<path opacity="0.5" d="M153.597 133.368H152.311V140.469H153.597V133.368Z" fill="white"/>
<path opacity="0.5" d="M158.029 133.368H156.743V140.469H158.029V133.368Z" fill="white"/>
<path opacity="0.5" d="M162.461 133.368H161.175V140.469H162.461V133.368Z" fill="white"/>
<path opacity="0.5" d="M166.893 133.368H165.607V140.469H166.893V133.368Z" fill="white"/>
<path opacity="0.5" d="M171.326 133.368H170.04V140.469H171.326V133.368Z" fill="white"/>
<path opacity="0.5" d="M175.757 133.368H174.471V140.469H175.757V133.368Z" fill="white"/>
<path opacity="0.5" d="M144.733 143.254H143.447V150.355H144.733V143.254Z" fill="white"/>
<path opacity="0.5" d="M149.164 143.254H147.879V150.355H149.164V143.254Z" fill="white"/>
<path opacity="0.5" d="M153.597 143.254H152.311V150.355H153.597V143.254Z" fill="white"/>
<path opacity="0.5" d="M158.029 143.254H156.743V150.355H158.029V143.254Z" fill="white"/>
<path opacity="0.5" d="M162.461 143.254H161.175V150.355H162.461V143.254Z" fill="white"/>
<path opacity="0.5" d="M166.893 143.254H165.607V150.355H166.893V143.254Z" fill="white"/>
<path opacity="0.5" d="M171.326 143.254H170.04V150.355H171.326V143.254Z" fill="white"/>
<path opacity="0.5" d="M175.757 143.254H174.471V150.355H175.757V143.254Z" fill="white"/>
<path opacity="0.5" d="M149.164 153.688H147.879V160.789H149.164V153.688Z" fill="white"/>
<path opacity="0.5" d="M153.597 153.688H152.311V160.789H153.597V153.688Z" fill="white"/>
<path opacity="0.5" d="M158.029 153.688H156.743V160.789H158.029V153.688Z" fill="white"/>
<path opacity="0.5" d="M162.461 153.688H161.175V160.789H162.461V153.688Z" fill="white"/>
<path opacity="0.5" d="M166.893 153.688H165.607V160.789H166.893V153.688Z" fill="white"/>
<path opacity="0.5" d="M171.326 153.688H170.04V160.789H171.326V153.688Z" fill="white"/>
<path opacity="0.5" d="M175.757 153.688H174.471V160.789H175.757V153.688Z" fill="white"/>
<path opacity="0.33" d="M218.872 131.221H215.834V138.908H218.872V131.221Z" fill="white"/>
<path opacity="0.33" d="M218.872 145.924H215.834V153.612H218.872V145.924Z" fill="white"/>
<path opacity="0.33" d="M218.872 160.627H215.834V168.314H218.872V160.627Z" fill="white"/>
<path opacity="0.33" d="M218.872 175.331H215.834V183.018H218.872V175.331Z" fill="white"/>
<path opacity="0.33" d="M218.872 189.193H215.834V196.88H218.872V189.193Z" fill="white"/>
<path opacity="0.33" d="M218.872 203.896H215.834V211.583H218.872V203.896Z" fill="white"/>
<path opacity="0.33" d="M231.899 131.221H228.861V138.908H231.899V131.221Z" fill="white"/>
<path opacity="0.33" d="M231.899 145.924H228.861V153.612H231.899V145.924Z" fill="white"/>
<path opacity="0.33" d="M231.899 160.627H228.861V168.314H231.899V160.627Z" fill="white"/>
<path opacity="0.33" d="M231.899 175.331H228.861V183.018H231.899V175.331Z" fill="white"/>
<path opacity="0.33" d="M231.899 189.193H228.861V196.88H231.899V189.193Z" fill="white"/>
<path opacity="0.33" d="M231.899 203.896H228.861V211.583H231.899V203.896Z" fill="white"/>
<path opacity="0.33" d="M244.926 131.221H241.888V138.908H244.926V131.221Z" fill="white"/>
<path opacity="0.33" d="M244.926 145.924H241.888V153.612H244.926V145.924Z" fill="white"/>
<path opacity="0.33" d="M244.926 160.627H241.888V168.314H244.926V160.627Z" fill="white"/>
<path opacity="0.33" d="M244.926 175.331H241.888V183.018H244.926V175.331Z" fill="white"/>
<path opacity="0.33" d="M244.926 189.193H241.888V196.88H244.926V189.193Z" fill="white"/>
<path opacity="0.33" d="M244.926 203.896H241.888V211.583H244.926V203.896Z" fill="white"/>
<path opacity="0.33" d="M257.952 131.221H254.914V138.908H257.952V131.221Z" fill="white"/>
<path opacity="0.33" d="M257.952 145.924H254.914V153.612H257.952V145.924Z" fill="white"/>
<path opacity="0.33" d="M257.952 160.627H254.914V168.314H257.952V160.627Z" fill="white"/>
<path opacity="0.33" d="M257.952 175.331H254.914V183.018H257.952V175.331Z" fill="white"/>
<path opacity="0.33" d="M257.952 189.193H254.914V196.88H257.952V189.193Z" fill="white"/>
<path opacity="0.33" d="M257.952 203.896H254.914V211.583H257.952V203.896Z" fill="white"/>
<path opacity="0.5" d="M169.421 24.0232H166.893V30.7506H169.421V24.0232Z" fill="white"/>
<path opacity="0.5" d="M175.659 24.0232H173.131V30.7506H175.659V24.0232Z" fill="white"/>
<path opacity="0.5" d="M181.897 24.0232H179.369V30.7506H181.897V24.0232Z" fill="white"/>
<path opacity="0.5" d="M188.135 24.0232H185.607V30.7506H188.135V24.0232Z" fill="white"/>
<path opacity="0.5" d="M169.421 35.2265H166.893V41.954H169.421V35.2265Z" fill="white"/>
<path opacity="0.5" d="M175.659 35.2265H173.131V41.954H175.659V35.2265Z" fill="white"/>
<path opacity="0.5" d="M181.897 35.2265H179.369V41.954H181.897V35.2265Z" fill="white"/>
<path opacity="0.5" d="M188.135 35.2265H185.607V41.954H188.135V35.2265Z" fill="white"/>
<path opacity="0.5" d="M169.421 46.4307H166.893V53.1581H169.421V46.4307Z" fill="white"/>
<path opacity="0.5" d="M175.659 46.4307H173.131V53.1581H175.659V46.4307Z" fill="white"/>
<path opacity="0.5" d="M195.21 24.0232H192.682V30.7506H195.21V24.0232Z" fill="white"/>
<path opacity="0.4" d="M0.149229 92.1765H-1.45795V98.3434H0.149229V92.1765Z" fill="white"/>
<path opacity="0.4" d="M5.82168 92.1765H4.21448V98.3434H5.82168V92.1765Z" fill="white"/>
<path opacity="0.4" d="M12.4571 92.1765H10.8499V98.3434H12.4571V92.1765Z" fill="white"/>
<path opacity="0.4" d="M18.1305 92.1765H16.5233V98.3434H18.1305V92.1765Z" fill="white"/>
<path opacity="0.4" d="M0.149229 102.886H-1.45795V109.052H0.149229V102.886Z" fill="white"/>
<path opacity="0.4" d="M5.82168 102.886H4.21448V109.052H5.82168V102.886Z" fill="white"/>
<path opacity="0.4" d="M12.4571 102.886H10.8499V109.052H12.4571V102.886Z" fill="white"/>
<path opacity="0.4" d="M18.1305 102.886H16.5233V109.052H18.1305V102.886Z" fill="white"/>
<path opacity="0.4" d="M0.149229 113.594H-1.45795V119.761H0.149229V113.594Z" fill="white"/>
<path opacity="0.4" d="M5.82168 113.594H4.21448V119.761H5.82168V113.594Z" fill="white"/>
<path opacity="0.4" d="M12.4571 113.594H10.8499V119.761H12.4571V113.594Z" fill="white"/>
<path opacity="0.4" d="M18.1305 113.594H16.5233V119.761H18.1305V113.594Z" fill="white"/>
<path opacity="0.5" d="M301.051 139.439H298.56V149.002H301.051V139.439Z" fill="white"/>
<path opacity="0.5" d="M308.673 139.439H306.183V149.002H308.673V139.439Z" fill="white"/>
<path opacity="0.5" d="M315.846 139.439H313.356V149.002H315.846V139.439Z" fill="white"/>
<path opacity="0.33" d="M324.564 125.465H322.532V133.851H324.564V125.465Z" fill="white"/>
<path opacity="0.33" d="M334.67 125.465H332.638V133.851H334.67V125.465Z" fill="white"/>
<path opacity="0.33" d="M344.777 125.465H342.745V133.851H344.777V125.465Z" fill="white"/>
<path opacity="0.33" d="M354.884 125.465H352.852V133.851H354.884V125.465Z" fill="white"/>
<path opacity="0.33" d="M324.564 142.724H322.532V151.109H324.564V142.724Z" fill="white"/>
<path opacity="0.33" d="M334.67 142.724H332.638V151.109H334.67V142.724Z" fill="white"/>
<path opacity="0.33" d="M344.777 142.724H342.745V151.109H344.777V142.724Z" fill="white"/>
<path opacity="0.33" d="M354.884 142.724H352.852V151.109H354.884V142.724Z" fill="white"/>
<path opacity="0.33" d="M324.564 160.411H322.532V168.796H324.564V160.411Z" fill="white"/>
<path opacity="0.33" d="M334.67 160.411H332.638V168.796H334.67V160.411Z" fill="white"/>
<path opacity="0.33" d="M344.777 160.411H342.745V168.796H344.777V160.411Z" fill="white"/>
<path opacity="0.33" d="M354.884 160.411H352.852V168.796H354.884V160.411Z" fill="white"/>
<path opacity="0.33" d="M324.564 178.099H322.532V186.485H324.564V178.099Z" fill="white"/>
<path opacity="0.33" d="M334.67 178.099H332.638V186.485H334.67V178.099Z" fill="white"/>
<path opacity="0.33" d="M344.777 178.099H342.745V186.485H344.777V178.099Z" fill="white"/>
<path opacity="0.33" d="M354.884 178.099H352.852V186.485H354.884V178.099Z" fill="white"/>
<path opacity="0.33" d="M324.564 194.165H322.532V202.55H324.564V194.165Z" fill="white"/>
<path opacity="0.33" d="M334.67 194.165H332.638V202.55H334.67V194.165Z" fill="white"/>
<path opacity="0.33" d="M344.777 194.165H342.745V202.55H344.777V194.165Z" fill="white"/>
<path opacity="0.33" d="M324.564 212.086H322.532V220.471H324.564V212.086Z" fill="white"/>
<path opacity="0.33" d="M334.67 212.086H332.638V220.471H334.67V212.086Z" fill="white"/>
<path opacity="0.33" d="M344.777 212.086H342.745V220.471H344.777V212.086Z" fill="white"/>
<path opacity="0.33" d="M354.884 194.165H352.852V202.55H354.884V194.165Z" fill="white"/>
</g>
<defs>
<clipPath id="clip0_466_5969">
<rect width="375" height="245" fill="white"/>
</clipPath>
</defs>
</svg>
