<svg width="23" height="17" viewBox="0 0 23 17" fill="none" xmlns="http://www.w3.org/2000/svg">
<path fill-rule="evenodd" clip-rule="evenodd" d="M19.2748 7.74417e-06H9.69424C8.53229 -0.0021831 7.41776 0.460555 6.59906 1.28508L0.438705 7.44043C-0.146235 8.0261 -0.146235 8.97489 0.438705 9.56056L6.59406 15.7159C7.41398 16.5417 8.53056 17.0045 9.69424 17.001H19.2748C21.331 16.9982 22.9972 15.332 23 13.2758V3.72522C22.9972 1.66898 21.331 0.00276225 19.2748 7.74417e-06ZM21.4999 13.2758C21.4999 14.5047 20.5037 15.5009 19.2748 15.5009H9.69424C8.93067 15.5001 8.19866 15.1962 7.65912 14.6558L1.49877 8.5005L7.65412 2.34514C8.19488 1.8036 8.92893 1.49955 9.69424 1.50009H19.2748C19.8649 1.50009 20.4309 1.73453 20.8482 2.15182C21.2655 2.56911 21.4999 3.13508 21.4999 3.72522V13.2758ZM16.6846 4.93029C16.9283 4.68878 17.321 4.68878 17.5647 4.93029C17.6822 5.04755 17.7483 5.20677 17.7483 5.37282C17.7483 5.53886 17.6822 5.69808 17.5647 5.81534L14.8795 8.5005L17.5647 11.1856C17.7704 11.4341 17.7533 11.7982 17.5252 12.0263C17.2972 12.2543 16.9331 12.2714 16.6846 12.0657L13.9995 9.38055L11.3143 12.0657C11.163 12.2485 10.9211 12.3298 10.6901 12.2756C10.4591 12.2213 10.2787 12.0409 10.2244 11.8099C10.1702 11.5788 10.2515 11.337 10.4343 11.1856L13.1194 8.5005L10.4343 5.81034C10.2515 5.65898 10.1702 5.41715 10.2244 5.18611C10.2787 4.95506 10.4591 4.77466 10.6901 4.72043C10.9211 4.6662 11.163 4.7475 11.3143 4.93029L13.9995 7.62045L16.6846 4.93029Z" fill="#49493D"/>
</svg>
