<svg width="75" height="150" viewBox="0 0 75 150" fill="none" xmlns="http://www.w3.org/2000/svg">
<path d="M63.1003 149.616L11.2456 149.382C5.00848 149.355 -0.0232791 144.383 8.1009e-05 138.278L0.551379 11.0133C0.579411 4.90299 5.65789 -0.0273275 11.8997 0.000113998L63.7544 0.233366C69.9915 0.260807 75.0233 5.23229 74.9999 11.338L74.4486 138.602C74.4253 144.713 69.3421 149.643 63.1003 149.616Z" fill="#49493D"/>
<path d="M63.679 4.63533L53.6249 4.58959C52.2747 4.58502 51.1767 5.6964 51.1721 7.07762L51.1627 8.86132C51.158 10.2425 50.0601 11.3539 48.7099 11.3494L29.1108 11.2625C27.7606 11.2579 26.6767 10.1328 26.6814 8.75156L26.6907 6.96786C26.6954 5.58664 25.6068 4.46611 24.2613 4.45696L20.7246 4.43867L11.9272 4.3975C7.55883 4.37921 3.99876 7.83227 3.98007 12.1086L3.44279 136.327C3.4241 140.603 6.9468 144.084 11.3151 144.102L63.067 144.335C67.4353 144.354 70.9954 140.901 71.0141 136.624L71.5514 12.4058C71.5747 8.13412 68.0474 4.65362 63.679 4.63533Z" fill="#959595"/>
<path d="M4.03073 30.7634H21.1662L33.5417 41.7705H59.2449V12.4183H71.6205" stroke="#F3F3F3"/>
<path d="M24.3077 4.51575L24.3077 144.503" stroke="#F3F3F3"/>
<path d="M59.229 41.7704V71.1227L11.5152 88.5505V115.151H4.03073" stroke="#F3F3F3"/>
<path d="M34.4461 41.7704V68.6748V89.085H58.2758V99.29H45.8844V135.472H71.6205" stroke="#F3F3F3"/>
<path d="M4 99H71V137C71 141.418 67.4183 145 63 145H12C7.58172 145 4 141.418 4 137V99Z" fill="white"/>
<rect x="8" y="110" width="27" height="27" rx="4" fill="#F3F3F3"/>
<path d="M28.5648 121.261C28.5648 121.377 28.4619 121.561 28.3195 121.591L28.4722 121.871C28.4722 121.871 28.6039 121.649 28.9249 121.745H29.0627V121.261H28.5648Z" fill="#F09400"/>
<path d="M30.233 121.212C30.2454 121.459 29.8977 121.697 29.5514 121.785C29.0416 121.914 28.5588 121.671 28.5588 121.168C28.5588 120.679 28.8992 120.426 29.3961 120.571C29.7386 120.671 30.2209 120.969 30.233 121.212Z" fill="#FFBA00"/>
<path d="M13.6683 121.261C13.6683 121.377 13.7712 121.561 13.9136 121.591L13.7609 121.871C13.7609 121.871 13.6292 121.649 13.3082 121.745H13.1705V121.261H13.6683Z" fill="#F09400"/>
<path d="M12.0003 121.212C11.988 121.459 12.3357 121.697 12.682 121.785C13.1918 121.914 13.6746 121.671 13.6746 121.168C13.6746 120.679 13.3341 120.426 12.8371 120.571C12.4947 120.671 12.0124 120.969 12.0003 121.212Z" fill="#FFBA00"/>
<path d="M27.1716 130.571C27.1716 130.808 27.3637 131 27.6006 131H28.9415C29.1784 131 29.3705 130.808 29.3705 130.571V126.459C29.3705 126.222 29.1784 126.03 28.9415 126.03H27.6006C27.3637 126.03 27.1716 126.222 27.1716 126.459V130.571Z" fill="#49493D"/>
<path d="M12.8631 130.571C12.8631 130.808 13.0552 131 13.2921 131H14.633C14.87 131 15.062 130.808 15.062 130.571V126.459C15.062 126.222 14.8699 126.03 14.633 126.03H13.2921C13.0552 126.03 12.8631 126.222 12.8631 126.459V130.571Z" fill="#49493D"/>
<path d="M29.2152 123.266C29.1236 122.655 28.6502 121.968 28.3906 121.449C28.131 120.93 27.1741 118.486 26.9399 118.059C26.7058 117.631 26.2069 117.196 25.5961 117.104C24.9853 117.013 22.2875 117 21.1167 117C19.9459 117 17.2483 117.013 16.6374 117.104C16.0266 117.196 15.5278 117.631 15.2936 118.059C15.0595 118.486 14.1025 120.93 13.8429 121.449C13.5833 121.968 13.11 122.655 13.0183 123.266C12.9267 123.877 12.9573 127.496 13.11 128.092C13.2627 128.687 13.8277 129.054 14.2705 129.054C14.7134 129.054 21.1167 129.054 21.1167 129.054C21.1167 129.054 27.5201 129.054 27.9629 129.054C28.4057 129.054 28.9707 128.687 29.1235 128.092C29.2762 127.496 29.3068 123.877 29.2152 123.266Z" fill="#FFBA00"/>
<path d="M12.9734 125.73C12.9893 126.77 13.0348 127.798 13.1101 128.092C13.2628 128.687 13.8278 129.054 14.2706 129.054C14.7135 129.054 21.1168 129.054 21.1168 129.054C21.1168 129.054 27.5202 129.054 27.963 129.054C28.4059 129.054 28.9709 128.687 29.1236 128.092C29.1988 127.798 29.2444 126.77 29.2603 125.73H12.9734Z" fill="url(#paint0_linear_466_6605)"/>
<path d="M27.5608 120.787C27.5608 120.787 28.4161 122.081 28.528 122.406C28.64 122.731 28.6553 123.026 28.3346 123.174C28.0139 123.322 25.6012 123.922 25.0515 123.922C24.5017 123.922 21.1169 123.922 21.1168 123.922C21.1168 123.922 17.7319 123.922 17.1821 123.922C16.6324 123.922 14.2197 123.322 13.899 123.174C13.5783 123.026 13.5936 122.731 13.7056 122.406C13.8175 122.081 14.6727 120.787 14.6727 120.787" stroke="#F09400" stroke-width="0.5" stroke-miterlimit="10"/>
<path d="M28.4294 127.971C28.5167 128.184 28.4103 128.361 28.19 128.361H14.043C13.8228 128.361 13.7164 128.184 13.8035 127.971L14.1107 127.219C14.1889 127.027 14.4152 126.875 14.6176 126.875H27.6153C27.8178 126.875 28.044 127.027 28.1221 127.219L28.4294 127.971Z" fill="white"/>
<path d="M24.3691 124.534C24.2775 124.259 23.8805 124.045 23.4834 124.045C23.0864 124.045 21.1165 124.045 21.1165 124.045C21.1165 124.045 19.1466 124.045 18.7496 124.045C18.3526 124.045 17.9555 124.259 17.8639 124.534C17.7723 124.808 18.1846 125.94 18.3373 126.145C18.49 126.351 18.658 126.402 19.1466 126.402C19.6353 126.402 21.1165 126.402 21.1165 126.402C21.1165 126.402 22.5978 126.402 23.0864 126.402C23.5751 126.402 23.743 126.351 23.8958 126.145C24.0485 125.94 24.4608 124.808 24.3691 124.534Z" fill="white"/>
<path d="M27.7494 120.971C27.6731 120.706 26.9401 118.838 26.7263 118.395C26.5125 117.952 26.2224 117.799 26.0086 117.799C25.8119 117.799 16.422 117.799 16.2252 117.799C16.0114 117.799 15.7213 117.952 15.5075 118.395C15.2937 118.838 14.5607 120.706 14.4843 120.971C14.408 121.235 14.5302 121.357 14.7287 121.357C14.9134 121.357 27.3202 121.357 27.5051 121.357C27.7036 121.357 27.8258 121.235 27.7494 120.971Z" fill="#F3F3F3"/>
<path d="M25.2057 124.045C25.2057 124.045 25.8776 124.885 26.2135 124.885C26.5495 124.885 27.8475 124.885 28.1529 124.885C28.4583 124.885 28.5346 124.702 28.5957 124.534C28.6568 124.366 28.6873 123.48 28.5957 123.175C28.5957 123.175 27.2366 123.74 25.2057 124.045Z" fill="white"/>
<path d="M17.0277 124.045C17.0277 124.045 16.3558 124.885 16.0199 124.885C15.6839 124.885 14.3859 124.885 14.0805 124.885C13.7751 124.885 13.6987 124.702 13.6377 124.534C13.5766 124.366 13.546 123.48 13.6377 123.175C13.6377 123.175 14.9967 123.74 17.0277 124.045Z" fill="white"/>
<rect x="43" y="112" width="24" height="2" rx="1" fill="#FECC2A"/>
<rect x="56" y="116" width="11" height="2" rx="1" fill="#FED16C"/>
<rect x="56" y="120" width="11" height="2" rx="1" fill="#FED16C"/>
<rect x="56" y="124" width="11" height="2" rx="1" fill="#959595"/>
<rect x="56" y="128" width="11" height="2" rx="1" fill="#959595"/>
<rect x="56" y="132" width="11" height="2" rx="1" fill="#FED16C"/>
<rect x="43" y="116" width="11" height="2" rx="1" fill="#FED16C"/>
<rect x="43" y="120" width="11" height="2" rx="1" fill="#FED16C"/>
<rect x="43" y="124" width="11" height="2" rx="1" fill="#959595"/>
<rect x="43" y="128" width="11" height="2" rx="1" fill="#959595"/>
<rect x="43" y="132" width="11" height="2" rx="1" fill="#FED16C"/>
<defs>
<linearGradient id="paint0_linear_466_6605" x1="21.1169" y1="125.5" x2="21.1169" y2="127.275" gradientUnits="userSpaceOnUse">
<stop stop-color="#FFD42B"/>
<stop offset="1" stop-color="#FFBA00"/>
</linearGradient>
</defs>
</svg>
