<svg width="16" height="16" viewBox="0 0 16 16" fill="none" xmlns="http://www.w3.org/2000/svg">
<g clip-path="url(#clip0_466_2441)">
<path d="M13.1854 11.9469L8.94281 7.70421L13.1854 3.46157C13.4683 3.17873 13.4683 2.80161 13.1854 2.51876C12.9026 2.23592 12.5255 2.23592 12.2426 2.51876L8 6.7614L3.75736 2.51876C3.47452 2.23592 3.09739 2.23592 2.81455 2.51876C2.53171 2.80161 2.53171 3.17873 2.81455 3.46157L7.05719 7.70421L2.81455 11.9469C2.53171 12.2297 2.53171 12.6068 2.81455 12.8897C3.09739 13.1725 3.47452 13.1725 3.75736 12.8897L8 8.64702L12.2426 12.8897C12.5255 13.1725 12.9026 13.1725 13.1854 12.8897C13.4683 12.6068 13.4683 12.2297 13.1854 11.9469Z" fill="#959595"/>
</g>
<defs>
<clipPath id="clip0_466_2441">
<rect width="16" height="16" fill="white"/>
</clipPath>
</defs>
</svg>
