<svg width="325" height="138" viewBox="0 0 325 138" fill="none" xmlns="http://www.w3.org/2000/svg">
<g opacity="0.81">
<path opacity="0.81" d="M5.32263 80.9596C-0.694495 76.7996 -1.77097 69.0998 2.91874 63.7621C7.60798 58.424 19.5455 53.7606 25.5626 57.9206C31.5797 62.0806 24.5569 70.6676 23.3578 77.351C21.6854 86.6723 11.3397 85.1197 5.32263 80.9596Z" fill="#F3F3F3"/>
</g>
<g opacity="0.47">
<path opacity="0.47" d="M314.923 136.676C310.52 135.469 308.054 131.324 309.414 127.418C310.775 123.512 316.393 118.61 320.796 119.817C325.199 121.025 323.305 127.209 324.24 131.212C325.545 136.796 319.326 137.884 314.923 136.676Z" fill="#F3F3F3"/>
</g>
<g opacity="0.47">
<path opacity="0.47" d="M320.786 14.2174C318.489 20.8117 310.601 24.5053 303.168 22.4673C295.735 20.4298 286.407 12.0164 288.704 5.42211C291.001 -1.17217 302.77 1.66523 310.388 0.264079C321.013 -1.68987 323.084 7.62359 320.786 14.2174Z" fill="#F3F3F3"/>
</g>
</svg>
