<svg width="20" height="20" viewBox="0 0 20 20" fill="none" xmlns="http://www.w3.org/2000/svg">
<g clip-path="url(#clip0_466_5411)">
<path d="M19.2867 7.11761L13.3858 6.26011L10.75 0.916775C10.6734 0.786656 10.5641 0.678795 10.433 0.603857C10.3019 0.52892 10.1535 0.489502 10.0025 0.489502C9.8515 0.489502 9.7031 0.52892 9.572 0.603857C9.4409 0.678795 9.33163 0.786656 9.255 0.916775L6.61417 6.26011L0.713336 7.11761C0.559453 7.13982 0.414853 7.20464 0.295883 7.30474C0.176913 7.40483 0.0883185 7.53622 0.0401155 7.68403C-0.00808757 7.83185 -0.0139766 7.99021 0.0231142 8.14119C0.0602051 8.29218 0.138796 8.42978 0.250003 8.53844L4.52084 12.7001L3.51334 18.5776C3.48708 18.7309 3.50422 18.8884 3.56282 19.0324C3.62142 19.1764 3.71915 19.3012 3.84494 19.3926C3.97074 19.4839 4.1196 19.5383 4.27468 19.5495C4.42976 19.5607 4.58488 19.5283 4.7225 19.4559L10 16.6818L15.2775 19.4559C15.4151 19.5283 15.5702 19.5607 15.7253 19.5495C15.8804 19.5383 16.0293 19.4839 16.1551 19.3926C16.2809 19.3012 16.3786 19.1764 16.4372 19.0324C16.4958 18.8884 16.5129 18.7309 16.4867 18.5776L15.4792 12.7001L19.75 8.53844C19.8612 8.42989 19.9398 8.29243 19.977 8.14156C20.0141 7.99069 20.0084 7.83244 19.9604 7.68466C19.9124 7.53689 19.824 7.40548 19.7052 7.30528C19.5865 7.20508 19.4421 7.14008 19.2883 7.11761H19.2867Z" fill="#BDBDBD"/>
</g>
<defs>
<clipPath id="clip0_466_5411">
<rect width="20" height="20" fill="white"/>
</clipPath>
</defs>
</svg>
