<svg width="313" height="175" viewBox="0 0 313 175" fill="none" xmlns="http://www.w3.org/2000/svg">
<g opacity="0.47">
<path opacity="0.47" d="M280.567 158.489C283.379 145.744 278.958 134.888 277.882 122.4C276.864 110.576 281.444 100.62 284 89.3516C286.275 79.3223 285.558 67.9704 282.764 58.1249C278.949 44.6833 270.112 32.2484 257.353 24.6843C237.471 12.8983 210.908 14.3516 188.887 22.5396C179.664 25.9691 170.727 30.5249 160.856 31.6947C146.459 33.4007 132.467 27.7083 118.457 24.3061C99.3856 19.675 78.4363 19.3757 60.4095 26.7944C39.9704 35.2059 25.4017 54.1224 27.0403 74.9171C27.7829 84.3395 31.6883 93.6308 30.2706 102.996C28.833 112.495 22.6978 120.452 19.4364 129.402C14.6092 142.651 14.4851 162.634 23.5594 174.938H273.598C276.916 169.905 279.285 164.304 280.567 158.489Z" fill="#F3F3F3"/>
</g>
<g opacity="0.47">
<path opacity="0.47" d="M312.542 76.9842C311.033 62.944 303.688 48.8872 290.945 38.851C271.088 23.2125 241.02 19.3023 214.656 22.9562C203.614 24.4867 192.661 27.1869 181.358 26.3552C164.872 25.1425 150.363 16.706 135.361 10.5274C114.941 2.11675 91.5247 -2.39428 69.7958 1.30349C45.1587 5.49632 24.9396 21.2429 22.4969 42.1055C21.3903 51.5589 32.4587 68.1963 28.9432 77.1583C25.3772 86.2478 -0.595626 114.108 0.0104386 135.275C0.638264 157.212 7.0656 163.419 16.0288 174.938H23.5594H273.598H289.77C295.404 163.273 300.285 154.438 293.846 139.468C288.949 128.08 302.319 118.679 307.503 108.066C312.116 98.6217 313.647 87.2679 312.542 76.9842Z" fill="#F3F3F3"/>
</g>
</svg>
