<svg width="20" height="20" viewBox="0 0 20 20" fill="none" xmlns="http://www.w3.org/2000/svg">
<g clip-path="url(#clip0_466_244)">
<path d="M19.6942 8.52164L10.5275 1.02164C10.3786 0.899928 10.1923 0.833435 10 0.833435C9.80772 0.833435 9.62136 0.899928 9.4725 1.02164L0.305835 8.52164C0.138606 8.66274 0.0335787 8.86395 0.0134306 9.08182C-0.00671748 9.29969 0.0596301 9.51674 0.198147 9.68612C0.336665 9.85549 0.536238 9.96359 0.753775 9.98707C0.971312 10.0106 1.18936 9.94755 1.36083 9.81164L2.5 8.87998V18.3333C2.5 18.5543 2.5878 18.7663 2.74408 18.9226C2.90036 19.0788 3.11232 19.1666 3.33333 19.1666H8.33334V14.1666H11.6667V19.1666H16.6667C16.8877 19.1666 17.0996 19.0788 17.2559 18.9226C17.4122 18.7663 17.5 18.5543 17.5 18.3333V8.87998L18.6392 9.81164C18.7236 9.88291 18.8214 9.93666 18.9269 9.96977C19.0323 10.0029 19.1433 10.0147 19.2533 10.0045C19.3633 9.99435 19.4703 9.96238 19.5678 9.9105C19.6654 9.85861 19.7517 9.78784 19.8216 9.70229C19.8916 9.61675 19.9438 9.51814 19.9753 9.41221C20.0068 9.30629 20.0169 9.19515 20.0051 9.08528C19.9932 8.97541 19.9596 8.86899 19.9062 8.77223C19.8529 8.67547 19.7808 8.59028 19.6942 8.52164V8.52164Z" fill="#959595"/>
</g>
<defs>
<clipPath id="clip0_466_244">
<rect width="20" height="20" fill="white"/>
</clipPath>
</defs>
</svg>
