<svg width="20" height="20" viewBox="0 0 20 20" fill="none" xmlns="http://www.w3.org/2000/svg">
<g clip-path="url(#clip0_466_362)">
<path d="M19.2866 7.1175L13.3858 6.26L10.75 0.916668C10.6733 0.78655 10.5641 0.678688 10.433 0.603751C10.3019 0.528813 10.1535 0.489395 10.0025 0.489395C9.85147 0.489395 9.70307 0.528813 9.57197 0.603751C9.44087 0.678688 9.3316 0.78655 9.25497 0.916668L6.61414 6.26L0.713306 7.1175C0.559423 7.13971 0.414822 7.20453 0.295852 7.30463C0.176882 7.40473 0.088288 7.53611 0.0400849 7.68393C-0.00811809 7.83174 -0.0140071 7.9901 0.0230837 8.14109C0.0601745 8.29208 0.138766 8.42968 0.249972 8.53833L4.52081 12.7L3.51331 18.5775C3.48705 18.7308 3.50419 18.8883 3.56279 19.0323C3.62139 19.1763 3.71911 19.3011 3.84491 19.3925C3.97071 19.4838 4.11957 19.5382 4.27465 19.5494C4.42973 19.5606 4.58485 19.5282 4.72247 19.4558L9.99997 16.6817L15.2775 19.4558C15.4151 19.5282 15.5702 19.5606 15.7253 19.5494C15.8804 19.5382 16.0292 19.4838 16.155 19.3925C16.2808 19.3011 16.3786 19.1763 16.4372 19.0323C16.4958 18.8883 16.5129 18.7308 16.4866 18.5775L15.4791 12.7L19.75 8.53833C19.8611 8.42979 19.9398 8.29232 19.9769 8.14145C20.0141 7.99059 20.0084 7.83233 19.9603 7.68456C19.9123 7.53678 19.824 7.40538 19.7052 7.30517C19.5865 7.20497 19.4421 7.13997 19.2883 7.1175H19.2866Z" fill="#BDBDBD"/>
</g>
<defs>
<clipPath id="clip0_466_362">
<rect width="20" height="20" fill="white"/>
</clipPath>
</defs>
</svg>
