<svg width="16" height="16" viewBox="0 0 16 16" fill="none" xmlns="http://www.w3.org/2000/svg">
<path d="M7.94754 10.6667C10.1331 10.6667 11.9213 8.86667 11.9213 6.66667V4C11.9213 1.8 10.1331 0 7.94754 0C5.76197 0 3.97377 1.8 3.97377 4V6.66667C3.97377 8.86667 5.76197 10.6667 7.94754 10.6667Z" fill="#959595"/>
<path d="M14.5705 6.66667C14.5705 6.26667 14.3056 6 13.9082 6C13.5108 6 13.2459 6.26667 13.2459 6.66667C13.2459 9.6 10.8616 12 7.94754 12C5.03344 12 2.64918 9.6 2.64918 6.66667C2.64918 6.26667 2.38426 6 1.98688 6C1.5895 6 1.32458 6.26667 1.32458 6.66667C1.32458 10.1333 3.97377 12.9333 7.28524 13.2667V14.6667H4.63606C4.23868 14.6667 3.97377 14.9333 3.97377 15.3333C3.97377 15.7333 4.23868 16 4.63606 16H11.259C11.6564 16 11.9213 15.7333 11.9213 15.3333C11.9213 14.9333 11.6564 14.6667 11.259 14.6667H8.60983V13.2667C11.9213 12.9333 14.5705 10.1333 14.5705 6.66667Z" fill="#959595"/>
</svg>
