<svg width="75" height="148" viewBox="0 0 75 148" fill="none" xmlns="http://www.w3.org/2000/svg">
<path d="M62.302 147.723L11.1034 147.493C4.94512 147.465 -0.0229846 142.557 7.99842e-05 136.528L0.544403 10.874C0.572081 4.84096 5.58631 -0.0269818 11.7492 0.000112556L62.9478 0.230414C69.1061 0.257508 74.0742 5.16609 74.0511 11.1946L73.5068 136.849C73.4837 142.882 68.4649 147.75 62.302 147.723Z" fill="#49493D"/>
<path d="M62.8735 4.57669L52.9465 4.53153C51.6134 4.52701 50.5293 5.62434 50.5247 6.98808L50.5155 8.74922C50.5109 10.113 49.4268 11.2103 48.0937 11.2058L28.7426 11.12C27.4094 11.1155 26.3392 10.0046 26.3438 8.64084L26.3531 6.87971C26.3577 5.51596 25.2829 4.4096 23.9544 4.40057L20.4624 4.38251L11.7763 4.34187C7.46321 4.32381 3.94818 7.73318 3.92973 11.9554L3.39924 134.603C3.38079 138.825 6.85892 142.261 11.172 142.279L62.2692 142.51C66.5822 142.528 70.0973 139.118 70.1157 134.896L70.6462 12.2489C70.6693 8.03122 67.1865 4.59475 62.8735 4.57669Z" fill="#959595"/>
</svg>
