<svg width="327" height="44" viewBox="0 0 327 44" fill="none" xmlns="http://www.w3.org/2000/svg">
<path d="M29.1455 0V0.75H39.0977V0H49.0498V0.75H59.002V0H68.9541V0.75H78.9062V0H88.8584V0.75H98.8105V0H108.763V0.75H118.715V0H128.667V0.75H138.619V0H148.571V0.75H158.523V0H168.477V0.75H178.429V0H188.381V0.75H198.333V0H208.285V0.75H218.237V0H228.189V0.75H238.142V0H248.094V0.75H258.046V0H267.998V0.75H277.95V0H287.902V0.75H297.854V0H307.807V0.75H312.782C314.066 0.75 315.31 0.786245 316.49 0.854492L316.532 0.106445C319.508 0.278456 322.094 0.651062 323.952 1.15039L323.759 1.87402C324.684 2.12287 325.37 2.39122 325.807 2.65332C326.293 2.94534 326.25 3.08884 326.25 3.01367V7.76074H327V17.2539H326.25V26.7461H327V36.2393H326.25V40.9863C326.25 40.9112 326.293 41.0547 325.807 41.3467C325.37 41.6088 324.684 41.8771 323.759 42.126L323.952 42.8486C322.094 43.348 319.508 43.7206 316.532 43.8926L316.49 43.1455C315.31 43.2138 314.066 43.25 312.782 43.25H307.807V44H297.854V43.25H287.902V44H277.95V43.25H267.998V44H258.046V43.25H248.094V44H238.142V43.25H228.189V44H218.237V43.25H208.285V44H198.333V43.25H188.381V44H178.429V43.25H168.476V44H158.523V43.25H148.571V44H138.619V43.25H128.667V44H118.715V43.25H108.763V44H98.8105V43.25H88.8584V44H78.9062V43.25H68.9541V44H59.002V43.25H49.0498V44H39.0977V43.25H29.1455V44H19.1934V43.25H14.2178C12.9336 43.25 11.6899 43.2138 10.5098 43.1455L10.4668 43.8926C7.49099 43.7205 4.90446 43.3481 3.04688 42.8486L3.24121 42.126C2.31564 41.8771 1.63004 41.6088 1.19336 41.3467C0.707014 41.0547 0.75 40.9112 0.75 40.9863V36.2393H0V26.7461H0.75V17.2539H0V7.76074H0.75V3.01367C0.75 3.08884 0.707015 2.94534 1.19336 2.65332C1.63004 2.39122 2.31564 2.12287 3.24121 1.87402L3.04688 1.15039C4.90446 0.650993 7.49109 0.278509 10.4668 0.106445L10.5098 0.854492C11.6899 0.786245 12.9336 0.75 14.2178 0.75H19.1934V0H29.1455Z" stroke="#BDBDBD" stroke-width="1.5" stroke-dasharray="10 10"/>
</svg>
