<svg width="34" height="34" viewBox="0 0 34 34" fill="none" xmlns="http://www.w3.org/2000/svg">
<path d="M4.16666 12.5H1.38889V2.7778C1.38889 2.40945 1.53521 2.05618 1.79568 1.79571C2.05615 1.53524 2.40942 1.38892 2.77777 1.38892H12.5V4.16669H4.16666V12.5Z" fill="#444444"/>
<path d="M31.9445 12.5H29.1667V4.16669H20.8333V1.38892H30.5556C30.9239 1.38892 31.2772 1.53524 31.5377 1.79571C31.7981 2.05618 31.9445 2.40945 31.9445 2.7778V12.5Z" fill="#444444"/>
<path d="M30.5556 31.9444H20.8333V29.1666H29.1667V20.8333H31.9445V30.5555C31.9445 30.9238 31.7981 31.2771 31.5377 31.5376C31.2772 31.798 30.9239 31.9444 30.5556 31.9444Z" fill="#444444"/>
<path d="M12.5 31.9444H2.77777C2.40942 31.9444 2.05615 31.798 1.79568 31.5376C1.53521 31.2771 1.38889 30.9238 1.38889 30.5555V20.8333H4.16666V29.1666H12.5V31.9444Z" fill="#444444"/>
</svg>
