<svg width="20" height="20" viewBox="0 0 20 20" fill="none" xmlns="http://www.w3.org/2000/svg">
<path d="M8.33337 0C8.11236 0 7.9004 0.0877974 7.74412 0.244078C7.58784 0.400358 7.50004 0.61232 7.50004 0.833333V7.5C7.50004 7.72101 7.41224 7.93298 7.25596 8.08926C7.09968 8.24554 6.88772 8.33333 6.66671 8.33333H3.33337C3.11236 8.33333 2.9004 8.24554 2.74412 8.08926C2.58784 7.93298 2.50004 7.72101 2.50004 7.5V0.833333C2.50004 0.61232 2.41224 0.400358 2.25596 0.244078C2.09968 0.0877974 1.88772 0 1.66671 0C1.44569 0 1.23373 0.0877974 1.07745 0.244078C0.921171 0.400358 0.833374 0.61232 0.833374 0.833333V7.5C0.833374 8.16304 1.09677 8.79893 1.56561 9.26777C2.03445 9.73661 2.67033 10 3.33337 10H4.10254L3.46087 18.34C3.44529 18.5516 3.47352 18.7642 3.54381 18.9645C3.6141 19.1647 3.72493 19.3483 3.86938 19.5038C4.01383 19.6593 4.18879 19.7833 4.38333 19.8681C4.57788 19.9529 4.78782 19.9967 5.00004 19.9967C5.21226 19.9967 5.4222 19.9529 5.61675 19.8681C5.81129 19.7833 5.98625 19.6593 6.1307 19.5038C6.27515 19.3483 6.38598 19.1647 6.45627 18.9645C6.52656 18.7642 6.55479 18.5516 6.53921 18.34L5.89754 10H6.66671C7.32975 10 7.96563 9.73661 8.43447 9.26777C8.90332 8.79893 9.16671 8.16304 9.16671 7.5V0.833333C9.16671 0.61232 9.07891 0.400358 8.92263 0.244078C8.76635 0.0877974 8.55439 0 8.33337 0V0Z" fill="#49493D"/>
<path d="M5.83341 0.833333C5.83341 0.61232 5.74562 0.400358 5.58934 0.244078C5.43306 0.0877974 5.2211 0 5.00008 0C4.77907 0 4.56711 0.0877974 4.41083 0.244078C4.25455 0.400358 4.16675 0.61232 4.16675 0.833333V6.66667H5.83341V0.833333Z" fill="#49493D"/>
<path d="M17.5 0H16.6667C15.5616 0 14.5018 0.438987 13.7204 1.22039C12.939 2.00179 12.5 3.0616 12.5 4.16667V13.3333C12.5 13.5543 12.5878 13.7663 12.7441 13.9226C12.9004 14.0789 13.1123 14.1667 13.3333 14.1667H15.8333V18.75C15.8333 19.0815 15.965 19.3995 16.1995 19.6339C16.4339 19.8683 16.7518 20 17.0833 20C17.4149 20 17.7328 19.8683 17.9672 19.6339C18.2016 19.3995 18.3333 19.0815 18.3333 18.75V0.833333C18.3333 0.61232 18.2455 0.400358 18.0893 0.244078C17.933 0.0877974 17.721 0 17.5 0V0Z" fill="#49493D"/>
</svg>
