<svg width="112" height="75" viewBox="0 0 112 75" fill="none" xmlns="http://www.w3.org/2000/svg">
<path d="M109.182 61.1585C110.31 54.2233 105.551 47.6953 98.5531 46.5777C91.555 45.4602 84.9677 50.1762 83.84 57.1114C82.7123 64.0465 87.4712 70.5745 94.4693 71.6921C101.467 72.8096 108.055 68.0936 109.182 61.1585Z" fill="#49493D"/>
<path d="M101.627 64.5026C104.461 61.6943 104.461 57.1412 101.627 54.3329C98.7931 51.5246 94.1987 51.5246 91.3649 54.3329C88.5312 57.1412 88.5312 61.6943 91.3649 64.5026C94.1987 67.3109 98.7931 67.3109 101.627 64.5026Z" fill="white"/>
<path d="M78.6535 41.0234H95.9806C103.188 41.0234 109.03 46.8132 109.03 53.9557H78.6541V41.0234H78.6535Z" fill="#FED16C"/>
<path d="M90.9676 32.3178L80.3948 18.062C79.4689 16.814 78.8015 15.3966 78.4308 13.892L78.38 13.6857L81.6366 12.8973C81.8832 12.8374 82.0338 12.5914 81.974 12.3471L80.164 5.00169C79.935 4.07296 78.9899 3.50431 78.0527 3.73076L74.8525 4.50517C72.2137 5.14371 70.5972 7.78116 71.2415 10.3957C71.2517 10.4365 71.2664 10.4751 71.2777 10.5159L71.2709 10.5142L74.4023 23.2201L76.9142 19.3626V53.9542H38.2734V59.1989C38.2734 61.7782 40.383 63.8689 42.9857 63.8689H74.123C77.4552 63.8689 80.3587 62.074 81.9221 59.412L81.9255 59.4153L91.6689 44.0743C93.8045 40.3644 93.5297 35.7537 90.9676 32.3178Z" fill="#FECC2A"/>
<path d="M55.33 1.20526L57.9192 0.578456C60.303 0.00142032 62.6597 1.25613 63.1833 3.38088C63.7068 5.50562 62.1987 7.69523 59.8149 8.27227L58.0636 8.69609C56.8895 8.98014 55.7284 8.36229 55.47 7.31557L54.3241 2.66517C54.1683 2.03166 54.6186 1.37803 55.33 1.20526Z" fill="#FED16C"/>
<path d="M82.8554 7.71393C83.4997 10.3284 82.9524 12.707 81.6333 13.0268C80.3142 13.346 78.722 11.4853 78.0777 8.87021C77.4334 6.25516 77.9806 3.87661 79.2998 3.55735C80.6194 3.23808 82.2111 5.09888 82.8554 7.71393Z" fill="#FFCA44"/>
<path d="M81.35 5.95313C81.7213 7.46057 81.4065 8.83214 80.6453 9.01609C79.8848 9.20005 78.9668 8.12707 78.5956 6.61963C78.2243 5.11219 78.5397 3.7406 79.3003 3.55664C80.0608 3.37269 80.9788 4.44568 81.35 5.95313Z" fill="white"/>
<path d="M71.1015 9.28387L68.1692 4.2533C67.5593 3.20604 66.3248 2.6838 65.1394 2.97064L60.69 4.04755" stroke="#FED16C" stroke-miterlimit="10" stroke-linecap="round" stroke-linejoin="round"/>
<path d="M71.3175 10.6059L62.052 12.8486C61.6982 12.9342 61.3411 12.7195 61.2548 12.3689L61.011 11.3792C60.9247 11.0286 61.1414 10.6747 61.4951 10.5891L70.7607 8.34636C71.1144 8.26081 71.4716 8.47553 71.5579 8.82611L71.8016 9.81581C71.8885 10.1664 71.6719 10.5203 71.3175 10.6059Z" fill="#FECC2A"/>
<path d="M73.109 12.2094L71.8158 12.5225C71.2702 12.6544 70.7201 12.3234 70.5869 11.7827L69.9229 9.08879L72.2034 8.53692L73.109 12.2094Z" fill="#FECC2A"/>
<path d="M63.0652 13.7403C62.3566 13.9118 61.6423 13.4815 61.469 12.78L61.3297 12.2155C61.1565 11.5136 61.5909 10.806 62.299 10.6344C63.0077 10.4628 63.722 10.8932 63.8952 11.5946L64.0346 12.1591C64.2078 12.8611 63.7739 13.5692 63.0652 13.7403Z" fill="#FECC2A"/>
<path d="M6.97901 33.4796H29.2355C30.6771 33.4796 31.8456 32.3216 31.8456 30.893V2.58658C31.8456 1.15798 30.6771 0 29.2355 0H6.90622C3.30259 0 0.381653 2.89522 0.381653 6.46589V26.9416C0.381653 30.5525 3.33531 33.4796 6.97901 33.4796Z" fill="#FECC2A"/>
<path opacity="0.43" d="M6.95553 33.4803H29.2121C30.6536 33.4803 31.8221 30.1573 31.8221 28.7287C31.8221 28.7287 0.41347 27.9135 0.517286 28.3742C1.17572 31.2968 3.80835 33.4803 6.95553 33.4803Z" fill="#FECC2A"/>
<path opacity="0.43" d="M31.8456 8.90882V2.5866C31.8456 1.15799 30.6771 0 29.2355 0H6.90622C3.30259 0 0.381653 2.89524 0.381653 6.46592V9.05251L31.8456 8.90882Z" fill="#FECC2A"/>
<path d="M0.608276 28.7269H31.3857" stroke="#D89B00" stroke-miterlimit="10" stroke-linecap="round"/>
<path d="M0.608276 9.28133H31.3857" stroke="#D89B00" stroke-miterlimit="10" stroke-linecap="round"/>
<path d="M53.7146 53.9541L2.41163 49.4933C1.99186 49.457 1.67759 49.0952 1.7058 48.6781C1.75207 47.9943 1.83388 47.0024 1.94954 46.4058C3.37475 39.0419 9.90948 33.478 17.7555 33.478H50.6091C51.9723 33.478 52.8118 34.9546 52.1054 36.1104L50.1312 39.34C47.6058 43.4714 48.3043 48.786 51.8143 52.1386L53.7146 53.9541Z" fill="#FECC2A"/>
<path opacity="0.17" d="M53.7149 33.4806H17.7558C10.1113 33.4806 3.71198 38.7622 2.07012 45.8442C1.80268 46.9966 1.66162 48.1971 1.66162 49.4305L28.7016 51.52C28.7016 51.52 24.593 49.7872 24.593 40.4832C24.593 33.3743 34.588 33.3056 34.588 33.3056" fill="white"/>
<path opacity="0.17" d="M34.4644 33.4806H16.5106C11.6933 33.4806 2.95367 38.7622 1.9189 45.8442C1.7502 46.9966 1.66162 48.197 1.66162 49.4305L17.9973 50.693C17.9973 50.693 15.3562 49.9197 16.1123 40.4832C16.6804 33.3967 22.4106 33.3056 22.4106 33.3056" fill="white"/>
<path d="M54.8135 37.4822C54.8936 38.128 54.3819 38.6955 53.7257 38.6888L27.6748 38.4193C25.256 38.3942 23.077 36.8213 22.1794 34.4522L20.0624 28.8642C19.0942 26.3083 20.7626 23.5389 23.3648 23.3801L48.3002 22.7063C50.9385 22.6348 53.2218 24.6879 53.5643 27.4389L54.8135 37.4822Z" fill="#FED16C"/>
<path d="M20.4785 30.1443L38.53 30.0917" stroke="#D89B00" stroke-miterlimit="10" stroke-linecap="round"/>
<path d="M42.9416 33.4436L54.2941 33.3061" stroke="#D89B00" stroke-miterlimit="10" stroke-linecap="round"/>
<path d="M85.25 33.7957C85.1457 33.439 85.0272 33.1096 84.8951 32.8479L76.9132 17.0282C73.7666 18.5267 72.3216 22.1785 73.6007 25.3969L75.4118 29.9538C76.4517 32.5689 76.9854 35.3551 76.9854 38.1659V42.7609C76.9854 48.9444 71.9272 53.9571 65.6876 53.9571H53.7144V53.9303L19.6037 50.9579V58.9144H38.2719H53.7144H71.4398C74.7054 58.9144 78.9568 55.9007 81.3722 51.4963C83.7391 47.1798 84.9538 41.8847 85.4853 38.9672C85.7985 37.2467 85.7415 35.4737 85.25 33.7957Z" fill="#FECC2A"/>
<path d="M27.8771 61.9397C29.45 55.0902 25.1221 48.2741 18.2104 46.7154C11.2988 45.1567 4.42076 49.4457 2.84791 56.2951C1.27505 63.1446 5.60297 69.9607 12.5146 71.5194C19.4262 73.0781 26.3043 68.7891 27.8771 61.9397Z" fill="#49493D"/>
<path d="M22.4312 61.021C23.3217 57.1488 20.876 53.2944 16.9686 52.4119C13.0612 51.5295 9.17179 53.9531 8.28131 57.8253C7.39082 61.6975 9.8365 65.552 13.7439 66.4344C17.6513 67.3169 21.5407 64.8932 22.4312 61.021Z" fill="white"/>
<path d="M35.1552 63.0789H16.0159C13.7337 63.0789 11.8836 61.2455 11.8836 58.9838C11.8836 56.7221 13.7337 54.8887 16.0159 54.8887H35.1552C37.4375 54.8887 39.2875 56.7221 39.2875 58.9838C39.2881 61.2455 37.4375 63.0789 35.1552 63.0789Z" fill="#FED16C"/>
</svg>
