<svg width="20" height="20" viewBox="0 0 20 20" fill="none" xmlns="http://www.w3.org/2000/svg">
<g clip-path="url(#clip0_77_3142)">
<path d="M15.8925 14.5709L14.7142 13.3925L15.3033 12.8034C15.9998 12.1069 16.5522 11.2801 16.9292 10.3702C17.3061 9.46023 17.5001 8.48495 17.5001 7.50003C17.5001 6.51511 17.3061 5.53983 16.9292 4.62989C16.5522 3.71994 15.9998 2.89314 15.3033 2.1967L14.7142 1.60753L15.8925 0.429199L16.4817 1.01837C18.2007 2.73744 19.1664 5.06895 19.1664 7.50003C19.1664 9.93111 18.2007 12.2626 16.4817 13.9817L15.8925 14.5709Z" fill="#959595"/>
<path d="M13.535 12.2133L12.3575 11.0341L12.9466 10.4458C13.7278 9.66442 14.1666 8.60481 14.1666 7.49995C14.1666 6.3951 13.7278 5.33549 12.9466 4.55412L12.3575 3.96579L13.535 2.78662L14.125 3.37579C14.6667 3.91747 15.0965 4.56056 15.3896 5.26833C15.6828 5.9761 15.8337 6.73469 15.8337 7.50079C15.8337 8.26688 15.6828 9.02547 15.3896 9.73325C15.0965 10.441 14.6667 11.0841 14.125 11.6258L13.535 12.2133Z" fill="#959595"/>
<path d="M4.10749 14.5709L3.51833 13.9817C1.79933 12.2626 0.833618 9.93111 0.833618 7.50003C0.833618 5.06895 1.79933 2.73744 3.51833 1.01837L4.10749 0.429199L5.28583 1.60753L4.69666 2.1967C4.00021 2.89314 3.44776 3.71994 3.07084 4.62989C2.69393 5.53983 2.49993 6.51511 2.49993 7.50003C2.49993 8.48495 2.69393 9.46023 3.07084 10.3702C3.44776 11.2801 4.00021 12.1069 4.69666 12.8034L5.28583 13.3925L4.10749 14.5709Z" fill="#959595"/>
<path d="M6.46498 12.2132L5.87498 11.6241C5.33325 11.0824 4.90351 10.4393 4.61032 9.73154C4.31713 9.02376 4.16623 8.26517 4.16623 7.49908C4.16623 6.73298 4.31713 5.97439 4.61032 5.26662C4.90351 4.55885 5.33325 3.91576 5.87498 3.37408L6.46498 2.78491L7.64248 3.96575L7.05332 4.55408C6.27219 5.33544 5.83337 6.39506 5.83337 7.49991C5.83337 8.60476 6.27219 9.66438 7.05332 10.4457L7.64248 11.0341L6.46498 12.2132Z" fill="#959595"/>
<path d="M10.8333 18.3334V9.40753C11.272 9.21608 11.6313 8.87943 11.851 8.45418C12.0706 8.02892 12.1372 7.54101 12.0394 7.07248C11.9416 6.60395 11.6854 6.18338 11.314 5.88149C10.9426 5.5796 10.4786 5.41479 9.99998 5.41479C9.52135 5.41479 9.05732 5.5796 8.68592 5.88149C8.31451 6.18338 8.05838 6.60395 7.96059 7.07248C7.8628 7.54101 7.92932 8.02892 8.14897 8.45418C8.36861 8.87943 8.72798 9.21608 9.16665 9.40753V18.3334H5.83331V20H14.1666V18.3334H10.8333Z" fill="#959595"/>
</g>
<defs>
<clipPath id="clip0_77_3142">
<rect width="20" height="20" fill="white"/>
</clipPath>
</defs>
</svg>
