<svg width="61" height="61" viewBox="0 0 61 61" fill="none" xmlns="http://www.w3.org/2000/svg">
<path d="M30.3366 57.6798C45.4266 57.6798 57.6595 45.4419 57.6595 30.3457C57.6595 15.2495 45.4266 3.01158 30.3366 3.01158C15.2467 3.01158 3.01379 15.2495 3.01379 30.3457C3.01379 45.4419 15.2467 57.6798 30.3366 57.6798Z" fill="#FECC2A"/>
<path d="M45.5017 45.5203C53.8784 37.1403 53.8784 23.5535 45.5017 15.1734C37.1251 6.79338 23.5439 6.79338 15.1672 15.1734C6.79061 23.5535 6.79061 37.1403 15.1672 45.5203C23.5439 53.9004 37.1251 53.9004 45.5017 45.5203Z" fill="white"/>
<path d="M30.3367 19.5379V30.3456H39.6297" stroke="#FED16C" stroke-width="4" stroke-miterlimit="10" stroke-linecap="round"/>
<path d="M30.428 32.4549C31.4703 32.4549 32.3152 31.6096 32.3152 30.567C32.3152 29.5243 31.4703 28.6791 30.428 28.6791C29.3858 28.6791 28.5408 29.5243 28.5408 30.567C28.5408 31.6096 29.3858 32.4549 30.428 32.4549Z" fill="#FECC2A"/>
</svg>
