<svg width="20" height="20" viewBox="0 0 20 20" fill="none" xmlns="http://www.w3.org/2000/svg">
<path d="M8.33334 0C8.11232 0 7.90036 0.0877974 7.74408 0.244078C7.5878 0.400358 7.5 0.61232 7.5 0.833333V7.5C7.5 7.72101 7.41221 7.93298 7.25593 8.08926C7.09964 8.24554 6.88768 8.33333 6.66667 8.33333H3.33334C3.11232 8.33333 2.90036 8.24554 2.74408 8.08926C2.5878 7.93298 2.5 7.72101 2.5 7.5V0.833333C2.5 0.61232 2.41221 0.400358 2.25592 0.244078C2.09964 0.0877974 1.88768 0 1.66667 0C1.44566 0 1.23369 0.0877974 1.07741 0.244078C0.921133 0.400358 0.833336 0.61232 0.833336 0.833333V7.5C0.833336 8.16304 1.09673 8.79893 1.56557 9.26777C2.03441 9.73661 2.67029 10 3.33334 10H4.1025L3.46084 18.34C3.44525 18.5516 3.47349 18.7642 3.54377 18.9645C3.61406 19.1647 3.72489 19.3483 3.86934 19.5038C4.01379 19.6593 4.18875 19.7833 4.3833 19.8681C4.57784 19.9529 4.78778 19.9967 5 19.9967C5.21222 19.9967 5.42217 19.9529 5.61671 19.8681C5.81125 19.7833 5.98621 19.6593 6.13066 19.5038C6.27511 19.3483 6.38594 19.1647 6.45623 18.9645C6.52652 18.7642 6.55475 18.5516 6.53917 18.34L5.8975 10H6.66667C7.32971 10 7.9656 9.73661 8.43444 9.26777C8.90328 8.79893 9.16667 8.16304 9.16667 7.5V0.833333C9.16667 0.61232 9.07887 0.400358 8.92259 0.244078C8.76631 0.0877974 8.55435 0 8.33334 0V0Z" fill="#49493D"/>
<path d="M5.83334 0.833333C5.83334 0.61232 5.74554 0.400358 5.58926 0.244078C5.43298 0.0877974 5.22102 0 5.00001 0C4.77899 0 4.56703 0.0877974 4.41075 0.244078C4.25447 0.400358 4.16667 0.61232 4.16667 0.833333V6.66667H5.83334V0.833333Z" fill="#49493D"/>
<path d="M17.5 0H16.6667C15.5616 0 14.5018 0.438987 13.7204 1.22039C12.939 2.00179 12.5 3.0616 12.5 4.16667V13.3333C12.5 13.5543 12.5878 13.7663 12.7441 13.9226C12.9004 14.0789 13.1123 14.1667 13.3333 14.1667H15.8333V18.75C15.8333 19.0815 15.965 19.3995 16.1995 19.6339C16.4339 19.8683 16.7518 20 17.0833 20C17.4149 20 17.7328 19.8683 17.9672 19.6339C18.2016 19.3995 18.3333 19.0815 18.3333 18.75V0.833333C18.3333 0.61232 18.2455 0.400358 18.0893 0.244078C17.933 0.0877974 17.721 0 17.5 0V0Z" fill="#49493D"/>
</svg>
