<svg width="19" height="17" viewBox="0 0 19 17" fill="none" xmlns="http://www.w3.org/2000/svg">
<path d="M18.14 10.4643H13.943V14.4334C13.943 14.5134 13.943 14.5867 13.943 14.6633C13.943 14.73 13.943 14.7933 13.9403 14.86C13.9385 15.0029 13.9261 15.1454 13.9033 15.2865C13.8785 15.4267 13.8336 15.5625 13.77 15.6898C13.7049 15.8169 13.6199 15.9328 13.5181 16.033C13.4158 16.1332 13.2991 16.2175 13.1718 16.283C13.0429 16.3457 12.906 16.3906 12.7649 16.4163C12.6234 16.4385 12.4806 16.4507 12.3373 16.4529C12.2707 16.4529 12.206 16.4563 12.1407 16.4563H6.74162C6.67496 16.4563 6.61064 16.4529 6.54499 16.4529C6.40179 16.4507 6.25892 16.4385 6.11742 16.4163C5.97646 16.3906 5.83967 16.3457 5.71085 16.283C5.58356 16.2175 5.46683 16.1332 5.36459 16.033C5.26276 15.9329 5.1777 15.817 5.11265 15.6898C5.04904 15.5625 5.00415 15.4267 4.97935 15.2865C4.95642 15.1455 4.94395 15.0029 4.94202 14.86C4.94202 14.7933 4.93936 14.73 4.93936 14.6633C4.93936 14.5867 4.93936 14.5134 4.93936 14.4334V10.4643H0.67599C0.244754 10.4643 -0.308454 9.53451 0.209429 9.01796C0.649662 8.58139 7.56876 1.68295 9.01677 0.246611C9.12317 0.115848 9.27346 0.0282062 9.43967 0H9.451C9.59479 0.00779799 9.7283 0.0769809 9.81758 0.189957C11.2656 1.6263 18.2083 8.58139 18.6489 9.01796C19.1671 9.53451 18.7332 10.4643 18.14 10.4643Z" fill="black"/>
</svg>
