<svg width="20" height="20" viewBox="0 0 20 20" fill="none" xmlns="http://www.w3.org/2000/svg">
<path d="M9.99999 15.8333C9.99999 12.6117 12.6117 10 15.8333 10C15.9258 10 16.0158 10.0092 16.1075 10.0142C16.4517 9.13583 16.6667 8.28083 16.6667 7.5C16.6667 2.805 12.8533 0 9.16666 0C5.47999 0 1.66666 2.805 1.66666 7.5C1.66666 11.9075 8.29332 18.6358 8.57499 18.9208C8.73166 19.0783 8.94416 19.1667 9.16666 19.1667C9.38916 19.1667 9.60166 19.0783 9.75832 18.9208C9.80999 18.8683 10.0808 18.5933 10.4842 18.1567C10.1742 17.4442 9.99999 16.6592 9.99999 15.8333ZM9.16666 10C7.78582 10 6.66666 8.88083 6.66666 7.5C6.66666 6.11917 7.78582 5 9.16666 5C10.5475 5 11.6667 6.11917 11.6667 7.5C11.6667 8.88083 10.5475 10 9.16666 10Z" fill="#959595"/>
<path d="M17.5 16.6667C17.2083 16.6667 16.9383 16.7484 16.6992 16.8809L14.9975 15.8601C14.9975 15.8509 15 15.8426 15 15.8334C15 15.8242 14.9975 15.8159 14.9975 15.8067L16.6992 14.7859C16.9383 14.9184 17.2083 15.0001 17.5 15.0001C18.4192 15.0001 19.1667 14.2526 19.1667 13.3334C19.1667 12.4142 18.4192 11.6667 17.5 11.6667C16.5808 11.6667 15.8333 12.4142 15.8333 13.3334C15.8333 13.3426 15.8358 13.3509 15.8358 13.3601L14.1342 14.3809C13.895 14.2484 13.625 14.1667 13.3333 14.1667C12.4142 14.1667 11.6667 14.9142 11.6667 15.8334C11.6667 16.7526 12.4142 17.5001 13.3333 17.5001C13.625 17.5001 13.895 17.4184 14.1342 17.2859L15.8358 18.3067C15.8358 18.3159 15.8333 18.3242 15.8333 18.3334C15.8333 19.2526 16.5808 20.0001 17.5 20.0001C18.4192 20.0001 19.1667 19.2526 19.1667 18.3334C19.1667 17.4142 18.4192 16.6667 17.5 16.6667Z" fill="#959595"/>
</svg>
