<svg width="17" height="17" viewBox="0 0 17 17" fill="none" xmlns="http://www.w3.org/2000/svg">
<g clip-path="url(#clip0_466_3284)">
<path d="M11.1111 13.8887V15.2776C11.1111 15.6609 11.4222 15.972 11.8055 15.972H14.5833C14.9666 15.972 15.2778 15.6609 15.2778 15.2776V13.8887H11.1111Z" fill="#49493D"/>
<path d="M0.694444 13.1943H15.9722C16.3556 13.1943 16.6667 12.8832 16.6667 12.4999V8.33322C16.6667 8.1492 16.5937 7.97211 16.4632 7.84225L15.2104 6.58947L13.8681 1.22003C13.791 0.911003 13.5132 0.694336 13.1944 0.694336H3.47222C3.15347 0.694336 2.87569 0.911003 2.79861 1.22003L1.45625 6.58947L0.203472 7.84225C0.0729167 7.97211 0 8.1492 0 8.33322V12.4999C0 12.8832 0.311111 13.1943 0.694444 13.1943ZM13.8889 10.0693C13.8889 10.6443 13.4222 11.111 12.8472 11.111C12.2722 11.111 11.8056 10.6443 11.8056 10.0693C11.8056 9.49434 12.2722 9.02767 12.8472 9.02767C13.4222 9.02767 13.8889 9.49434 13.8889 10.0693ZM4.01458 2.08322H12.6521L13.6937 6.24989H2.97292L4.01458 2.08322ZM3.81944 9.02767C4.39444 9.02767 4.86111 9.49434 4.86111 10.0693C4.86111 10.6443 4.39444 11.111 3.81944 11.111C3.24444 11.111 2.77778 10.6443 2.77778 10.0693C2.77778 9.49434 3.24444 9.02767 3.81944 9.02767Z" fill="#49493D"/>
<path d="M1.38892 13.8887V15.2776C1.38892 15.6609 1.70003 15.972 2.08336 15.972H4.86114C5.24447 15.972 5.55558 15.6609 5.55558 15.2776V13.8887H1.38892Z" fill="#49493D"/>
</g>
<defs>
<clipPath id="clip0_466_3284">
<rect width="16.6667" height="16.6667" fill="white"/>
</clipPath>
</defs>
</svg>
