<svg width="20" height="20" viewBox="0 0 20 20" fill="none" xmlns="http://www.w3.org/2000/svg">
<g clip-path="url(#clip0_466_2197)">
<path d="M13.3333 16.6666V18.3333C13.3333 18.7933 13.7067 19.1666 14.1667 19.1666H17.5C17.96 19.1666 18.3333 18.7933 18.3333 18.3333V16.6666H13.3333Z" fill="#49493D"/>
<path d="M0.833333 15.8333H19.1667C19.6267 15.8333 20 15.46 20 15V9.99998C20 9.77915 19.9125 9.56665 19.7558 9.41081L18.2525 7.90748L16.6417 1.46415C16.5492 1.09331 16.2158 0.833313 15.8333 0.833313H4.16667C3.78417 0.833313 3.45083 1.09331 3.35833 1.46415L1.7475 7.90748L0.244167 9.41081C0.0875 9.56665 0 9.77915 0 9.99998V15C0 15.46 0.373333 15.8333 0.833333 15.8333ZM16.6667 12.0833C16.6667 12.7733 16.1067 13.3333 15.4167 13.3333C14.7267 13.3333 14.1667 12.7733 14.1667 12.0833C14.1667 11.3933 14.7267 10.8333 15.4167 10.8333C16.1067 10.8333 16.6667 11.3933 16.6667 12.0833ZM4.8175 2.49998H15.1825L16.4325 7.49998H3.5675L4.8175 2.49998ZM4.58333 10.8333C5.27333 10.8333 5.83333 11.3933 5.83333 12.0833C5.83333 12.7733 5.27333 13.3333 4.58333 13.3333C3.89333 13.3333 3.33333 12.7733 3.33333 12.0833C3.33333 11.3933 3.89333 10.8333 4.58333 10.8333Z" fill="#49493D"/>
<path d="M1.66667 16.6666V18.3333C1.66667 18.7933 2.04001 19.1666 2.50001 19.1666H5.83334C6.29334 19.1666 6.66667 18.7933 6.66667 18.3333V16.6666H1.66667Z" fill="#49493D"/>
</g>
<defs>
<clipPath id="clip0_466_2197">
<rect width="20" height="20" fill="white"/>
</clipPath>
</defs>
</svg>
