<svg width="16" height="16" viewBox="0 0 16 16" fill="none" xmlns="http://www.w3.org/2000/svg">
<g clip-path="url(#clip0_323_66)">
<path d="M10.6666 13.3335V14.6668C10.6666 15.0348 10.9653 15.3335 11.3333 15.3335H14C14.368 15.3335 14.6666 15.0348 14.6666 14.6668V13.3335H10.6666Z" fill="#FECC2A"/>
<path d="M0.666667 12.6667H15.3333C15.7013 12.6667 16 12.3681 16 12.0001V8.00008C16 7.82341 15.93 7.65342 15.8047 7.52875L14.602 6.32608L13.3133 1.17141C13.2393 0.874748 12.9727 0.666748 12.6667 0.666748H3.33333C3.02733 0.666748 2.76067 0.874748 2.68667 1.17141L1.398 6.32608L0.195333 7.52875C0.07 7.65342 0 7.82341 0 8.00008V12.0001C0 12.3681 0.298667 12.6667 0.666667 12.6667ZM13.3333 9.66675C13.3333 10.2187 12.8853 10.6667 12.3333 10.6667C11.7813 10.6667 11.3333 10.2187 11.3333 9.66675C11.3333 9.11475 11.7813 8.66675 12.3333 8.66675C12.8853 8.66675 13.3333 9.11475 13.3333 9.66675ZM3.854 2.00008H12.146L13.146 6.00008H2.854L3.854 2.00008ZM3.66667 8.66675C4.21867 8.66675 4.66667 9.11475 4.66667 9.66675C4.66667 10.2187 4.21867 10.6667 3.66667 10.6667C3.11467 10.6667 2.66667 10.2187 2.66667 9.66675C2.66667 9.11475 3.11467 8.66675 3.66667 8.66675Z" fill="#FECC2A"/>
<path d="M1.33337 13.3335V14.6668C1.33337 15.0348 1.63204 15.3335 2.00004 15.3335H4.66671C5.03471 15.3335 5.33337 15.0348 5.33337 14.6668V13.3335H1.33337Z" fill="#FECC2A"/>
</g>
<defs>
<clipPath id="clip0_323_66">
<rect width="16" height="16" fill="white"/>
</clipPath>
</defs>
</svg>
