<svg width="375" height="40" viewBox="0 0 375 40" fill="none" xmlns="http://www.w3.org/2000/svg">
<rect opacity="0.35" x="336.5" y="17.8333" width="21" height="10.3333" rx="2.16667" stroke="#49493D"/>
<path opacity="0.4" d="M359 21V25C359.805 24.6612 360.328 23.8731 360.328 23C360.328 22.1269 359.805 21.3388 359 21Z" fill="#49493D"/>
<rect x="338" y="19.3333" width="18" height="7.33333" rx="1.33333" fill="#49493D"/>
<path fill-rule="evenodd" clip-rule="evenodd" d="M323.33 19.608C325.546 19.6081 327.677 20.4596 329.283 21.9863C329.404 22.1042 329.598 22.1027 329.717 21.983L330.873 20.8163C330.933 20.7556 330.967 20.6734 330.966 20.5878C330.966 20.5022 330.931 20.4204 330.87 20.3603C326.655 16.3208 320.005 16.3208 315.79 20.3603C315.729 20.4203 315.694 20.5021 315.694 20.5877C315.693 20.6733 315.727 20.7556 315.787 20.8163L316.943 21.983C317.062 22.1029 317.256 22.1044 317.377 21.9863C318.983 20.4595 321.114 19.608 323.33 19.608ZM323.33 23.4037C324.548 23.4036 325.722 23.8561 326.624 24.6733C326.746 24.7893 326.939 24.7868 327.058 24.6677L328.212 23.501C328.273 23.4398 328.307 23.3568 328.306 23.2705C328.305 23.1843 328.27 23.102 328.208 23.042C325.459 20.4856 321.204 20.4856 318.455 23.042C318.393 23.102 318.358 23.1843 318.357 23.2706C318.356 23.3569 318.39 23.4399 318.451 23.501L319.605 24.6677C319.724 24.7868 319.917 24.7893 320.039 24.6733C320.941 23.8567 322.114 23.4042 323.33 23.4037ZM325.643 25.9575C325.645 26.044 325.611 26.1274 325.549 26.188L323.552 28.2037C323.493 28.2629 323.414 28.2963 323.33 28.2963C323.247 28.2963 323.167 28.2629 323.109 28.2037L321.111 26.188C321.049 26.1274 321.015 26.0439 321.017 25.9574C321.019 25.8709 321.056 25.789 321.121 25.731C322.396 24.6521 324.264 24.6521 325.54 25.731C325.604 25.7891 325.642 25.871 325.643 25.9575Z" fill="#49493D"/>
<path fill-rule="evenodd" clip-rule="evenodd" d="M309.667 17.6667H308.667C308.114 17.6667 307.667 18.1144 307.667 18.6667V27.3334C307.667 27.8856 308.114 28.3334 308.667 28.3334H309.667C310.219 28.3334 310.667 27.8856 310.667 27.3334V18.6667C310.667 18.1144 310.219 17.6667 309.667 17.6667ZM304 20H305C305.552 20 306 20.4477 306 21V27.3334C306 27.8856 305.552 28.3334 305 28.3334H304C303.448 28.3334 303 27.8856 303 27.3334V21C303 20.4477 303.448 20 304 20ZM300.333 22.3334H299.333C298.781 22.3334 298.333 22.7811 298.333 23.3334V27.3334C298.333 27.8856 298.781 28.3334 299.333 28.3334H300.333C300.886 28.3334 301.333 27.8856 301.333 27.3334V23.3334C301.333 22.7811 300.886 22.3334 300.333 22.3334ZM295.667 24.3334H294.667C294.114 24.3334 293.667 24.7811 293.667 25.3334V27.3334C293.667 27.8856 294.114 28.3334 294.667 28.3334H295.667C296.219 28.3334 296.667 27.8856 296.667 27.3334V25.3334C296.667 24.7811 296.219 24.3334 295.667 24.3334Z" fill="#49493D"/>
<path fill-rule="evenodd" clip-rule="evenodd" d="M36.0133 28.2563C34.0797 28.2563 32.6075 27.1138 32.2926 25.3779H34.1749C34.4166 26.1763 35.1198 26.6743 36.028 26.6743C37.5734 26.6743 38.4889 25.2314 38.4889 22.8145H38.3644C37.8663 23.8179 36.8629 24.3965 35.6251 24.3965C33.611 24.3965 32.1461 22.917 32.1461 20.8809C32.1461 18.7129 33.7721 17.1675 36.0719 17.1675C37.6173 17.1675 38.8405 17.8999 39.5509 19.2549C40.0416 20.1265 40.298 21.2544 40.298 22.5947C40.298 26.1543 38.7013 28.2563 36.0133 28.2563ZM36.0792 22.895C37.2877 22.895 38.174 22.0308 38.174 20.8516C38.174 19.6577 37.2657 18.7422 36.0865 18.7422C34.9073 18.7422 33.9991 19.6431 33.9991 20.8223C33.9991 22.0308 34.8634 22.895 36.0792 22.895ZM43.3158 26.8794C42.6274 26.8794 42.144 26.3813 42.144 25.7222C42.144 25.0557 42.6274 24.5649 43.3158 24.5649C44.0116 24.5649 44.4877 25.0557 44.4877 25.7222C44.4877 26.3813 44.0116 26.8794 43.3158 26.8794ZM43.3158 21.3862C42.6274 21.3862 42.144 20.8955 42.144 20.2363C42.144 19.5698 42.6274 19.0791 43.3158 19.0791C44.0116 19.0791 44.4877 19.5698 44.4877 20.2363C44.4877 20.8955 44.0116 21.3862 43.3158 21.3862ZM50.3987 28.2637C47.8645 28.2637 46.363 26.2129 46.363 22.7046C46.363 19.2109 47.8864 17.1675 50.3987 17.1675C52.9035 17.1675 54.427 19.2109 54.427 22.7192C54.427 26.2129 52.9255 28.2637 50.3987 28.2637ZM50.3987 26.6963C51.739 26.6963 52.5154 25.3047 52.5154 22.7046C52.5154 20.1191 51.7243 18.7422 50.3987 18.7422C49.073 18.7422 48.2746 20.1265 48.2746 22.7046C48.2746 25.3047 49.0583 26.6963 50.3987 26.6963ZM59.8765 28.2563C57.9429 28.2563 56.4707 27.1138 56.1558 25.3779H58.0381C58.2798 26.1763 58.9829 26.6743 59.8911 26.6743C61.4365 26.6743 62.3521 25.2314 62.3521 22.8145H62.2276C61.7295 23.8179 60.7261 24.3965 59.4883 24.3965C57.4741 24.3965 56.0093 22.917 56.0093 20.8809C56.0093 18.7129 57.6353 17.1675 59.9351 17.1675C61.4805 17.1675 62.7036 17.8999 63.4141 19.2549C63.9048 20.1265 64.1612 21.2544 64.1612 22.5947C64.1612 26.1543 62.5645 28.2563 59.8765 28.2563ZM59.9424 22.895C61.1509 22.895 62.0371 22.0308 62.0371 20.8516C62.0371 19.6577 61.1289 18.7422 59.9497 18.7422C58.7705 18.7422 57.8623 19.6431 57.8623 20.8223C57.8623 22.0308 58.7266 22.895 59.9424 22.895Z" fill="#49493D"/>
</svg>
