<svg width="20" height="20" viewBox="0 0 20 20" fill="none" xmlns="http://www.w3.org/2000/svg">
<g clip-path="url(#clip0_466_2500)">
<path d="M19.6942 8.52167L10.5275 1.02167C10.3786 0.899959 10.1923 0.833466 10 0.833466C9.80772 0.833466 9.62136 0.899959 9.4725 1.02167L0.305835 8.52167C0.138606 8.66277 0.0335787 8.86398 0.0134306 9.08185C-0.00671748 9.29972 0.0596301 9.51677 0.198147 9.68615C0.336665 9.85552 0.536238 9.96362 0.753775 9.9871C0.971312 10.0106 1.18936 9.94758 1.36083 9.81167L2.5 8.88001V18.3333C2.5 18.5544 2.5878 18.7663 2.74408 18.9226C2.90036 19.0789 3.11232 19.1667 3.33333 19.1667H8.33334V14.1667H11.6667V19.1667H16.6667C16.8877 19.1667 17.0996 19.0789 17.2559 18.9226C17.4122 18.7663 17.5 18.5544 17.5 18.3333V8.88001L18.6392 9.81167C18.7236 9.88294 18.8214 9.93669 18.9269 9.9698C19.0323 10.0029 19.1433 10.0147 19.2533 10.0046C19.3633 9.99438 19.4703 9.96241 19.5678 9.91053C19.6654 9.85864 19.7517 9.78787 19.8216 9.70232C19.8916 9.61678 19.9438 9.51817 19.9753 9.41224C20.0068 9.30632 20.0169 9.19518 20.0051 9.08531C19.9932 8.97544 19.9596 8.86903 19.9062 8.77226C19.8529 8.6755 19.7808 8.59031 19.6942 8.52167V8.52167Z" fill="#BDBDBD"/>
</g>
<defs>
<clipPath id="clip0_466_2500">
<rect width="20" height="20" fill="white"/>
</clipPath>
</defs>
</svg>
