<svg width="20" height="20" viewBox="0 0 20 20" fill="none" xmlns="http://www.w3.org/2000/svg">
<g clip-path="url(#clip0_466_1216)">
<path d="M17.6666 1.53252L10.1666 0.0325208C10.0588 0.0109696 9.94778 0.0109696 9.83996 0.0325208L2.33996 1.53252C2.15036 1.56961 1.97954 1.67143 1.85672 1.82055C1.7339 1.96967 1.6667 2.15683 1.66663 2.35002V10.8334C1.66663 17.5 9.99996 20 9.99996 20C9.99996 20 18.3333 17.5 18.3333 10.8334V2.35002C18.3335 2.15777 18.2673 1.97135 18.1458 1.82236C18.0243 1.67337 17.855 1.57097 17.6666 1.53252ZM9.21413 13.7259L5.48829 10L6.66663 8.82169L9.11913 11.2742L14.0766 5.49169L15.3416 6.57502L9.21413 13.7259Z" fill="#49493D"/>
</g>
<defs>
<clipPath id="clip0_466_1216">
<rect width="20" height="20" fill="white"/>
</clipPath>
</defs>
</svg>
