<svg width="20" height="20" viewBox="0 0 20 20" fill="none" xmlns="http://www.w3.org/2000/svg">
<path d="M19.1667 10.8333H0.833333C0.333333 10.8333 0 10.5 0 9.99996C0 9.49996 0.333333 9.16663 0.833333 9.16663H19.1667C19.6667 9.16663 20 9.49996 20 9.99996C20 10.5 19.6667 10.8333 19.1667 10.8333Z" fill="#49493D"/>
<path d="M19.1667 4.99998H0.833333C0.333333 4.99998 0 4.66665 0 4.16665C0 3.66665 0.333333 3.33331 0.833333 3.33331H19.1667C19.6667 3.33331 20 3.66665 20 4.16665C20 4.66665 19.6667 4.99998 19.1667 4.99998Z" fill="#49493D"/>
<path d="M19.1667 16.6667H0.833333C0.333333 16.6667 0 16.3333 0 15.8333C0 15.3333 0.333333 15 0.833333 15H19.1667C19.6667 15 20 15.3333 20 15.8333C20 16.3333 19.6667 16.6667 19.1667 16.6667Z" fill="#49493D"/>
</svg>
