<svg width="20" height="20" viewBox="0 0 20 20" fill="none" xmlns="http://www.w3.org/2000/svg">
<g clip-path="url(#clip0_466_907)">
<path d="M8.33333 15.8333C6.84997 15.8333 5.39992 15.3934 4.16655 14.5693C2.93319 13.7452 1.97189 12.5738 1.40424 11.2034C0.836578 9.83294 0.688053 8.32494 0.977442 6.87008C1.26683 5.41522 1.98114 4.07885 3.03003 3.02995C4.07892 1.98106 5.4153 1.26675 6.87015 0.977366C8.32501 0.687977 9.83301 0.836502 11.2035 1.40416C12.5739 1.97182 13.7452 2.93311 14.5694 4.16648C15.3935 5.39985 15.8333 6.8499 15.8333 8.33325C15.8309 10.3216 15.04 12.2279 13.634 13.6339C12.228 15.0399 10.3217 15.8308 8.33333 15.8333ZM8.33333 2.49992C7.17961 2.49992 6.05179 2.84204 5.0925 3.48302C4.13322 4.12399 3.38555 5.03503 2.94403 6.10093C2.50252 7.16684 2.387 8.33973 2.61208 9.47128C2.83716 10.6028 3.39274 11.6422 4.20854 12.458C5.02435 13.2739 6.06375 13.8294 7.1953 14.0545C8.32686 14.2796 9.49975 14.1641 10.5657 13.7226C11.6316 13.281 12.5426 12.5334 13.1836 11.5741C13.8245 10.6148 14.1667 9.48698 14.1667 8.33325C14.1649 6.7867 13.5498 5.30399 12.4562 4.21041C11.3626 3.11683 9.87989 2.50169 8.33333 2.49992Z" fill="#FECC2A"/>
<path d="M5.83333 8.33317H4.16666C4.16799 7.22851 4.6074 6.16947 5.38851 5.38835C6.16963 4.60724 7.22867 4.16783 8.33333 4.1665V5.83317C7.67029 5.83317 7.0344 6.09656 6.56556 6.5654C6.09672 7.03424 5.83333 7.67013 5.83333 8.33317Z" fill="#FECC2A"/>
<path d="M18.9225 17.7442L15.3758 14.1975C15.0197 14.6253 14.6253 15.0197 14.1975 15.3758L17.7442 18.9225C17.9013 19.0743 18.1118 19.1583 18.3303 19.1564C18.5488 19.1545 18.7578 19.0669 18.9123 18.9124C19.0669 18.7579 19.1545 18.5488 19.1564 18.3303C19.1583 18.1118 19.0743 17.9013 18.9225 17.7442Z" fill="#FECC2A"/>
</g>
<defs>
<clipPath id="clip0_466_907">
<rect width="20" height="20" fill="white"/>
</clipPath>
</defs>
</svg>
