<svg width="32" height="32" viewBox="0 0 32 32" fill="none" xmlns="http://www.w3.org/2000/svg">
<path d="M16 1C21.4033 1 27 5.17055 27 12C27 13.5394 26.4111 15.3751 25.4326 17.332C24.4625 19.2722 23.1537 21.2444 21.8154 23.0342C19.14 26.6123 16.4119 29.3742 16.2266 29.5596C16.1523 29.6339 16.1172 29.6503 16.1104 29.6533C16.1065 29.6551 16.0805 29.667 16 29.667C15.9195 29.667 15.8935 29.6551 15.8896 29.6533C15.8828 29.6503 15.8477 29.6339 15.7734 29.5596C15.5881 29.3742 12.86 26.6123 10.1846 23.0342C8.84631 21.2444 7.53747 19.2722 6.56738 17.332C5.58891 15.3751 5 13.5394 5 12C5 5.17055 10.5967 1 16 1ZM16 7C13.181 7 11 9.18105 11 12C11 14.819 13.181 17 16 17C18.819 17 21 14.819 21 12C21 9.18105 18.819 7 16 7Z" fill="#FED16C" stroke="white" stroke-width="2"/>
</svg>
