<svg width="17" height="32" viewBox="0 0 17 32" fill="none" xmlns="http://www.w3.org/2000/svg">
<g clip-path="url(#clip0_205_171)">
<path d="M15.3166 5.14502C15.1528 3.73291 14.8911 3.00309 14.426 2.41612C14.233 2.45789 14.0247 2.42044 13.8505 2.29343L12.1712 1.06795C11.9944 0.938917 11.8889 0.743646 11.8621 0.537142C11.7826 0.509205 11.7006 0.482708 11.6174 0.457075V2.00974H4.72825V0.456787C4.64505 0.48242 4.56329 0.508917 4.48356 0.536854C4.45669 0.743646 4.35096 0.938629 4.17445 1.06766L2.49485 2.29343C2.32093 2.42044 2.11236 2.45789 1.91938 2.41612C1.45456 3.00309 1.19282 3.73291 1.02873 5.14502C0.595112 8.87995 1.32947 14.7496 1.31156 16.1954C1.21536 23.9075 1.1518 28.6026 1.66458 30.2282C1.76193 30.5369 2.0046 30.7915 2.34087 31.0023C2.4128 30.9689 2.49976 30.9479 2.60722 30.9479C3.20609 30.9479 3.49758 31.3373 4.16 31.2255C4.59709 31.1518 4.745 31.5121 4.79556 31.7658C5.18787 31.8275 5.58191 31.873 5.95545 31.9067C6.01669 31.8217 6.11607 31.7658 6.22902 31.7658H10.1117C10.2249 31.7658 10.3243 31.822 10.3856 31.9073C10.6646 31.8822 10.9552 31.8505 11.2482 31.8105C11.2901 31.557 11.429 31.1478 11.8921 31.2258C12.5545 31.3376 12.846 30.9482 13.4449 30.9482C13.6318 30.9482 13.7592 31.0101 13.8467 31.0954C14.2653 30.8681 14.5692 30.5841 14.6813 30.2287C15.1941 28.6032 15.1306 23.9081 15.0344 16.196C15.0159 14.7496 15.7502 8.87995 15.3166 5.14502Z" fill="#FECC2A"/>
<path d="M11.6171 2.00955V0.456885C9.65207 -0.15197 6.69327 -0.15197 4.72824 0.456885V2.00955H11.6171Z" fill="url(#paint0_linear_205_171)"/>
<path d="M14.8885 5.37619C14.6227 3.03293 14.0851 2.64095 12.7631 1.54161C10.9697 0.050582 5.37593 0.050582 3.5828 1.54161C2.26056 2.64095 1.72293 3.03293 1.45716 5.37619C1.04953 8.97171 1.73969 14.621 1.72293 16.013C1.63251 23.4362 1.57271 27.9556 2.05458 29.5201C2.61011 31.3231 8.17267 31.2246 8.17267 31.2246C8.17267 31.2246 13.7352 31.3231 14.2908 29.5201C14.7729 27.9556 14.7128 23.4362 14.6224 16.013C14.6059 14.621 15.2961 8.97171 14.8885 5.37619Z" fill="#FECC2A"/>
<path d="M5.43284 13.1282C4.26949 13.2912 3.43691 13.6109 3.12896 13.7428L3.21938 14.256C3.21938 14.256 4.12851 13.7903 5.551 13.5821C6.77849 13.4021 9.56713 13.4021 10.7946 13.5821C12.2168 13.7903 13.1265 14.256 13.1265 14.256L13.2164 13.7428C12.9084 13.6109 12.0758 13.2912 10.9125 13.1282C9.62982 12.9485 6.71551 12.9485 5.43284 13.1282Z" fill="url(#paint1_linear_205_171)"/>
<path d="M2.76987 9.27061C3.22198 9.07505 4.00718 8.75046 5.23669 8.48376C7.00093 8.10128 9.34469 8.10128 11.1089 8.48376C12.3384 8.75046 13.1239 9.07505 13.5758 9.27061C13.7734 9.35586 13.8987 9.42671 13.9626 9.49756L13.9655 9.48172C13.9655 9.48172 14.049 9.11076 13.9952 9.01111C13.9487 8.92471 13.8141 8.84349 13.5758 8.74067C13.1239 8.54511 12.3384 8.22052 11.1089 7.95382C9.34498 7.57106 7.00093 7.57106 5.23669 7.95382C4.00747 8.22052 3.22198 8.54511 2.76987 8.74067C2.53153 8.84349 2.39691 8.92471 2.35011 9.01111C2.29638 9.11076 2.38015 9.48172 2.38015 9.48172L2.38304 9.49756C2.44689 9.42642 2.57227 9.35586 2.76987 9.27061Z" fill="url(#paint2_linear_205_171)"/>
<path d="M5.43284 13.1281C6.71551 12.9481 9.62982 12.9481 10.9128 13.1281C12.0761 13.2912 12.9087 13.6108 13.2167 13.7428L13.9629 9.49719C13.8987 9.42634 13.7736 9.35578 13.576 9.27024C13.1242 9.07468 12.3387 8.75009 11.1092 8.48339C9.34526 8.10091 7.00122 8.10091 5.23698 8.48339C4.00775 8.75009 3.22226 9.07468 2.77015 9.27024C2.57255 9.35549 2.44718 9.42605 2.38333 9.49719L3.12924 13.7428C3.43691 13.6111 4.26949 13.2912 5.43284 13.1281Z" fill="url(#paint3_linear_205_171)"/>
<path d="M12.8449 25.3957C12.8067 25.2116 12.7628 25.027 12.712 24.8433C12.712 24.8433 12.6467 24.877 12.5138 24.93C12.0273 25.1244 10.6297 25.578 8.17295 25.578C5.92193 25.578 4.36395 25.1062 3.83413 24.9187C3.70298 24.8723 3.63393 24.8433 3.63393 24.8433C3.58482 25.0207 3.54178 25.1995 3.50451 25.3775C3.13907 27.1232 3.31587 28.7899 3.31587 28.7899C3.31587 28.7899 4.30502 29.2325 5.71827 29.4906C6.80535 29.6893 9.54055 29.6893 10.6276 29.4906C12.0409 29.2325 13.03 28.7899 13.03 28.7899C13.03 28.7899 13.2051 27.1347 12.8449 25.3957ZM12.6903 28.346C12.6903 28.346 11.7702 28.7887 10.456 29.0468C9.44493 29.2455 6.90098 29.2455 5.88987 29.0468C4.57571 28.7887 3.6556 28.346 3.6556 28.346C3.6556 28.346 3.52213 26.9898 3.74515 25.4426C4.57484 25.6601 6.11751 25.97 8.17295 25.97C10.3801 25.97 11.8291 25.6817 12.6039 25.4665C12.8226 27.0036 12.6903 28.346 12.6903 28.346Z" fill="url(#paint4_linear_205_171)"/>
<path d="M3.74516 25.4429C3.52184 26.9901 3.6556 28.3463 3.6556 28.3463C3.6556 28.3463 4.57571 28.789 5.88987 29.047C6.90098 29.2458 9.44493 29.2458 10.456 29.047C11.7705 28.789 12.6903 28.3463 12.6903 28.3463C12.6903 28.3463 12.8226 27.0039 12.6042 25.4668C11.8294 25.6819 10.3804 25.9702 8.17324 25.9702C6.11751 25.9702 4.57456 25.6603 3.74516 25.4429Z" fill="url(#paint5_linear_205_171)"/>
<path d="M2.0956 18.6091L3.07724 18.9409L2.90824 14.5513L1.97195 9.3501C1.97195 9.3501 1.89078 10.6839 1.97195 12.5963C2.02338 13.8053 2.16898 15.4703 2.16638 16.5435C2.16407 17.5627 2.12651 18.2539 2.0956 18.6091Z" fill="url(#paint6_linear_205_171)"/>
<path d="M14.25 18.6091L13.2684 18.9409L13.4374 14.5513L14.3737 9.3501C14.3737 9.3501 14.4548 10.6839 14.3737 12.5963C14.3222 13.8053 14.1769 15.4703 14.1792 16.5435C14.1818 17.5627 14.2125 18.2632 14.25 18.6091Z" fill="url(#paint7_linear_205_171)"/>
<path d="M2.06671 19.0149L3.08389 19.4391L3.19742 23.1095C3.19742 23.1095 3.10873 23.5655 2.72913 24.3177C2.29638 25.1752 2.06671 25.4151 2.06671 25.4151C2.06671 25.4151 1.9552 20.389 2.06671 19.0149Z" fill="url(#paint8_linear_205_171)"/>
<path d="M14.2789 19.0149L13.2617 19.4391L13.1482 23.1095C13.1482 23.1095 13.2366 23.5655 13.6162 24.3177C14.049 25.1752 14.2786 25.4151 14.2786 25.4151C14.2786 25.4151 14.3901 20.389 14.2789 19.0149Z" fill="url(#paint9_linear_205_171)"/>
<path d="M2.49484 2.2934L4.17444 1.06791C4.35095 0.938884 4.45669 0.743613 4.48355 0.537109C4.00458 0.705596 3.59493 0.913539 3.28987 1.16123C2.69909 1.64077 2.25622 1.99099 1.91938 2.41609C2.11235 2.45785 2.32093 2.42041 2.49484 2.2934Z" fill="url(#paint10_radial_205_171)"/>
<path d="M12.1712 1.06771L13.8505 2.2932C14.0247 2.42021 14.233 2.45765 14.426 2.41589C14.0894 1.99079 13.6465 1.64057 13.0558 1.16074C12.7504 0.913051 12.341 0.705107 11.8621 0.536621C11.8889 0.743701 11.9944 0.938684 12.1712 1.06771Z" fill="url(#paint11_radial_205_171)"/>
<path d="M4.16 31.2254C3.49758 31.3371 3.20609 30.9478 2.60722 30.9478C2.49975 30.9478 2.41251 30.9688 2.34087 31.0022C2.94955 31.3835 3.86707 31.62 4.79556 31.7654C4.745 31.512 4.5968 31.1517 4.16 31.2254Z" fill="#93091A"/>
<path d="M11.8918 31.2254C11.4287 31.1473 11.2898 31.5566 11.2479 31.8101C12.1986 31.6799 13.1716 31.4613 13.8464 31.0949C13.7592 31.01 13.6315 30.9478 13.4446 30.9478C12.8457 30.9478 12.5542 31.3371 11.8918 31.2254Z" fill="#93091A"/>
<path d="M3.50451 7.66663C3.50451 7.66663 4.641 5.59929 4.79555 4.83146C4.914 4.2442 4.72824 2.43262 4.72824 2.43262C4.72824 2.43262 4.60546 4.15953 4.48355 4.72086C4.31889 5.48121 3.50451 7.66663 3.50451 7.66663Z" fill="url(#paint12_linear_205_171)"/>
<path d="M12.8535 7.66663C12.8535 7.66663 11.717 5.59929 11.5625 4.83146C11.4443 4.2442 11.6298 2.43262 11.6298 2.43262C11.6298 2.43262 11.7526 4.15953 11.8745 4.72086C12.0392 5.48121 12.8535 7.66663 12.8535 7.66663Z" fill="url(#paint13_linear_205_171)"/>
<path d="M13.5758 9.27071C13.1239 9.07515 12.3384 8.75056 11.1089 8.48386C10.6782 8.39055 10.2128 8.32027 9.73006 8.27246C8.49102 9.60365 7.02346 12.0169 6.42344 13.0393C7.86471 12.9567 9.89849 12.9863 10.9128 13.1286C12.0761 13.2916 12.9087 13.6113 13.2167 13.7432L13.9629 9.49766C13.8984 9.42652 13.7734 9.35596 13.5758 9.27071Z" fill="url(#paint14_linear_205_171)"/>
<path d="M8.17267 13.9184C4.57571 13.8369 3.36873 14.489 3.36873 14.489C3.36873 14.489 3.41235 23.1791 3.68709 24.0423C3.87342 24.6278 6.13918 24.8867 7.57871 24.993H8.76691C10.2062 24.8867 12.4722 24.6278 12.6585 24.0423C12.933 23.1791 12.9769 14.489 12.9769 14.489C12.9769 14.489 11.7696 13.8369 8.17267 13.9184Z" fill="#FECC2A"/>
<path d="M8.79956 30.9377C12.2928 30.8291 13.8389 29.8412 13.8389 29.8412L13.1482 29.0115C10.9677 30.2283 8.17267 29.9798 8.17267 29.9798C8.17093 29.9798 5.37767 30.2283 3.19713 29.0115L2.5064 29.8412C2.5064 29.8412 4.05282 30.8294 7.54578 30.9377C7.72807 30.9443 8.17267 30.9481 8.17267 30.9481C8.40956 30.9478 8.61727 30.9443 8.79956 30.9377Z" fill="url(#paint15_linear_205_171)"/>
<path d="M4.16953 1.3457C4.16953 1.3457 2.00431 2.43611 1.77378 4.85943C1.53862 7.33517 1.573 8.58197 1.573 8.58197C1.573 8.58197 2.31515 2.65961 4.16953 1.3457Z" fill="url(#paint16_linear_205_171)"/>
<path d="M12.1879 1.3457C12.1879 1.3457 14.3534 2.43611 14.5837 4.85943C14.8188 7.33517 14.7845 8.58197 14.7845 8.58197C14.7845 8.58197 14.0426 2.65961 12.1879 1.3457Z" fill="url(#paint17_linear_205_171)"/>
<path d="M14.3326 9.67407C14.3326 9.67407 14.894 9.78496 14.907 10.2645C14.9197 10.744 14.3454 11.7166 14.3326 11.1012C14.3199 10.4857 14.2815 9.85869 14.3326 9.67407Z" fill="url(#paint18_linear_205_171)"/>
<path d="M16.2855 10.7257C16.1619 10.5595 15.0315 10.2093 15.0315 10.2093C14.8087 10.1361 14.7322 10.3337 14.7065 10.501L16.3274 10.9929C16.3465 10.9178 16.3528 10.8158 16.2855 10.7257Z" fill="url(#paint19_linear_205_171)"/>
<path d="M14.7065 10.5007C14.6894 10.6096 14.6938 10.7061 14.6938 10.7061L16.2855 11.1012C16.2855 11.1012 16.311 11.0563 16.3271 10.9929L14.7065 10.5007Z" fill="url(#paint20_linear_205_171)"/>
<path d="M2.00604 9.64087C2.00604 9.64087 1.40862 9.75147 1.39504 10.231C1.38147 10.7105 1.99247 11.6832 2.00604 11.0677C2.01962 10.4525 2.06036 9.82548 2.00604 9.64087Z" fill="url(#paint21_linear_205_171)"/>
<path d="M1.30895 10.1761C1.30895 10.1761 0.178533 10.5263 0.0548884 10.6922C-0.0187783 10.7916 -0.00433386 10.9053 0.019355 10.9817L1.63742 10.4866C1.61402 10.3158 1.54007 10.1001 1.30895 10.1761Z" fill="url(#paint22_linear_205_171)"/>
<path d="M0.0190659 10.9817C0.0349547 11.0332 0.0545992 11.0681 0.0545992 11.0681L1.64667 10.6729C1.64667 10.6729 1.65071 10.5877 1.63713 10.4866L0.0190659 10.9817Z" fill="url(#paint23_linear_205_171)"/>
<path d="M1.32831 15.9731C1.24569 15.9731 1.17867 16.0397 1.17867 16.122V17.3562C1.17867 17.4383 1.2454 17.5051 1.32831 17.5051V15.9731Z" fill="#595959"/>
<path d="M1.25349 22.1487C1.17087 22.1487 1.10384 22.2155 1.10384 22.2979V23.532C1.10384 23.6144 1.17087 23.6812 1.25349 23.6812V22.1487Z" fill="#595959"/>
<path d="M15.0173 15.9731C15.0999 15.9731 15.167 16.0397 15.167 16.122V17.3562C15.167 17.4383 15.1002 17.5051 15.0173 17.5051V15.9731Z" fill="#595959"/>
<path d="M15.0921 22.1487C15.1748 22.1487 15.2418 22.2155 15.2418 22.2979V23.532C15.2418 23.6144 15.1748 23.6812 15.0921 23.6812V22.1487Z" fill="#595959"/>
<path d="M4.92151 7.21913C5.16158 7.20013 5.28175 7.06476 5.52211 7.04575C5.54146 7.04431 5.55735 7.02876 5.55735 7.00917C5.55735 6.98959 5.54146 6.97375 5.52211 6.97519C5.28175 6.99391 5.16158 7.12956 4.92151 7.14828C4.90186 7.15001 4.88626 7.16556 4.88626 7.18515C4.88626 7.20473 4.90215 7.22057 4.92151 7.21913Z" fill="#9E9E9E"/>
<path d="M5.52211 7.11634C5.28204 7.13535 5.16187 7.27071 4.9218 7.28972C4.90215 7.29116 4.88626 7.307 4.88626 7.3263C4.88626 7.34559 4.90215 7.36172 4.92151 7.36C5.16158 7.34099 5.28175 7.20562 5.52182 7.1869C5.54147 7.18517 5.55735 7.16962 5.55735 7.15004C5.55735 7.13074 5.54146 7.11461 5.52211 7.11634Z" fill="#9E9E9E"/>
<path d="M5.52211 7.25717C5.28204 7.27618 5.16187 7.41155 4.9218 7.43055C4.90215 7.43199 4.88655 7.44755 4.88655 7.46713C4.88655 7.48672 4.90244 7.50256 4.9218 7.50112C5.16187 7.48211 5.28204 7.34674 5.5224 7.32773C5.54175 7.32629 5.55764 7.31045 5.55764 7.29116C5.55735 7.27129 5.54147 7.25573 5.52211 7.25717Z" fill="#9E9E9E"/>
<path d="M11.4186 7.21913C11.1786 7.20013 11.0584 7.06476 10.818 7.04575C10.7987 7.04431 10.7828 7.02876 10.7828 7.00917C10.7828 6.98959 10.7987 6.97375 10.818 6.97519C11.0584 6.99391 11.1783 7.12956 11.4186 7.14828C11.4383 7.15001 11.4542 7.16556 11.4542 7.18515C11.4539 7.20473 11.4383 7.22057 11.4186 7.21913Z" fill="#9E9E9E"/>
<path d="M10.8183 7.11634C11.0584 7.13535 11.1786 7.27071 11.4186 7.28972C11.438 7.29116 11.4542 7.307 11.4542 7.3263C11.4542 7.34559 11.4383 7.36172 11.4186 7.36C11.1786 7.34099 11.0584 7.20562 10.8183 7.1869C10.799 7.18517 10.7828 7.16962 10.7828 7.15004C10.7828 7.13074 10.7987 7.11461 10.8183 7.11634Z" fill="#9E9E9E"/>
<path d="M10.8183 7.25717C11.0584 7.27618 11.1786 7.41155 11.4186 7.43055C11.4383 7.43199 11.4542 7.44755 11.4542 7.46713C11.4542 7.48672 11.4383 7.50256 11.4186 7.50112C11.1786 7.48211 11.0584 7.34674 10.818 7.32773C10.7987 7.32629 10.7828 7.31045 10.7828 7.29116C10.7828 7.27129 10.7987 7.25573 10.8183 7.25717Z" fill="#9E9E9E"/>
<path d="M10.1114 31.7656H6.22873C6.11578 31.7656 6.0164 31.8215 5.95515 31.9065C7.17311 32.0162 8.17238 31.9992 8.17267 31.9992C8.17267 31.9992 9.16933 32.0165 10.3853 31.907C10.3243 31.8218 10.2246 31.7656 10.1114 31.7656Z" fill="url(#paint24_linear_205_171)"/>
<path d="M12.6039 25.4668C11.8291 25.6819 10.3801 25.9702 8.17295 25.9702C7.72171 25.9702 7.29675 25.9547 6.89722 25.9288C5.63131 26.4967 4.86402 28.2804 4.68491 28.7369C5.02464 28.8449 5.43255 28.9569 5.88987 29.0468C6.90098 29.2455 9.44493 29.2455 10.456 29.0468C11.7705 28.7887 12.6903 28.346 12.6903 28.346C12.6903 28.346 12.8226 27.0036 12.6039 25.4668Z" fill="url(#paint25_linear_205_171)"/>
</g>
<defs>
<linearGradient id="paint0_linear_205_171" x1="4.72827" y1="1.0048" x2="11.6172" y2="1.0048" gradientUnits="userSpaceOnUse">
<stop stop-color="#525956"/>
<stop offset="1" stop-color="#2C2E2E"/>
</linearGradient>
<linearGradient id="paint1_linear_205_171" x1="3.12896" y1="13.6248" x2="13.2165" y2="13.6248" gradientUnits="userSpaceOnUse">
<stop/>
<stop offset="1" stop-color="#1B1C1C"/>
</linearGradient>
<linearGradient id="paint2_linear_205_171" x1="2.33234" y1="8.582" x2="14.0132" y2="8.582" gradientUnits="userSpaceOnUse">
<stop/>
<stop offset="1" stop-color="#1B1C1C"/>
</linearGradient>
<linearGradient id="paint3_linear_205_171" x1="2.38301" y1="10.9697" x2="13.9626" y2="10.9697" gradientUnits="userSpaceOnUse">
<stop stop-color="#363B39"/>
<stop offset="1" stop-color="#1B1C1C"/>
</linearGradient>
<linearGradient id="paint4_linear_205_171" x1="3.27302" y1="27.2414" x2="13.0725" y2="27.2414" gradientUnits="userSpaceOnUse">
<stop/>
<stop offset="1" stop-color="#1B1C1C"/>
</linearGradient>
<linearGradient id="paint5_linear_205_171" x1="3.61585" y1="27.3194" x2="12.7299" y2="27.3194" gradientUnits="userSpaceOnUse">
<stop stop-color="#363B39"/>
<stop offset="1" stop-color="#1B1C1C"/>
</linearGradient>
<linearGradient id="paint6_linear_205_171" x1="1.93593" y1="14.1455" x2="3.07733" y2="14.1455" gradientUnits="userSpaceOnUse">
<stop stop-color="#363B39"/>
<stop offset="1" stop-color="#1B1C1C"/>
</linearGradient>
<linearGradient id="paint7_linear_205_171" x1="13.2681" y1="14.1455" x2="14.4097" y2="14.1455" gradientUnits="userSpaceOnUse">
<stop stop-color="#363B39"/>
<stop offset="1" stop-color="#1B1C1C"/>
</linearGradient>
<linearGradient id="paint8_linear_205_171" x1="2.01717" y1="22.2148" x2="3.19736" y2="22.2148" gradientUnits="userSpaceOnUse">
<stop stop-color="#363B39"/>
<stop offset="1" stop-color="#1B1C1C"/>
</linearGradient>
<linearGradient id="paint9_linear_205_171" x1="13.1484" y1="22.2148" x2="14.3283" y2="22.2148" gradientUnits="userSpaceOnUse">
<stop stop-color="#363B39"/>
<stop offset="1" stop-color="#1B1C1C"/>
</linearGradient>
<radialGradient id="paint10_radial_205_171" cx="0" cy="0" r="1" gradientUnits="userSpaceOnUse" gradientTransform="translate(3.20158 1.48462) scale(1.11078 1.15978)">
<stop stop-color="white"/>
<stop offset="1" stop-color="#D2D6D5"/>
</radialGradient>
<radialGradient id="paint11_radial_205_171" cx="0" cy="0" r="1" gradientUnits="userSpaceOnUse" gradientTransform="translate(13.1439 1.48471) scale(1.11075 1.15975)">
<stop stop-color="white"/>
<stop offset="1" stop-color="#D2D6D5"/>
</radialGradient>
<linearGradient id="paint12_linear_205_171" x1="3.70286" y1="6.96138" x2="5.31663" y2="1.88468" gradientUnits="userSpaceOnUse">
<stop stop-color="#D2DBDA"/>
<stop offset="1" stop-color="#B5B5B5"/>
</linearGradient>
<linearGradient id="paint13_linear_205_171" x1="12.5119" y1="7.26207" x2="11.2276" y2="2.14618" gradientUnits="userSpaceOnUse">
<stop stop-color="#D2DBDA"/>
<stop offset="1" stop-color="#B5B5B5"/>
</linearGradient>
<linearGradient id="paint14_linear_205_171" x1="8.15007" y1="9.8145" x2="11.386" y2="12.1224" gradientUnits="userSpaceOnUse">
<stop stop-color="#363B39"/>
<stop offset="1"/>
</linearGradient>
<linearGradient id="paint15_linear_205_171" x1="6.49044" y1="27.0883" x2="12.4619" y2="36.9195" gradientUnits="userSpaceOnUse">
<stop stop-color="#F7F7F7"/>
<stop offset="1" stop-color="#DBDBDB"/>
</linearGradient>
<linearGradient id="paint16_linear_205_171" x1="0.59121" y1="-1.58227" x2="3.66614" y2="7.29918" gradientUnits="userSpaceOnUse">
<stop stop-color="#F7F7F7"/>
<stop offset="1" stop-color="#DBDBDB"/>
</linearGradient>
<linearGradient id="paint17_linear_205_171" x1="15.7666" y1="-1.58221" x2="12.6916" y2="7.29916" gradientUnits="userSpaceOnUse">
<stop stop-color="#F7F7F7"/>
<stop offset="1" stop-color="#DBDBDB"/>
</linearGradient>
<linearGradient id="paint18_linear_205_171" x1="14.2028" y1="9.86966" x2="15.4423" y2="12.2767" gradientUnits="userSpaceOnUse">
<stop stop-color="#363B39"/>
<stop offset="1" stop-color="#1B1C1C"/>
</linearGradient>
<linearGradient id="paint19_linear_205_171" x1="14.6931" y1="10.5932" x2="16.3407" y2="10.5932" gradientUnits="userSpaceOnUse">
<stop stop-color="white"/>
<stop offset="1" stop-color="#D2D6D5"/>
</linearGradient>
<linearGradient id="paint20_linear_205_171" x1="14.6933" y1="10.801" x2="16.3407" y2="10.801" gradientUnits="userSpaceOnUse">
<stop stop-color="#363B39"/>
<stop offset="1" stop-color="#1B1C1C"/>
</linearGradient>
<linearGradient id="paint21_linear_205_171" x1="1.71262" y1="10.0824" x2="2.79349" y2="12.4623" gradientUnits="userSpaceOnUse">
<stop stop-color="#363B39"/>
<stop offset="1" stop-color="#1B1C1C"/>
</linearGradient>
<linearGradient id="paint22_linear_205_171" x1="-5.26905e-07" y1="10.571" x2="1.64739" y2="10.571" gradientUnits="userSpaceOnUse">
<stop stop-color="#D2D6D5"/>
<stop offset="1" stop-color="white"/>
</linearGradient>
<linearGradient id="paint23_linear_205_171" x1="-0.000101443" y1="10.7773" x2="1.64721" y2="10.7773" gradientUnits="userSpaceOnUse">
<stop stop-color="#363B39"/>
<stop offset="1" stop-color="#1B1C1C"/>
</linearGradient>
<linearGradient id="paint24_linear_205_171" x1="5.95536" y1="31.8829" x2="10.3853" y2="31.8829" gradientUnits="userSpaceOnUse">
<stop stop-color="#363B39"/>
<stop offset="1" stop-color="#1B1C1C"/>
</linearGradient>
<linearGradient id="paint25_linear_205_171" x1="5.95036" y1="22.9832" x2="8.34334" y2="26.6639" gradientUnits="userSpaceOnUse">
<stop stop-color="#363B39"/>
<stop offset="1"/>
</linearGradient>
<clipPath id="clip0_205_171">
<rect width="16.3404" height="32" fill="white"/>
</clipPath>
</defs>
</svg>
