<svg width="32" height="32" viewBox="0 0 32 32" fill="none" xmlns="http://www.w3.org/2000/svg">
<path d="M16 0.5C21.635 0.5 27.5 4.85194 27.5 12C27.5 13.653 26.8722 15.5709 25.8799 17.5557C24.8917 19.532 23.5641 21.5307 22.2158 23.334C19.5202 26.9391 16.7734 29.7198 16.5801 29.9131C16.4763 30.0169 16.3919 30.0745 16.3135 30.1094C16.2372 30.1433 16.1417 30.167 16 30.167C15.8583 30.167 15.7628 30.1433 15.6865 30.1094C15.6081 30.0745 15.5237 30.0169 15.4199 29.9131C15.2266 29.7198 12.4798 26.9391 9.78418 23.334C8.43589 21.5307 7.10829 19.532 6.12012 17.5557C5.12775 15.5709 4.5 13.653 4.5 12C4.5 4.85194 10.365 0.5 16 0.5ZM16 7.5C13.4572 7.5 11.5 9.45719 11.5 12C11.5 14.5428 13.4572 16.5 16 16.5C18.5428 16.5 20.5 14.5428 20.5 12C20.5 9.45719 18.5428 7.5 16 7.5Z" fill="#FECC2A" stroke="white"/>
</svg>
