<svg width="20" height="20" viewBox="0 0 20 20" fill="none" xmlns="http://www.w3.org/2000/svg">
<g clip-path="url(#clip0_466_3137)">
<path d="M13.3333 16.6665V18.3332C13.3333 18.7932 13.7067 19.1665 14.1667 19.1665H17.5C17.96 19.1665 18.3333 18.7932 18.3333 18.3332V16.6665H13.3333Z" fill="#49493D"/>
<path d="M0.833333 15.8333H19.1667C19.6267 15.8333 20 15.4599 20 14.9999V9.99992C20 9.77909 19.9125 9.56659 19.7558 9.41075L18.2525 7.90742L16.6417 1.46409C16.5492 1.09325 16.2158 0.833252 15.8333 0.833252H4.16667C3.78417 0.833252 3.45083 1.09325 3.35833 1.46409L1.7475 7.90742L0.244167 9.41075C0.0875 9.56659 0 9.77909 0 9.99992V14.9999C0 15.4599 0.373333 15.8333 0.833333 15.8333ZM16.6667 12.0833C16.6667 12.7733 16.1067 13.3333 15.4167 13.3333C14.7267 13.3333 14.1667 12.7733 14.1667 12.0833C14.1667 11.3933 14.7267 10.8333 15.4167 10.8333C16.1067 10.8333 16.6667 11.3933 16.6667 12.0833ZM4.8175 2.49992H15.1825L16.4325 7.49992H3.5675L4.8175 2.49992ZM4.58333 10.8333C5.27333 10.8333 5.83333 11.3933 5.83333 12.0833C5.83333 12.7733 5.27333 13.3333 4.58333 13.3333C3.89333 13.3333 3.33333 12.7733 3.33333 12.0833C3.33333 11.3933 3.89333 10.8333 4.58333 10.8333Z" fill="#49493D"/>
<path d="M1.66667 16.6665V18.3332C1.66667 18.7932 2.04 19.1665 2.5 19.1665H5.83333C6.29333 19.1665 6.66667 18.7932 6.66667 18.3332V16.6665H1.66667Z" fill="#49493D"/>
</g>
<defs>
<clipPath id="clip0_466_3137">
<rect width="20" height="20" fill="white"/>
</clipPath>
</defs>
</svg>
