<svg width="20" height="20" viewBox="0 0 20 20" fill="none" xmlns="http://www.w3.org/2000/svg">
<g clip-path="url(#clip0_466_2075)">
<path d="M8.33338 15.8333C6.85002 15.8333 5.39997 15.3935 4.1666 14.5694C2.93323 13.7452 1.97194 12.5739 1.40428 11.2035C0.836624 9.83301 0.688099 8.32501 0.977488 6.87015C1.26688 5.4153 1.98118 4.07892 3.03008 3.03003C4.07897 1.98114 5.41534 1.26683 6.8702 0.977442C8.32506 0.688053 9.83306 0.836578 11.2035 1.40424C12.5739 1.97189 13.7453 2.93319 14.5694 4.16655C15.3935 5.39992 15.8334 6.84997 15.8334 8.33333C15.831 10.3217 15.04 12.228 13.634 13.634C12.228 15.04 10.3218 15.8309 8.33338 15.8333ZM8.33338 2.5C7.17965 2.5 6.05184 2.84212 5.09255 3.48309C4.13326 4.12407 3.38559 5.03511 2.94408 6.10101C2.50257 7.16691 2.38705 8.3398 2.61213 9.47136C2.83721 10.6029 3.39278 11.6423 4.20859 12.4581C5.02439 13.2739 6.0638 13.8295 7.19535 14.0546C8.32691 14.2797 9.4998 14.1641 10.5657 13.7226C11.6316 13.2811 12.5426 12.5334 13.1836 11.5742C13.8246 10.6149 14.1667 9.48706 14.1667 8.33333C14.1649 6.78678 13.5498 5.30407 12.4562 4.21049C11.3626 3.11691 9.87993 2.50176 8.33338 2.5Z" fill="#FECC2A"/>
<path d="M5.83341 8.33333H4.16675C4.16807 7.22867 4.60748 6.16963 5.3886 5.38851C6.16971 4.6074 7.22875 4.16799 8.33341 4.16666V5.83333C7.67037 5.83333 7.03449 6.09672 6.56565 6.56556C6.09681 7.0344 5.83341 7.67029 5.83341 8.33333Z" fill="#FECC2A"/>
<path d="M18.9225 17.7442L15.3758 14.1975C15.0197 14.6253 14.6253 15.0197 14.1975 15.3758L17.7442 18.9225C17.9013 19.0743 18.1118 19.1583 18.3303 19.1564C18.5488 19.1545 18.7579 19.0669 18.9124 18.9123C19.0669 18.7578 19.1545 18.5488 19.1564 18.3303C19.1583 18.1118 19.0743 17.9013 18.9225 17.7442Z" fill="#FECC2A"/>
</g>
<defs>
<clipPath id="clip0_466_2075">
<rect width="20" height="20" fill="white"/>
</clipPath>
</defs>
</svg>
