<svg width="20" height="20" viewBox="0 0 20 20" fill="none" xmlns="http://www.w3.org/2000/svg">
<g clip-path="url(#clip0_466_3150)">
<path d="M19.2867 7.11749L13.3858 6.25999L10.75 0.916653C10.6734 0.786534 10.5641 0.678673 10.433 0.603735C10.3019 0.528798 10.1535 0.48938 10.0025 0.48938C9.85149 0.48938 9.7031 0.528798 9.572 0.603735C9.4409 0.678673 9.33163 0.786534 9.255 0.916653L6.61417 6.25999L0.713332 7.11749C0.559449 7.1397 0.414849 7.20452 0.295879 7.30461C0.176909 7.40471 0.0883147 7.53609 0.0401116 7.68391C-0.00809138 7.83173 -0.0139804 7.99008 0.0231104 8.14107C0.0602012 8.29206 0.138793 8.42966 0.249999 8.53832L4.52083 12.7L3.51333 18.5775C3.48707 18.7307 3.50421 18.8883 3.56282 19.0323C3.62142 19.1763 3.71914 19.3011 3.84494 19.3924C3.97074 19.4838 4.11959 19.5382 4.27467 19.5494C4.42976 19.5606 4.58488 19.5282 4.7225 19.4558L10 16.6817L15.2775 19.4558C15.4151 19.5282 15.5702 19.5606 15.7253 19.5494C15.8804 19.5382 16.0293 19.4838 16.1551 19.3924C16.2809 19.3011 16.3786 19.1763 16.4372 19.0323C16.4958 18.8883 16.5129 18.7307 16.4867 18.5775L15.4792 12.7L19.75 8.53832C19.8612 8.42977 19.9398 8.2923 19.977 8.14144C20.0141 7.99057 20.0084 7.83232 19.9604 7.68454C19.9124 7.53677 19.824 7.40536 19.7052 7.30516C19.5865 7.20496 19.4421 7.13995 19.2883 7.11749H19.2867Z" fill="#BDBDBD"/>
</g>
<defs>
<clipPath id="clip0_466_3150">
<rect width="20" height="20" fill="white"/>
</clipPath>
</defs>
</svg>
