<svg width="20" height="20" viewBox="0 0 20 20" fill="none" xmlns="http://www.w3.org/2000/svg">
<g clip-path="url(#clip0_466_2477)">
<path d="M15.8333 4.16667H13.3333V3.48083C13.3333 1.74083 12.0642 0.184166 10.3325 0.0158329C8.345 -0.176667 6.66667 1.385 6.66667 3.33333V4.16667H4.16667C2.78583 4.16667 1.66667 5.28583 1.66667 6.66667V11.6667C1.66667 12.1267 2.04 12.5 2.5 12.5H17.5C17.96 12.5 18.3333 12.1267 18.3333 11.6667V6.66667C18.3333 5.28583 17.2142 4.16667 15.8333 4.16667ZM8.33333 3.33333C8.33333 2.41417 9.08083 1.66667 10 1.66667C10.9192 1.66667 11.6667 2.41417 11.6667 3.33333V4.16667H8.33333V3.33333Z" fill="#959595"/>
<path d="M1.66667 20H0.833333C0.373333 20 0 19.6267 0 19.1667V15.8333C0 15.3733 0.373333 15 0.833333 15H1.66667V20Z" fill="#959595"/>
<path d="M18.3333 20H19.1667C19.6267 20 20 19.6267 20 19.1667V15.8333C20 15.3733 19.6267 15 19.1667 15H18.3333V20Z" fill="#959595"/>
<path d="M3.33333 19.1666C3.33333 19.6275 3.70583 20 4.16667 20H15.8333C16.2942 20 16.6667 19.6275 16.6667 19.1666V14.1666H3.33333V19.1666Z" fill="#959595"/>
</g>
<defs>
<clipPath id="clip0_466_2477">
<rect width="20" height="20" fill="white"/>
</clipPath>
</defs>
</svg>
