<svg width="20" height="20" viewBox="0 0 20 20" fill="none" xmlns="http://www.w3.org/2000/svg">
<g clip-path="url(#clip0_466_239)">
<path d="M17.6667 1.53252L10.1667 0.0325208C10.0589 0.0109696 9.94784 0.0109696 9.84002 0.0325208L2.34002 1.53252C2.15042 1.56961 1.97961 1.67143 1.85678 1.82055C1.73396 1.96967 1.66676 2.15683 1.66669 2.35002V10.8334C1.66669 17.5 10 20 10 20C10 20 18.3334 17.5 18.3334 10.8334V2.35002C18.3336 2.15777 18.2673 1.97135 18.1458 1.82236C18.0243 1.67337 17.8551 1.57097 17.6667 1.53252ZM9.21419 13.7259L5.48835 10L6.66669 8.82169L9.11919 11.2742L14.0767 5.49169L15.3417 6.57502L9.21419 13.7259Z" fill="#49493D"/>
</g>
<defs>
<clipPath id="clip0_466_239">
<rect width="20" height="20" fill="white"/>
</clipPath>
</defs>
</svg>
