<svg width="156" height="82" viewBox="0 0 156 82" fill="none" xmlns="http://www.w3.org/2000/svg">
<path d="M150.254 43.1904L114.01 7.8396C108.89 2.84544 101.643 0 94.0452 0H91.5546H8.91526C5.26267 0 2.30139 2.9625 2.30139 6.61659V62.8543C2.30139 66.5084 5.26267 69.4709 8.91526 69.4709H91.5551H152.415V48.1522C152.415 46.3162 151.644 44.5464 150.254 43.1904Z" fill="white"/>
<path d="M109.056 10.5822C108.394 9.96767 107.437 9.61546 106.431 9.61546H98.2317C97.7215 9.61546 97.3079 9.95124 97.3079 10.3656V37.2566C97.3079 37.6283 97.6789 37.9297 98.1367 37.9297H126.553V26.8134L109.056 10.5822Z" fill="#FECC2A"/>
<path d="M137.269 36.754L128.23 28.3691V37.9298H136.613C137.362 37.9298 137.763 37.212 137.269 36.754Z" fill="#FECC2A"/>
<path d="M122.862 40.1015H120.276C119.515 40.1015 118.898 39.4844 118.898 38.7234V30.7477C118.898 29.9868 119.515 29.3696 120.276 29.3696H122.862C123.623 29.3696 124.239 29.9868 124.239 30.7477V38.7229C124.239 39.4844 123.623 40.1015 122.862 40.1015Z" fill="#FED16C"/>
<path d="M127.138 38.9695C126.805 39.3027 126.266 39.3027 125.933 38.9695L122.882 35.9171C122.549 35.5839 122.549 35.0438 122.882 34.7106C123.215 34.3774 123.755 34.3774 124.088 34.7106L127.138 37.7629C127.471 38.0962 127.471 38.6363 127.138 38.9695Z" fill="#FED16C"/>
<path opacity="0.18" d="M127.156 38.9695C127.07 39.0563 122.819 34.7907 122.9 34.7112C123.233 34.378 123.773 34.378 124.106 34.7112L127.157 37.7635C127.489 38.0962 127.489 38.6363 127.156 38.9695Z" fill="#FED16C"/>
<path d="M150.975 51.0678H139.88V47.8779C139.88 46.5897 140.924 45.5449 142.212 45.5449H147.472C149.407 45.5449 150.976 47.1139 150.976 49.0495V51.0678H150.975Z" fill="#F28393"/>
<path opacity="0.58" d="M150.975 51.0678H145.139V47.8779C145.139 46.5897 146.183 45.5449 147.471 45.5449C149.406 45.5449 150.975 47.1139 150.975 49.0495V51.0678Z" fill="white"/>
<path d="M152.415 51.0679H2.30139V69.4709H152.415V51.0679Z" fill="#FECC2A"/>
<path d="M152.415 51.0679H2.30139V57.9526H152.415V51.0679Z" fill="#FED16C"/>
<path d="M17.0985 69.4709H1.14706C0.513742 69.4709 0 68.9569 0 68.3234V61.4172C0 60.7836 0.513742 60.2697 1.14706 60.2697H17.0985C17.7318 60.2697 18.2455 60.7836 18.2455 61.4172V68.3234C18.2455 68.9569 17.7318 69.4709 17.0985 69.4709Z" fill="#FED16C"/>
<path d="M154.195 69.4709H142.352C141.719 69.4709 141.205 68.9569 141.205 68.3234V61.4172C141.205 60.7836 141.719 60.2697 142.352 60.2697H154.195C154.828 60.2697 155.342 60.7836 155.342 61.4172V68.3234C155.342 68.9569 154.828 69.4709 154.195 69.4709Z" fill="#FED16C"/>
<path d="M112.543 45.5449H105.65C104.673 45.5449 103.882 44.7537 103.882 43.7772C103.882 42.8007 104.674 42.0095 105.65 42.0095H112.543C113.519 42.0095 114.311 42.8012 114.311 43.7772C114.311 44.7537 113.519 45.5449 112.543 45.5449Z" fill="#FED16C"/>
<path d="M10.191 43.7772H2.30139V48.3062H10.191V43.7772Z" fill="#F28393"/>
<path d="M10.191 48.3066H2.30139V52.2462H10.191V48.3066Z" fill="white"/>
<path d="M10.191 51.0678H2.30139V60.2111H10.191V51.0678Z" fill="#F28393"/>
<path opacity="0.08" d="M2.34391 5.87412H92.1716H93.3838C95.5511 5.87412 97.3084 4.11662 97.3084 1.94836V0.000373915H8.17308C4.93722 -0.000139523 2.3203 2.63689 2.34391 5.87412Z" fill="#FED16C"/>
<path opacity="0.25" d="M73.769 23.6747H25.5333C24.4375 23.6747 23.5491 22.786 23.5491 21.6898V16.2741C23.5491 15.1779 24.4375 14.2892 25.5333 14.2892H73.769C74.8647 14.2892 75.7531 15.1779 75.7531 16.2741V21.6898C75.7531 22.786 74.8647 23.6747 73.769 23.6747Z" fill="#FED16C"/>
<path opacity="0.25" d="M60.7177 31.7439H38.584C37.4882 31.7439 36.5999 30.8551 36.5999 29.7589V29.036C36.5999 27.9398 37.4882 27.051 38.584 27.051H60.7177C61.8134 27.051 62.7018 27.9398 62.7018 29.036V29.7589C62.7018 30.8551 61.8134 31.7439 60.7177 31.7439Z" fill="#FED16C"/>
<path d="M127.391 42.0095V57.9525" stroke="#FECC2A" stroke-miterlimit="10"/>
<path d="M10.4174 5.87406V51.0681" stroke="#FECC2A" stroke-miterlimit="10"/>
<path d="M91.5546 6.36842V69.4716" stroke="#FECC2A" stroke-miterlimit="10"/>
<path d="M123.319 56.0965C116.259 56.0965 110.534 61.8228 110.534 68.8871C110.534 75.9508 116.258 81.6776 123.319 81.6776C130.381 81.6776 136.104 75.9514 136.104 68.8871C136.104 61.8233 130.381 56.0965 123.319 56.0965ZM123.319 76.4104C119.327 76.4104 116.091 73.1727 116.091 69.1787C116.091 65.1847 119.327 61.947 123.319 61.947C127.312 61.947 130.548 65.1847 130.548 69.1787C130.548 73.1727 127.312 76.4104 123.319 76.4104Z" fill="#49493D"/>
<path d="M130.003 71.9674C131.542 68.2821 129.804 64.046 126.12 62.5059C122.436 60.9658 118.202 62.7048 116.662 66.3901C115.123 70.0755 116.861 74.3116 120.545 75.8517C124.229 77.3919 128.463 75.6528 130.003 71.9674Z" fill="white"/>
<path opacity="0.18" d="M126.237 69.1786C126.237 70.7908 124.931 72.0975 123.32 72.0975C121.708 72.0975 120.402 70.7908 120.402 69.1786C120.402 67.5665 121.708 66.2598 123.32 66.2598C124.931 66.2598 126.237 67.567 126.237 69.1786Z" fill="white"/>
<path d="M39.7013 56.0965C32.6404 56.0965 26.9159 61.8228 26.9159 68.8871C26.9159 75.9508 32.6398 81.6776 39.7013 81.6776C46.7622 81.6776 52.4866 75.9514 52.4866 68.8871C52.4861 61.8233 46.7622 56.0965 39.7013 56.0965ZM39.7013 76.4104C35.7089 76.4104 32.4725 73.1727 32.4725 69.1787C32.4725 65.1847 35.7089 61.947 39.7013 61.947C43.6936 61.947 46.93 65.1847 46.93 69.1787C46.93 73.1727 43.6936 76.4104 39.7013 76.4104Z" fill="#49493D"/>
<path d="M46.3707 71.9721C47.9117 68.2877 46.1754 64.0511 42.4925 62.5094C38.8095 60.9677 34.5747 62.7048 33.0336 66.3892C31.4926 70.0737 33.229 74.3103 36.9119 75.852C40.5948 77.3936 44.8296 75.6566 46.3707 71.9721Z" fill="white"/>
<path opacity="0.18" d="M42.6189 69.1786C42.6189 70.7908 41.3122 72.0975 39.7012 72.0975C38.0902 72.0975 36.7836 70.7908 36.7836 69.1786C36.7836 67.5665 38.0897 66.2598 39.7012 66.2598C41.3127 66.2598 42.6189 67.567 42.6189 69.1786Z" fill="white"/>
</svg>
