<svg width="20" height="20" viewBox="0 0 20 20" fill="none" xmlns="http://www.w3.org/2000/svg">
<g clip-path="url(#clip0_466_835)">
<path d="M20 9.16667H18.2908C17.8992 5.23583 14.7642 2.10083 10.8333 1.70917V0H9.16667V1.70917C5.23583 2.10083 2.10083 5.23583 1.70917 9.16667H0V10.8333H1.70917C2.10167 14.7642 5.23583 17.8992 9.16667 18.2908V20H10.8333V18.2908C14.7642 17.8983 17.8992 14.7642 18.2908 10.8333H20V9.16667ZM10.8333 16.6092V15H9.16667V16.6092C6.15667 16.2308 3.76917 13.8433 3.39083 10.8333H5V9.16667H3.39083C3.76917 6.15667 6.15667 3.76917 9.16667 3.39083V5H10.8333V3.39083C13.8433 3.76833 16.2308 6.15667 16.6092 9.16667H15V10.8333H16.6092C16.2308 13.8433 13.8433 16.2308 10.8333 16.6092Z" fill="#49493D"/>
<path d="M10 11.6666C10.9205 11.6666 11.6667 10.9204 11.6667 9.99992C11.6667 9.07944 10.9205 8.33325 10 8.33325C9.07957 8.33325 8.33337 9.07944 8.33337 9.99992C8.33337 10.9204 9.07957 11.6666 10 11.6666Z" fill="#49493D"/>
</g>
<defs>
<clipPath id="clip0_466_835">
<rect width="20" height="20" fill="white"/>
</clipPath>
</defs>
</svg>
