<svg width="20" height="20" viewBox="0 0 20 20" fill="none" xmlns="http://www.w3.org/2000/svg">
<path d="M8.33581 18.3333C8.33581 18.0442 8.39331 17.765 8.48748 17.5H3.33331C2.87331 17.5 2.49998 17.1267 2.49998 16.6667V3.33333C2.49998 2.87333 2.87331 2.5 3.33331 2.5H13.3333C13.7933 2.5 14.1666 2.87333 14.1666 3.33333V11.4675L14.7266 10.9075C15.045 10.5892 15.4233 10.3567 15.8333 10.2042V2.5C15.8333 1.12167 14.7116 0 13.3333 0H3.33331C1.95498 0 0.833313 1.12167 0.833313 2.5V17.5C0.833313 18.8783 1.95498 20 3.33331 20H8.33581V18.3333Z" fill="#49493D"/>
<path d="M15.905 12.0858L10.2467 17.7442C10.09 17.9008 10.0025 18.1125 10.0025 18.3333V20H11.6692C11.89 20 12.1017 19.9125 12.2583 19.7558L17.9167 14.0975C18.4725 13.5417 18.4725 12.6417 17.9167 12.0858C17.3608 11.53 16.4608 11.53 15.905 12.0858Z" fill="#49493D"/>
</svg>
