<svg width="17" height="17" viewBox="0 0 17 17" fill="none" xmlns="http://www.w3.org/2000/svg">
<g clip-path="url(#clip0_470_1602)">
<path d="M14.7222 1.27714L8.47225 0.0271414C8.3824 0.00918204 8.28988 0.00918204 8.20003 0.0271414L1.95003 1.27714C1.79203 1.30805 1.64968 1.3929 1.54733 1.51716C1.44498 1.64143 1.38898 1.7974 1.38892 1.95839V9.02784C1.38892 14.5834 8.33336 16.6667 8.33336 16.6667C8.33336 16.6667 15.2778 14.5834 15.2778 9.02784V1.95839C15.278 1.79818 15.2228 1.64283 15.1215 1.51867C15.0203 1.39451 14.8792 1.30918 14.7222 1.27714ZM7.6785 11.4383L4.57364 8.33339L5.55558 7.35145L7.59933 9.3952L11.7306 4.57645L12.7847 5.47923L7.6785 11.4383Z" fill="#49493D"/>
</g>
<defs>
<clipPath id="clip0_470_1602">
<rect width="16.6667" height="16.6667" fill="white"/>
</clipPath>
</defs>
</svg>
