<svg width="20" height="20" viewBox="0 0 20 20" fill="none" xmlns="http://www.w3.org/2000/svg">
<g clip-path="url(#clip0_466_6848)">
<path d="M15.8334 4.16667H13.3334V3.48083C13.3334 1.74083 12.0642 0.184166 10.3325 0.0158329C8.34502 -0.176667 6.66669 1.385 6.66669 3.33333V4.16667H4.16669C2.78585 4.16667 1.66669 5.28583 1.66669 6.66667V11.6667C1.66669 12.1267 2.04002 12.5 2.50002 12.5H17.5C17.96 12.5 18.3334 12.1267 18.3334 11.6667V6.66667C18.3334 5.28583 17.2142 4.16667 15.8334 4.16667ZM8.33335 3.33333C8.33335 2.41417 9.08085 1.66667 10 1.66667C10.9192 1.66667 11.6667 2.41417 11.6667 3.33333V4.16667H8.33335V3.33333Z" fill="#959595"/>
<path d="M1.66667 20H0.833333C0.373333 20 0 19.6267 0 19.1667V15.8333C0 15.3733 0.373333 15 0.833333 15H1.66667V20Z" fill="#959595"/>
<path d="M18.3333 20H19.1666C19.6266 20 20 19.6267 20 19.1667V15.8333C20 15.3733 19.6266 15 19.1666 15H18.3333V20Z" fill="#959595"/>
<path d="M3.33331 19.1667C3.33331 19.6276 3.70581 20.0001 4.16665 20.0001H15.8333C16.2941 20.0001 16.6666 19.6276 16.6666 19.1667V14.1667H3.33331V19.1667Z" fill="#959595"/>
</g>
<defs>
<clipPath id="clip0_466_6848">
<rect width="20" height="20" fill="white"/>
</clipPath>
</defs>
</svg>
