<svg width="20" height="20" viewBox="0 0 20 20" fill="none" xmlns="http://www.w3.org/2000/svg">
<path d="M8.33587 18.3333C8.33587 18.0442 8.39337 17.765 8.48754 17.5H3.33337C2.87337 17.5 2.50004 17.1267 2.50004 16.6667V3.33333C2.50004 2.87333 2.87337 2.5 3.33337 2.5H13.3334C13.7934 2.5 14.1667 2.87333 14.1667 3.33333V11.4675L14.7267 10.9075C15.045 10.5892 15.4234 10.3567 15.8334 10.2042V2.5C15.8334 1.12167 14.7117 0 13.3334 0H3.33337C1.95504 0 0.833374 1.12167 0.833374 2.5V17.5C0.833374 18.8783 1.95504 20 3.33337 20H8.33587V18.3333Z" fill="#49493D"/>
<path d="M15.9051 12.0858L10.2467 17.7442C10.0901 17.9008 10.0026 18.1125 10.0026 18.3333V20H11.6692C11.8901 20 12.1017 19.9125 12.2584 19.7558L17.9167 14.0975C18.4726 13.5417 18.4726 12.6417 17.9167 12.0858C17.3609 11.53 16.4609 11.53 15.9051 12.0858Z" fill="#49493D"/>
</svg>
