<svg width="56" height="49" viewBox="0 0 56 49" fill="none" xmlns="http://www.w3.org/2000/svg">
<ellipse cx="28" cy="44" rx="28" ry="5" fill="#F3F3F3"/>
<path d="M37.0989 3.66346C34.9211 1.35846 31.2786 0.0303416 27.6275 0.000659246V0C27.6232 0 27.6189 0.000329623 27.6145 0.000329623C27.6102 0.000329623 27.6059 0 27.6016 0V0.000659246C23.9508 0.0303416 20.308 1.35846 18.1302 3.66346C15.4719 6.47702 17.6278 10.6424 20.6842 11.1174C25.8295 11.9168 27.5396 11.2127 27.5772 11.215V11.2153L27.5792 11.215L27.5812 11.2153V11.215C27.5836 11.215 27.5999 11.214 27.6145 11.2133C27.6292 11.214 27.6459 11.215 27.6479 11.215V11.2153L27.6495 11.215L27.6515 11.2153V11.215C27.6892 11.2127 29.3993 11.9168 34.5446 11.1174C37.6014 10.6424 39.7572 6.47702 37.0989 3.66346Z" fill="#FECC2A"/>
<path d="M23.9998 22.501C23.9691 23.2338 23.8558 24.0022 23.536 24.3185C22.8474 25.0006 22.2643 25.3152 22.2643 25.3152C22.2643 25.3152 24.3013 27.0203 27.6702 27.1407V27.1466C27.6885 27.1463 27.7052 27.1443 27.7232 27.1436C27.7412 27.1443 27.7578 27.1463 27.7761 27.1466V27.1407C31.1444 27.0203 33.1817 25.3152 33.1817 25.3152C33.1817 25.3152 32.599 25.0006 31.91 24.3185C31.7447 24.1549 31.6355 23.869 31.5632 23.531C31.4546 23.5811 31.341 23.6339 31.221 23.6889C28.066 25.1437 25.0179 23.25 23.9998 22.501Z" fill="#FFB680"/>
<path d="M31.4858 20.8564L27.7231 21.8129L23.9601 20.8564C23.9601 20.8564 24.0354 21.6552 23.9997 22.5012C25.0179 23.2502 28.0659 25.1439 31.2206 23.6895C31.3406 23.6341 31.4542 23.5816 31.5628 23.5315C31.3339 22.4609 31.4858 20.8564 31.4858 20.8564Z" fill="#ED8A40"/>
<path d="M36.0271 12.8914C35.9398 11.9003 35.2842 11.8113 34.7701 11.8983C34.911 10.0237 35.0363 7.32031 35.0363 7.32031L27.7581 8.36975L20.4799 7.32031C20.4799 7.32031 20.6062 10.0389 20.7474 11.9142C20.2237 11.8027 19.4947 11.8432 19.4028 12.8914C19.2472 14.6594 20.2367 15.4628 21.1745 15.9038C21.5283 18.4792 21.8855 19.7928 22.9533 20.5933C24.702 21.9049 26.5347 22.4293 27.7581 22.4293C28.9818 22.4293 30.8162 21.7961 32.5986 20.5933C33.7643 19.8064 33.9929 18.4657 34.3477 15.8596C35.2569 15.4097 36.1774 14.6014 36.0271 12.8914Z" fill="#FFB680"/>
<path d="M34.6055 11.8764C34.5939 11.8078 34.5122 11.755 34.4489 11.8048C34.3566 11.8777 33.8069 10.4826 33.766 10.3359C33.6737 10.0031 33.654 9.67164 33.6693 9.32996C33.6713 9.2851 33.6693 9.24784 33.6663 9.21222C33.8209 9.12779 33.9782 9.04864 34.1258 8.95266C34.3273 8.82173 34.2367 8.59515 34.0661 8.51039C34.0985 8.48698 34.1321 8.46653 34.1641 8.44245C34.3333 8.31449 34.1947 8.05263 33.9918 8.11694C33.0447 8.41805 32.1638 8.84218 31.1886 9.06578C30.2155 9.2884 29.2147 9.32072 28.2205 9.33326C26.3961 9.35601 24.4155 9.31314 22.6874 8.6377C22.6351 8.61725 22.5765 8.63605 22.5378 8.67299C22.4345 8.51369 22.1284 8.53612 22.114 8.77688C22.0837 9.28214 22.0074 9.78443 21.9718 10.2903C21.9385 10.756 21.8525 11.2135 21.6753 11.6505C21.6789 11.6416 21.428 12.2883 21.3211 12.1788C21.2648 12.1214 21.1449 12.1775 21.1599 12.2586C21.2695 12.8427 21.7092 12.4961 21.9061 12.162C22.3979 11.3273 22.5531 10.449 22.6088 9.47177C26.61 11.1505 31.3792 10.1881 33.1283 9.41934C33.1206 9.84149 33.2019 10.3916 33.3249 10.7122C33.5241 11.2316 33.7626 11.9242 34.318 12.1564C34.3886 12.1857 34.4583 12.1857 34.5169 12.1303C34.6108 12.0416 34.6265 12.001 34.6055 11.8764Z" fill="#ED8A40"/>
<path d="M31.9096 11.5075C31.7194 11.1171 31.1067 11.2437 30.7545 11.3004C30.2618 11.3792 29.8134 11.6405 29.5315 12.0488C29.15 12.6008 29.2863 14.6921 30.2651 13.7486C30.3211 13.7423 30.3711 13.7014 30.3531 13.6321C30.2851 13.3693 30.3687 13.4455 30.3994 13.1793C30.4434 12.7944 30.5963 12.4415 30.7302 12.2714C30.9398 12.0059 31.2609 11.8918 31.5918 11.8327C31.9359 11.7714 32.0839 11.8047 32.2984 11.7889C32.3061 11.7885 32.1908 11.6952 32.1868 11.6879C32.1268 11.5745 32.0279 11.5214 31.9096 11.5075Z" fill="#ED8A40"/>
<path d="M23.3554 11.5075C23.5453 11.1171 24.158 11.2437 24.5104 11.3004C25.0032 11.3792 25.4513 11.6405 25.7335 12.0488C26.1146 12.6008 25.9783 14.6921 24.9995 13.7486C24.9436 13.7423 24.8939 13.7014 24.9116 13.6321C24.9795 13.3693 24.8962 13.4455 24.8656 13.1793C24.8213 12.7944 24.6684 12.4415 24.5344 12.2714C24.3252 12.0059 24.0037 11.8918 23.6732 11.8327C23.3287 11.7714 23.1811 11.8047 22.9666 11.7889C22.9586 11.7885 23.0739 11.6952 23.0779 11.6879C23.1382 11.5745 23.2371 11.5214 23.3554 11.5075Z" fill="#ED8A40"/>
<path d="M29.5778 13.8087C29.5778 13.8087 29.7014 13.4413 30.0193 13.2665C30.3374 13.0917 31.4152 12.8292 31.892 13.2316C32.369 13.6339 32.2804 13.6339 32.2804 13.6339C32.2804 13.6339 31.9119 14.3902 30.9225 14.3902C29.9333 14.3902 29.5598 13.9835 29.5778 13.8087Z" fill="white"/>
<path d="M31.3532 13.5949C31.3532 13.9207 31.086 14.1853 30.7568 14.1853C30.4277 14.1853 30.1608 13.9211 30.1608 13.5949C30.1608 13.2691 30.4277 13.0049 30.7568 13.0049C31.086 13.0046 31.3532 13.2687 31.3532 13.5949Z" fill="#4C9E8F"/>
<path d="M31.0221 13.6055C31.0221 13.772 30.8855 13.9073 30.7173 13.9073C30.549 13.9073 30.4124 13.772 30.4124 13.6055C30.4124 13.4389 30.549 13.3037 30.7173 13.3037C30.8855 13.3037 31.0221 13.4389 31.0221 13.6055Z" fill="#303030"/>
<path d="M32.4073 13.5254C32.1055 13.006 31.4308 12.8233 30.8231 12.8955C30.3504 12.9516 29.7837 13.1485 29.5585 13.6761C29.4715 13.8793 29.5311 13.9185 29.6041 13.7807C30.0572 12.9245 31.6137 12.7576 32.1534 13.6382C32.1281 13.748 31.9096 14.0366 31.5847 14.2203C31.5078 14.2639 31.5451 14.346 31.6644 14.2991C31.8579 14.2226 32.1631 13.9888 32.3267 13.7546C32.3867 13.6692 32.4473 13.5943 32.4073 13.5254Z" fill="#303030"/>
<path d="M31.1147 13.398C31.1147 13.5091 31.0237 13.5991 30.9115 13.5991C30.7992 13.5991 30.7086 13.5091 30.7086 13.398C30.7086 13.2868 30.7992 13.1968 30.9115 13.1968C31.0237 13.1968 31.1147 13.2868 31.1147 13.398Z" fill="white"/>
<path d="M25.7072 13.8087C25.7072 13.8087 25.5836 13.4413 25.2654 13.2665C24.9476 13.0917 23.8701 12.8292 23.393 13.2316C22.916 13.6339 23.0042 13.6339 23.0042 13.6339C23.0042 13.6339 23.3731 14.3902 24.3625 14.3902C25.3517 14.3902 25.7248 13.9835 25.7072 13.8087Z" fill="white"/>
<path d="M23.9318 13.5949C23.9318 13.9207 24.1986 14.1853 24.5278 14.1853C24.8573 14.1853 25.1241 13.9211 25.1241 13.5949C25.1241 13.2691 24.8573 13.0049 24.5278 13.0049C24.1986 13.0046 23.9318 13.2687 23.9318 13.5949Z" fill="#4C9E8F"/>
<path d="M24.2629 13.6055C24.2629 13.772 24.3991 13.9073 24.5677 13.9073C24.736 13.9073 24.8722 13.772 24.8722 13.6055C24.8722 13.4389 24.736 13.3037 24.5677 13.3037C24.3991 13.3037 24.2629 13.4389 24.2629 13.6055Z" fill="#303030"/>
<path d="M22.8773 13.5254C23.1792 13.006 23.8541 12.8233 24.4618 12.8955C24.9346 12.9516 25.5013 13.1485 25.7265 13.6761C25.8135 13.8793 25.7535 13.9185 25.6805 13.7807C25.2278 12.9245 23.6712 12.7576 23.1315 13.6382C23.1568 13.748 23.3754 14.0366 23.6999 14.2203C23.7772 14.2639 23.7395 14.346 23.6206 14.2991C23.427 14.2226 23.1219 13.9888 22.9583 13.7546C22.8983 13.6692 22.8373 13.5943 22.8773 13.5254Z" fill="#303030"/>
<path d="M24.4858 13.398C24.4858 13.5091 24.5764 13.5991 24.6887 13.5991C24.8009 13.5991 24.8919 13.5091 24.8919 13.398C24.8919 13.2868 24.8009 13.1968 24.6887 13.1968C24.5764 13.1968 24.4858 13.2868 24.4858 13.398Z" fill="white"/>
<path d="M32.6259 11.7101C32.1742 11.2625 31.2989 11.0079 30.6316 11.126C30.2532 11.1929 29.9087 11.3575 29.6765 11.5989C29.5912 11.6665 29.5219 11.8074 29.4692 11.934C29.4026 11.8074 29.3746 11.7101 29.2763 11.6405C29.22 11.8281 29.206 12.0923 29.2414 12.3172C29.2627 12.4531 29.3753 12.5359 29.4722 12.4449C29.9693 11.9769 30.9198 11.1418 32.4084 12.0089C32.6472 12.148 32.8158 11.8977 32.6259 11.7101Z" fill="#303030"/>
<path d="M22.7584 11.7101C23.2105 11.2625 24.0857 11.0079 24.753 11.126C25.1315 11.1929 25.4759 11.3575 25.7081 11.5989C25.7934 11.6665 25.8627 11.8074 25.9154 11.934C25.982 11.8074 26.01 11.7101 26.1083 11.6405C26.1646 11.8281 26.1786 12.0923 26.1433 12.3172C26.1219 12.4531 26.0093 12.5359 25.9124 12.4449C25.4153 11.9769 24.4648 11.1418 22.9762 12.0089C22.7377 12.148 22.5691 11.8977 22.7584 11.7101Z" fill="#303030"/>
<path d="M27.4916 6.54076C24.9822 6.53251 22.6168 6.7426 20.267 7.53149C20.0382 8.82069 19.9132 10.2883 20.1178 11.911C20.4936 11.9479 20.7011 12.034 20.8811 12.1774C21.533 11.0244 21.7509 9.3032 21.585 8.06247C21.5737 7.97672 21.58 7.74421 22.0698 7.96749C23.1252 8.44868 25.7758 9.1096 27.0812 9.07629C28.017 9.05222 29.0358 8.93778 29.8517 8.43911C30.4654 8.06412 31.0374 7.59119 31.3566 6.9695C30.1336 6.71127 28.8722 6.54538 27.4916 6.54076Z" fill="#4D4D4D"/>
<path d="M34.3417 7.76514C34.3947 8.15628 34.3737 8.57678 34.33 8.84162C34.1711 9.80333 34.5459 10.4184 34.7828 11.2677C34.8448 11.4903 34.8767 11.7244 34.8841 11.9467C35.0057 11.893 35.1583 11.862 35.3545 11.9108C35.4818 11.1885 35.581 9.68097 35.4631 8.11968C35.0856 7.99831 34.7118 7.87991 34.3417 7.76514Z" fill="#4D4D4D"/>
<path d="M34.33 8.84247C34.4253 8.26367 34.4183 6.93621 33.747 6.81385C33.6054 7.89824 33.058 8.26532 32.7226 8.31808C33.2876 7.25117 33.0404 6.65653 32.7752 6.46425C32.581 7.28613 32.0865 7.75841 31.4589 7.95002C31.6095 7.67101 31.8037 7.09385 31.5565 6.44678C31.3443 7.33857 30.6283 7.96552 29.8524 8.43978C29.0365 8.93845 28.0173 9.05289 27.0818 9.07696C25.7765 9.1106 23.1259 8.44968 22.0704 7.96816C21.5807 7.74489 21.5744 7.9774 21.5857 8.06315C21.7516 9.30354 21.5337 11.0251 20.8817 12.1781C20.9553 12.2368 21.0253 12.3044 21.0989 12.3839C21.7083 13.0396 22.344 10.198 22.3176 8.85995C23.0699 9.12907 23.9674 9.36224 24.7024 9.47207C30.8499 10.3902 32.483 9.17821 33.4202 8.81642C33.3972 9.56639 33.857 11.7629 34.4803 12.1478C34.5609 12.1976 34.6772 12.0393 34.8844 11.9479C34.8774 11.726 34.8454 11.4915 34.7831 11.2688C34.5459 10.4189 34.1708 9.80418 34.33 8.84247Z" fill="#3F3F3F"/>
<path d="M29.0415 16.7642C28.9795 16.6594 28.8133 16.5189 28.7033 16.5195C28.5131 16.5202 28.625 16.755 28.735 16.8912C28.8496 17.033 28.7586 17.0848 28.722 17.1257C28.5644 17.3018 28.2116 17.3955 28.094 17.4288C27.7212 17.5337 27.4826 17.5073 27.1205 17.4288C27.0012 17.4027 26.6421 17.3078 26.4645 17.1511C26.4232 17.1148 26.3605 17.0614 26.4795 16.8912C26.5794 16.7478 26.7014 16.5202 26.5111 16.5195C26.4008 16.5189 26.2413 16.666 26.1796 16.7708C26.0797 16.9404 26.055 17.0231 26.087 17.1666C26.1336 17.3741 26.4058 17.536 26.6524 17.63C27.3853 17.91 27.9067 17.8836 28.562 17.63C28.8083 17.5347 29.0281 17.3744 29.1271 17.1666C29.1907 17.034 29.1414 16.9338 29.0415 16.7642Z" fill="#ED8A40"/>
<path d="M21.1778 14.7579C20.5801 14.6006 20.2267 13.6007 20.8863 13.7873C20.9789 13.8137 21.0226 13.6778 21.0186 13.5251C21.0113 13.2253 20.8893 12.7221 20.6848 12.5093C20.5438 12.3629 20.279 12.2999 20.1011 12.4167C19.4841 12.8217 19.7216 13.881 20.0914 14.3384C20.2503 14.535 20.2953 14.3797 20.1707 14.1679C19.9851 13.8533 19.9821 13.6795 19.9322 13.3154C19.9015 13.0947 19.9498 12.7273 20.1577 12.6264C20.4645 12.4773 20.6954 12.7501 20.7464 13.0275C20.7984 13.19 20.8054 13.3754 20.8157 13.5509C20.5815 13.5386 20.4039 13.6867 20.4002 14.0014C20.3959 14.3912 20.798 14.8288 21.1525 14.906C21.2601 14.9288 21.3034 14.7909 21.1778 14.7579Z" fill="#ED8A40"/>
<path d="M34.3207 14.7579C34.9184 14.6006 35.2719 13.6007 34.6122 13.7873C34.5196 13.8137 34.476 13.6778 34.48 13.5251C34.4873 13.2253 34.6092 12.7221 34.8138 12.5093C34.955 12.3629 35.2196 12.2999 35.3975 12.4167C36.0145 12.8217 35.7769 13.881 35.4075 14.3384C35.2482 14.535 35.2032 14.3797 35.3278 14.1679C35.5134 13.8533 35.5164 13.6795 35.5664 13.3154C35.5974 13.0947 35.5487 12.7273 35.3408 12.6264C35.0343 12.4773 34.8035 12.7501 34.7522 13.0275C34.7002 13.19 34.6932 13.3754 34.6832 13.5509C34.9171 13.5386 35.095 13.6867 35.0983 14.0014C35.1026 14.3912 34.7005 14.8288 34.346 14.906C34.2384 14.9288 34.1954 14.7909 34.3207 14.7579Z" fill="#ED8A40"/>
<path d="M29.8344 19.4109C29.9543 19.1827 30.0173 19.1629 30.0173 19.0283H25.358C25.358 19.1853 25.439 19.2532 25.5999 19.527C26.3192 19.6028 28.5114 19.7872 29.8344 19.4109Z" fill="white"/>
<path d="M27.6874 20.7534C28.8012 20.7534 29.5201 20.0081 29.8339 19.4111C28.511 19.7871 26.3188 19.6027 25.5995 19.5272C25.9363 20.1004 26.6273 20.7534 27.6874 20.7534Z" fill="#E25C2D"/>
<path d="M20.1154 8.56275C20.1154 8.56275 23.2508 10.9509 27.9 10.9509C32.5496 10.9509 35.5161 8.56275 35.5161 8.56275C35.5161 8.56275 33.1047 6.08691 27.8854 6.08691C22.9413 6.08691 20.1154 8.56275 20.1154 8.56275Z" fill="#49493D"/>
<path d="M35.5161 8.56284C35.5161 8.56284 32.0862 7.44282 27.7604 7.44282C23.2998 7.44282 20.1154 8.56284 20.1154 8.56284L20.21 6.32314C20.21 6.32314 24.0444 5.20312 27.7604 5.20312C32.507 5.20312 35.5161 6.32314 35.5161 6.32314V8.56284Z" fill="#4D4D4D"/>
<path d="M26.8959 1.39209H25.4586V2.81486H26.8959V1.39209Z" fill="#3F3F3F"/>
<path d="M29.7707 1.39209H28.3334V2.81486H29.7707V1.39209Z" fill="#3F3F3F"/>
<path d="M28.3331 2.81494H26.8959V4.23772H28.3331V2.81494Z" fill="#3F3F3F"/>
<path d="M31.208 2.81494H29.7708V4.23772H31.208V2.81494Z" fill="#3F3F3F"/>
<path d="M25.4583 2.81494H24.0211V4.23772H25.4583V2.81494Z" fill="#3F3F3F"/>
<path d="M44 45C43.8741 39.8781 43.5899 31.882 43.0212 30.4754C42.173 28.3769 40.2819 27.9122 38.5695 27.0478C36.6472 26.0778 32.7692 25.0488 32.7692 25.0488C30.7083 27.0422 25.2384 27.1477 22.6768 25.0488C22.6768 25.0488 19.1939 26.3773 17.2293 27.0478C15.4122 27.6678 13.6258 28.3769 12.7779 30.4754C12.2096 31.882 12.046 39.8781 12 45H44Z" fill="#FECC2A"/>
<path d="M26.5121 27.8167L27.1478 29.7055H28.565L29.2753 27.7243L27.9607 26.418L26.5121 27.8167Z" fill="#49493D"/>
<path d="M28.565 29.7061H28.0277H27.6875H27.1504L25.8085 41.6967L27.8934 44.6907L29.9067 41.6967L28.565 29.7061Z" fill="#49493D"/>
<path d="M32.0602 23.4834L27.6875 26.3237L30.7569 29.7061L34.2444 25.4695L32.0602 23.4834Z" fill="#FED16C"/>
<path d="M23.6416 23.4834L28.0143 26.3237L24.9449 29.7061L21.4574 25.4695L23.6416 23.4834Z" fill="#FED16C"/>
<path d="M17.9469 45.0003C17.4262 42.1214 16.6452 38.4223 16.5276 33.9502C15.8513 38.5935 15.5265 41.6732 15.7217 45.0003H17.9469Z" fill="#FED16C"/>
<path d="M40.6654 45.0003C40.8763 42.3041 40.7374 38.6334 39.8019 33.9502C39.8369 38.4223 38.9587 42.1214 38.3979 45.0003H40.6654Z" fill="#FED16C"/>
</svg>
