<svg width="20" height="20" viewBox="0 0 20 20" fill="none" xmlns="http://www.w3.org/2000/svg">
<path d="M19.1667 10.8332H0.833333C0.333333 10.8332 0 10.4998 0 9.99984C0 9.49984 0.333333 9.1665 0.833333 9.1665H19.1667C19.6667 9.1665 20 9.49984 20 9.99984C20 10.4998 19.6667 10.8332 19.1667 10.8332Z" fill="#49493D"/>
<path d="M19.1667 4.99992H0.833333C0.333333 4.99992 0 4.66659 0 4.16659C0 3.66659 0.333333 3.33325 0.833333 3.33325H19.1667C19.6667 3.33325 20 3.66659 20 4.16659C20 4.66659 19.6667 4.99992 19.1667 4.99992Z" fill="#49493D"/>
<path d="M19.1667 16.6667H0.833333C0.333333 16.6667 0 16.3333 0 15.8333C0 15.3333 0.333333 15 0.833333 15H19.1667C19.6667 15 20 15.3333 20 15.8333C20 16.3333 19.6667 16.6667 19.1667 16.6667Z" fill="#49493D"/>
</svg>
