<svg width="12" height="12" viewBox="0 0 12 12" fill="none" xmlns="http://www.w3.org/2000/svg">
<g clip-path="url(#clip0_153_10572)">
<path d="M11.572 4.27032L8.03146 3.75582L6.44996 0.549821C6.40398 0.47175 6.33842 0.407033 6.25976 0.36207C6.1811 0.317108 6.09206 0.293457 6.00146 0.293457C5.91085 0.293457 5.82182 0.317108 5.74316 0.36207C5.6645 0.407033 5.59894 0.47175 5.55296 0.549821L3.96846 3.75582L0.427959 4.27032C0.335629 4.28365 0.248869 4.32254 0.177487 4.3826C0.106105 4.44266 0.0529484 4.52149 0.0240265 4.61018C-0.00489527 4.69887 -0.00842866 4.79388 0.0138258 4.88447C0.0360803 4.97507 0.0832351 5.05763 0.149959 5.12282L2.71246 7.61982L2.10796 11.1463C2.0922 11.2383 2.10249 11.3328 2.13765 11.4192C2.17281 11.5056 2.23144 11.5805 2.30692 11.6353C2.3824 11.6901 2.47172 11.7227 2.56476 11.7295C2.65781 11.7362 2.75089 11.7167 2.83346 11.6733L5.99996 10.0088L9.16646 11.6733C9.24903 11.7167 9.34211 11.7362 9.43515 11.7295C9.5282 11.7227 9.61751 11.6901 9.69299 11.6353C9.76847 11.5805 9.82711 11.5056 9.86227 11.4192C9.89743 11.3328 9.90771 11.2383 9.89196 11.1463L9.28746 7.61982L11.85 5.12282C11.9167 5.05769 11.9638 4.97521 11.9861 4.88469C12.0084 4.79417 12.005 4.69922 11.9762 4.61055C11.9474 4.52189 11.8944 4.44305 11.8231 4.38293C11.7518 4.3228 11.6652 4.2838 11.573 4.27032H11.572Z" fill="#FED16C"/>
</g>
<defs>
<clipPath id="clip0_153_10572">
<rect width="12" height="12" fill="white"/>
</clipPath>
</defs>
</svg>
