<svg width="20" height="20" viewBox="0 0 20 20" fill="none" xmlns="http://www.w3.org/2000/svg">
<path d="M9.99996 15.8333C9.99996 12.6117 12.6116 10 15.8333 10C15.9258 10 16.0158 10.0092 16.1075 10.0142C16.4516 9.13583 16.6666 8.28083 16.6666 7.5C16.6666 2.805 12.8533 0 9.16663 0C5.47996 0 1.66663 2.805 1.66663 7.5C1.66663 11.9075 8.29329 18.6358 8.57496 18.9208C8.73163 19.0783 8.94413 19.1667 9.16663 19.1667C9.38913 19.1667 9.60163 19.0783 9.75829 18.9208C9.80996 18.8683 10.0808 18.5933 10.4841 18.1567C10.1741 17.4442 9.99996 16.6592 9.99996 15.8333ZM9.16663 10C7.78579 10 6.66663 8.88083 6.66663 7.5C6.66663 6.11917 7.78579 5 9.16663 5C10.5475 5 11.6666 6.11917 11.6666 7.5C11.6666 8.88083 10.5475 10 9.16663 10Z" fill="#959595"/>
<path d="M17.5 16.6665C17.2083 16.6665 16.9383 16.7482 16.6991 16.8807L14.9975 15.8598C14.9975 15.8507 15 15.8423 15 15.8332C15 15.824 14.9975 15.8157 14.9975 15.8065L16.6991 14.7857C16.9383 14.9182 17.2083 14.9998 17.5 14.9998C18.4191 14.9998 19.1666 14.2523 19.1666 13.3332C19.1666 12.414 18.4191 11.6665 17.5 11.6665C16.5808 11.6665 15.8333 12.414 15.8333 13.3332C15.8333 13.3423 15.8358 13.3507 15.8358 13.3598L14.1341 14.3807C13.895 14.2482 13.625 14.1665 13.3333 14.1665C12.4141 14.1665 11.6666 14.914 11.6666 15.8332C11.6666 16.7523 12.4141 17.4998 13.3333 17.4998C13.625 17.4998 13.895 17.4182 14.1341 17.2857L15.8358 18.3065C15.8358 18.3157 15.8333 18.324 15.8333 18.3332C15.8333 19.2523 16.5808 19.9998 17.5 19.9998C18.4191 19.9998 19.1666 19.2523 19.1666 18.3332C19.1666 17.414 18.4191 16.6665 17.5 16.6665Z" fill="#959595"/>
</svg>
