<svg width="20" height="20" viewBox="0 0 20 20" fill="none" xmlns="http://www.w3.org/2000/svg">
<g clip-path="url(#clip0_466_6861)">
<path d="M19.2866 7.11761L13.3858 6.26011L10.75 0.916775C10.6733 0.786656 10.5641 0.678795 10.433 0.603857C10.3019 0.52892 10.1535 0.489502 10.0025 0.489502C9.85147 0.489502 9.70307 0.52892 9.57197 0.603857C9.44087 0.678795 9.3316 0.786656 9.25497 0.916775L6.61414 6.26011L0.713306 7.11761C0.559423 7.13982 0.414822 7.20464 0.295852 7.30474C0.176882 7.40483 0.088288 7.53622 0.0400849 7.68403C-0.00811809 7.83185 -0.0140071 7.99021 0.0230837 8.14119C0.0601745 8.29218 0.138766 8.42978 0.249972 8.53844L4.52081 12.7001L3.51331 18.5776C3.48705 18.7309 3.50419 18.8884 3.56279 19.0324C3.62139 19.1764 3.71911 19.3012 3.84491 19.3926C3.97071 19.4839 4.11957 19.5383 4.27465 19.5495C4.42973 19.5607 4.58485 19.5283 4.72247 19.4559L9.99997 16.6818L15.2775 19.4559C15.4151 19.5283 15.5702 19.5607 15.7253 19.5495C15.8804 19.5383 16.0292 19.4839 16.155 19.3926C16.2808 19.3012 16.3786 19.1764 16.4372 19.0324C16.4958 18.8884 16.5129 18.7309 16.4866 18.5776L15.4791 12.7001L19.75 8.53844C19.8611 8.42989 19.9398 8.29243 19.9769 8.14156C20.0141 7.99069 20.0084 7.83244 19.9603 7.68466C19.9123 7.53689 19.824 7.40548 19.7052 7.30528C19.5865 7.20508 19.4421 7.14008 19.2883 7.11761H19.2866Z" fill="#959595"/>
</g>
<defs>
<clipPath id="clip0_466_6861">
<rect width="20" height="20" fill="white"/>
</clipPath>
</defs>
</svg>
