<svg width="20" height="20" viewBox="0 0 20 20" fill="none" xmlns="http://www.w3.org/2000/svg">
<g clip-path="url(#clip0_466_5605)">
<path d="M19.2867 7.11736L13.3858 6.25986L10.75 0.916531C10.6734 0.786412 10.5641 0.678551 10.433 0.603613C10.3019 0.528676 10.1535 0.489258 10.0025 0.489258C9.8515 0.489258 9.7031 0.528676 9.572 0.603613C9.4409 0.678551 9.33163 0.786412 9.255 0.916531L6.61417 6.25986L0.713336 7.11736C0.559453 7.13958 0.414853 7.20439 0.295883 7.30449C0.176913 7.40459 0.0883185 7.53597 0.0401155 7.68379C-0.00808757 7.83161 -0.0139766 7.98996 0.0231142 8.14095C0.0602051 8.29194 0.138796 8.42954 0.250003 8.5382L4.52084 12.6999L3.51334 18.5774C3.48708 18.7306 3.50422 18.8882 3.56282 19.0322C3.62142 19.1762 3.71915 19.3009 3.84494 19.3923C3.97074 19.4837 4.1196 19.5381 4.27468 19.5493C4.42976 19.5605 4.58488 19.5281 4.7225 19.4557L10 16.6815L15.2775 19.4557C15.4151 19.5281 15.5702 19.5605 15.7253 19.5493C15.8804 19.5381 16.0293 19.4837 16.1551 19.3923C16.2809 19.3009 16.3786 19.1762 16.4372 19.0322C16.4958 18.8882 16.5129 18.7306 16.4867 18.5774L15.4792 12.6999L19.75 8.5382C19.8612 8.42965 19.9398 8.29218 19.977 8.14131C20.0141 7.99045 20.0084 7.83219 19.9604 7.68442C19.9124 7.53665 19.824 7.40524 19.7052 7.30504C19.5865 7.20484 19.4421 7.13983 19.2883 7.11736H19.2867Z" fill="#BDBDBD"/>
</g>
<defs>
<clipPath id="clip0_466_5605">
<rect width="20" height="20" fill="white"/>
</clipPath>
</defs>
</svg>
