<svg width="12" height="12" viewBox="0 0 12 12" fill="none" xmlns="http://www.w3.org/2000/svg">
<g clip-path="url(#clip0_192_11637)">
<path d="M11.572 4.27032L8.03152 3.75582L6.45002 0.549821C6.40404 0.47175 6.33848 0.407033 6.25982 0.36207C6.18116 0.317108 6.09212 0.293457 6.00152 0.293457C5.91092 0.293457 5.82188 0.317108 5.74322 0.36207C5.66456 0.407033 5.599 0.47175 5.55302 0.549821L3.96852 3.75582L0.42802 4.27032C0.33569 4.28365 0.24893 4.32254 0.177548 4.3826C0.106166 4.44266 0.0530094 4.52149 0.0240876 4.61018C-0.00483423 4.69887 -0.00836763 4.79388 0.0138869 4.88447C0.0361413 4.97507 0.0832961 5.05763 0.15002 5.12282L2.71252 7.61982L2.10802 11.1463C2.09227 11.2383 2.10255 11.3328 2.13771 11.4192C2.17287 11.5056 2.23151 11.5805 2.30698 11.6353C2.38246 11.6901 2.47178 11.7227 2.56483 11.7295C2.65787 11.7362 2.75095 11.7167 2.83352 11.6733L6.00002 10.0088L9.16652 11.6733C9.24909 11.7167 9.34217 11.7362 9.43521 11.7295C9.52826 11.7227 9.61758 11.6901 9.69306 11.6353C9.76853 11.5805 9.82717 11.5056 9.86233 11.4192C9.89749 11.3328 9.90778 11.2383 9.89202 11.1463L9.28752 7.61982L11.85 5.12282C11.9167 5.05769 11.9639 4.97521 11.9862 4.88469C12.0085 4.79417 12.0051 4.69922 11.9762 4.61055C11.9474 4.52189 11.8944 4.44305 11.8232 4.38293C11.7519 4.3228 11.6653 4.2838 11.573 4.27032H11.572Z" fill="#FED16C"/>
</g>
<defs>
<clipPath id="clip0_192_11637">
<rect width="12" height="12" fill="white"/>
</clipPath>
</defs>
</svg>
