<svg width="20" height="20" viewBox="0 0 20 20" fill="none" xmlns="http://www.w3.org/2000/svg">
<path d="M8.33331 0C8.1123 0 7.90034 0.0877974 7.74406 0.244078C7.58778 0.400358 7.49998 0.61232 7.49998 0.833333V7.5C7.49998 7.72101 7.41218 7.93298 7.2559 8.08926C7.09962 8.24554 6.88766 8.33333 6.66665 8.33333H3.33331C3.1123 8.33333 2.90034 8.24554 2.74406 8.08926C2.58778 7.93298 2.49998 7.72101 2.49998 7.5V0.833333C2.49998 0.61232 2.41218 0.400358 2.2559 0.244078C2.09962 0.0877974 1.88766 0 1.66665 0C1.44563 0 1.23367 0.0877974 1.07739 0.244078C0.92111 0.400358 0.833313 0.61232 0.833313 0.833333V7.5C0.833313 8.16304 1.09671 8.79893 1.56555 9.26777C2.03439 9.73661 2.67027 10 3.33331 10H4.10248L3.46081 18.34C3.44523 18.5516 3.47346 18.7642 3.54375 18.9645C3.61404 19.1647 3.72487 19.3483 3.86932 19.5038C4.01377 19.6593 4.18873 19.7833 4.38327 19.8681C4.57782 19.9529 4.78776 19.9967 4.99998 19.9967C5.2122 19.9967 5.42214 19.9529 5.61669 19.8681C5.81123 19.7833 5.98619 19.6593 6.13064 19.5038C6.27509 19.3483 6.38592 19.1647 6.45621 18.9645C6.5265 18.7642 6.55473 18.5516 6.53915 18.34L5.89748 10H6.66665C7.32969 10 7.96557 9.73661 8.43441 9.26777C8.90325 8.79893 9.16665 8.16304 9.16665 7.5V0.833333C9.16665 0.61232 9.07885 0.400358 8.92257 0.244078C8.76629 0.0877974 8.55433 0 8.33331 0V0Z" fill="#49493D"/>
<path d="M5.83329 0.833333C5.83329 0.61232 5.74549 0.400358 5.58921 0.244078C5.43293 0.0877974 5.22097 0 4.99996 0C4.77895 0 4.56698 0.0877974 4.4107 0.244078C4.25442 0.400358 4.16663 0.61232 4.16663 0.833333V6.66667H5.83329V0.833333Z" fill="#49493D"/>
<path d="M17.5 0H16.6667C15.5616 0 14.5018 0.438987 13.7204 1.22039C12.939 2.00179 12.5 3.0616 12.5 4.16667V13.3333C12.5 13.5543 12.5878 13.7663 12.7441 13.9226C12.9004 14.0789 13.1123 14.1667 13.3333 14.1667H15.8333V18.75C15.8333 19.0815 15.965 19.3995 16.1995 19.6339C16.4339 19.8683 16.7518 20 17.0833 20C17.4149 20 17.7328 19.8683 17.9672 19.6339C18.2016 19.3995 18.3333 19.0815 18.3333 18.75V0.833333C18.3333 0.61232 18.2455 0.400358 18.0893 0.244078C17.933 0.0877974 17.721 0 17.5 0V0Z" fill="#49493D"/>
</svg>
