<svg width="20" height="20" viewBox="0 0 20 20" fill="none" xmlns="http://www.w3.org/2000/svg">
<g clip-path="url(#clip0_466_2981)">
<path d="M19.6942 8.5217L10.5275 1.0217C10.3786 0.899989 10.1923 0.833496 10 0.833496C9.80772 0.833496 9.62136 0.899989 9.4725 1.0217L0.305835 8.5217C0.138606 8.6628 0.0335787 8.86401 0.0134306 9.08188C-0.00671748 9.29975 0.0596301 9.51681 0.198148 9.68618C0.336665 9.85555 0.536238 9.96365 0.753775 9.98713C0.971312 10.0106 1.18936 9.94761 1.36083 9.8117L2.5 8.88004V18.3334C2.5 18.5544 2.5878 18.7663 2.74408 18.9226C2.90036 19.0789 3.11232 19.1667 3.33333 19.1667H8.33334V14.1667H11.6667V19.1667H16.6667C16.8877 19.1667 17.0996 19.0789 17.2559 18.9226C17.4122 18.7663 17.5 18.5544 17.5 18.3334V8.88004L18.6392 9.8117C18.7236 9.88297 18.8214 9.93672 18.9269 9.96983C19.0323 10.0029 19.1433 10.0148 19.2533 10.0046C19.3633 9.99441 19.4703 9.96245 19.5678 9.91056C19.6654 9.85867 19.7517 9.7879 19.8216 9.70235C19.8916 9.61681 19.9438 9.5182 19.9753 9.41227C20.0068 9.30635 20.0169 9.19521 20.0051 9.08534C19.9932 8.97547 19.9596 8.86906 19.9062 8.77229C19.8529 8.67553 19.7808 8.59034 19.6942 8.5217Z" fill="#BDBDBD"/>
</g>
<defs>
<clipPath id="clip0_466_2981">
<rect width="20" height="20" fill="white"/>
</clipPath>
</defs>
</svg>
