<svg width="17" height="17" viewBox="0 0 17 17" fill="none" xmlns="http://www.w3.org/2000/svg">
<g clip-path="url(#clip0_470_7457)">
<path d="M16.6667 7.63889H15.2424C14.916 4.36319 12.3035 1.75069 9.02778 1.42431V0H7.63889V1.42431C4.36319 1.75069 1.75069 4.36319 1.42431 7.63889H0V9.02778H1.42431C1.75139 12.3035 4.36319 14.916 7.63889 15.2424V16.6667H9.02778V15.2424C12.3035 14.9153 14.916 12.3035 15.2424 9.02778H16.6667V7.63889ZM9.02778 13.841V12.5H7.63889V13.841C5.13056 13.5257 3.14097 11.5361 2.82569 9.02778H4.16667V7.63889H2.82569C3.14097 5.13056 5.13056 3.14097 7.63889 2.82569V4.16667H9.02778V2.82569C11.5361 3.14028 13.5257 5.13056 13.841 7.63889H12.5V9.02778H13.841C13.5257 11.5361 11.5361 13.5257 9.02778 13.841Z" fill="#49493D"/>
<path d="M8.33335 9.72211C9.10041 9.72211 9.72224 9.10029 9.72224 8.33322C9.72224 7.56616 9.10041 6.94434 8.33335 6.94434C7.56628 6.94434 6.94446 7.56616 6.94446 8.33322C6.94446 9.10029 7.56628 9.72211 8.33335 9.72211Z" fill="#49493D"/>
</g>
<defs>
<clipPath id="clip0_470_7457">
<rect width="16.6667" height="16.6667" fill="white"/>
</clipPath>
</defs>
</svg>
