<svg width="20" height="20" viewBox="0 0 20 20" fill="none" xmlns="http://www.w3.org/2000/svg">
<g clip-path="url(#clip0_470_7532)">
<path d="M15.8924 14.5709L14.7141 13.3925L15.3033 12.8034C15.9997 12.1069 16.5522 11.2801 16.9291 10.3702C17.306 9.46023 17.5 8.48495 17.5 7.50003C17.5 6.51511 17.306 5.53983 16.9291 4.62989C16.5522 3.71994 15.9997 2.89314 15.3033 2.1967L14.7141 1.60753L15.8924 0.429199L16.4816 1.01837C18.2006 2.73744 19.1663 5.06895 19.1663 7.50003C19.1663 9.93111 18.2006 12.2626 16.4816 13.9817L15.8924 14.5709Z" fill="#959595"/>
<path d="M13.535 12.2133L12.3575 11.0341L12.9467 10.4458C13.7278 9.66442 14.1667 8.60481 14.1667 7.49995C14.1667 6.3951 13.7278 5.33549 12.9467 4.55412L12.3575 3.96579L13.535 2.78662L14.125 3.37579C14.6668 3.91747 15.0965 4.56056 15.3897 5.26833C15.6829 5.9761 15.8338 6.73469 15.8338 7.50079C15.8338 8.26688 15.6829 9.02547 15.3897 9.73325C15.0965 10.441 14.6668 11.0841 14.125 11.6258L13.535 12.2133Z" fill="#959595"/>
<path d="M4.10749 14.5709L3.51833 13.9817C1.79933 12.2626 0.833618 9.93111 0.833618 7.50003C0.833618 5.06895 1.79933 2.73744 3.51833 1.01837L4.10749 0.429199L5.28583 1.60753L4.69666 2.1967C4.00021 2.89314 3.44776 3.71994 3.07084 4.62989C2.69393 5.53983 2.49993 6.51511 2.49993 7.50003C2.49993 8.48495 2.69393 9.46023 3.07084 10.3702C3.44776 11.2801 4.00021 12.1069 4.69666 12.8034L5.28583 13.3925L4.10749 14.5709Z" fill="#959595"/>
<path d="M6.46501 12.2135L5.87501 11.6243C5.33328 11.0826 4.90354 10.4396 4.61035 9.73178C4.31716 9.02401 4.16626 8.26542 4.16626 7.49932C4.16626 6.73323 4.31716 5.97464 4.61035 5.26687C4.90354 4.55909 5.33328 3.91601 5.87501 3.37432L6.46501 2.78516L7.64251 3.96599L7.05335 4.55432C6.27222 5.33569 5.8334 6.39531 5.8334 7.50016C5.8334 8.60501 6.27222 9.66462 7.05335 10.446L7.64251 11.0343L6.46501 12.2135Z" fill="#959595"/>
<path d="M10.8334 18.3331V9.40729C11.272 9.21584 11.6314 8.87919 11.8511 8.45393C12.0707 8.02868 12.1372 7.54077 12.0394 7.07224C11.9416 6.60371 11.6855 6.18314 11.3141 5.88125C10.9427 5.57935 10.4787 5.41455 10 5.41455C9.52142 5.41455 9.05739 5.57935 8.68598 5.88125C8.31457 6.18314 8.05844 6.60371 7.96065 7.07224C7.86286 7.54077 7.92939 8.02868 8.14903 8.45393C8.36867 8.87919 8.72804 9.21584 9.16671 9.40729V18.3331H5.83337V19.9998H14.1667V18.3331H10.8334Z" fill="#959595"/>
</g>
<defs>
<clipPath id="clip0_470_7532">
<rect width="20" height="20" fill="white"/>
</clipPath>
</defs>
</svg>
