<svg width="24" height="24" viewBox="0 0 24 24" fill="none" xmlns="http://www.w3.org/2000/svg">
<path d="M10 19C8.21997 19 6.47991 18.4722 4.99987 17.4832C3.51983 16.4943 2.36628 15.0887 1.68509 13.4442C1.0039 11.7996 0.82567 9.99002 1.17294 8.24419C1.5202 6.49836 2.37737 4.89472 3.63604 3.63604C4.89472 2.37737 6.49836 1.5202 8.24419 1.17294C9.99002 0.82567 11.7996 1.0039 13.4442 1.68509C15.0887 2.36628 16.4943 3.51983 17.4832 4.99987C18.4722 6.47991 19 8.21997 19 10C18.9971 12.3861 18.0479 14.6736 16.3608 16.3608C14.6736 18.0479 12.3861 18.9971 10 19ZM10 3C8.61553 3 7.26216 3.41055 6.11101 4.17972C4.95987 4.94889 4.06266 6.04214 3.53285 7.32122C3.00303 8.6003 2.86441 10.0078 3.13451 11.3656C3.4046 12.7235 4.07129 13.9708 5.05026 14.9498C6.02922 15.9287 7.2765 16.5954 8.63437 16.8655C9.99224 17.1356 11.3997 16.997 12.6788 16.4672C13.9579 15.9373 15.0511 15.0401 15.8203 13.889C16.5895 12.7379 17 11.3845 17 10C16.9979 8.14414 16.2597 6.36489 14.9474 5.0526C13.6351 3.7403 11.8559 3.00212 10 3Z" fill="#898989"/>
<path d="M7 10H5C5.00159 8.67441 5.52888 7.40356 6.46622 6.46622C7.40356 5.52888 8.67441 5.00159 10 5V7C9.20435 7 8.44129 7.31607 7.87868 7.87868C7.31607 8.44129 7 9.20435 7 10Z" fill="#898989"/>
<path d="M22.707 21.2931L18.451 17.0371C18.0237 17.5505 17.5504 18.0238 17.037 18.4511L21.293 22.7071C21.4816 22.8893 21.7342 22.9901 21.9964 22.9878C22.2586 22.9855 22.5094 22.8803 22.6948 22.6949C22.8802 22.5095 22.9854 22.2587 22.9877 21.9965C22.99 21.7343 22.8892 21.4817 22.707 21.2931Z" fill="#898989"/>
</svg>
