<svg width="17" height="17" viewBox="0 0 17 17" fill="none" xmlns="http://www.w3.org/2000/svg">
<g clip-path="url(#clip0_470_7462)">
<path d="M13.2438 12.1421L12.2618 11.1602L12.7528 10.6692C13.3332 10.0889 13.7936 9.39986 14.1077 8.64157C14.4218 7.88328 14.5834 7.07055 14.5834 6.24978C14.5834 5.42901 14.4218 4.61628 14.1077 3.85799C13.7936 3.0997 13.3332 2.41071 12.7528 1.83034L12.2618 1.33937L13.2438 0.357422L13.7348 0.848394C15.1673 2.28095 15.972 4.22388 15.972 6.24978C15.972 8.27568 15.1673 10.2186 13.7348 11.6512L13.2438 12.1421Z" fill="#49493D"/>
<path d="M11.2792 10.1773L10.298 9.19469L10.7889 8.70442C11.4399 8.05328 11.8056 7.17026 11.8056 6.24956C11.8056 5.32885 11.4399 4.44583 10.7889 3.79469L10.298 3.30442L11.2792 2.32178L11.7709 2.81275C12.2223 3.26415 12.5804 3.80006 12.8248 4.38987C13.0691 4.97968 13.1949 5.61184 13.1949 6.25025C13.1949 6.88866 13.0691 7.52082 12.8248 8.11063C12.5804 8.70044 12.2223 9.23635 11.7709 9.68775L11.2792 10.1773Z" fill="#49493D"/>
<path d="M3.42293 12.1421L2.93196 11.6512C1.49946 10.2186 0.694702 8.27568 0.694702 6.24978C0.694702 4.22388 1.49946 2.28095 2.93196 0.848394L3.42293 0.357422L4.40488 1.33937L3.9139 1.83034C3.33353 2.41071 2.87315 3.0997 2.55905 3.85799C2.24496 4.61628 2.08329 5.42901 2.08329 6.24978C2.08329 7.07055 2.24496 7.88328 2.55905 8.64157C2.87315 9.39986 3.33353 10.0889 3.9139 10.6692L4.40488 11.1602L3.42293 12.1421Z" fill="#49493D"/>
<path d="M5.38755 10.1777L4.89589 9.68677C4.44444 9.23537 4.08633 8.69946 3.842 8.10965C3.59768 7.51984 3.47192 6.88768 3.47192 6.24927C3.47192 5.61086 3.59768 4.9787 3.842 4.38889C4.08633 3.79908 4.44444 3.26318 4.89589 2.81177L5.38755 2.3208L6.3688 3.30483L5.87783 3.79511C5.22689 4.44624 4.86121 5.32926 4.86121 6.24997C4.86121 7.17068 5.22689 8.05369 5.87783 8.70483L6.3688 9.19511L5.38755 10.1777Z" fill="#49493D"/>
<path d="M9.02775 15.2777V7.83949C9.39331 7.67995 9.69278 7.3994 9.87582 7.04503C10.0589 6.69065 10.1143 6.28406 10.0328 5.89361C9.95131 5.50317 9.73786 5.1527 9.42836 4.90112C9.11885 4.64954 8.73216 4.51221 8.33331 4.51221C7.93445 4.51221 7.54776 4.64954 7.23825 4.90112C6.92875 5.1527 6.71531 5.50317 6.63382 5.89361C6.55233 6.28406 6.60776 6.69065 6.7908 7.04503C6.97383 7.3994 7.27331 7.67995 7.63886 7.83949V15.2777H4.86108V16.6666H11.8055V15.2777H9.02775Z" fill="#49493D"/>
</g>
<defs>
<clipPath id="clip0_470_7462">
<rect width="16.6667" height="16.6667" fill="white"/>
</clipPath>
</defs>
</svg>
