<svg width="20" height="20" viewBox="0 0 20 20" fill="none" xmlns="http://www.w3.org/2000/svg">
<g clip-path="url(#clip0_466_5541)">
<path d="M8.33335 15.8333C6.84999 15.8333 5.39994 15.3934 4.16657 14.5693C2.9332 13.7452 1.97191 12.5738 1.40425 11.2034C0.836593 9.83294 0.688068 8.32494 0.977457 6.87008C1.26685 5.41522 1.98115 4.07885 3.03005 3.02995C4.07894 1.98106 5.41531 1.26675 6.87017 0.977366C8.32503 0.687977 9.83303 0.836502 11.2035 1.40416C12.5739 1.97182 13.7453 2.93311 14.5694 4.16648C15.3935 5.39985 15.8333 6.8499 15.8333 8.33325C15.8309 10.3216 15.04 12.2279 13.634 13.6339C12.228 15.0399 10.3217 15.8308 8.33335 15.8333ZM8.33335 2.49992C7.17962 2.49992 6.05181 2.84204 5.09252 3.48302C4.13323 4.12399 3.38556 5.03503 2.94405 6.10093C2.50254 7.16684 2.38702 8.33973 2.6121 9.47128C2.83718 10.6028 3.39275 11.6422 4.20856 12.458C5.02436 13.2739 6.06376 13.8294 7.19532 14.0545C8.32688 14.2796 9.49977 14.1641 10.5657 13.7226C11.6316 13.281 12.5426 12.5334 13.1836 11.5741C13.8246 10.6148 14.1667 9.48698 14.1667 8.33325C14.1649 6.7867 13.5498 5.30399 12.4562 4.21041C11.3626 3.11683 9.8799 2.50169 8.33335 2.49992Z" fill="#FECC2A"/>
<path d="M5.83335 8.33317H4.16669C4.16801 7.22851 4.60742 6.16947 5.38854 5.38835C6.16965 4.60724 7.22869 4.16783 8.33335 4.1665V5.83317C7.67031 5.83317 7.03443 6.09656 6.56559 6.5654C6.09675 7.03424 5.83335 7.67013 5.83335 8.33317Z" fill="#FECC2A"/>
<path d="M18.9225 17.7442L15.3758 14.1975C15.0197 14.6253 14.6253 15.0197 14.1975 15.3758L17.7442 18.9225C17.9013 19.0743 18.1118 19.1583 18.3303 19.1564C18.5488 19.1545 18.7579 19.0669 18.9124 18.9124C19.0669 18.7579 19.1545 18.5488 19.1564 18.3303C19.1583 18.1118 19.0743 17.9013 18.9225 17.7442Z" fill="#FECC2A"/>
</g>
<defs>
<clipPath id="clip0_466_5541">
<rect width="20" height="20" fill="white"/>
</clipPath>
</defs>
</svg>
