<svg width="16" height="16" viewBox="0 0 16 16" fill="none" xmlns="http://www.w3.org/2000/svg">
<path d="M15.3333 8.66634H0.666667C0.266667 8.66634 0 8.39967 0 7.99967C0 7.59967 0.266667 7.33301 0.666667 7.33301H15.3333C15.7333 7.33301 16 7.59967 16 7.99967C16 8.39967 15.7333 8.66634 15.3333 8.66634Z" fill="white"/>
<path d="M15.3333 3.99984H0.666667C0.266667 3.99984 0 3.73317 0 3.33317C0 2.93317 0.266667 2.6665 0.666667 2.6665H15.3333C15.7333 2.6665 16 2.93317 16 3.33317C16 3.73317 15.7333 3.99984 15.3333 3.99984Z" fill="white"/>
<path d="M15.3333 13.3333H0.666667C0.266667 13.3333 0 13.0667 0 12.6667C0 12.2667 0.266667 12 0.666667 12H15.3333C15.7333 12 16 12.2667 16 12.6667C16 13.0667 15.7333 13.3333 15.3333 13.3333Z" fill="white"/>
</svg>
