<svg width="48" height="50" viewBox="0 0 48 50" fill="none" xmlns="http://www.w3.org/2000/svg">
<path d="M29.268 2.71375L28.4632 2.72397L28.3468 0L17.55 0.657191C17.55 0.657191 17.6612 1.94852 17.6497 2.82626C11.0048 3.48344 0.347955 6.87612 0.0935364 21.8468L8.62297 22.0412C7.89615 28.9064 8.00802 33.0074 7.28695 35.585C6.09604 39.8426 2.32705 48.8258 3.08648 49.2816C3.84526 49.7374 38.8311 50.385 40.5008 49.4734C42.1705 48.5624 39.1315 36.8386 38.3721 33.6512C37.8895 31.6214 37.7885 26.9623 37.7763 23.3632L47.5702 22.9259C47.5708 22.9253 48.265 2.65877 29.268 2.71375Z" fill="#BDBDBD"/>
<path d="M28.4202 2.608C28.4246 2.65147 27.8205 2.76463 26.8342 2.87842C25.8485 2.99221 24.4792 3.0977 22.9642 3.12967C21.4492 3.16099 20.0768 3.11305 19.0872 3.04017C18.097 2.96857 17.4885 2.88035 17.4917 2.83624C17.4948 2.78893 18.1079 2.7934 19.0968 2.80491C20.0851 2.81705 21.4505 2.82792 22.9572 2.7966C24.4639 2.76463 25.8267 2.69686 26.8144 2.6438C27.8026 2.5901 28.415 2.56005 28.4202 2.608Z" fill="#263238"/>
<path d="M19.5001 0.540039C19.5922 0.540039 19.6663 1.06615 19.6663 1.71499C19.6663 2.36383 19.5922 2.88992 19.5001 2.88992C19.4081 2.88992 19.3339 2.36383 19.3339 1.71499C19.3339 1.06679 19.4081 0.540039 19.5001 0.540039Z" fill="#263238"/>
<path d="M22.3882 0.335946C22.4796 0.333389 22.5698 0.910619 22.5883 1.62592C22.6069 2.34058 22.548 2.92165 22.4553 2.92421C22.3633 2.92612 22.2738 2.34889 22.2552 1.63423C22.2373 0.919569 22.2962 0.338503 22.3882 0.335946Z" fill="#263238"/>
<path d="M25.3646 0.233501C25.4554 0.224552 25.5838 0.801133 25.5986 1.52345C25.6145 2.24577 25.511 2.82683 25.4202 2.82171C25.3269 2.81724 25.2815 2.23939 25.2655 1.53049C25.2508 0.821598 25.2725 0.24245 25.3646 0.233501Z" fill="#263238"/>
<path d="M27.5278 0.131841C27.6211 0.13248 27.6895 0.694341 27.7783 1.37894C27.864 2.06417 27.9375 2.62541 27.8474 2.6497C27.7604 2.67399 27.5374 2.13129 27.4485 1.42049C27.3565 0.710323 27.4376 0.129923 27.5278 0.131841Z" fill="#263238"/>
<path d="M9.98627 21.8537C9.89422 21.8543 9.80792 20.4153 9.79322 18.6402C9.77851 16.8643 9.84116 15.4241 9.93322 15.4229C10.0253 15.4222 10.1116 16.8612 10.1263 18.637C10.1403 20.4128 10.0783 21.853 9.98627 21.8537Z" fill="#263238"/>
<path d="M37.4418 22.9243C37.3497 22.9326 37.1452 21.3857 36.9847 19.4712C36.8236 17.5554 36.7674 15.9963 36.8588 15.9893C36.9508 15.981 37.1554 17.5273 37.3158 19.4431C37.4769 21.3582 37.5332 22.9166 37.4418 22.9243Z" fill="#263238"/>
<path d="M9.98626 21.854C9.9837 21.9006 9.42309 21.907 8.51984 21.8994C7.48874 21.8917 6.30231 21.8834 4.99314 21.8731C3.68333 21.8795 2.49689 21.8859 1.46579 21.8904C0.562545 21.8955 0.00192651 21.8872 8.7793e-06 21.8405C-0.00254819 21.7958 0.553595 21.7204 1.45685 21.6552C2.3601 21.5893 3.61109 21.5382 4.99377 21.5401C6.37582 21.542 7.62682 21.5963 8.53007 21.6641C9.43268 21.7325 9.98818 21.8092 9.98626 21.854Z" fill="#263238"/>
<path d="M47.5693 22.925C47.5693 23.017 45.2348 23.0918 42.355 23.0918C39.4745 23.0918 37.1407 23.017 37.1407 22.925C37.1407 22.8336 39.4745 22.7588 42.355 22.7588C45.2348 22.7588 47.5693 22.8329 47.5693 22.925Z" fill="#263238"/>
</svg>
