<svg width="44" height="34" viewBox="0 0 44 34" fill="none" xmlns="http://www.w3.org/2000/svg">
<path d="M7.31596 1.23024C8.76748 -0.481938 13.0642 -0.567457 15.0965 2.00068C17.1286 4.56881 19.9156 8.76335 20.9027 9.27697C21.8899 9.7906 25.1801 7.90739 27.8316 7.47928C30.4832 7.05117 31.5283 11.0747 32.5154 13.3005C33.5024 15.5263 34.5475 15.6118 35.0121 18.5223C35.4767 21.4327 36.3476 23.573 37.6829 25.9698C39.0184 28.3667 42.9086 31.6105 43.3152 33.4341C41.312 33.4341 0.464565 33.4341 0.464565 33.4341L0 8.67783C1.16115 6.96591 5.86427 2.94241 7.31596 1.23024Z" fill="#EBEBEB"/>
</svg>
