<svg width="2" height="5" viewBox="0 0 2 5" fill="none" xmlns="http://www.w3.org/2000/svg">
<path d="M1.45319 4.93697C1.45447 4.90501 1.10034 4.86283 0.526949 4.81936C0.382484 4.81169 0.241851 4.79058 0.212447 4.68575C0.173454 4.5758 0.229066 4.40895 0.292989 4.22997C0.415721 3.85794 0.545486 3.46737 0.680363 3.05699C1.21859 1.3886 1.60532 0.0200199 1.5446 0.000203797C1.48323 -0.0189731 0.998058 1.31765 0.45919 2.98604C0.329427 3.39834 0.206054 3.79083 0.0884367 4.16478C0.0392162 4.33865 -0.0477174 4.53809 0.0328252 4.75734C0.0750142 4.86665 0.181764 4.94145 0.274452 4.9619C0.367779 4.98619 0.448963 4.98299 0.519917 4.98363C1.09586 4.98491 1.45191 4.96893 1.45319 4.93697Z" fill="#263238"/>
</svg>
