<svg width="24" height="18" viewBox="0 0 24 18" fill="none" xmlns="http://www.w3.org/2000/svg">
<rect width="24" height="18" rx="2" fill="white"/>
<mask id="mask0_34_2683" style="mask-type:luminance" maskUnits="userSpaceOnUse" x="0" y="0" width="24" height="18">
<rect width="24" height="18" rx="2" fill="white"/>
</mask>
<g mask="url(#mask0_34_2683)">
<rect width="24" height="18" fill="#0A17A7"/>
<path fill-rule="evenodd" clip-rule="evenodd" d="M-1.09925 -1.72461L9.14286 5.52921V-1.19978H14.8571V5.52923L25.0993 -1.72458L26.3774 0.265106L18.2796 6.00022H24V12.0002H18.2797L26.3774 17.7353L25.0993 19.725L14.8571 12.4712V19.2002H9.14286V12.4712L-1.09926 19.725L-2.37741 17.7353L5.72035 12.0002H5.24521e-06V6.00022H5.7204L-2.37741 0.265081L-1.09925 -1.72461Z" fill="white"/>
<path d="M16.0011 5.69917L26.8572 -1.7998" stroke="#DB1F35" stroke-width="0.666667" stroke-linecap="round"/>
<path d="M17.1538 12.3273L26.8857 19.2148" stroke="#DB1F35" stroke-width="0.666667" stroke-linecap="round"/>
<path d="M6.86188 5.67939L-3.28928 -1.50391" stroke="#DB1F35" stroke-width="0.666667" stroke-linecap="round"/>
<path d="M7.96289 12.2441L-3.28928 20.0791" stroke="#DB1F35" stroke-width="0.666667" stroke-linecap="round"/>
<path fill-rule="evenodd" clip-rule="evenodd" d="M0 10.8H10.2857V18H13.7143V10.8H24V7.2H13.7143V0H10.2857V7.2H0V10.8Z" fill="#E6273E"/>
</g>
</svg>
