<svg width="3" height="5" viewBox="0 0 3 5" fill="none" xmlns="http://www.w3.org/2000/svg">
<path d="M0.15598 0.286598C0.489671 -0.0426236 1.58855 -0.0988608 1.96954 0.173466C2.35054 0.445794 2.5583 0.90541 2.64907 1.3644C2.79802 2.12385 2.64332 2.97217 2.1089 3.53152C1.57449 4.09088 0.630305 4.26732 0 3.81856" fill="#FFBE9D"/>
<path d="M0.926281 3.16777C0.921807 3.11535 1.12573 3.08211 1.36545 2.90568C1.60517 2.73563 1.85448 2.38661 1.80718 1.95C1.77266 1.51211 1.46326 1.21485 1.19669 1.09211C0.928841 0.962343 0.722362 0.967471 0.716609 0.915053C0.705741 0.876058 0.921807 0.769933 1.27979 0.861346C1.62435 0.932303 2.1089 1.32417 2.15173 1.91804C2.21886 2.50999 1.81485 2.98304 1.48947 3.11664C1.15514 3.27198 0.923085 3.20804 0.926281 3.16777Z" fill="#A36957"/>
</svg>
