<svg width="16" height="16" viewBox="0 0 16 16" fill="none" xmlns="http://www.w3.org/2000/svg">
<g clip-path="url(#clip0_470_4596)">
<path d="M13.1854 11.9465L8.94281 7.70391L13.1854 3.46127C13.4683 3.17842 13.4683 2.8013 13.1854 2.51846C12.9026 2.23561 12.5255 2.23561 12.2426 2.51846L8 6.7611L3.75736 2.51846C3.47452 2.23561 3.09739 2.23561 2.81455 2.51846C2.53171 2.8013 2.53171 3.17842 2.81455 3.46127L7.05719 7.70391L2.81455 11.9465C2.53171 12.2294 2.53171 12.6065 2.81455 12.8894C3.09739 13.1722 3.47452 13.1722 3.75736 12.8894L8 8.64672L12.2426 12.8894C12.5255 13.1722 12.9026 13.1722 13.1854 12.8894C13.4683 12.6065 13.4683 12.2294 13.1854 11.9465Z" fill="#959595"/>
</g>
<defs>
<clipPath id="clip0_470_4596">
<rect width="16" height="16" fill="white"/>
</clipPath>
</defs>
</svg>
