<svg width="16" height="16" viewBox="0 0 16 16" fill="none" xmlns="http://www.w3.org/2000/svg">
<g clip-path="url(#clip0_470_5055)">
<path d="M13.1855 11.9465L8.94282 7.70391L13.1855 3.46127C13.4683 3.17842 13.4683 2.8013 13.1855 2.51846C12.9026 2.23561 12.5255 2.23561 12.2426 2.51846L8.00001 6.7611L3.75737 2.51846C3.47452 2.23561 3.0974 2.23561 2.81456 2.51846C2.53172 2.8013 2.53172 3.17842 2.81456 3.46127L7.0572 7.70391L2.81456 11.9465C2.53172 12.2294 2.53172 12.6065 2.81456 12.8894C3.0974 13.1722 3.47452 13.1722 3.75737 12.8894L8.00001 8.64672L12.2426 12.8894C12.5255 13.1722 12.9026 13.1722 13.1855 12.8894C13.4683 12.6065 13.4683 12.2294 13.1855 11.9465Z" fill="#959595"/>
</g>
<defs>
<clipPath id="clip0_470_5055">
<rect width="16" height="16" fill="white"/>
</clipPath>
</defs>
</svg>
