<svg width="16" height="16" viewBox="0 0 16 16" fill="none" xmlns="http://www.w3.org/2000/svg">
<g clip-path="url(#clip0_470_7073)">
<path d="M13.1855 11.947L8.94282 7.70439L13.1855 3.46175C13.4683 3.17891 13.4683 2.80179 13.1855 2.51895C12.9026 2.2361 12.5255 2.2361 12.2426 2.51895L8.00001 6.76159L3.75737 2.51895C3.47452 2.2361 3.0974 2.2361 2.81456 2.51895C2.53172 2.80179 2.53172 3.17891 2.81456 3.46175L7.0572 7.70439L2.81456 11.947C2.53172 12.2299 2.53172 12.607 2.81456 12.8898C3.0974 13.1727 3.47452 13.1727 3.75737 12.8898L8.00001 8.6472L12.2426 12.8898C12.5255 13.1727 12.9026 13.1727 13.1855 12.8898C13.4683 12.607 13.4683 12.2299 13.1855 11.947Z" fill="#959595"/>
</g>
<defs>
<clipPath id="clip0_470_7073">
<rect width="16" height="16" fill="white"/>
</clipPath>
</defs>
</svg>
