<svg width="4" height="5" viewBox="0 0 4 5" fill="none" xmlns="http://www.w3.org/2000/svg">
<g clip-path="url(#clip0_470_5281)">
<path d="M2.48414 0C2.48414 0 1.70567 0.107259 1.69119 0.988938C1.69099 0.988938 2.53025 0.98666 2.48414 0Z" fill="white"/>
<path d="M3.29895 1.33062C3.29895 1.33062 2.82463 1.67414 2.8757 2.20754C2.92677 2.74094 3.32811 2.98941 3.41578 2.98941C3.41578 2.98941 3.17489 3.72905 2.78824 3.97607C2.78824 3.97607 2.56204 4.18065 2.23369 4.04192C2.23369 4.04192 1.76413 3.80711 1.41883 4.01521C1.41883 4.01521 1.08304 4.24422 0.742498 3.94708C0.401955 3.64995 -0.0140584 2.90928 0.000621975 2.09821C0.000621975 2.09821 0.0882908 0.585399 1.46742 1.04591C1.46742 1.04591 1.78129 1.1629 2.05856 1.03121C2.05836 1.03079 2.80995 0.67278 3.29895 1.33062Z" fill="white"/>
</g>
<defs>
<clipPath id="clip0_470_5281">
<rect width="3.41557" height="4.09883" fill="white"/>
</clipPath>
</defs>
</svg>
