<svg width="12" height="14" viewBox="0 0 12 14" fill="none" xmlns="http://www.w3.org/2000/svg">
<path d="M10.9921 1.51302C7.62695 2.26844 5.90494 0.703057 5.67266 0.471852C5.67266 0.471852 5.66779 0.448617 5.6589 0.457981C5.64988 0.448756 5.64536 0.472011 5.64536 0.472011C5.4164 0.706104 3.71673 2.29291 0.341184 1.57968C0.341184 1.57968 -0.132937 7.68605 1.84933 10.1636C3.96656 12.8097 5.74325 13.6027 5.75211 13.5957C5.76103 13.6026 7.54166 12.8027 9.60583 10.1151C11.537 7.60057 10.9921 1.51302 10.9921 1.51302Z" fill="white"/>
<path d="M10.5031 2.14405C7.44941 2.81695 5.88696 1.42349 5.67625 1.21769C5.67625 1.21769 5.67185 1.19703 5.66377 1.20535C5.6556 1.19713 5.65148 1.21784 5.65148 1.21784C5.44368 1.42627 3.90115 2.83913 0.838193 2.20454C0.838193 2.20454 0.407188 7.64098 2.20568 9.84644C4.12657 12.202 5.73812 13.0532 5.74614 13.047C5.75426 13.0531 7.37074 12.1954 9.24419 9.80241C10.9969 7.56359 10.5031 2.14405 10.5031 2.14405Z" fill="#FECC2A"/>
<g opacity="0.02">
<path opacity="0.02" d="M5.65438 1.75356C5.65438 1.75356 5.65869 1.73186 5.66728 1.74046C5.6757 1.73173 5.68033 1.75338 5.68033 1.75338C5.89677 1.96476 7.47454 3.37177 10.5511 2.76209C10.5323 2.20843 10.5007 1.86199 10.5007 1.86199C7.44701 2.53489 5.88456 1.14144 5.67385 0.935601C5.67385 0.935601 5.66944 0.914942 5.66136 0.923258C5.65319 0.91504 5.64904 0.93575 5.64904 0.93575C5.44124 1.14419 3.89872 2.55704 0.835756 1.92245C0.835756 1.92245 0.808288 2.26914 0.79616 2.82272C3.88258 3.39495 5.44094 1.96769 5.65438 1.75356Z" fill="black"/>
</g>
<path d="M3.03177 7.62227C3.08295 7.71333 3.39293 8.08922 3.79728 8.61148C4.2805 9.23563 4.82533 9.93885 4.88916 10.0185C5.00626 10.1649 5.09247 10.0639 5.26769 9.68084C5.51029 9.1505 6.01029 7.9881 6.71308 6.92714C7.41588 5.86619 8.47004 4.69551 8.72103 4.47599C8.97202 4.25647 9.08912 4.11017 8.92183 4.03695C8.75449 3.9638 7.44776 4.9741 6.68534 5.87702C5.86661 6.8466 4.97968 8.42949 4.75981 8.46677C4.58372 8.49666 3.73165 7.79808 3.49004 7.63394C3.20944 7.44335 2.89864 7.3853 3.03177 7.62227Z" fill="white"/>
</svg>
