<svg width="3" height="2" viewBox="0 0 3 2" fill="none" xmlns="http://www.w3.org/2000/svg">
<path d="M0.779205 1.01473C0.779205 1.30494 1.01445 1.54018 1.30467 1.54018C1.59489 1.54018 1.83013 1.30494 1.83013 1.01473C1.83013 0.724512 1.59489 0.489258 1.30467 0.489258C1.01445 0.489258 0.779205 0.724512 0.779205 1.01473Z" fill="#263238"/>
<path d="M0.00893967 0.636656C0.0766992 0.705044 0.465357 0.374606 1.03109 0.343927C1.59681 0.305579 2.02191 0.586166 2.08136 0.510109C2.11013 0.476235 2.03981 0.351605 1.85443 0.223777C1.67161 0.0972287 1.36349 -0.0190993 1.01063 0.00263131C0.65841 0.0237228 0.366278 0.175836 0.200075 0.324754C0.0313154 0.473673 -0.0236616 0.606617 0.00893967 0.636656Z" fill="#263238"/>
</svg>
