<svg width="82" height="55" viewBox="0 0 82 55" fill="none" xmlns="http://www.w3.org/2000/svg">
<path d="M79.6313 44.5088C80.4538 39.4616 76.983 34.7108 71.8789 33.8974C66.7749 33.0841 61.9706 36.5163 61.1481 41.5635C60.3256 46.6106 63.7964 51.3615 68.9004 52.1748C74.0044 52.9881 78.8088 49.556 79.6313 44.5088Z" fill="#49493D"/>
<path d="M74.1207 46.9428C76.1875 44.899 76.1875 41.5854 74.1207 39.5416C72.054 37.4978 68.7031 37.4978 66.6363 39.5416C64.5695 41.5854 64.5695 44.899 66.6363 46.9428C68.7031 48.9865 72.054 48.9865 74.1207 46.9428Z" fill="white"/>
<path d="M57.3654 29.8555H70.0027C75.2592 29.8555 79.5204 34.0692 79.5204 39.2672H57.3658V29.8555H57.3654Z" fill="#FFCA44"/>
<path d="M66.3466 23.5206L58.6354 13.1457C57.9601 12.2374 57.4733 11.2059 57.203 10.1109L57.1659 9.96071L59.5411 9.38695C59.721 9.34341 59.8308 9.16436 59.7872 8.98654L58.4671 3.6408C58.3 2.9649 57.6108 2.55106 56.9273 2.71586L54.5932 3.27945C52.6686 3.74416 51.4896 5.66361 51.9596 7.56638C51.967 7.59609 51.9777 7.62416 51.9859 7.65387L51.981 7.65265L54.2648 16.8996L56.0968 14.0922V39.2668H27.9146V43.0838C27.9146 44.9609 29.4532 46.4824 31.3514 46.4824H54.0611C56.4915 46.4824 58.6091 45.1762 59.7494 43.2388L59.7518 43.2413L66.8581 32.0765C68.4156 29.3766 68.2152 26.0211 66.3466 23.5206Z" fill="#FECC2A"/>
<path d="M40.3547 0.877639L42.243 0.421475C43.9816 0.00152722 45.7005 0.914666 46.0823 2.46098C46.4642 4.0073 45.3643 5.60083 43.6257 6.02078L42.3484 6.32923C41.4921 6.53594 40.6452 6.08629 40.4567 5.32453L39.621 1.94012C39.5074 1.47907 39.8358 1.00338 40.3547 0.877639Z" fill="#FECC2A"/>
<path d="M60.43 5.61445C60.8999 7.51719 60.5008 9.24821 59.5387 9.48097C58.5766 9.71331 57.4154 8.3591 56.9454 6.45595C56.4755 4.5528 56.8746 2.82177 57.8367 2.58942C58.7992 2.35707 59.9601 3.7113 60.43 5.61445Z" fill="#FFCA44"/>
<path d="M59.332 4.33323C59.6028 5.4303 59.3732 6.42848 58.8181 6.56236C58.2634 6.69624 57.5939 5.91536 57.3231 4.81829C57.0523 3.72123 57.2823 2.72303 57.837 2.58916C58.3917 2.45528 59.0613 3.23617 59.332 4.33323Z" fill="white"/>
<path d="M51.8574 6.75674L49.7188 3.09566C49.274 2.3335 48.3736 1.95343 47.509 2.16218L44.2639 2.94592" stroke="#FECC2A" stroke-miterlimit="10" stroke-linecap="round" stroke-linejoin="round"/>
<path d="M52.015 7.71962L45.2572 9.35182C44.9992 9.41408 44.7388 9.25782 44.6758 9.00267L44.498 8.2824C44.4351 8.02726 44.5931 7.76967 44.8511 7.70741L51.6088 6.0752C51.8668 6.01293 52.1273 6.1692 52.1903 6.42434L52.3681 7.14461C52.4314 7.39976 52.2734 7.65736 52.015 7.71962Z" fill="#FECC2A"/>
<path d="M53.3216 8.88558L52.3784 9.11346C51.9805 9.2095 51.5793 8.9686 51.4821 8.5751L50.9978 6.61453L52.6611 6.21289L53.3216 8.88558Z" fill="#FECC2A"/>
<path d="M45.9963 10.0007C45.4794 10.1256 44.9584 9.81235 44.8321 9.30187L44.7305 8.89105C44.6041 8.38016 44.921 7.8652 45.4374 7.74033C45.9543 7.61545 46.4753 7.92866 46.6016 8.43915L46.7032 8.84996C46.8296 9.36085 46.5131 9.87622 45.9963 10.0007Z" fill="#FECC2A"/>
<path d="M5.09022 24.3654H21.3228C22.3742 24.3654 23.2264 23.5226 23.2264 22.4829V1.88243C23.2264 0.842742 22.3742 0 21.3228 0H5.03713C2.40886 0 0.278503 2.10705 0.278503 4.70566V19.6072C0.278503 22.2351 2.43273 24.3654 5.09022 24.3654Z" fill="#FFCA44"/>
<path opacity="0.43" d="M5.07309 24.3656H21.3057C22.3571 24.3656 23.2093 21.9472 23.2093 20.9075C23.2093 20.9075 0.301698 20.3142 0.377415 20.6495C0.85764 22.7766 2.77772 24.3656 5.07309 24.3656Z" fill="#FECC2A"/>
<path opacity="0.43" d="M23.2264 6.48354V1.88244C23.2264 0.842744 22.3742 0 21.3228 0H5.03713C2.40886 0 0.278503 2.10706 0.278503 4.70568V6.58812L23.2264 6.48354Z" fill="#FECC2A"/>
<path d="M0.443787 20.9062H22.891" stroke="#D89B00" stroke-miterlimit="10" stroke-linecap="round"/>
<path d="M0.443787 6.75488H22.891" stroke="#D89B00" stroke-miterlimit="10" stroke-linecap="round"/>
<path d="M39.1763 39.2661L1.75903 36.0197C1.45287 35.9932 1.22366 35.73 1.24423 35.4264C1.27798 34.9287 1.33765 34.2069 1.422 33.7727C2.46146 28.4135 7.22751 24.3643 12.9499 24.3643H36.9114C37.9056 24.3643 38.5179 25.4389 38.0027 26.28L36.5629 28.6304C34.721 31.6372 35.2304 35.5049 37.7904 37.9448L39.1763 39.2661Z" fill="#FFC73A"/>
<path opacity="0.17" d="M39.1766 24.3657H12.9502C7.37469 24.3657 2.70741 28.2094 1.50994 33.3635C1.31488 34.2022 1.21201 35.0758 1.21201 35.9735L20.9333 37.4942C20.9333 37.4942 17.9368 36.2331 17.9368 29.4619C17.9368 24.2883 25.2266 24.2383 25.2266 24.2383" fill="white"/>
<path opacity="0.17" d="M25.1364 24.3657H12.042C8.52854 24.3657 2.15435 28.2094 1.39965 33.3635C1.27661 34.2021 1.21201 35.0758 1.21201 35.9735L13.1263 36.8923C13.1263 36.8923 11.2 36.3295 11.7514 29.4619C12.1658 24.3046 16.3451 24.2383 16.3451 24.2383" fill="white"/>
<path d="M39.9778 27.2781C40.0362 27.7481 39.663 28.1612 39.1844 28.1563L20.1845 27.9601C18.4203 27.9418 16.8311 26.7972 16.1764 25.073L14.6324 21.0062C13.9263 19.1462 15.1431 17.1307 17.041 17.0151L35.2274 16.5248C37.1516 16.4727 38.8169 17.9669 39.0667 19.969L39.9778 27.2781Z" fill="#FECC2A"/>
<path d="M14.9359 21.9377L28.1015 21.8994" stroke="#D89B00" stroke-miterlimit="10" stroke-linecap="round"/>
<path d="M31.3191 24.3395L39.599 24.2393" stroke="#D89B00" stroke-miterlimit="10" stroke-linecap="round"/>
<path d="M62.1765 24.5954C62.1003 24.3358 62.0139 24.0961 61.9176 23.9056L56.0961 12.3926C53.8011 13.4831 52.7472 16.1407 53.6801 18.483L55.0011 21.7994C55.7595 23.7026 56.1487 25.7303 56.1487 27.7759V31.12C56.1487 35.6201 52.4596 39.2682 47.9088 39.2682H39.1762V39.2487L14.2979 37.0855V42.876H27.9134H39.1762H52.1041C54.4859 42.876 57.5865 40.6827 59.3482 37.4773C61.0745 34.3359 61.9604 30.4823 62.3481 28.359C62.5764 27.1069 62.5349 25.8165 62.1765 24.5954Z" fill="#FECC2A"/>
<path d="M20.332 45.0782C21.4792 40.0934 18.3227 35.1329 13.2817 33.9985C8.24079 32.8641 3.22436 35.9855 2.07722 40.9703C0.930069 45.9551 4.0866 50.9157 9.12753 52.0501C14.1685 53.1844 19.1849 50.063 20.332 45.0782Z" fill="#49493D"/>
<path d="M16.3601 44.4097C17.0096 41.5916 15.2258 38.7865 12.376 38.1443C9.52619 37.502 6.68947 39.2659 6.04001 42.084C5.39054 44.902 7.17427 47.7072 10.0241 48.3494C12.8739 48.9916 15.7106 47.2277 16.3601 44.4097Z" fill="white"/>
<path d="M25.6403 45.9069H11.6812C10.0167 45.9069 8.66733 44.5726 8.66733 42.9266C8.66733 41.2806 10.0167 39.9463 11.6812 39.9463H25.6403C27.3048 39.9463 28.6541 41.2806 28.6541 42.9266C28.6545 44.5726 27.3048 45.9069 25.6403 45.9069Z" fill="#FFCA44"/>
</svg>
