<svg width="20" height="20" viewBox="0 0 20 20" fill="none" xmlns="http://www.w3.org/2000/svg">
<path d="M8.29335 7.54227C8.28512 7.79953 8.37887 8.04963 8.55418 8.2381C8.8263 8.48443 9.1467 8.67145 9.49501 8.78727V6.50977C9.16869 6.5413 8.85831 6.66597 8.60085 6.86893C8.50269 6.95119 8.42415 7.05433 8.37094 7.17082C8.31774 7.28731 8.29123 7.41422 8.29335 7.54227V7.54227Z" fill="#959595"/>
<path d="M10.4684 10.8164V13.1497C11.3284 13.017 11.7581 12.6484 11.7576 12.0439C11.7614 11.9127 11.7369 11.7823 11.6857 11.6615C11.6345 11.5407 11.5578 11.4323 11.4609 11.3439C11.1656 11.1081 10.8291 10.9292 10.4684 10.8164V10.8164Z" fill="#959595"/>
<path d="M17.5 0H2.50002C2.27901 0 2.06704 0.0877974 1.91076 0.244078C1.75448 0.400358 1.66669 0.61232 1.66669 0.833333V19.1667C1.66669 19.3877 1.75448 19.5996 1.91076 19.7559C2.06704 19.9122 2.27901 20 2.50002 20H17.5C17.721 20 17.933 19.9122 18.0893 19.7559C18.2456 19.5996 18.3334 19.3877 18.3334 19.1667V0.833333C18.3334 0.61232 18.2456 0.400358 18.0893 0.244078C17.933 0.0877974 17.721 0 17.5 0V0ZM12.71 13.6875C12.0687 14.1959 11.2855 14.4929 10.4684 14.5375V16.1267H9.49502V14.5833C8.47379 14.6005 7.45961 14.4111 6.51335 14.0267V12.4792C6.98489 12.7021 7.47839 12.8753 7.98585 12.9958C8.47906 13.1249 8.98539 13.1974 9.49502 13.2117V10.4725L8.87919 10.245C8.2155 10.0244 7.61507 9.6464 7.12919 9.14333C6.75608 8.70174 6.55931 8.13785 6.57669 7.56C6.56973 7.24024 6.63716 6.92323 6.77368 6.634C6.9102 6.34476 7.11207 6.0912 7.36335 5.89333C7.9807 5.42299 8.72439 5.14763 9.49919 5.1025V3.87333H10.4725V5.08333C11.441 5.11241 12.3963 5.31595 13.2925 5.68417L12.7584 7.02417C12.0279 6.73002 11.2573 6.54742 10.4725 6.4825V9.14917L11.0292 9.36167C11.7469 9.59043 12.4049 9.97551 12.9559 10.4892C13.3132 10.8865 13.5046 11.4058 13.4909 11.94C13.4982 12.2709 13.4319 12.5993 13.2969 12.9015C13.1619 13.2037 12.9614 13.4722 12.71 13.6875Z" fill="#959595"/>
</svg>
