<svg width="61" height="61" viewBox="0 0 61 61" fill="none" xmlns="http://www.w3.org/2000/svg">
<path d="M30.3367 57.6789C45.4267 57.6789 57.6595 45.441 57.6595 30.3448C57.6595 15.2486 45.4267 3.01074 30.3367 3.01074C15.2467 3.01074 3.01382 15.2486 3.01382 30.3448C3.01382 45.441 15.2467 57.6789 30.3367 57.6789Z" fill="#FECC2A"/>
<path d="M45.5017 45.5201C53.8784 37.1401 53.8784 23.5533 45.5017 15.1732C37.1251 6.79318 23.5439 6.79318 15.1672 15.1732C6.79061 23.5533 6.79061 37.1401 15.1672 45.5201C23.5439 53.9002 37.1251 53.9002 45.5017 45.5201Z" fill="white"/>
<path d="M30.3367 19.5371V30.3448H39.6297" stroke="#FED16C" stroke-width="4" stroke-miterlimit="10" stroke-linecap="round"/>
<path d="M30.428 32.4545C31.4703 32.4545 32.3152 31.6093 32.3152 30.5666C32.3152 29.524 31.4703 28.6787 30.428 28.6787C29.3857 28.6787 28.5408 29.524 28.5408 30.5666C28.5408 31.6093 29.3857 32.4545 30.428 32.4545Z" fill="#FECC2A"/>
</svg>
