<svg width="16" height="16" viewBox="0 0 16 16" fill="none" xmlns="http://www.w3.org/2000/svg">
<g clip-path="url(#clip0_470_7024)">
<path d="M13.1854 11.947L8.94281 7.70439L13.1854 3.46175C13.4683 3.17891 13.4683 2.80179 13.1854 2.51895C12.9026 2.2361 12.5255 2.2361 12.2426 2.51895L8 6.76159L3.75736 2.51895C3.47452 2.2361 3.09739 2.2361 2.81455 2.51895C2.53171 2.80179 2.53171 3.17891 2.81455 3.46175L7.05719 7.70439L2.81455 11.947C2.53171 12.2299 2.53171 12.607 2.81455 12.8898C3.09739 13.1727 3.47452 13.1727 3.75736 12.8898L8 8.6472L12.2426 12.8898C12.5255 13.1727 12.9026 13.1727 13.1854 12.8898C13.4683 12.607 13.4683 12.2299 13.1854 11.947Z" fill="#959595"/>
</g>
<defs>
<clipPath id="clip0_470_7024">
<rect width="16" height="16" fill="white"/>
</clipPath>
</defs>
</svg>
