<svg width="20" height="20" viewBox="0 0 20 20" fill="none" xmlns="http://www.w3.org/2000/svg">
<path d="M8.29333 7.54227C8.28511 7.79953 8.37886 8.04963 8.55417 8.2381C8.82629 8.48443 9.14669 8.67145 9.495 8.78727V6.50977C9.16868 6.5413 8.8583 6.66597 8.60084 6.86893C8.50268 6.95119 8.42413 7.05433 8.37093 7.17082C8.31773 7.28731 8.29122 7.41422 8.29333 7.54227V7.54227Z" fill="#959595"/>
<path d="M10.4683 10.8164V13.1497C11.3283 13.017 11.7581 12.6484 11.7575 12.0439C11.7614 11.9127 11.7369 11.7823 11.6857 11.6615C11.6345 11.5407 11.5578 11.4323 11.4608 11.3439C11.1656 11.1081 10.829 10.9292 10.4683 10.8164V10.8164Z" fill="#959595"/>
<path d="M17.5 0H2.5C2.27899 0 2.06703 0.0877974 1.91075 0.244078C1.75447 0.400358 1.66667 0.61232 1.66667 0.833333V19.1667C1.66667 19.3877 1.75447 19.5996 1.91075 19.7559C2.06703 19.9122 2.27899 20 2.5 20H17.5C17.721 20 17.933 19.9122 18.0893 19.7559C18.2455 19.5996 18.3333 19.3877 18.3333 19.1667V0.833333C18.3333 0.61232 18.2455 0.400358 18.0893 0.244078C17.933 0.0877974 17.721 0 17.5 0V0ZM12.71 13.6875C12.0687 14.1959 11.2855 14.4929 10.4683 14.5375V16.1267H9.495V14.5833C8.47377 14.6005 7.45959 14.4111 6.51333 14.0267V12.4792C6.98487 12.7021 7.47837 12.8753 7.98583 12.9958C8.47904 13.1249 8.98537 13.1974 9.495 13.2117V10.4725L8.87917 10.245C8.21548 10.0244 7.61505 9.6464 7.12917 9.14333C6.75606 8.70174 6.5593 8.13785 6.57667 7.56C6.56971 7.24024 6.63715 6.92323 6.77367 6.634C6.91019 6.34476 7.11205 6.0912 7.36333 5.89333C7.98068 5.42299 8.72437 5.14763 9.49917 5.1025V3.87333H10.4725V5.08333C11.441 5.11241 12.3963 5.31595 13.2925 5.68417L12.7583 7.02417C12.0279 6.73002 11.2573 6.54742 10.4725 6.4825V9.14917L11.0292 9.36167C11.7469 9.59043 12.4049 9.97551 12.9558 10.4892C13.3132 10.8865 13.5046 11.4058 13.4908 11.94C13.4981 12.2709 13.4319 12.5993 13.2969 12.9015C13.1618 13.2037 12.9614 13.4722 12.71 13.6875Z" fill="#959595"/>
</svg>
