<svg width="20" height="20" viewBox="0 0 20 20" fill="none" xmlns="http://www.w3.org/2000/svg">
<path d="M17.5 4.16667H14.1666C14.1666 1.83333 12.3333 0 9.99996 0C7.66663 0 5.83329 1.83333 5.83329 4.16667H2.49996C1.99996 4.16667 1.66663 4.5 1.66663 5V19.1667C1.66663 19.6667 1.99996 20 2.49996 20H17.5C18 20 18.3333 19.6667 18.3333 19.1667V5C18.3333 4.5 18 4.16667 17.5 4.16667ZM9.99996 1.66667C11.4166 1.66667 12.5 2.75 12.5 4.16667H7.49996C7.49996 2.75 8.58329 1.66667 9.99996 1.66667Z" fill="#BDBDBD"/>
</svg>
