<svg width="90" height="72" viewBox="0 0 90 72" fill="none" xmlns="http://www.w3.org/2000/svg">
<path d="M52.3805 45.3383C57.5846 44.3886 61.1187 38.8753 60.2741 33.024C59.4295 27.1726 54.5261 23.199 49.322 24.1487C44.1179 25.0983 40.5838 30.6116 41.4284 36.463C42.273 42.3143 47.1764 46.2879 52.3805 45.3383Z" fill="#F0F0F0"/>
<path d="M51.7454 41.3787C53.2878 39.7779 57.8538 39.698 60.0134 42.099C62.1728 44.5 65.1344 48.4216 66.1834 48.9018C67.2324 49.382 70.7288 47.6213 73.5464 47.2211C76.364 46.8208 77.4746 50.5825 78.5236 52.6634C79.5724 54.7444 80.683 54.8243 81.1767 57.5454C81.6704 60.2664 82.5959 62.2674 84.0149 64.5083C85.434 66.7491 89.5679 69.7818 90 71.4868C87.8713 71.4868 44.4647 71.4868 44.4647 71.4868L43.9711 48.3416C45.205 46.7411 50.2027 42.9794 51.7454 41.3787Z" fill="#EBEBEB"/>
<path d="M10.6733 50.3748C11.7927 49.1034 15.4118 48.2639 17.4855 43.2306C19.5593 38.1971 26.3707 27.7244 28.9605 26.2735C31.5502 24.8227 34.4343 18.4694 35.4728 17.5765C36.5112 16.6834 37.8472 19.1189 38.2156 20.5803C39.1529 24.2978 43.6232 34.8688 46.2951 36.8983C48.9669 38.9278 49.1454 43.3117 49.8881 45.8286C50.6309 48.3452 55.1872 49.8066 56.2223 53.0541C57.2577 56.3014 68.7803 71.5799 68.7803 71.5799H0C3.42693 68.781 6.36065 55.2729 10.6733 50.3748Z" fill="#F5F5F5"/>
<path d="M35.5865 21.0669C35.5865 22.3163 35.2497 28.1029 34.0943 29.5102C32.9392 30.9174 33.9566 27.7783 32.0039 29.5102C30.0512 31.2421 29.1847 34.8142 25.9116 36.059C22.6385 37.3038 22.9272 34.1647 24.5156 32.3787C26.104 30.5927 27.9873 27.4536 29.4765 26.5335C30.9655 25.6133 35.5865 17.2244 35.5865 21.0669Z" fill="#F0F0F0"/>
<path d="M27.4997 46.938C29.0571 44.5156 22.0605 47.317 19.9425 46.4509C17.8245 45.5848 19.4612 44.3944 16.3806 47.4251C13.3001 50.4559 7.95704 53.3785 10.8451 54.407C13.7333 55.4353 24.6117 51.4301 27.4997 46.938Z" fill="#F0F0F0"/>
<path d="M67.3914 48.1419C66.1949 46.5357 64.8283 43.5144 63.0593 42.9866C61.2903 42.4589 60.0989 42.1342 60.46 43.352C60.8211 44.5697 69.2538 50.642 67.3914 48.1419Z" fill="#F0F0F0"/>
<path d="M82.8516 5.10216C82.8516 5.10216 46.8949 5.10216 41.6963 5.10216C36.4977 5.10216 51.0825 3.8844 59.097 1.85488C67.1115 -0.174648 67.7613 -0.824203 70.4327 1.36777C73.1041 3.55974 81.0464 -1.31131 84.8732 1.61132C88.7 4.53395 89.7107 5.10216 82.8516 5.10216Z" fill="#FAFAFA"/>
<path d="M25.8078 12.9352C30.9418 12.9352 40.7385 12.464 36.8095 10.5202C32.8804 8.57642 29.9727 12.464 28.257 10.8146C26.5412 9.16533 23.7646 8.92957 21.4597 10.5202C19.1547 12.1108 19.8388 9.63587 17.0591 10.5202C13.1679 11.7582 0.67711 12.9352 11.303 12.9352C16.116 12.9352 22.0417 12.9352 25.8078 12.9352Z" fill="#FAFAFA"/>
<path d="M69.1478 33.8803C73.0677 33.8803 80.5478 33.5205 77.5478 32.0363C74.5478 30.5521 72.3278 33.5205 71.0177 32.2611C69.7077 31.0017 67.5878 30.8219 65.8276 32.0363C64.0677 33.2507 64.5902 31.3609 62.4676 32.0363C59.4967 32.9815 49.9595 33.8803 58.0727 33.8803C61.7478 33.8803 66.2723 33.8803 69.1478 33.8803Z" fill="#FAFAFA"/>
</svg>
