<svg width="80" height="31" viewBox="0 0 80 31" fill="none" xmlns="http://www.w3.org/2000/svg">
<path d="M37.2776 30.2028C39.7248 30.2028 41.7086 26.2523 41.7086 21.3792C41.7086 16.506 39.7248 12.5557 37.2776 12.5557H31.5923V30.2028H37.2776Z" fill="#263238"/>
<path d="M31.5712 30.203C34.0184 30.203 36.0023 26.2525 36.0023 21.3793C36.0023 16.5062 34.0184 12.5557 31.5712 12.5557C29.124 12.5557 27.1402 16.5062 27.1402 21.3793C27.1402 26.2525 29.124 30.203 31.5712 30.203Z" fill="#263238"/>
<path d="M69.7726 30.2028C72.2197 30.2028 74.2036 26.2523 74.2036 21.3792C74.2036 16.506 72.2197 12.5557 69.7726 12.5557H64.0873V30.2028H69.7726Z" fill="#263238"/>
<path d="M64.0663 30.203C66.5135 30.203 68.4973 26.2525 68.4973 21.3793C68.4973 16.5062 66.5135 12.5557 64.0663 12.5557C61.6191 12.5557 59.6352 16.5062 59.6352 21.3793C59.6352 26.2525 61.6191 30.203 64.0663 30.203Z" fill="#263238"/>
<path d="M8.22908 25.7604L5.19396 25.0098C4.15465 24.7528 3.28117 24.0477 2.80712 23.0833L2.80497 23.079C2.59813 22.658 2.31218 22.2813 1.96313 21.9691L1.21739 21.3025C0.35231 20.5291 -0.0938065 19.3872 0.0165507 18.2288L0.427509 13.9136C0.568532 12.432 1.59085 11.1853 3.01045 10.763L5.17951 10.1176L13.0078 9.55762L8.22908 25.7604Z" fill="#FECC2A"/>
<path d="M14.8487 30.2028C17.2959 30.2028 19.2798 26.2523 19.2798 21.3792C19.2798 16.506 17.2959 12.5557 14.8487 12.5557H9.16348V30.2028H14.8487Z" fill="#263238"/>
<path d="M9.1424 30.203C11.5896 30.203 13.5735 26.2525 13.5735 21.3793C13.5735 16.5062 11.5896 12.5557 9.1424 12.5557C6.69519 12.5557 4.71133 16.5062 4.71133 21.3793C4.71133 26.2525 6.69519 30.203 9.1424 30.203Z" fill="#263238"/>
<path d="M9.14239 28.3539C10.8593 28.3539 12.2511 25.2311 12.2511 21.3791C12.2511 17.527 10.8593 14.4043 9.14239 14.4043C7.42549 14.4043 6.03366 17.527 6.03366 21.3791C6.03366 25.2311 7.42549 28.3539 9.14239 28.3539Z" fill="white"/>
<path d="M54.1123 25.7602L61.7648 8.56906C61.7648 8.56906 50.3142 0 35.7969 0C12.2513 0 13.0594 3.19072 5.17966 10.1174L8.61909 12.5567C14.7384 12.5567 15.2487 22.308 16.2267 25.0504C16.3785 25.4757 16.7781 25.7604 17.2275 25.7604H54.1123" fill="#FECC2A"/>
<path d="M47.3438 30.2028C49.7909 30.2028 51.7748 26.2523 51.7748 21.3792C51.7748 16.506 49.7909 12.5557 47.3438 12.5557H41.6585V30.2028H47.3438Z" fill="#263238"/>
<path d="M41.6374 30.203C44.0846 30.203 46.0685 26.2525 46.0685 21.3793C46.0685 16.5062 44.0846 12.5557 41.6374 12.5557C39.1902 12.5557 37.2064 16.5062 37.2064 21.3793C37.2064 26.2525 39.1902 30.203 41.6374 30.203Z" fill="#263238"/>
<path d="M41.6374 28.3539C43.3543 28.3539 44.7462 25.2311 44.7462 21.3791C44.7462 17.527 43.3543 14.4043 41.6374 14.4043C39.9205 14.4043 38.5286 17.527 38.5286 21.3791C38.5286 25.2311 39.9205 28.3539 41.6374 28.3539Z" fill="white"/>
<path d="M49.546 24.3413C48.8407 21.1207 45.4694 12.5672 41.427 12.5672L37.0489 8.56934C37.0489 8.56934 58.5011 8.56934 61.7648 8.56934C63.4768 8.56934 71.0754 9.62486 75.3817 12.557C78.8607 14.9258 79.2836 18.5192 79.7893 23.7719C79.8926 24.8443 78.959 25.7657 77.78 25.7663C67.8762 25.7708 55.8908 25.805 51.5275 25.8183C50.5648 25.8211 49.7349 25.2034 49.546 24.3413Z" fill="#FECC2A"/>
<path opacity="0.8" d="M59.9782 8.56991H43.8654C43.1095 8.56991 42.3958 8.20119 41.9727 7.57133C40.1793 4.90054 37.0053 2.19479 34.6799 0.913086C50.9699 0.913086 59.9782 8.56991 59.9782 8.56991Z" fill="white"/>
<path opacity="0.8" d="M34.2815 1.71781C36.2363 3.13872 38.4577 5.34264 39.7046 7.53223C39.9679 7.99442 39.6404 8.57008 39.1105 8.57008H12.7127C9.91334 8.57008 10.8417 1.55642 25.4737 1.0314C26.8523 0.911832 30.0682 0.907706 31.8459 0.91556C32.7221 0.919683 33.5715 1.20163 34.2815 1.71781Z" fill="white"/>
<path d="M52.3391 21.9322L60.8015 22.574C61.0751 22.5948 61.2867 22.8239 61.2867 23.0998V23.6807C61.2867 23.9719 61.0517 24.208 60.762 24.208H52.2996C52.01 24.208 51.775 23.9719 51.775 23.6807V22.4578C51.775 22.1511 52.0346 21.909 52.3391 21.9322Z" fill="#263238"/>
<path d="M79.2405 22.0563L76.9096 22.5264C76.6645 22.5758 76.4881 22.7922 76.4881 23.0433V23.6814C76.4881 23.9726 76.7229 24.2088 77.0128 24.2088H79.4753C79.7896 24.2088 80.0336 23.9327 79.9962 23.619L79.8646 22.5108C79.8283 22.2053 79.5405 21.9958 79.2405 22.0563Z" fill="#263238"/>
<path opacity="0.8" d="M59.3029 12.0392L47.4865 11.4619C47.4865 11.4619 47.3662 13.5663 51.7439 14.0198C56.1219 14.4734 59.3029 12.0392 59.3029 12.0392Z" fill="white"/>
<path opacity="0.3" d="M0.42942 13.9123C0.462429 13.5585 0.546027 13.22 0.672594 12.9017L1.47263 12.8789C1.47263 12.8789 1.51052 15.9664 0.350901 15.7728C0.318087 15.7677 0.287617 15.7601 0.254608 15.7499L0.42942 13.9123Z" fill="black"/>
<path opacity="0.8" d="M74.2187 11.8506C74.6264 12.0721 75.0162 12.3063 75.3809 12.5556C75.9861 12.9679 76.4976 13.416 76.9332 13.9044C76.7787 13.9504 76.6117 13.9885 76.4318 14.0191C73.8085 14.4721 71.9017 12.0389 71.9017 12.0389L74.2187 11.8506Z" fill="white"/>
<path d="M62.9637 15.3564H71.3264C71.6143 15.3564 71.9011 15.4491 72.1446 15.6207L73.6063 16.6507C73.9426 16.8877 74.1676 17.2549 74.2209 17.6536L74.5934 20.4364C74.6981 21.2186 74.126 21.8815 73.3461 21.8815H64.403C63.8698 21.8815 63.3651 21.5659 63.1151 21.0761L61.4437 17.8027C61.2009 17.3269 61.2419 16.7723 61.5495 16.3751L61.9671 15.8359C62.2027 15.5318 62.5672 15.3564 62.9637 15.3564Z" fill="#263238"/>
<path opacity="0.1" d="M18.8851 22.1445H35.2375C35.466 22.1445 35.6453 22.3415 35.625 22.5704L35.5404 23.5274C35.5227 23.7292 35.3545 23.8839 35.1527 23.8839H18.8003C18.5718 23.8839 18.3925 23.687 18.4128 23.4581L18.4974 22.5011C18.5153 22.2992 18.6835 22.1445 18.8851 22.1445Z" fill="black"/>
<path d="M24.098 0.911745L25.078 0.720703L23.0745 9.55705H22.138L24.098 0.911745Z" fill="#FECC2A"/>
<path d="M27.6703 10.5488H24.3223L24.2355 10.9024C24.1455 11.2696 24.3687 11.567 24.7338 11.567H26.7595C27.1246 11.567 27.4935 11.2694 27.5836 10.9024L27.6703 10.5488Z" fill="#263238"/>
<path d="M16.1493 10.5488H12.8014L12.7147 10.9024C12.6246 11.2696 12.8479 11.567 13.2129 11.567H15.2386C15.6036 11.567 15.9726 11.2694 16.0626 10.9024L16.1493 10.5488Z" fill="#263238"/>
<path opacity="0.1" d="M22.7071 21.0013C22.6464 21.0013 22.5968 20.9526 22.5954 20.8913L22.3495 9.32267C22.3481 9.26063 22.3971 9.20919 22.4589 9.20801C22.4598 9.20801 22.4606 9.20801 22.4614 9.20801C22.5222 9.20801 22.5718 9.2567 22.5731 9.31796L22.8191 20.8866C22.8204 20.9487 22.7714 21.0001 22.7097 21.0015C22.7087 21.0013 22.7079 21.0013 22.7071 21.0013Z" fill="black"/>
</svg>
