<svg width="20" height="20" viewBox="0 0 20 20" fill="none" xmlns="http://www.w3.org/2000/svg">
<g clip-path="url(#clip0_205_3116)">
<path d="M18.3334 0.833496H1.66671C1.44569 0.833496 1.23373 0.921293 1.07745 1.07757C0.921171 1.23385 0.833374 1.44582 0.833374 1.66683V18.3335C0.833374 18.5545 0.921171 18.7665 1.07745 18.9228C1.23373 19.079 1.44569 19.1668 1.66671 19.1668H18.3334C18.5544 19.1668 18.7664 19.079 18.9226 18.9228C19.0789 18.7665 19.1667 18.5545 19.1667 18.3335V1.66683C19.1667 1.44582 19.0789 1.23385 18.9226 1.07757C18.7664 0.921293 18.5544 0.833496 18.3334 0.833496ZM9.58337 15.8335C9.33615 15.8335 9.09447 15.7602 8.88891 15.6228C8.68335 15.4855 8.52313 15.2903 8.42852 15.0619C8.33392 14.8334 8.30916 14.5821 8.35739 14.3396C8.40562 14.0972 8.52468 13.8744 8.69949 13.6996C8.87431 13.5248 9.09703 13.4057 9.33951 13.3575C9.58199 13.3093 9.83332 13.334 10.0617 13.4286C10.2901 13.5233 10.4854 13.6835 10.6227 13.889C10.7601 14.0946 10.8334 14.3363 10.8334 14.5835C10.8334 14.915 10.7017 15.233 10.4673 15.4674C10.2328 15.7018 9.9149 15.8335 9.58337 15.8335ZM13.1759 8.43933C12.6517 9.27766 11.0675 10.231 10.7692 10.6643C10.5977 10.9678 10.5285 11.3184 10.5717 11.6643H8.52421C8.46457 11.0949 8.57475 10.5205 8.84087 10.0135C9.43837 8.9785 10.4875 8.72016 11.07 7.90433C11.2581 7.67883 11.3515 7.38928 11.3306 7.09642C11.3098 6.80356 11.1764 6.53013 10.9584 6.3335C10.0717 5.706 8.29754 6.3085 7.28087 6.82766L6.43837 5.1335C7.5513 4.49815 8.81103 4.16491 10.0925 4.16683C11.9909 4.16683 13.5617 5.09516 13.5617 6.97183C13.5753 7.48774 13.4415 7.99683 13.1759 8.43933V8.43933Z" fill="#BDBDBD"/>
</g>
<defs>
<clipPath id="clip0_205_3116">
<rect width="20" height="20" fill="white"/>
</clipPath>
</defs>
</svg>
