<svg width="31" height="61" viewBox="0 0 31 61" fill="none" xmlns="http://www.w3.org/2000/svg">
<path d="M25.7552 60.9358L4.59005 60.8408C2.04428 60.8297 -0.00950166 58.8049 3.30649e-05 56.3181L0.225053 4.48552C0.236494 1.9969 2.30934 -0.01113 4.85702 4.64293e-05L26.0222 0.0950458C28.568 0.106222 30.6218 2.13102 30.6122 4.61778L30.3872 56.4504C30.3777 58.939 28.3029 60.947 25.7552 60.9358Z" fill="#49493D"/>
<path d="M25.9914 1.88791L21.8877 1.86928C21.3366 1.86742 20.8884 2.32006 20.8865 2.88261L20.8827 3.60908C20.8808 4.17163 20.4327 4.62428 19.8816 4.62241L11.8819 4.58702C11.3308 4.58516 10.8884 4.12692 10.8903 3.56438L10.8941 2.83791C10.896 2.27536 10.4517 1.81899 9.90252 1.81526L8.45897 1.80781L4.86819 1.79105C3.0852 1.78359 1.63211 3.18997 1.62448 4.93163L1.40518 55.5237C1.39755 57.2654 2.83539 58.6829 4.61838 58.6904L25.7416 58.7854C27.5246 58.7928 28.9777 57.3865 28.9853 55.6448L29.2046 5.05271C29.2141 3.31291 27.7744 1.89536 25.9914 1.88791Z" fill="white"/>
</svg>
