<svg width="30" height="60" viewBox="0 0 30 60" fill="none" xmlns="http://www.w3.org/2000/svg">
<path d="M25.2401 60L4.49825 59.9064C2.00339 59.8954 -0.00931162 57.9017 3.24036e-05 55.4531L0.220552 4.41663C0.231764 1.96623 2.26316 -0.0109591 4.75988 4.57162e-05L25.5018 0.0935861C27.9966 0.104591 30.0093 2.09829 30 4.54685L29.7794 55.5834C29.7701 58.0338 27.7368 60.011 25.2401 60Z" fill="#49493D"/>
<path d="M25.4716 1.85908L21.4499 1.84073C20.9099 1.8389 20.4707 2.28459 20.4688 2.8385L20.4651 3.55382C20.4632 4.10772 20.024 4.55342 19.484 4.55158L11.6443 4.51674C11.1042 4.5149 10.6707 4.0637 10.6725 3.5098L10.6763 2.79448C10.6782 2.24058 10.2427 1.79121 9.7045 1.78754L8.28982 1.78021L4.77085 1.7637C3.02352 1.75636 1.59949 3.14114 1.59202 4.85605L1.3771 54.6711C1.36963 56.386 2.77871 57.7818 4.52604 57.7891L25.2268 57.8827C26.9741 57.89 28.3982 56.5052 28.4056 54.7903L28.6205 4.97527C28.6299 3.26219 27.2189 1.86641 25.4716 1.85908Z" fill="white"/>
</svg>
