<svg width="20" height="20" viewBox="0 0 20 20" fill="none" xmlns="http://www.w3.org/2000/svg">
<path d="M10.8333 10.0003L6.66667 6.66699V9.16699H0V10.8337H6.66667V13.3337L10.8333 10.0003Z" fill="#FECC2A"/>
<path d="M15 0H5C4.33696 0 3.70107 0.263392 3.23223 0.732233C2.76339 1.20107 2.5 1.83696 2.5 2.5V7.5H4.16667V3.33333C4.16667 3.11232 4.25446 2.90036 4.41074 2.74408C4.56702 2.5878 4.77899 2.5 5 2.5H15C15.221 2.5 15.433 2.5878 15.5893 2.74408C15.7455 2.90036 15.8333 3.11232 15.8333 3.33333V16.6667C15.8333 16.8877 15.7455 17.0996 15.5893 17.2559C15.433 17.4122 15.221 17.5 15 17.5H5C4.77899 17.5 4.56702 17.4122 4.41074 17.2559C4.25446 17.0996 4.16667 16.8877 4.16667 16.6667V12.5H2.5V17.5C2.5 18.163 2.76339 18.7989 3.23223 19.2678C3.70107 19.7366 4.33696 20 5 20H15C15.663 20 16.2989 19.7366 16.7678 19.2678C17.2366 18.7989 17.5 18.163 17.5 17.5V2.5C17.5 1.83696 17.2366 1.20107 16.7678 0.732233C16.2989 0.263392 15.663 0 15 0V0Z" fill="#FECC2A"/>
</svg>
