<svg width="6" height="6" viewBox="0 0 6 6" fill="none" xmlns="http://www.w3.org/2000/svg">
<g clip-path="url(#clip0_470_4664)">
<path d="M3 0C1.9 0 0.75 0.839506 0.75 2.22222C0.75 3.53086 2.75 5.53087 2.825 5.60494C2.875 5.65432 2.925 5.67901 3 5.67901C3.075 5.67901 3.125 5.65432 3.175 5.60494C3.25 5.53087 5.25 3.53086 5.25 2.22222C5.25 0.839506 4.1 0 3 0ZM3 2.96296C2.575 2.96296 2.25 2.64198 2.25 2.22222C2.25 1.80247 2.575 1.48148 3 1.48148C3.425 1.48148 3.75 1.80247 3.75 2.22222C3.75 2.64198 3.425 2.96296 3 2.96296Z" fill="#FECC2A"/>
</g>
<defs>
<clipPath id="clip0_470_4664">
<rect width="6" height="5.92593" fill="white"/>
</clipPath>
</defs>
</svg>
