<svg width="24" height="24" viewBox="0 0 24 24" fill="none" xmlns="http://www.w3.org/2000/svg">
<g clip-path="url(#clip0_410_42)">
<path d="M9 12C6.239 12 4 8.761 4 6V5C4 2.239 6.239 0 9 0C11.761 0 14 2.239 14 5V6C14 8.761 11.761 12 9 12Z" fill="#959595"/>
<path d="M13.53 20.813C12.543 19.838 12 18.54 12 17.155C12 16.15 12.294 15.194 12.829 14.371C11.669 14.152 10.373 14 9 14C6.176 14 3.671 14.638 2.026 15.193C0.81 15.604 0 16.749 0 18.032V22H14.731L13.53 20.813Z" fill="#959595"/>
<path d="M23.063 14.9198C22.385 14.2498 21.452 13.9218 20.497 14.0158C19.951 14.0708 19.437 14.2618 18.999 14.5648C18.561 14.2618 18.048 14.0708 17.501 14.0158C16.548 13.9238 15.613 14.2498 14.935 14.9198C14.333 15.5158 14 16.3098 14 17.1548C14 17.9998 14.333 18.7938 14.936 19.3898L19 23.4058L23.064 19.3908C23.667 18.7938 24 17.9998 24 17.1548C24 16.3098 23.667 15.5158 23.063 14.9198Z" fill="#959595"/>
</g>
<defs>
<clipPath id="clip0_410_42">
<rect width="24" height="24" fill="white"/>
</clipPath>
</defs>
</svg>
