<svg width="20" height="20" viewBox="0 0 20 20" fill="none" xmlns="http://www.w3.org/2000/svg">
<path d="M10 15.8333C10 12.6117 12.6117 10 15.8333 10C15.9258 10 16.0158 10.0092 16.1075 10.0142C16.4517 9.13583 16.6667 8.28083 16.6667 7.5C16.6667 2.805 12.8533 0 9.16667 0C5.48 0 1.66667 2.805 1.66667 7.5C1.66667 11.9075 8.29333 18.6358 8.575 18.9208C8.73167 19.0783 8.94417 19.1667 9.16667 19.1667C9.38917 19.1667 9.60167 19.0783 9.75833 18.9208C9.81 18.8683 10.0808 18.5933 10.4842 18.1567C10.1742 17.4442 10 16.6592 10 15.8333ZM9.16667 10C7.78583 10 6.66667 8.88083 6.66667 7.5C6.66667 6.11917 7.78583 5 9.16667 5C10.5475 5 11.6667 6.11917 11.6667 7.5C11.6667 8.88083 10.5475 10 9.16667 10Z" fill="#959595"/>
<path d="M17.5 16.6665C17.2083 16.6665 16.9383 16.7482 16.6992 16.8807L14.9975 15.8598C14.9975 15.8507 15 15.8423 15 15.8332C15 15.824 14.9975 15.8157 14.9975 15.8065L16.6992 14.7857C16.9383 14.9182 17.2083 14.9998 17.5 14.9998C18.4192 14.9998 19.1667 14.2523 19.1667 13.3332C19.1667 12.414 18.4192 11.6665 17.5 11.6665C16.5808 11.6665 15.8333 12.414 15.8333 13.3332C15.8333 13.3423 15.8358 13.3507 15.8358 13.3598L14.1342 14.3807C13.895 14.2482 13.625 14.1665 13.3333 14.1665C12.4142 14.1665 11.6667 14.914 11.6667 15.8332C11.6667 16.7523 12.4142 17.4998 13.3333 17.4998C13.625 17.4998 13.895 17.4182 14.1342 17.2857L15.8358 18.3065C15.8358 18.3157 15.8333 18.324 15.8333 18.3332C15.8333 19.2523 16.5808 19.9998 17.5 19.9998C18.4192 19.9998 19.1667 19.2523 19.1667 18.3332C19.1667 17.414 18.4192 16.6665 17.5 16.6665Z" fill="#959595"/>
</svg>
