<svg width="375" height="40" viewBox="0 0 375 40" fill="none" xmlns="http://www.w3.org/2000/svg">
<rect opacity="0.35" x="336.5" y="17.833" width="21" height="10.3333" rx="2.16667" stroke="#49493D"/>
<path opacity="0.4" d="M359 21V25C359.805 24.6612 360.328 23.8731 360.328 23C360.328 22.1269 359.805 21.3388 359 21Z" fill="#49493D"/>
<rect x="338" y="19.333" width="18" height="7.33333" rx="1.33333" fill="#49493D"/>
<path fill-rule="evenodd" clip-rule="evenodd" d="M323.33 19.6084C325.546 19.6085 327.677 20.4599 329.283 21.9867C329.404 22.1046 329.598 22.1031 329.717 21.9834L330.873 20.8167C330.933 20.756 330.967 20.6737 330.966 20.5882C330.966 20.5026 330.931 20.4207 330.87 20.3607C326.655 16.3212 320.005 16.3212 315.79 20.3607C315.729 20.4207 315.694 20.5025 315.694 20.5881C315.693 20.6737 315.727 20.7559 315.787 20.8167L316.943 21.9834C317.062 22.1033 317.256 22.1048 317.377 21.9867C318.983 20.4598 321.114 19.6084 323.33 19.6084ZM323.33 23.404C324.548 23.404 325.722 23.8565 326.624 24.6737C326.746 24.7897 326.939 24.7872 327.058 24.668L328.212 23.5014C328.273 23.4402 328.307 23.3572 328.306 23.2709C328.305 23.1846 328.27 23.1023 328.208 23.0424C325.459 20.486 321.204 20.486 318.455 23.0424C318.393 23.1023 318.358 23.1847 318.357 23.271C318.356 23.3573 318.39 23.4403 318.451 23.5014L319.605 24.668C319.724 24.7872 319.917 24.7897 320.039 24.6737C320.941 23.857 322.114 23.4046 323.33 23.404ZM325.643 25.9579C325.645 26.0444 325.611 26.1278 325.549 26.1884L323.552 28.204C323.493 28.2633 323.414 28.2966 323.33 28.2966C323.247 28.2966 323.167 28.2633 323.109 28.204L321.111 26.1884C321.049 26.1277 321.015 26.0443 321.017 25.9578C321.019 25.8713 321.056 25.7894 321.121 25.7314C322.396 24.6525 324.264 24.6525 325.54 25.7314C325.604 25.7894 325.642 25.8714 325.643 25.9579Z" fill="#49493D"/>
<path fill-rule="evenodd" clip-rule="evenodd" d="M309.667 17.667H308.667C308.114 17.667 307.667 18.1147 307.667 18.667V27.3337C307.667 27.8859 308.114 28.3337 308.667 28.3337H309.667C310.219 28.3337 310.667 27.8859 310.667 27.3337V18.667C310.667 18.1147 310.219 17.667 309.667 17.667ZM304 20.0003H305C305.552 20.0003 306 20.448 306 21.0003V27.3337C306 27.8859 305.552 28.3337 305 28.3337H304C303.448 28.3337 303 27.8859 303 27.3337V21.0003C303 20.448 303.448 20.0003 304 20.0003ZM300.333 22.3337H299.333C298.781 22.3337 298.333 22.7814 298.333 23.3337V27.3337C298.333 27.8859 298.781 28.3337 299.333 28.3337H300.333C300.886 28.3337 301.333 27.8859 301.333 27.3337V23.3337C301.333 22.7814 300.886 22.3337 300.333 22.3337ZM295.667 24.3337H294.667C294.114 24.3337 293.667 24.7814 293.667 25.3337V27.3337C293.667 27.8859 294.114 28.3337 294.667 28.3337H295.667C296.219 28.3337 296.667 27.8859 296.667 27.3337V25.3337C296.667 24.7814 296.219 24.3337 295.667 24.3337Z" fill="#49493D"/>
<path fill-rule="evenodd" clip-rule="evenodd" d="M36.0133 28.2568C34.0797 28.2568 32.6075 27.1143 32.2926 25.3784H34.1749C34.4166 26.1768 35.1198 26.6748 36.028 26.6748C37.5734 26.6748 38.4889 25.2319 38.4889 22.8149H38.3644C37.8663 23.8184 36.8629 24.397 35.6251 24.397C33.611 24.397 32.1461 22.9175 32.1461 20.8813C32.1461 18.7134 33.7721 17.168 36.0719 17.168C37.6173 17.168 38.8405 17.9004 39.5509 19.2554C40.0416 20.127 40.298 21.2549 40.298 22.5952C40.298 26.1548 38.7013 28.2568 36.0133 28.2568ZM36.0792 22.8955C37.2877 22.8955 38.174 22.0312 38.174 20.8521C38.174 19.6582 37.2657 18.7427 36.0865 18.7427C34.9073 18.7427 33.9991 19.6436 33.9991 20.8228C33.9991 22.0312 34.8634 22.8955 36.0792 22.8955ZM43.3158 26.8799C42.6274 26.8799 42.144 26.3818 42.144 25.7227C42.144 25.0562 42.6274 24.5654 43.3158 24.5654C44.0116 24.5654 44.4877 25.0562 44.4877 25.7227C44.4877 26.3818 44.0116 26.8799 43.3158 26.8799ZM43.3158 21.3867C42.6274 21.3867 42.144 20.896 42.144 20.2368C42.144 19.5703 42.6274 19.0796 43.3158 19.0796C44.0116 19.0796 44.4877 19.5703 44.4877 20.2368C44.4877 20.896 44.0116 21.3867 43.3158 21.3867ZM50.3987 28.2642C47.8645 28.2642 46.363 26.2134 46.363 22.7051C46.363 19.2114 47.8864 17.168 50.3987 17.168C52.9035 17.168 54.427 19.2114 54.427 22.7197C54.427 26.2134 52.9255 28.2642 50.3987 28.2642ZM50.3987 26.6968C51.739 26.6968 52.5154 25.3052 52.5154 22.7051C52.5154 20.1196 51.7243 18.7427 50.3987 18.7427C49.073 18.7427 48.2746 20.127 48.2746 22.7051C48.2746 25.3052 49.0583 26.6968 50.3987 26.6968ZM59.8765 28.2568C57.9429 28.2568 56.4707 27.1143 56.1558 25.3784H58.0381C58.2798 26.1768 58.9829 26.6748 59.8911 26.6748C61.4365 26.6748 62.3521 25.2319 62.3521 22.8149H62.2276C61.7295 23.8184 60.7261 24.397 59.4883 24.397C57.4741 24.397 56.0093 22.9175 56.0093 20.8813C56.0093 18.7134 57.6353 17.168 59.9351 17.168C61.4805 17.168 62.7036 17.9004 63.4141 19.2554C63.9048 20.127 64.1612 21.2549 64.1612 22.5952C64.1612 26.1548 62.5645 28.2568 59.8765 28.2568ZM59.9424 22.8955C61.1509 22.8955 62.0371 22.0312 62.0371 20.8521C62.0371 19.6582 61.1289 18.7427 59.9497 18.7427C58.7705 18.7427 57.8623 19.6436 57.8623 20.8228C57.8623 22.0312 58.7266 22.8955 59.9424 22.8955Z" fill="#49493D"/>
</svg>
