<svg width="20" height="20" viewBox="0 0 20 20" fill="none" xmlns="http://www.w3.org/2000/svg">
<g clip-path="url(#clip0_205_3143)">
<path d="M13.3334 16.667V18.3337C13.3334 18.7937 13.7067 19.167 14.1667 19.167H17.5C17.96 19.167 18.3334 18.7937 18.3334 18.3337V16.667H13.3334Z" fill="#BDBDBD"/>
<path d="M0.833333 15.8335H19.1667C19.6267 15.8335 20 15.4602 20 15.0002V10.0002C20 9.77933 19.9125 9.56683 19.7558 9.411L18.2525 7.90766L16.6417 1.46433C16.5492 1.0935 16.2158 0.833496 15.8333 0.833496H4.16667C3.78417 0.833496 3.45083 1.0935 3.35833 1.46433L1.7475 7.90766L0.244167 9.411C0.0875 9.56683 0 9.77933 0 10.0002V15.0002C0 15.4602 0.373333 15.8335 0.833333 15.8335ZM16.6667 12.0835C16.6667 12.7735 16.1067 13.3335 15.4167 13.3335C14.7267 13.3335 14.1667 12.7735 14.1667 12.0835C14.1667 11.3935 14.7267 10.8335 15.4167 10.8335C16.1067 10.8335 16.6667 11.3935 16.6667 12.0835ZM4.8175 2.50016H15.1825L16.4325 7.50016H3.5675L4.8175 2.50016ZM4.58333 10.8335C5.27333 10.8335 5.83333 11.3935 5.83333 12.0835C5.83333 12.7735 5.27333 13.3335 4.58333 13.3335C3.89333 13.3335 3.33333 12.7735 3.33333 12.0835C3.33333 11.3935 3.89333 10.8335 4.58333 10.8335Z" fill="#BDBDBD"/>
<path d="M1.66663 16.667V18.3337C1.66663 18.7937 2.03996 19.167 2.49996 19.167H5.83329C6.29329 19.167 6.66663 18.7937 6.66663 18.3337V16.667H1.66663Z" fill="#BDBDBD"/>
</g>
<defs>
<clipPath id="clip0_205_3143">
<rect width="20" height="20" fill="white"/>
</clipPath>
</defs>
</svg>
