<svg width="17" height="16" viewBox="0 0 17 16" fill="none" xmlns="http://www.w3.org/2000/svg">
<g clip-path="url(#clip0_144_9384)">
<path d="M15.4459 5.69409L10.7202 5.00809L8.60924 0.73342C8.54787 0.629325 8.46036 0.543036 8.35537 0.483086C8.25038 0.423136 8.13154 0.391602 8.0106 0.391602C7.88967 0.391602 7.77082 0.423136 7.66583 0.483086C7.56084 0.543036 7.47333 0.629325 7.41196 0.73342L5.29703 5.00809L0.571306 5.69409C0.448067 5.71186 0.332263 5.76371 0.236985 5.84379C0.141707 5.92387 0.0707557 6.02897 0.032152 6.14723C-0.00645176 6.26548 -0.011168 6.39216 0.0185364 6.51296C0.0482409 6.63375 0.111181 6.74383 0.200242 6.83075L3.62057 10.1601L2.81371 14.8621C2.79268 14.9847 2.8064 15.1107 2.85333 15.2259C2.90027 15.3412 2.97853 15.441 3.07928 15.5141C3.18002 15.5872 3.29923 15.6307 3.42343 15.6396C3.54763 15.6486 3.67186 15.6226 3.78207 15.5648L8.0086 13.3454L12.2351 15.5648C12.3453 15.6226 12.4696 15.6486 12.5938 15.6396C12.718 15.6307 12.8372 15.5872 12.9379 15.5141C13.0387 15.441 13.1169 15.3412 13.1639 15.2259C13.2108 15.1107 13.2245 14.9847 13.2035 14.8621L12.3966 10.1601L15.817 6.83075C15.906 6.74392 15.9689 6.63394 15.9987 6.51325C16.0285 6.39255 16.0239 6.26595 15.9854 6.14773C15.947 6.02951 15.8762 5.92439 15.7811 5.84423C15.686 5.76406 15.5704 5.71206 15.4472 5.69409H15.4459Z" fill="#FED16C"/>
</g>
<defs>
<clipPath id="clip0_144_9384">
<rect width="16.0171" height="16" fill="white"/>
</clipPath>
</defs>
</svg>
