<svg width="20" height="20" viewBox="0 0 20 20" fill="none" xmlns="http://www.w3.org/2000/svg">
<g clip-path="url(#clip0_205_3087)">
<path d="M14.5833 10.8333C16.1941 10.8333 17.5 9.5275 17.5 7.91667C17.5 6.30584 16.1941 5 14.5833 5C12.9725 5 11.6666 6.30584 11.6666 7.91667C11.6666 9.5275 12.9725 10.8333 14.5833 10.8333Z" fill="#BDBDBD"/>
<path d="M7.91667 5.83333C9.5275 5.83333 10.8333 4.5275 10.8333 2.91667C10.8333 1.30584 9.5275 0 7.91667 0C6.30584 0 5 1.30584 5 2.91667C5 4.5275 6.30584 5.83333 7.91667 5.83333Z" fill="#BDBDBD"/>
<path d="M19.1633 14.9232C19.0858 14.0848 18.2908 12.4998 15.8333 12.4998H11.665C10.9042 11.4882 9.69417 10.8332 8.33333 10.8332H6.22667C4.95 9.4765 2.55 9.1665 1.66667 9.1665H0V16.3482L6.14083 19.419C6.60833 19.6523 7.11917 19.7698 7.6325 19.7698C8.03667 19.7698 8.44333 19.6965 8.82917 19.549L19.2217 15.5515L19.1633 14.9232ZM8.23083 17.9932C7.79333 18.1615 7.30417 18.1365 6.88667 17.9282L1.66667 15.3182V10.8332C2.56167 10.8332 4.50167 11.2182 5.15083 12.144L5.39917 12.4998H8.33333C9.42 12.4998 10.3467 13.1965 10.6908 14.1665H5.83333V15.8332H12.5V14.9998C12.5 14.714 12.4717 14.4357 12.4158 14.1665H15.8333C16.54 14.1665 16.9483 14.3473 17.185 14.549L8.23083 17.9932Z" fill="#BDBDBD"/>
</g>
<defs>
<clipPath id="clip0_205_3087">
<rect width="20" height="20" fill="white"/>
</clipPath>
</defs>
</svg>
