<svg width="98" height="37" viewBox="0 0 98 37" fill="none" xmlns="http://www.w3.org/2000/svg">
<path d="M45.6652 36.9911C48.6629 36.9911 51.0932 32.1509 51.0932 26.1805C51.0932 20.21 48.6629 15.3701 45.6652 15.3701H38.7008V36.9911H45.6652Z" fill="#263238"/>
<path d="M38.6748 37C41.6726 37 44.1028 32.1599 44.1028 26.1894C44.1028 20.219 41.6726 15.3789 38.6748 15.3789C35.677 15.3789 33.2468 20.219 33.2468 26.1894C33.2468 32.1599 35.677 37 38.6748 37Z" fill="#263238"/>
<path d="M85.4706 36.9911C88.4684 36.9911 90.8987 32.1509 90.8987 26.1805C90.8987 20.21 88.4684 15.3701 85.4706 15.3701H78.5062V36.9911H85.4706Z" fill="#263238"/>
<path d="M78.48 37C81.4778 37 83.908 32.1599 83.908 26.1894C83.908 20.219 81.4778 15.3789 78.48 15.3789C75.4822 15.3789 73.052 20.219 73.052 26.1894C73.052 32.1599 75.4822 37 78.48 37Z" fill="#263238"/>
<path d="M10.0806 31.572L6.36257 30.6524C5.08942 30.3375 4.01941 29.4737 3.43871 28.2921L3.43608 28.2868C3.18269 27.771 2.8324 27.3094 2.40483 26.9269L1.4913 26.1103C0.431578 25.1627 -0.114912 23.7637 0.0202745 22.3444L0.523696 17.0576C0.696448 15.2424 1.94878 13.7149 3.68779 13.1975L6.34487 12.4068L15.9345 11.7207L10.0806 31.572Z" fill="#FECC2A"/>
<path d="M18.1896 36.9911C21.1874 36.9911 23.6176 32.1509 23.6176 26.1805C23.6176 20.21 21.1874 15.3701 18.1896 15.3701H11.2252V36.9911H18.1896Z" fill="#263238"/>
<path d="M11.199 37C14.1968 37 16.6271 32.1599 16.6271 26.1894C16.6271 20.219 14.1968 15.3789 11.199 15.3789C8.20121 15.3789 5.771 20.219 5.771 26.1894C5.771 32.1599 8.20121 37 11.199 37Z" fill="#263238"/>
<path d="M11.1988 34.7118C13.302 34.7118 15.007 30.8859 15.007 26.1664C15.007 21.447 13.302 17.6211 11.1988 17.6211C9.09561 17.6211 7.39062 21.447 7.39062 26.1664C7.39062 30.8859 9.09561 34.7118 11.1988 34.7118Z" fill="white"/>
<path d="M66.2872 31.5608L75.6615 10.4986C75.6615 10.4986 61.6346 0 43.851 0C15.0078 0 15.9977 3.9092 6.34509 12.3956L10.5584 15.3842C18.0544 15.3842 18.6796 27.3312 19.8777 30.6912C20.0636 31.2123 20.5531 31.5611 21.1037 31.5611H66.2872" fill="#FECC2A"/>
<path d="M57.9961 36.9911C60.9939 36.9911 63.4242 32.1509 63.4242 26.1805C63.4242 20.21 60.9939 15.3701 57.9961 15.3701H51.0317V36.9911H57.9961Z" fill="#263238"/>
<path d="M51.0059 37C54.0037 37 56.4339 32.1599 56.4339 26.1894C56.4339 20.219 54.0037 15.3789 51.0059 15.3789C48.0081 15.3789 45.5779 20.219 45.5779 26.1894C45.5779 32.1599 48.0081 37 51.0059 37Z" fill="#263238"/>
<path d="M51.0048 34.7118C53.108 34.7118 54.813 30.8859 54.813 26.1664C54.813 21.447 53.108 17.6211 51.0048 17.6211C48.9015 17.6211 47.1965 21.447 47.1965 26.1664C47.1965 30.8859 48.9015 34.7118 51.0048 34.7118Z" fill="white"/>
<path d="M60.6938 29.8195C59.8298 25.8738 55.7 15.3942 50.7481 15.3942L45.3849 10.4961C45.3849 10.4961 71.6638 10.4961 75.6617 10.4961C77.7589 10.4961 87.0672 11.7893 92.3423 15.3817C96.6042 18.2839 97.1222 22.6865 97.7417 29.1219C97.8682 30.4358 96.7245 31.5647 95.2803 31.5654C83.1482 31.571 68.4662 31.6128 63.1212 31.6292C61.9418 31.6325 60.9251 30.8758 60.6938 29.8195Z" fill="#FECC2A"/>
<path opacity="0.8" d="M73.473 10.5021H53.7349C52.8089 10.5021 51.9346 10.0503 51.4164 9.27862C49.2194 6.00642 45.3313 2.6914 42.4828 1.12109C62.4379 1.12109 73.473 10.5021 73.473 10.5021Z" fill="white"/>
<path opacity="0.8" d="M41.9946 2.10702C44.3892 3.84789 47.1103 6.54808 48.6378 9.23071C48.9604 9.79697 48.5591 10.5023 47.91 10.5023H15.5729C12.1437 10.5023 13.2809 1.90929 31.205 1.26605C32.8937 1.11956 36.8333 1.1145 39.0109 1.12412C40.0842 1.12918 41.1248 1.47461 41.9946 2.10702Z" fill="white"/>
<path d="M64.1148 26.8749L74.4812 27.6612C74.8165 27.6867 75.0756 27.9674 75.0756 28.3054V29.0172C75.0756 29.3739 74.7877 29.6632 74.4329 29.6632H64.0665C63.7117 29.6632 63.4238 29.3739 63.4238 29.0172V27.5188C63.4238 27.1431 63.7418 26.8465 64.1148 26.8749Z" fill="#263238"/>
<path d="M97.0696 27.0147L94.2144 27.5906C93.9141 27.6512 93.698 27.9163 93.698 28.224V29.0057C93.698 29.3625 93.9856 29.6519 94.3407 29.6519H97.3573C97.7422 29.6519 98.0411 29.3137 97.9954 28.9293L97.8341 27.5716C97.7896 27.1973 97.4372 26.9406 97.0696 27.0147Z" fill="#263238"/>
<path opacity="0.8" d="M72.6448 14.7521L58.1698 14.0449C58.1698 14.0449 58.0224 16.6232 63.3851 17.1788C68.7481 17.7345 72.6448 14.7521 72.6448 14.7521Z" fill="white"/>
<path opacity="0.3" d="M0.524844 17.0512C0.565263 16.6177 0.667626 16.203 0.822606 15.8131L1.80223 15.7852C1.80223 15.7852 1.84862 19.5679 0.4287 19.3307C0.38852 19.3245 0.35121 19.3151 0.310791 19.3026L0.524844 17.0512Z" fill="black"/>
<path opacity="0.8" d="M90.9169 14.5225C91.4163 14.7938 91.8939 15.0808 92.3406 15.3863C93.0819 15.8914 93.7086 16.4403 94.2422 17.0388C94.0529 17.0951 93.8483 17.1417 93.6279 17.1793C90.4144 17.7342 88.0786 14.7531 88.0786 14.7531L90.9169 14.5225Z" fill="white"/>
<path d="M77.1298 18.8076H87.3741C87.7268 18.8076 88.0781 18.9212 88.3764 19.1314L90.1669 20.3933C90.5789 20.6837 90.8546 21.1335 90.9199 21.6221L91.3762 25.0315C91.5044 25.9898 90.8036 26.8019 89.8482 26.8019H78.893C78.2398 26.8019 77.6215 26.4154 77.3152 25.8152L75.2678 21.8047C74.9704 21.2218 75.0207 20.5422 75.3975 20.0556L75.9091 19.395C76.1976 19.0224 76.6441 18.8076 77.1298 18.8076Z" fill="#263238"/>
<path opacity="0.1" d="M23.1342 27.1162H43.1658C43.4457 27.1162 43.6654 27.3575 43.6405 27.638L43.5369 28.8104C43.5151 29.0577 43.3091 29.2473 43.062 29.2473H23.0303C22.7504 29.2473 22.5308 29.006 22.5556 28.7255L22.6592 27.553C22.6813 27.3058 22.8873 27.1162 23.1342 27.1162Z" fill="black"/>
<path d="M29.5201 1.11785L30.7205 0.883789L28.2663 11.7099H27.119L29.5201 1.11785Z" fill="#FECC2A"/>
<path d="M33.8958 12.9268H29.7945L29.6883 13.3602C29.578 13.8103 29.8514 14.175 30.2986 14.175H32.7801C33.2273 14.175 33.6793 13.8101 33.7896 13.3602L33.8958 12.9268Z" fill="#263238"/>
<path d="M19.783 12.9268H15.6817L15.5755 13.3602C15.4652 13.8103 15.7386 14.175 16.1858 14.175H18.6673C19.1144 14.175 19.5664 13.8101 19.6767 13.3602L19.783 12.9268Z" fill="#263238"/>
<path opacity="0.1" d="M27.8148 25.7301C27.7404 25.7301 27.6797 25.6704 27.678 25.5954L27.3769 11.4217C27.3752 11.3457 27.4352 11.2827 27.5108 11.2812C27.512 11.2812 27.513 11.2812 27.5139 11.2812C27.5883 11.2812 27.649 11.3409 27.6507 11.416L27.9518 25.5896C27.9535 25.6656 27.8935 25.7286 27.8179 25.7303C27.8167 25.7301 27.8158 25.7301 27.8148 25.7301Z" fill="black"/>
</svg>
