<svg width="20" height="20" viewBox="0 0 20 20" fill="none" xmlns="http://www.w3.org/2000/svg">
<path d="M19.1667 10.8337H0.833333C0.333333 10.8337 0 10.5003 0 10.0003C0 9.50033 0.333333 9.16699 0.833333 9.16699H19.1667C19.6667 9.16699 20 9.50033 20 10.0003C20 10.5003 19.6667 10.8337 19.1667 10.8337Z" fill="#49493D"/>
<path d="M19.1667 5.00016H0.833333C0.333333 5.00016 0 4.66683 0 4.16683C0 3.66683 0.333333 3.3335 0.833333 3.3335H19.1667C19.6667 3.3335 20 3.66683 20 4.16683C20 4.66683 19.6667 5.00016 19.1667 5.00016Z" fill="#49493D"/>
<path d="M19.1667 16.6667H0.833333C0.333333 16.6667 0 16.3333 0 15.8333C0 15.3333 0.333333 15 0.833333 15H19.1667C19.6667 15 20 15.3333 20 15.8333C20 16.3333 19.6667 16.6667 19.1667 16.6667Z" fill="#49493D"/>
</svg>
