<svg width="23" height="23" viewBox="0 0 23 23" fill="none" xmlns="http://www.w3.org/2000/svg">
<g clip-path="url(#clip0_470_2907)">
<path d="M11.1224 0C7.04421 0 2.78061 3.15817 2.78061 8.35987C2.78061 13.2829 10.1956 20.8068 10.4736 21.0855C10.659 21.2712 10.8444 21.3641 11.1224 21.3641C11.4005 21.3641 11.5859 21.2712 11.7713 21.0855C12.0493 20.8068 19.4643 13.2829 19.4643 8.35987C19.4643 3.15817 15.2007 0 11.1224 0ZM11.1224 11.1465C9.54676 11.1465 8.34183 9.93896 8.34183 8.35987C8.34183 6.78078 9.54676 5.57325 11.1224 5.57325C12.6981 5.57325 13.9031 6.78078 13.9031 8.35987C13.9031 9.93896 12.6981 11.1465 11.1224 11.1465Z" fill="#FED16C"/>
</g>
<defs>
<clipPath id="clip0_470_2907">
<rect width="22.2449" height="22.293" fill="white"/>
</clipPath>
</defs>
</svg>
