<svg width="295" height="48" viewBox="0 0 295 48" fill="none" xmlns="http://www.w3.org/2000/svg">
<path d="M28.3652 0V0.75H38.7246V0H49.085V0.75H59.4443V0H69.8037V0.75H80.1631V0H90.5225V0.75H100.882V0H111.241V0.75H121.602V0H131.961V0.75H142.32V0H152.68V0.75H163.039V0H173.398V0.75H183.759V0H194.118V0.75H204.478V0H214.837V0.75H225.196V0H235.556V0.75H245.916V0H256.275V0.75H266.635V0H276.994V0.75H282.174C283.35 0.75 284.489 0.791232 285.567 0.868164L285.619 0.120117C288.355 0.315232 290.723 0.737174 292.396 1.30176L292.157 2.0127C292.938 2.27642 293.505 2.55552 293.861 2.82227C294.233 3.10057 294.25 3.26491 294.25 3.28809V8.46582H295V18.8223H294.25V29.1777H295V39.5342H294.25V44.7119C294.25 44.7351 294.233 44.8994 293.861 45.1777C293.505 45.4445 292.938 45.7236 292.157 45.9873L292.396 46.6973C290.723 47.2619 288.355 47.6838 285.619 47.8789L285.567 47.1318C284.489 47.2088 283.35 47.25 282.174 47.25H276.994V48H266.635V47.25H256.275V48H245.915V47.25H235.556V48H225.196V47.25H214.837V48H204.478V47.25H194.118V48H183.759V47.25H173.398V48H163.039V47.25H152.68V48H142.32V47.25H131.961V48H121.602V47.25H111.241V48H100.882V47.25H90.5225V48H80.1631V47.25H69.8037V48H59.4443V47.25H49.084V48H38.7246V47.25H28.3652V48H18.0059V47.25H12.8262C11.6496 47.25 10.5111 47.2088 9.43262 47.1318L9.37988 47.8789C6.64345 47.6837 4.27568 47.262 2.60352 46.6973L2.84277 45.9873C2.06196 45.7236 1.49517 45.4445 1.13867 45.1777C0.766822 44.8994 0.75 44.7351 0.75 44.7119V39.5342H0V29.1777H0.75V18.8223H0V8.46582H0.75V3.28809C0.75 3.26491 0.766822 3.10057 1.13867 2.82227C1.49517 2.55552 2.06196 2.27642 2.84277 2.0127L2.60352 1.30176C4.27568 0.737092 6.64359 0.315296 9.37988 0.120117L9.43262 0.868164C10.5111 0.791233 11.6496 0.75 12.8262 0.75H18.0059V0H28.3652Z" stroke="#BDBDBD" stroke-width="1.5" stroke-dasharray="10 10"/>
</svg>
