<svg width="20" height="20" viewBox="0 0 20 20" fill="none" xmlns="http://www.w3.org/2000/svg">
<g clip-path="url(#clip0_470_5105)">
<path d="M14.1667 1.66699C13.4125 1.66699 12.725 1.92699 12.1667 2.34866C12.8959 3.32199 13.3334 4.52616 13.3334 5.83366V6.66699C13.3334 7.46116 13.1725 8.21866 12.8834 8.90949C13.2792 9.07449 13.7117 9.16699 14.1667 9.16699C16.0075 9.16699 17.5 7.67449 17.5 5.83366V5.00033C17.5 3.15949 16.0075 1.66699 14.1667 1.66699Z" fill="#959595"/>
<path d="M7.49998 10.8337C5.19915 10.8337 3.33331 8.96783 3.33331 6.66699V5.83366C3.33331 3.53283 5.19915 1.66699 7.49998 1.66699C9.80081 1.66699 11.6666 3.53283 11.6666 5.83366V6.66699C11.6666 8.96783 9.80081 10.8337 7.49998 10.8337Z" fill="#959595"/>
<path d="M19.0325 12.0048C17.9625 11.5132 16.1283 10.834 14.1667 10.834C13.1708 10.834 12.2083 11.0098 11.3608 11.2465C11.6742 11.3115 11.9883 11.3773 12.3025 11.4573C14.7283 12.0757 16.4442 14.1865 16.6292 16.6673H19.1667C19.6267 16.6673 20 16.294 20 15.834V13.5182C20 12.8665 19.625 12.2765 19.0325 12.0048Z" fill="#959595"/>
<path d="M14.1667 18.3333H0.833333C0.373333 18.3333 0 17.96 0 17.5V17.1042C0 15.2083 1.2725 13.54 3.10917 13.0717C4.3375 12.7583 5.85083 12.5 7.5 12.5C9.14917 12.5 10.6625 12.7583 11.8908 13.0717C13.7275 13.54 15 15.2083 15 17.1042V17.5C15 17.96 14.6267 18.3333 14.1667 18.3333Z" fill="#959595"/>
</g>
<defs>
<clipPath id="clip0_470_5105">
<rect width="20" height="20" fill="white"/>
</clipPath>
</defs>
</svg>
