<svg width="20" height="20" viewBox="0 0 20 20" fill="none" xmlns="http://www.w3.org/2000/svg">
<path d="M16.8039 5.05664C16.8027 5.06488 16.8024 5.06677 16.8002 5.08149C16.8002 5.08149 16.802 5.06951 16.8039 5.05664Z" fill="#959595"/>
<path d="M16.804 5.05639C16.8097 5.0182 16.8073 5.0337 16.804 5.05639V5.05639Z" fill="#959595"/>
<path d="M15.9571 1.50805C15.031 0.452533 13.3569 0 11.2154 0H5C4.56186 0 4.18952 0.31865 4.12094 0.750717L1.53296 17.1642C1.48153 17.4878 1.73214 17.781 2.06017 17.781H5.89732L6.86103 11.6685L6.83115 11.8599C6.89976 11.4279 7.26929 11.1092 7.7069 11.1092H9.53032C13.1124 11.1092 15.9172 9.65423 16.7366 5.44532C16.7609 5.32086 16.8002 5.08132 16.8002 5.08132C17.0326 3.52388 16.7985 2.4668 15.9571 1.50805Z" fill="#959595"/>
<path d="M17.7714 5.87793C16.8805 10.0217 14.0387 12.215 9.53037 12.215H7.89502L6.67554 19.9996H9.32795C9.71078 19.9996 10.0366 19.7208 10.0964 19.3429L10.1279 19.178L10.7375 15.3143L10.7768 15.1008C10.8366 14.7229 11.1624 14.4441 11.5452 14.4441H12.0293C15.1627 14.4441 17.6163 13.1712 18.3333 9.4895C18.6206 8.01247 18.4829 6.77327 17.7714 5.87793Z" fill="#959595"/>
</svg>
