<svg width="10" height="10" viewBox="0 0 10 10" fill="none" xmlns="http://www.w3.org/2000/svg">
<g clip-path="url(#clip0_470_5461)">
<path d="M6.25 0H3.75V1.25H6.25V0Z" fill="white"/>
<path d="M0.833313 8.75V9.58333C0.833313 9.81333 1.01956 10 1.24998 10H2.91665C3.14706 10 3.33331 9.81333 3.33331 9.58333V8.75H0.833313Z" fill="white"/>
<path d="M0.416667 8.33366H9.58333C9.81375 8.33366 10 8.14699 10 7.91699V5.41699C10 5.30658 9.95625 5.20033 9.87792 5.12241L9.11417 4.35866L8.31208 1.95199C8.255 1.78158 8.09625 1.66699 7.91667 1.66699H2.08333C1.90375 1.66699 1.745 1.78158 1.68833 1.95199L0.88625 4.35866L0.1225 5.12241C0.04375 5.20033 0 5.30658 0 5.41699V7.91699C0 8.14699 0.18625 8.33366 0.416667 8.33366ZM8.75 6.45866C8.75 6.80366 8.47 7.08366 8.125 7.08366C7.78 7.08366 7.5 6.80366 7.5 6.45866C7.5 6.11366 7.78 5.83366 8.125 5.83366C8.47 5.83366 8.75 6.11366 8.75 6.45866ZM2.38375 2.50033H7.61667L8.1725 4.16699H1.82792L2.38375 2.50033ZM1.875 5.83366C2.22 5.83366 2.5 6.11366 2.5 6.45866C2.5 6.80366 2.22 7.08366 1.875 7.08366C1.53 7.08366 1.25 6.80366 1.25 6.45866C1.25 6.11366 1.53 5.83366 1.875 5.83366Z" fill="white"/>
<path d="M6.66669 8.75V9.58333C6.66669 9.81333 6.85294 10 7.08335 10H8.75002C8.98044 10 9.16669 9.81333 9.16669 9.58333V8.75H6.66669Z" fill="white"/>
</g>
<defs>
<clipPath id="clip0_470_5461">
<rect width="10" height="10" fill="white"/>
</clipPath>
</defs>
</svg>
