<svg width="234" height="192" viewBox="0 0 234 192" fill="none" xmlns="http://www.w3.org/2000/svg">
<path d="M233.225 155.46V182.572C233.225 187.478 229.248 191.455 224.343 191.455H127.13C122.225 191.455 118.249 187.478 118.249 182.572V159.663L106.146 146.947L224.316 146.577C229.231 146.562 233.225 150.543 233.225 155.46Z" fill="#F5F5F5"/>
<path d="M132.578 163.002L220.792 162.595L220.783 159.884L132.569 160.291L132.578 163.002Z" fill="#E6E6E6"/>
<path d="M132.578 171.925L220.792 171.517L220.783 168.806L132.569 169.213L132.578 171.925Z" fill="#E6E6E6"/>
<path d="M167.469 177.728L132.565 177.899L132.578 180.611L167.482 180.44L167.469 177.728Z" fill="#E6E6E6"/>
<path d="M60.9429 0H118.28C121.118 0 123.419 2.30077 123.419 5.13918V33.1857C123.419 36.0241 121.118 38.3249 118.28 38.3249H69.6251C66.7868 38.3249 64.4856 36.0241 64.4856 33.1857V3.54353L60.9429 0Z" fill="#F5F5F5"/>
<path d="M132.975 51.0564V61.1276C132.975 62.5411 134.121 63.6867 135.535 63.6867H191.827C193.241 63.6867 194.387 62.5411 194.387 61.1276V55.6209L200.851 48.7045L135.543 48.4961C134.127 48.4923 132.975 49.6391 132.975 51.0564Z" fill="#F0F0F0"/>
<path d="M95.0286 31.015V48.9974C95.0286 52.2507 92.3911 54.8883 89.1379 54.8883H24.6614C21.4076 54.8883 18.7701 52.2507 18.7701 48.9974V33.8029L10.7431 25.3689L89.1188 25.1241C92.3795 25.1138 95.0286 27.7541 95.0286 31.015Z" fill="#E0E0E0"/>
<path d="M28.275 36.0178L86.7831 35.7474L86.7767 33.9492L28.2693 34.2196L28.275 36.0178Z" fill="#F0F0F0"/>
<path d="M28.275 41.9348L86.7831 41.6644L86.7767 39.8662L28.2693 40.1366L28.275 41.9348Z" fill="#F0F0F0"/>
<path d="M51.4169 45.7928L28.2664 45.9062L28.2752 47.7044L51.4257 47.591L51.4169 45.7928Z" fill="#F0F0F0"/>
<path d="M0 90.3588V117.472C0 122.377 3.97609 126.354 8.88164 126.354H106.094C111 126.354 114.977 122.377 114.977 117.472V94.5627L127.08 81.8461L8.90977 81.4766C3.99335 81.4606 0 85.4421 0 90.3588Z" fill="#F0F0F0"/>
<path d="M100.647 97.9021L12.4326 97.4943L12.4416 94.7832L100.656 95.1904L100.647 97.9021Z" fill="#E6E6E6"/>
<path d="M100.647 106.824L12.4326 106.417L12.4416 103.705L100.656 104.112L100.647 106.824Z" fill="#E6E6E6"/>
<path d="M65.7547 112.632L65.7415 115.344L100.646 115.515L100.659 112.803L65.7547 112.632Z" fill="#E6E6E6"/>
</svg>
