<svg width="3" height="2" viewBox="0 0 3 2" fill="none" xmlns="http://www.w3.org/2000/svg">
<path d="M1.30467 1.54018C1.59487 1.54018 1.83013 1.30492 1.83013 1.01472C1.83013 0.724511 1.59487 0.489258 1.30467 0.489258C1.01446 0.489258 0.779205 0.724511 0.779205 1.01472C0.779205 1.30492 1.01446 1.54018 1.30467 1.54018Z" fill="#263238"/>
<path d="M0.00893574 0.636664C0.0766941 0.704427 0.465345 0.374556 1.03106 0.343871C1.59678 0.305514 2.02187 0.586167 2.08132 0.510732C2.11008 0.476212 2.04041 0.351554 1.85439 0.224339C1.67157 0.0971229 1.36346 -0.0185957 1.01061 0.00250038C0.658394 0.0242357 0.366267 0.176382 0.200707 0.324694C0.0313108 0.473645 -0.023665 0.606618 0.00893574 0.636664Z" fill="#263238"/>
</svg>
