<svg width="12" height="12" viewBox="0 0 12 12" fill="none" xmlns="http://www.w3.org/2000/svg">
<g clip-path="url(#clip0_97_240)">
<path d="M9.88909 8.96015L6.70711 5.77817L9.88909 2.59619C10.1012 2.38406 10.1012 2.10122 9.88909 1.88909C9.67696 1.67696 9.39411 1.67696 9.18198 1.88909L6 5.07107L2.81802 1.88909C2.60589 1.67696 2.32304 1.67696 2.11091 1.88909C1.89878 2.10122 1.89878 2.38406 2.11091 2.59619L5.29289 5.77817L2.11091 8.96015C1.89878 9.17229 1.89878 9.45513 2.11091 9.66726C2.32304 9.87939 2.60589 9.87939 2.81802 9.66726L6 6.48528L9.18198 9.66726C9.39411 9.87939 9.67696 9.87939 9.88909 9.66726C10.1012 9.45513 10.1012 9.17229 9.88909 8.96015Z" fill="#959595"/>
</g>
<defs>
<clipPath id="clip0_97_240">
<rect width="12" height="12" fill="white"/>
</clipPath>
</defs>
</svg>
