<svg width="156" height="82" viewBox="0 0 156 82" fill="none" xmlns="http://www.w3.org/2000/svg">
<path d="M150.254 43.1904L114.01 7.8396C108.89 2.84544 101.643 0 94.0452 0H91.5545H8.91523C5.26264 0 2.30136 2.9625 2.30136 6.61659V62.8543C2.30136 66.5084 5.26264 69.4709 8.91523 69.4709H91.5551H152.415V48.1522C152.415 46.3162 151.644 44.5464 150.254 43.1904Z" fill="white"/>
<path d="M109.056 10.582C108.394 9.96745 107.437 9.61523 106.431 9.61523H98.2317C97.7215 9.61523 97.3079 9.95102 97.3079 10.3654V37.2564C97.3079 37.6281 97.6789 37.9295 98.1367 37.9295H126.553V26.8132L109.056 10.582Z" fill="#FECC2A"/>
<path d="M137.269 36.754L128.231 28.3691V37.9298H136.613C137.362 37.9298 137.763 37.212 137.269 36.754Z" fill="#FECC2A"/>
<path d="M122.862 40.1011H120.276C119.515 40.1011 118.898 39.4839 118.898 38.723V30.7472C118.898 29.9863 119.515 29.3691 120.276 29.3691H122.862C123.623 29.3691 124.239 29.9863 124.239 30.7472V38.7225C124.239 39.4839 123.623 40.1011 122.862 40.1011Z" fill="#FED16C"/>
<path d="M127.138 38.9688C126.805 39.302 126.266 39.302 125.933 38.9688L122.882 35.9164C122.549 35.5832 122.549 35.0431 122.882 34.7099C123.215 34.3767 123.755 34.3767 124.088 34.7099L127.138 37.7622C127.471 38.0954 127.471 38.6356 127.138 38.9688Z" fill="#FED16C"/>
<path opacity="0.18" d="M127.156 38.9692C127.07 39.056 122.82 34.7904 122.9 34.7108C123.233 34.3776 123.773 34.3776 124.106 34.7108L127.157 37.7632C127.489 38.0959 127.489 38.636 127.156 38.9692Z" fill="#FED16C"/>
<path d="M150.975 51.0678H139.88V47.8779C139.88 46.5897 140.924 45.5449 142.212 45.5449H147.472C149.407 45.5449 150.975 47.1139 150.975 49.0495V51.0678H150.975Z" fill="#F28393"/>
<path opacity="0.58" d="M150.975 51.0678H145.139V47.8779C145.139 46.5897 146.183 45.5449 147.471 45.5449C149.406 45.5449 150.975 47.1139 150.975 49.0495V51.0678Z" fill="white"/>
<path d="M152.415 51.0674H2.30136V69.4704H152.415V51.0674Z" fill="#FECC2A"/>
<path d="M152.415 51.0674H2.30136V57.9521H152.415V51.0674Z" fill="#FED16C"/>
<path d="M17.0985 69.4707H1.14706C0.513742 69.4707 0 68.9568 0 68.3232V61.4171C0 60.7835 0.513742 60.2695 1.14706 60.2695H17.0985C17.7318 60.2695 18.2455 60.7835 18.2455 61.4171V68.3232C18.2455 68.9568 17.7318 69.4707 17.0985 69.4707Z" fill="#FED16C"/>
<path d="M154.195 69.4707H142.352C141.719 69.4707 141.205 68.9568 141.205 68.3232V61.4171C141.205 60.7835 141.719 60.2695 142.352 60.2695H154.195C154.828 60.2695 155.342 60.7835 155.342 61.4171V68.3232C155.342 68.9568 154.828 69.4707 154.195 69.4707Z" fill="#FED16C"/>
<path d="M112.543 45.5452H105.65C104.673 45.5452 103.882 44.754 103.882 43.7775C103.882 42.801 104.674 42.0098 105.65 42.0098H112.543C113.519 42.0098 114.311 42.8015 114.311 43.7775C114.311 44.754 113.519 45.5452 112.543 45.5452Z" fill="#FED16C"/>
<path d="M10.191 43.7773H2.30136V48.3064H10.191V43.7773Z" fill="#F28393"/>
<path d="M10.191 48.3066H2.30136V52.2462H10.191V48.3066Z" fill="white"/>
<path d="M10.191 51.0684H2.30136V60.2116H10.191V51.0684Z" fill="#F28393"/>
<path opacity="0.08" d="M2.34391 5.87375H92.1716H93.3838C95.5511 5.87375 97.3084 4.11624 97.3084 1.94799V7.49635e-08H8.17308C4.93722 -0.000513364 2.3203 2.63652 2.34391 5.87375Z" fill="#FED16C"/>
<path opacity="0.25" d="M73.769 23.6746H25.5333C24.4375 23.6746 23.5491 22.7858 23.5491 21.6897V16.274C23.5491 15.1778 24.4375 14.2891 25.5333 14.2891H73.769C74.8647 14.2891 75.7531 15.1778 75.7531 16.274V21.6897C75.7531 22.7858 74.8647 23.6746 73.769 23.6746Z" fill="#FED16C"/>
<path opacity="0.25" d="M60.7177 31.7437H38.5839C37.4882 31.7437 36.5998 30.8549 36.5998 29.7587V29.0358C36.5998 27.9396 37.4882 27.0508 38.5839 27.0508H60.7177C61.8134 27.0508 62.7018 27.9396 62.7018 29.0358V29.7587C62.7018 30.8549 61.8134 31.7437 60.7177 31.7437Z" fill="#FED16C"/>
<path d="M127.391 42.0098V57.9528" stroke="#FECC2A" stroke-miterlimit="10"/>
<path d="M10.4174 5.87402V51.068" stroke="#FECC2A" stroke-miterlimit="10"/>
<path d="M91.5546 6.36816V69.4714" stroke="#FECC2A" stroke-miterlimit="10"/>
<path d="M123.319 56.0967C116.259 56.0967 110.534 61.823 110.534 68.8873C110.534 75.951 116.258 81.6778 123.319 81.6778C130.381 81.6778 136.105 75.9515 136.105 68.8873C136.105 61.8235 130.381 56.0967 123.319 56.0967ZM123.319 76.4105C119.327 76.4105 116.091 73.1728 116.091 69.1789C116.091 65.1849 119.327 61.9472 123.319 61.9472C127.312 61.9472 130.548 65.1849 130.548 69.1789C130.548 73.1728 127.312 76.4105 123.319 76.4105Z" fill="#49493D"/>
<path d="M130.003 71.9678C131.542 68.2825 129.804 64.0464 126.12 62.5063C122.436 60.9661 118.202 62.7052 116.663 66.3905C115.123 70.0759 116.861 74.312 120.545 75.8521C124.229 77.3923 128.463 75.6532 130.003 71.9678Z" fill="white"/>
<path opacity="0.18" d="M126.237 69.1786C126.237 70.7908 124.931 72.0975 123.32 72.0975C121.708 72.0975 120.402 70.7908 120.402 69.1786C120.402 67.5664 121.708 66.2598 123.32 66.2598C124.931 66.2598 126.237 67.567 126.237 69.1786Z" fill="white"/>
<path d="M39.7013 56.0967C32.6404 56.0967 26.9159 61.823 26.9159 68.8873C26.9159 75.951 32.6398 81.6778 39.7013 81.6778C46.7622 81.6778 52.4866 75.9515 52.4866 68.8873C52.4861 61.8235 46.7622 56.0967 39.7013 56.0967ZM39.7013 76.4105C35.7089 76.4105 32.4725 73.1728 32.4725 69.1789C32.4725 65.1849 35.7089 61.9472 39.7013 61.9472C43.6936 61.9472 46.93 65.1849 46.93 69.1789C46.93 73.1728 43.6936 76.4105 39.7013 76.4105Z" fill="#49493D"/>
<path d="M46.3707 71.9722C47.9117 68.2877 46.1754 64.0511 42.4925 62.5094C38.8095 60.9678 34.5747 62.7048 33.0336 66.3893C31.4926 70.0737 33.229 74.3103 36.9119 75.852C40.5948 77.3937 44.8296 75.6566 46.3707 71.9722Z" fill="white"/>
<path opacity="0.18" d="M42.6189 69.1786C42.6189 70.7908 41.3123 72.0975 39.7013 72.0975C38.0903 72.0975 36.7836 70.7908 36.7836 69.1786C36.7836 67.5664 38.0897 66.2598 39.7013 66.2598C41.3128 66.2598 42.6189 67.567 42.6189 69.1786Z" fill="white"/>
</svg>
