<svg width="20" height="20" viewBox="0 0 20 20" fill="none" xmlns="http://www.w3.org/2000/svg">
<g clip-path="url(#clip0_144_10052)">
<path d="M19.1667 4.16625H17.1708C17.3717 3.76924 17.484 3.33338 17.5 2.88875C17.4711 2.10271 17.1346 1.35947 16.5631 0.81909C15.9915 0.278707 15.2306 -0.0155884 14.4442 -0.000417865C13.5074 0.0399278 12.5993 0.333879 11.8165 0.850061C11.0338 1.36624 10.406 2.08528 10 2.93042C9.59834 2.08764 8.97528 1.36981 8.19738 0.853608C7.41947 0.337404 6.51595 0.0422179 5.58333 -0.000417865C5.55167 -0.000417865 5.52 -0.000417865 5.48833 -0.000417865C4.71316 0.000823525 3.96867 0.302565 3.41137 0.841368C2.85408 1.38017 2.52739 2.11406 2.5 2.88875V2.94375C2.51626 3.3692 2.62398 3.78616 2.81583 4.16625H0.833333C0.61232 4.16625 0.400358 4.25405 0.244078 4.41033C0.0877974 4.56661 0 4.77857 0 4.99958L0 7.49958C0 7.7206 0.0877974 7.93256 0.244078 8.08884C0.400358 8.24512 0.61232 8.33292 0.833333 8.33292H19.1667C19.3877 8.33292 19.5996 8.24512 19.7559 8.08884C19.9122 7.93256 20 7.7206 20 7.49958V4.99958C20 4.77857 19.9122 4.56661 19.7559 4.41033C19.5996 4.25405 19.3877 4.16625 19.1667 4.16625ZM14.47 1.66625C14.8104 1.65742 15.1412 1.77914 15.3947 2.00645C15.6482 2.23376 15.8051 2.54943 15.8333 2.88875C15.8215 3.22985 15.6784 3.55319 15.4338 3.79125C15.1892 4.02931 14.8621 4.16366 14.5208 4.16625H11.2317C11.75 3.11708 12.7808 1.66625 14.47 1.66625ZM4.16667 2.91625C4.188 2.57524 4.33943 2.25544 4.58971 2.02284C4.83999 1.79024 5.17001 1.66259 5.51167 1.66625C7.23583 1.67292 8.24583 3.10875 8.77 4.16625H5.52C5.17783 4.16882 4.84751 4.04105 4.59614 3.80888C4.34478 3.5767 4.19122 3.25755 4.16667 2.91625V2.91625Z" fill="#FECC2A"/>
<path d="M11.6667 10V20H15.8333C16.4964 20 17.1323 19.7366 17.6011 19.2678C18.0699 18.7989 18.3333 18.163 18.3333 17.5V10H11.6667Z" fill="#FECC2A"/>
<path d="M8.33334 10H1.66667V17.5C1.66667 18.163 1.93006 18.7989 2.3989 19.2678C2.86775 19.7366 3.50363 20 4.16667 20H8.33334V10Z" fill="#FECC2A"/>
</g>
<defs>
<clipPath id="clip0_144_10052">
<rect width="20" height="20" fill="white"/>
</clipPath>
</defs>
</svg>
