<svg width="20" height="20" viewBox="0 0 20 20" fill="none" xmlns="http://www.w3.org/2000/svg">
<g clip-path="url(#clip0_144_10047)">
<path d="M20 10C19.9971 7.34872 18.9426 4.80684 17.0679 2.9321C15.1932 1.05736 12.6513 0.00286757 10 0C9.77899 0 9.56703 0.0877974 9.41074 0.244078C9.25446 0.400358 9.16667 0.61232 9.16667 0.833333C9.16667 1.05435 9.25446 1.26631 9.41074 1.42259C9.56703 1.57887 9.77899 1.66667 10 1.66667C11.5772 1.66656 13.1221 2.11407 14.4551 2.95718C15.7881 3.80029 16.8545 5.00438 17.5302 6.42952C18.206 7.85466 18.4635 9.44231 18.2727 11.008C18.0819 12.5736 17.4507 14.053 16.4525 15.2742L14.4525 13.2742L13.6017 19.2325L19.5592 18.3808L17.6317 16.4533C19.1648 14.6531 20.0046 12.3646 20 10V10Z" fill="#FECC2A"/>
<path d="M10 18.3334C8.42276 18.3335 6.87787 17.886 5.54488 17.0429C4.21189 16.1998 3.14554 14.9957 2.46976 13.5706C1.79398 12.1454 1.53652 10.5578 1.7273 8.9921C1.91808 7.42644 2.54926 5.94707 3.5475 4.72591L5.5475 6.72591L6.39833 0.767578L0.440833 1.61924L2.36833 3.54674C1.13564 5.00168 0.344949 6.77893 0.089621 8.66869C-0.165707 10.5584 0.124983 12.4818 0.927374 14.2117C1.72977 15.9416 3.01035 17.4058 4.61796 18.4315C6.22557 19.4571 8.09307 20.0014 10 20.0001C10.221 20.0001 10.433 19.9123 10.5893 19.756C10.7455 19.5997 10.8333 19.3878 10.8333 19.1667C10.8333 18.9457 10.7455 18.7338 10.5893 18.5775C10.433 18.4212 10.221 18.3334 10 18.3334Z" fill="#FECC2A"/>
<path d="M13.3192 11.8453C13.3271 12.1605 13.2649 12.4736 13.1371 12.7618C13.0093 13.0501 12.819 13.3063 12.58 13.512C11.9697 13.9965 11.2239 14.2792 10.4458 14.3212V15.8337H9.51917V14.362C8.54707 14.3796 7.58149 14.1999 6.68083 13.8337V12.3612C7.12971 12.5733 7.59947 12.7381 8.0825 12.8528C8.55194 12.9761 9.03398 13.0452 9.51917 13.0587V10.4503L8.93583 10.2337C8.30228 10.0241 7.72897 9.66411 7.265 9.18449C6.90832 8.76408 6.72009 8.22641 6.73667 7.67533C6.73062 7.37137 6.79521 7.07016 6.92535 6.79541C7.0555 6.52065 7.24765 6.27986 7.48667 6.09199C8.07476 5.64532 8.78271 5.38419 9.52 5.34199V4.16699H10.4467V5.31783C11.3687 5.34574 12.2782 5.53938 13.1317 5.88949L12.6217 7.16699C11.9262 6.88729 11.1928 6.71341 10.4458 6.65116V9.18949L10.9758 9.39199C11.6591 9.60962 12.2853 9.97654 12.8092 10.4662C13.1492 10.8438 13.3317 11.3373 13.3192 11.8453V11.8453ZM8.375 7.66116C8.36821 7.90599 8.45801 8.14366 8.625 8.32283C8.88431 8.55764 9.18968 8.73586 9.52167 8.84616V6.67949C9.21092 6.70947 8.91531 6.82806 8.67 7.02116C8.57639 7.09924 8.50135 7.19719 8.45032 7.30789C8.3993 7.41859 8.37357 7.53927 8.375 7.66116ZM11.6733 11.9495C11.677 11.8246 11.6537 11.7003 11.605 11.5853C11.5562 11.4702 11.4832 11.367 11.3908 11.2828C11.1102 11.0567 10.7896 10.8852 10.4458 10.777V13.0003C11.2642 12.8764 11.6733 12.5262 11.6733 11.9495V11.9495Z" fill="#FECC2A"/>
</g>
<defs>
<clipPath id="clip0_144_10047">
<rect width="20" height="20" fill="white"/>
</clipPath>
</defs>
</svg>
