<svg width="20" height="20" viewBox="0 0 20 20" fill="none" xmlns="http://www.w3.org/2000/svg">
<g clip-path="url(#clip0_470_251)">
<path d="M19.7558 9.41104L17.5 7.15521V3.33354C17.5 2.87354 17.1266 2.50021 16.6666 2.50021H12.845L10.5891 0.244375C10.2633 -0.0814583 9.73663 -0.0814583 9.4108 0.244375L7.15496 2.50021H3.3333C2.8733 2.50021 2.49996 2.87354 2.49996 3.33354V7.15521L0.244131 9.41104C-0.0817025 9.73687 -0.0817025 10.2635 0.244131 10.5894L2.49996 12.8452V16.6669C2.49996 17.1269 2.8733 17.5002 3.3333 17.5002H7.15496L9.4108 19.756C9.5733 19.9185 9.78663 20.0002 9.99996 20.0002C10.2133 20.0002 10.4266 19.9185 10.5891 19.756L12.845 17.5002H16.6666C17.1266 17.5002 17.5 17.1269 17.5 16.6669V12.8452L19.7558 10.5894C20.0816 10.2635 20.0816 9.73687 19.7558 9.41104ZM7.0833 5.83354C7.7733 5.83354 8.3333 6.39354 8.3333 7.08354C8.3333 7.77354 7.7733 8.33354 7.0833 8.33354C6.3933 8.33354 5.8333 7.77354 5.8333 7.08354C5.8333 6.39354 6.3933 5.83354 7.0833 5.83354ZM12.9166 14.1669C12.2266 14.1669 11.6666 13.6069 11.6666 12.9169C11.6666 12.2269 12.2266 11.6669 12.9166 11.6669C13.6066 11.6669 14.1666 12.2269 14.1666 12.9169C14.1666 13.6069 13.6066 14.1669 12.9166 14.1669ZM6.66663 14.5119L5.4883 13.3335L13.3333 5.48854L14.5116 6.66687L6.66663 14.5119Z" fill="#FECC2A"/>
</g>
<defs>
<clipPath id="clip0_470_251">
<rect width="20" height="20" fill="white"/>
</clipPath>
</defs>
</svg>
