<svg width="23" height="17" viewBox="0 0 23 17" fill="none" xmlns="http://www.w3.org/2000/svg">
<path fill-rule="evenodd" clip-rule="evenodd" d="M3.5528 4.11819C3.53788 4.13183 3.5086 4.16014 3.4763 4.19196C3.45289 4.21502 3.43417 4.23367 3.39544 4.2724L1.25229 6.41556C1.19616 6.47433 1.15718 6.51381 1.06661 6.60438C1.01607 6.65492 0.978965 6.69374 0.899126 6.77856C0.750673 6.92223 0.594136 7.09374 0.447446 7.27479C0.309134 7.42111 0.198622 7.59153 0.121441 7.77771C-0.037462 8.26182 -0.037462 8.73237 0.104084 9.16939L0.123044 9.22032C0.20085 9.40456 0.310702 9.57345 0.447422 9.71919C0.594241 9.89891 0.750762 10.0705 0.916291 10.2332C0.978965 10.3005 1.01607 10.3393 1.06661 10.3898L1.25229 10.5755L3.20626 12.5326C3.29763 12.624 3.3425 12.6684 3.39449 12.718C3.44989 12.7764 3.50807 12.8343 3.56648 12.8893C3.57693 12.8986 6.06731 15.3874 6.06731 15.3874C6.14422 15.4643 6.20627 15.5247 6.34583 15.6595C6.36064 15.674 6.38313 15.6968 6.39004 15.7041C6.42596 15.7419 6.4468 15.7637 6.46069 15.7776C6.75112 16.0684 7.085 16.3128 7.45028 16.502C7.82454 16.6883 8.21399 16.8164 8.6157 16.8871C8.9952 16.9492 9.37111 16.9824 9.74793 16.9878C9.81278 16.9891 9.86663 16.9898 9.98674 16.991C10.1027 16.9922 10.1537 16.9928 10.2165 16.9941L17.6373 16.9942C17.7138 16.9928 17.7655 16.9922 17.8827 16.991C18.0039 16.9898 18.0584 16.9891 18.128 16.9878C18.5063 16.9811 18.8849 16.9468 19.2595 16.8851C19.6701 16.8157 20.0651 16.6853 20.4338 16.4979C20.8053 16.3092 21.1444 16.0625 21.4383 15.767C21.7306 15.4735 21.9761 15.1362 22.1656 14.7673C22.3526 14.3928 22.4812 13.9997 22.5503 13.5941C22.6132 13.215 22.6465 12.8346 22.6505 12.4533C22.6539 12.3749 22.6553 12.2999 22.6575 12.1339C22.6585 12.055 22.659 12.0203 22.6599 11.9775L22.66 4.98811C22.659 4.93365 22.6585 4.89907 22.6575 4.82162L22.6564 4.74116C22.6549 4.6397 22.6531 4.56356 22.6501 4.48775C22.6459 4.12884 22.6139 3.75327 22.5546 3.38153C22.4822 2.96989 22.3541 2.58044 22.1724 2.21526C21.9814 1.84231 21.7376 1.50754 21.4465 1.21651C21.1563 0.924107 20.8193 0.678338 20.45 0.49025C20.083 0.306428 19.6954 0.178046 19.2954 0.107204C18.9118 0.0461078 18.5352 0.0140631 18.1579 0.00948748C18.0331 0.00425207 17.9226 0.00314707 17.6782 0.00314707C17.5981 0.00172456 17.5045 0.00084134 17.3992 0.00039894C17.3199 6.59952e-05 17.257 0 17.1149 0H10.7924C10.5088 0 10.3804 0.000537251 10.2186 0.00323447C9.98465 0.00314707 9.87415 0.00425207 9.73185 0.00994415C9.37309 0.0137727 8.99717 0.0458631 8.62515 0.105492C8.21399 0.177755 7.82454 0.305911 7.45936 0.487602C7.085 0.681384 6.75111 0.925813 6.46042 1.21686C6.4468 1.23048 6.42596 1.25233 6.39145 1.28866C6.38313 1.29737 6.34583 1.33474 6.34583 1.33474C6.20627 1.46949 6.14422 1.52991 6.06731 1.60683L5.74631 1.92783L3.61135 4.06588C3.59264 4.08081 3.57263 4.09836 3.5528 4.11819ZM17.1149 1.25883C17.2552 1.25883 17.317 1.25889 17.3939 1.25922C17.4943 1.25964 17.5828 1.26047 17.6677 1.26189C17.9058 1.26198 18.0051 1.26297 18.1251 1.26777C18.4589 1.27206 18.7744 1.29892 19.0868 1.34858C19.3562 1.3964 19.6279 1.48638 19.8825 1.61389C20.1288 1.73936 20.357 1.90578 20.5547 2.105C20.7548 2.30501 20.9209 2.53303 21.0487 2.78257C21.1732 3.03298 21.2634 3.30703 21.3131 3.58972C21.3611 3.89101 21.3879 4.20543 21.3918 4.52056C21.3948 4.60135 21.3963 4.66803 21.3977 4.75985L21.3988 4.83826C21.3998 4.91854 21.4004 4.95503 21.4013 5.0007L21.4012 11.9652C21.4004 11.9992 21.3998 12.0358 21.3988 12.1174C21.3967 12.2725 21.3954 12.3401 21.3922 12.422C21.3884 12.7568 21.3607 13.0729 21.3089 13.3855C21.2611 13.6662 21.1712 13.9411 21.0426 14.1985C20.9157 14.4454 20.7471 14.6771 20.5461 14.8789C20.3462 15.0799 20.1159 15.2474 19.8636 15.3756C19.6082 15.5054 19.3347 15.5957 19.0523 15.6435C18.7407 15.6947 18.423 15.7235 18.1045 15.7292C18.0391 15.7304 17.9874 15.7311 17.8702 15.7322C17.749 15.7334 17.6945 15.7341 17.6249 15.7355L10.2291 15.7354C10.1733 15.7341 10.1194 15.7334 9.99933 15.7322C9.88341 15.7311 9.83236 15.7304 9.76959 15.7292C9.45118 15.7246 9.13706 15.6968 8.82626 15.646C8.55113 15.5976 8.27708 15.5074 8.0201 15.3795C7.77895 15.2546 7.55023 15.0871 7.35109 14.8877L7.30194 14.8362C7.25309 14.7851 7.23195 14.7633 7.20764 14.7417C7.08224 14.6206 7.02516 14.565 6.95743 14.4972L4.4618 12.0016C4.43901 11.9809 4.42523 11.9683 4.4157 11.9599C4.37061 11.9165 4.33372 11.8793 4.29884 11.8422C4.22679 11.7724 4.18732 11.7334 4.09674 11.6428L2.14277 9.68572L1.95674 9.49969C1.91811 9.46106 1.88702 9.42854 1.8158 9.35287C1.6608 9.19987 1.53074 9.05671 1.40909 8.90654L1.37102 8.8637C1.33929 8.83111 1.31295 8.79374 1.29294 8.75301C1.24451 8.58519 1.24469 8.40704 1.29348 8.2393C1.31235 8.20021 1.33756 8.16444 1.36811 8.13346L1.41101 8.08526C1.53067 7.93607 1.65939 7.79439 1.79645 7.66101C1.88702 7.56565 1.91811 7.53314 1.95674 7.49451C2.05499 7.39625 2.09888 7.35181 2.15367 7.29413L4.09674 5.35135L4.28557 5.16253C4.32316 5.12494 4.33928 5.10888 4.35971 5.08876L4.40129 5.05138L4.4013 5.05137L4.40134 5.05134C4.43156 5.02424 4.44832 5.00922 4.46495 4.99258L6.63675 2.81763L6.95743 2.49695C7.02516 2.42923 7.08224 2.37358 7.20764 2.25248C7.23195 2.23088 7.25309 2.20909 7.30031 2.15965L7.35082 2.10672C7.55023 1.90707 7.77895 1.73962 8.02918 1.61003C8.27708 1.48679 8.55113 1.3966 8.83382 1.34687C9.13524 1.29863 9.44936 1.27181 9.76417 1.26823C9.90211 1.26297 10.0014 1.26198 10.2291 1.26198C10.3921 1.25935 10.5158 1.25883 10.7924 1.25883H17.1149ZM11.1529 11.8285C11.1019 11.8784 11.0411 11.9192 10.9726 11.9475C10.7606 12.035 10.5168 11.9861 10.3549 11.8236C10.1349 11.6025 10.1349 11.2452 10.3549 11.0242C10.387 10.992 10.4223 10.9642 10.4599 10.9411L12.9041 8.49438L10.3549 5.94797L10.3626 5.94026C10.3127 5.88932 10.2719 5.82849 10.2436 5.75996C10.1561 5.54798 10.205 5.30413 10.3675 5.14232C10.5886 4.92226 10.9459 4.92226 11.1669 5.14232C11.1991 5.17435 11.2268 5.2096 11.2499 5.24717L13.7021 7.69548L16.1774 5.21755C16.1958 5.19115 16.2166 5.16596 16.24 5.14232C16.4012 4.98041 16.6441 4.93167 16.8552 5.01886C17.0664 5.10605 17.2041 5.31196 17.2041 5.54042C17.2041 5.69271 17.1429 5.83497 17.0396 5.93874L17.0456 5.94482L14.5005 8.49263L16.9844 10.9725C17.0069 10.9889 17.0284 11.0072 17.0488 11.0273C17.2107 11.1885 17.2594 11.4314 17.1722 11.6426C17.085 11.8538 16.8791 11.9915 16.6507 11.9915C16.4984 11.9915 16.3561 11.9303 16.2523 11.8269L16.2463 11.833L13.7023 9.29173L11.1606 11.8361L11.1529 11.8285Z" fill="black"/>
</svg>
