<svg width="20" height="20" viewBox="0 0 20 20" fill="none" xmlns="http://www.w3.org/2000/svg">
<g clip-path="url(#clip0_470_5566)">
<path d="M19.6942 8.52121L10.5275 1.02121C10.3786 0.899501 10.1923 0.833008 10 0.833008C9.80772 0.833008 9.62136 0.899501 9.4725 1.02121L0.305835 8.52121C0.138606 8.66231 0.0335787 8.86352 0.0134306 9.08139C-0.00671748 9.29926 0.0596301 9.51632 0.198147 9.68569C0.336665 9.85506 0.536238 9.96316 0.753775 9.98665C0.971312 10.0101 1.18936 9.94712 1.36083 9.81121L2.5 8.87955V18.3329C2.5 18.5539 2.5878 18.7659 2.74408 18.9221C2.90036 19.0784 3.11232 19.1662 3.33333 19.1662H8.33334V14.1662H11.6667V19.1662H16.6667C16.8877 19.1662 17.0996 19.0784 17.2559 18.9221C17.4122 18.7659 17.5 18.5539 17.5 18.3329V8.87955L18.6392 9.81121C18.7236 9.88248 18.8214 9.93623 18.9269 9.96935C19.0323 10.0025 19.1433 10.0143 19.2533 10.0041C19.3633 9.99392 19.4703 9.96196 19.5678 9.91007C19.6654 9.85818 19.7517 9.78741 19.8216 9.70186C19.8916 9.61632 19.9438 9.51771 19.9753 9.41179C20.0068 9.30586 20.0169 9.19473 20.0051 9.08485C19.9932 8.97498 19.9596 8.86857 19.9062 8.7718C19.8529 8.67504 19.7808 8.58986 19.6942 8.52121V8.52121Z" fill="#959595"/>
</g>
<defs>
<clipPath id="clip0_470_5566">
<rect width="20" height="20" fill="white"/>
</clipPath>
</defs>
</svg>
