<svg width="14" height="14" viewBox="0 0 14 14" fill="none" xmlns="http://www.w3.org/2000/svg">
<g clip-path="url(#clip0_470_5428)">
<path d="M13.4167 2.91706H12.0196C12.1602 2.63915 12.2388 2.33405 12.25 2.02281C12.2298 1.47258 11.9942 0.952314 11.5941 0.574046C11.1941 0.195778 10.6614 -0.0102283 10.1109 0.000391089C9.45521 0.0286331 8.81948 0.234399 8.27158 0.595726C7.72368 0.957053 7.28419 1.46038 7 2.05197C6.71884 1.46203 6.28269 0.959552 5.73816 0.59821C5.19363 0.236867 4.56117 0.0302361 3.90833 0.000391089C3.88617 0.000391089 3.864 0.000391089 3.84183 0.000391089C3.29922 0.00126006 2.77807 0.212479 2.38796 0.589641C1.99785 0.966803 1.76917 1.48053 1.75 2.02281V2.06131C1.76138 2.35913 1.83679 2.651 1.97108 2.91706H0.583333C0.428624 2.91706 0.280251 2.97852 0.170854 3.08791C0.0614582 3.19731 0 3.34568 0 3.50039L0 5.25039C0 5.4051 0.0614582 5.55347 0.170854 5.66287C0.280251 5.77227 0.428624 5.83372 0.583333 5.83372H13.4167C13.5714 5.83372 13.7197 5.77227 13.8291 5.66287C13.9385 5.55347 14 5.4051 14 5.25039V3.50039C14 3.34568 13.9385 3.19731 13.8291 3.08791C13.7197 2.97852 13.5714 2.91706 13.4167 2.91706ZM10.129 1.16706C10.3673 1.16088 10.5989 1.24608 10.7763 1.4052C10.9537 1.56431 11.0636 1.78529 11.0833 2.02281C11.0751 2.26158 10.9749 2.48792 10.8037 2.65456C10.6325 2.8212 10.4035 2.91524 10.1646 2.91706H7.86217C8.225 2.18264 8.94658 1.16706 10.129 1.16706ZM2.91667 2.04206C2.9316 1.80335 3.0376 1.57949 3.2128 1.41667C3.38799 1.25385 3.61901 1.1645 3.85817 1.16706C5.06508 1.17172 5.77208 2.17681 6.139 2.91706H3.864C3.62448 2.91886 3.39325 2.82942 3.2173 2.6669C3.04134 2.50438 2.93385 2.28097 2.91667 2.04206Z" fill="#F3F3F3"/>
<path d="M8.16669 7V14H11.0834C11.5475 14 11.9926 13.8156 12.3208 13.4874C12.649 13.1592 12.8334 12.7141 12.8334 12.25V7H8.16669Z" fill="#F3F3F3"/>
<path d="M5.83335 7H1.16669V12.25C1.16669 12.7141 1.35106 13.1592 1.67925 13.4874C2.00744 13.8156 2.45256 14 2.91669 14H5.83335V7Z" fill="#F3F3F3"/>
</g>
<defs>
<clipPath id="clip0_470_5428">
<rect width="14" height="14" fill="white"/>
</clipPath>
</defs>
</svg>
