<svg width="20" height="20" viewBox="0 0 20 20" fill="none" xmlns="http://www.w3.org/2000/svg">
<g clip-path="url(#clip0_144_10429)">
<path d="M19.1667 18.9167L17.5 6.58333C17.4689 6.38139 17.3689 6.19641 17.2171 6.05973C17.0652 5.92304 16.8708 5.84306 16.6667 5.83333H14.1667V4.16667C14.1667 3.0616 13.7277 2.00179 12.9463 1.22039C12.1649 0.438987 11.1051 0 10 0C8.89493 0 7.83512 0.438987 7.05372 1.22039C6.27232 2.00179 5.83333 3.0616 5.83333 4.16667V5.83333H3.33333C3.12924 5.84306 2.93479 5.92304 2.78292 6.05973C2.63105 6.19641 2.5311 6.38139 2.5 6.58333L0.833332 19.0833C0.838976 19.3151 0.895895 19.5428 0.999999 19.75C1.18118 19.917 1.42036 20.0067 1.66667 20H18.3333C18.4445 20.0067 18.5558 19.9897 18.66 19.9502C18.7641 19.9107 18.8587 19.8495 18.9374 19.7708C19.0162 19.692 19.0773 19.5974 19.1169 19.4933C19.1564 19.3892 19.1733 19.2778 19.1667 19.1667V18.9167ZM7.5 4.16667C7.5 3.50363 7.76339 2.86774 8.23223 2.3989C8.70107 1.93006 9.33696 1.66667 10 1.66667C10.663 1.66667 11.2989 1.93006 11.7678 2.3989C12.2366 2.86774 12.5 3.50363 12.5 4.16667V5.83333H7.5V4.16667Z" fill="#959595"/>
</g>
<defs>
<clipPath id="clip0_144_10429">
<rect width="20" height="20" fill="white"/>
</clipPath>
</defs>
</svg>
