<svg width="97" height="197" viewBox="0 0 97 197" fill="none" xmlns="http://www.w3.org/2000/svg">
<path d="M80.9577 196.101L14.4259 195.793C6.42389 195.756 -0.0337472 189.241 0.000132705 181.238L0.705221 14.4326C0.739101 6.42557 7.25874 -0.0369195 15.2646 0.000158756L81.7964 0.307652C89.7985 0.34473 96.2555 6.86027 96.2216 14.8628L95.5165 181.669C95.4833 189.675 88.9636 196.137 80.9577 196.101Z" fill="#263238"/>
<path d="M81.7019 6.0638L68.8026 6.00434C67.0728 5.99667 65.6639 7.45615 65.6568 9.26468L65.646 11.6051C65.6389 13.4136 64.23 14.8731 62.5003 14.8654L37.3569 14.7491C35.6271 14.7414 34.231 13.2685 34.2387 11.46L34.2489 9.11956C34.2559 7.31104 32.8598 5.83877 31.13 5.83046L26.5933 5.80936L15.303 5.75694C9.6962 5.73137 5.13008 10.2575 5.10643 15.8646L4.41797 178.679C4.39432 184.284 8.91696 188.846 14.5212 188.873L80.9201 189.179C86.5262 189.205 91.0923 184.679 91.1166 179.071L91.8051 16.2559C91.8281 10.6532 87.3061 6.09001 81.7019 6.0638Z" fill="white"/>
<path d="M45.2055 168.633C45.2055 169.402 44.5816 170.026 43.8126 170.026C43.0436 170.026 42.4197 169.402 42.4197 168.633C42.4197 167.863 43.0436 167.239 43.8126 167.239C44.5816 167.239 45.2055 167.863 45.2055 168.633Z" fill="#455A64"/>
<path d="M50.4979 168.633C50.4979 169.402 49.8739 170.026 49.1049 170.026C48.3359 170.026 47.712 169.402 47.712 168.633C47.712 167.863 48.3359 167.239 49.1049 167.239C49.8739 167.239 50.4979 167.863 50.4979 168.633Z" fill="#455A64"/>
<path d="M55.7901 168.633C55.7901 169.402 55.1662 170.026 54.3965 170.026C53.6269 170.026 53.0036 169.402 53.0036 168.633C53.0036 167.863 53.6275 167.239 54.3965 167.239C55.1662 167.239 55.7901 167.863 55.7901 168.633Z" fill="#455A64"/>
<path d="M53.7816 27.5819C54.6778 27.206 55.3151 26.281 55.3209 25.1924C55.3266 23.7656 54.247 22.6034 52.909 22.5977C51.5718 22.5913 50.4819 23.7432 50.4761 25.17C50.4716 26.2695 51.1134 27.2047 52.0199 27.5819C48.2918 28.1431 48.4612 32.1953 48.4612 32.1953L57.2763 32.2356C57.2763 32.2356 57.477 28.1399 53.7816 27.5819Z" fill="#FECC2A"/>
<path opacity="0.5" d="M53.7816 27.5819C54.6778 27.206 55.3151 26.281 55.3209 25.1924C55.3266 23.7656 54.247 22.6034 52.909 22.5977C51.5718 22.5913 50.4819 23.7432 50.4761 25.17C50.4716 26.2695 51.1134 27.2047 52.0199 27.5819C48.2918 28.1431 48.4612 32.1953 48.4612 32.1953L57.2763 32.2356C57.2763 32.2356 57.477 28.1399 53.7816 27.5819Z" fill="white"/>
<path d="M48.9432 27.5819C49.8394 27.206 50.4767 26.281 50.4825 25.1924C50.4883 23.7656 49.4086 22.6034 48.0706 22.5977C46.7333 22.5913 45.6434 23.7432 45.6377 25.17C45.6332 26.2695 46.275 27.2047 47.1808 27.5819C43.4534 28.1431 43.6221 32.1953 43.6221 32.1953L52.4379 32.2356C52.4379 32.2356 52.6393 28.1399 48.9432 27.5819Z" fill="#FECC2A"/>
<path d="M62.4182 34.0582L38.723 33.9492L38.7095 36.8872L62.4047 36.9962L62.4182 34.0582Z" fill="#FECC2A"/>
<path opacity="0.3" d="M62.4182 34.0582L38.723 33.9492L38.7095 36.8872L62.4047 36.9962L62.4182 34.0582Z" fill="white"/>
</svg>
