<svg width="20" height="20" viewBox="0 0 20 20" fill="none" xmlns="http://www.w3.org/2000/svg">
<g clip-path="url(#clip0_470_3184)">
<path d="M15.8334 4.16691H13.3334V3.48108C13.3334 1.74108 12.0642 0.18441 10.3325 0.016077C8.34502 -0.176423 6.66669 1.38524 6.66669 3.33358V4.16691H4.16669C2.78585 4.16691 1.66669 5.28608 1.66669 6.66691V11.6669C1.66669 12.1269 2.04002 12.5002 2.50002 12.5002H17.5C17.96 12.5002 18.3334 12.1269 18.3334 11.6669V6.66691C18.3334 5.28608 17.2142 4.16691 15.8334 4.16691ZM8.33335 3.33358C8.33335 2.41441 9.08085 1.66691 10 1.66691C10.9192 1.66691 11.6667 2.41441 11.6667 3.33358V4.16691H8.33335V3.33358Z" fill="#959595"/>
<path d="M1.66667 20H0.833333C0.373333 20 0 19.6267 0 19.1667V15.8333C0 15.3733 0.373333 15 0.833333 15H1.66667V20Z" fill="#959595"/>
<path d="M18.3333 20H19.1666C19.6266 20 20 19.6267 20 19.1667V15.8333C20 15.3733 19.6266 15 19.1666 15H18.3333V20Z" fill="#959595"/>
<path d="M3.33331 19.167C3.33331 19.6278 3.70581 20.0003 4.16665 20.0003H15.8333C16.2941 20.0003 16.6666 19.6278 16.6666 19.167V14.167H3.33331V19.167Z" fill="#959595"/>
</g>
<defs>
<clipPath id="clip0_470_3184">
<rect width="20" height="20" fill="white"/>
</clipPath>
</defs>
</svg>
