<svg width="10" height="10" viewBox="0 0 10 10" fill="none" xmlns="http://www.w3.org/2000/svg">
<path d="M9.58333 4.16667C9.81333 4.16667 10 3.98 10 3.75V1.66667C10 1.43667 9.81333 1.25 9.58333 1.25H0.416667C0.186667 1.25 0 1.43667 0 1.66667V3.75C0 3.98 0.186667 4.16667 0.416667 4.16667C0.891667 4.16667 1.25 4.525 1.25 5C1.25 5.475 0.891667 5.83333 0.416667 5.83333C0.186667 5.83333 0 6.02 0 6.25V8.33333C0 8.56333 0.186667 8.75 0.416667 8.75H9.58333C9.81333 8.75 10 8.56333 10 8.33333V6.25C10 6.02 9.81333 5.83333 9.58333 5.83333C9.10833 5.83333 8.75 5.475 8.75 5C8.75 4.525 9.10833 4.16667 9.58333 4.16667ZM3.54167 2.91667C3.88667 2.91667 4.16667 3.19667 4.16667 3.54167C4.16667 3.88667 3.88667 4.16667 3.54167 4.16667C3.19667 4.16667 2.91667 3.88667 2.91667 3.54167C2.91667 3.19667 3.19667 2.91667 3.54167 2.91667ZM6.45833 7.08333C6.11333 7.08333 5.83333 6.80333 5.83333 6.45833C5.83333 6.11333 6.11333 5.83333 6.45833 5.83333C6.80333 5.83333 7.08333 6.11333 7.08333 6.45833C7.08333 6.80333 6.80333 7.08333 6.45833 7.08333ZM3.33333 7.25583L2.74417 6.66667L6.66667 2.74417L7.25583 3.33333L3.33333 7.25583Z" fill="#F0F0F0"/>
</svg>
