<svg width="20" height="20" viewBox="0 0 20 20" fill="none" xmlns="http://www.w3.org/2000/svg">
<path d="M19.1667 7.50016H15.4717L13.2142 3.73766C13.0642 3.48683 12.7933 3.3335 12.5 3.3335H4.16667C3.91333 3.3335 3.67417 3.4485 3.51583 3.646L0.1825 7.81266C0.0641667 7.961 0 8.14433 0 8.3335V13.3335C0 13.7935 0.3725 14.1668 0.833333 14.1668H1.70917C1.91333 15.5768 3.11833 16.6668 4.58333 16.6668C6.04833 16.6668 7.25333 15.5768 7.4575 14.1668H11.7083C11.9125 15.5768 13.1175 16.6668 14.5825 16.6668C16.0475 16.6668 17.2525 15.5768 17.4567 14.1668H19.1667C19.6275 14.1668 20 13.7935 20 13.3335V8.3335C20 7.8735 19.6275 7.50016 19.1667 7.50016ZM13.5283 7.50016H9.16667V5.00016H12.0283L13.5283 7.50016ZM4.56667 5.00016H7.5V7.50016H2.56667L4.56667 5.00016ZM4.58333 15.0002C3.89417 15.0002 3.33333 14.4393 3.33333 13.7502C3.33333 13.061 3.89417 12.5002 4.58333 12.5002C5.2725 12.5002 5.83333 13.061 5.83333 13.7502C5.83333 14.4393 5.2725 15.0002 4.58333 15.0002ZM14.5833 15.0002C13.8942 15.0002 13.3333 14.4393 13.3333 13.7502C13.3333 13.061 13.8942 12.5002 14.5833 12.5002C15.2725 12.5002 15.8333 13.061 15.8333 13.7502C15.8333 14.4393 15.2725 15.0002 14.5833 15.0002Z" fill="#FECC2A"/>
</svg>
