<svg width="98" height="37" viewBox="0 0 98 37" fill="none" xmlns="http://www.w3.org/2000/svg">
<path d="M45.6651 37.0006C48.6629 37.0006 51.0931 32.1612 51.0931 26.1916C51.0931 20.222 48.6629 15.3828 45.6651 15.3828H38.7007V37.0006H45.6651Z" fill="#263238"/>
<path d="M38.6749 36.9998C41.6727 36.9998 44.1029 32.1605 44.1029 26.1908C44.1029 20.2212 41.6727 15.3818 38.6749 15.3818C35.677 15.3818 33.2468 20.2212 33.2468 26.1908C33.2468 32.1605 35.677 36.9998 38.6749 36.9998Z" fill="#263238"/>
<path d="M85.4714 37.0006C88.4692 37.0006 90.8995 32.1612 90.8995 26.1916C90.8995 20.222 88.4692 15.3828 85.4714 15.3828H78.507V37.0006H85.4714Z" fill="#263238"/>
<path d="M78.4811 36.9998C81.479 36.9998 83.9092 32.1605 83.9092 26.1908C83.9092 20.2212 81.479 15.3818 78.4811 15.3818C75.4833 15.3818 73.0531 20.2212 73.0531 26.1908C73.0531 32.1605 75.4833 36.9998 78.4811 36.9998Z" fill="#263238"/>
<path d="M10.0806 31.5564L6.36261 30.6369C5.08945 30.3221 4.01944 29.4584 3.43873 28.277L3.43609 28.2717C3.18271 27.756 2.83242 27.2945 2.40484 26.9121L1.49131 26.0955C0.431581 25.1481 -0.114913 23.7493 0.0202746 22.3302L0.523699 17.0441C0.696452 15.2292 1.94879 13.7019 3.68781 13.1845L6.3449 12.394L15.9346 11.708L10.0806 31.5564Z" fill="#FECC2A"/>
<path d="M18.1896 37.0006C21.1874 37.0006 23.6177 32.1612 23.6177 26.1916C23.6177 20.222 21.1874 15.3828 18.1896 15.3828H11.2252V37.0006H18.1896Z" fill="#263238"/>
<path d="M11.1994 36.9998C14.1973 36.9998 16.6275 32.1605 16.6275 26.1908C16.6275 20.2212 14.1973 15.3818 11.1994 15.3818C8.20159 15.3818 5.77136 20.2212 5.77136 26.1908C5.77136 32.1605 8.20159 36.9998 11.1994 36.9998Z" fill="#263238"/>
<path d="M11.1994 34.7347C13.3026 34.7347 15.0076 30.9094 15.0076 26.1906C15.0076 21.4718 13.3026 17.6465 11.1994 17.6465C9.09623 17.6465 7.39124 21.4718 7.39124 26.1906C7.39124 30.9094 9.09623 34.7347 11.1994 34.7347Z" fill="white"/>
<path d="M66.2876 31.5563L75.6619 10.4971C75.6619 10.4971 61.635 0 43.8512 0C15.0079 0 15.9977 3.90864 6.34509 12.3938L10.5584 15.382C18.0545 15.382 18.6797 27.3273 19.8777 30.6868C20.0637 31.2078 20.5532 31.5566 21.1038 31.5566H66.2876" fill="#FECC2A"/>
<path d="M57.9962 37.0006C60.994 37.0006 63.4242 32.1612 63.4242 26.1916C63.4242 20.222 60.994 15.3828 57.9962 15.3828H51.0317V37.0006H57.9962Z" fill="#263238"/>
<path d="M51.0059 36.9998C54.0038 36.9998 56.434 32.1605 56.434 26.1908C56.434 20.2212 54.0038 15.3818 51.0059 15.3818C48.0081 15.3818 45.5779 20.2212 45.5779 26.1908C45.5779 32.1605 48.0081 36.9998 51.0059 36.9998Z" fill="#263238"/>
<path d="M51.0059 34.7347C53.1091 34.7347 54.8142 30.9094 54.8142 26.1906C54.8142 21.4718 53.1091 17.6465 51.0059 17.6465C48.9026 17.6465 47.1976 21.4718 47.1976 26.1906C47.1976 30.9094 48.9026 34.7347 51.0059 34.7347Z" fill="white"/>
<path d="M60.694 29.8177C59.83 25.8725 55.7002 15.3945 50.7482 15.3945L45.385 10.4971C45.385 10.4971 71.664 10.4971 75.662 10.4971C77.7592 10.4971 87.0675 11.7901 92.3427 15.382C96.6046 18.2838 97.1226 22.6857 97.7421 29.1202C97.8686 30.4339 96.7249 31.5627 95.2807 31.5634C83.1485 31.5689 68.4664 31.6108 63.1214 31.6271C61.942 31.6305 60.9253 30.8738 60.694 29.8177Z" fill="#FECC2A"/>
<path opacity="0.8" d="M73.4733 10.4968H53.7351C52.8091 10.4968 51.9348 10.0451 51.4166 9.27355C49.2196 6.00182 45.3314 2.68727 42.4829 1.11719C62.4381 1.11719 73.4733 10.4968 73.4733 10.4968Z" fill="white"/>
<path opacity="0.8" d="M41.995 2.10297C44.3896 3.8436 47.1108 6.5434 48.6383 9.22564C48.9608 9.79182 48.5596 10.497 47.9104 10.497H15.5731C12.1439 10.497 13.2812 1.90527 31.2053 1.26213C32.8941 1.11565 36.8337 1.1106 39.0113 1.12022C40.0846 1.12527 41.1252 1.47065 41.995 2.10297Z" fill="white"/>
<path d="M64.1155 26.8671L74.4819 27.6533C74.8171 27.6788 75.0763 27.9595 75.0763 28.2974V29.009C75.0763 29.3657 74.7884 29.655 74.4336 29.655H64.0671C63.7123 29.655 63.4244 29.3657 63.4244 29.009V27.5109C63.4244 27.1353 63.7424 26.8387 64.1155 26.8671Z" fill="#263238"/>
<path d="M97.0697 27.0186L94.2144 27.5944C93.9141 27.655 93.698 27.9201 93.698 28.2277V29.0094C93.698 29.3661 93.9856 29.6554 94.3407 29.6554H97.3573C97.7423 29.6554 98.0411 29.3172 97.9954 28.9329L97.8342 27.5754C97.7897 27.2012 97.4372 26.9445 97.0697 27.0186Z" fill="#263238"/>
<path opacity="0.8" d="M72.6461 14.7472L58.1711 14.04C58.1711 14.04 58.0237 16.6179 63.3864 17.1735C68.7494 17.7291 72.6461 14.7472 72.6461 14.7472Z" fill="white"/>
<path opacity="0.3" d="M0.526036 17.0432C0.566472 16.6098 0.66888 16.1951 0.823927 15.8052L1.80397 15.7773C1.80397 15.7773 1.85039 19.5595 0.429849 19.3224C0.389652 19.3161 0.352326 19.3068 0.31189 19.2942L0.526036 17.0432Z" fill="black"/>
<path opacity="0.8" d="M90.9179 14.5166C91.4173 14.7879 91.8949 15.0748 92.3416 15.3803C93.0829 15.8853 93.7096 16.4342 94.2432 17.0326C94.0539 17.0888 93.8493 17.1355 93.629 17.173C90.4154 17.7279 88.0796 14.7473 88.0796 14.7473L90.9179 14.5166Z" fill="white"/>
<path d="M77.1306 18.8115H87.3749C87.7276 18.8115 88.0789 18.9251 88.3772 19.1353L90.1677 20.397C90.5797 20.6873 90.8554 21.1371 90.9207 21.6256L91.377 25.0345C91.5052 25.9927 90.8044 26.8047 89.849 26.8047H78.8937C78.2405 26.8047 77.6223 26.4182 77.316 25.8181L75.2686 21.8081C74.9711 21.2254 75.0214 20.5459 75.3982 20.0593L75.9098 19.3989C76.1984 19.0263 76.6448 18.8115 77.1306 18.8115Z" fill="#263238"/>
<path opacity="0.1" d="M23.1342 27.126H43.1659C43.4459 27.126 43.6655 27.3672 43.6406 27.6477L43.537 28.8199C43.5152 29.0672 43.3092 29.2567 43.0621 29.2567H23.0303C22.7504 29.2567 22.5308 29.0155 22.5556 28.735L22.6592 27.5628C22.6813 27.3155 22.8873 27.126 23.1342 27.126Z" fill="black"/>
<path d="M29.5201 1.11782L30.7205 0.883789L28.2663 11.7083H27.119L29.5201 1.11782Z" fill="#FECC2A"/>
<path d="M33.8961 12.9209H29.7947L29.6885 13.3541C29.5782 13.8038 29.8517 14.1682 30.2989 14.1682H32.7804C33.2276 14.1682 33.6796 13.8036 33.7899 13.3541L33.8961 12.9209Z" fill="#263238"/>
<path d="M19.783 12.9209H15.6817L15.5755 13.3541C15.4652 13.8038 15.7386 14.1682 16.1858 14.1682H18.6673C19.1145 14.1682 19.5664 13.8036 19.6767 13.3541L19.783 12.9209Z" fill="#263238"/>
<path opacity="0.1" d="M27.8163 25.727C27.7419 25.727 27.6811 25.6674 27.6795 25.5924L27.3782 11.4207C27.3765 11.3447 27.4366 11.2817 27.5122 11.2803C27.5134 11.2803 27.5144 11.2803 27.5153 11.2803C27.5897 11.2803 27.6505 11.3399 27.6522 11.415L27.9534 25.5866C27.9551 25.6626 27.8951 25.7256 27.8194 25.7273C27.8182 25.727 27.8173 25.727 27.8163 25.727Z" fill="black"/>
</svg>
