<svg width="20" height="20" viewBox="0 0 20 20" fill="none" xmlns="http://www.w3.org/2000/svg">
<path d="M10 0.5C13.435 0.5 17 3.15194 17 7.5C17 8.49053 16.6219 9.65863 16.0068 10.8887C15.396 12.1102 14.5742 13.3498 13.7354 14.4717C12.0577 16.7154 10.3464 18.4465 10.2295 18.5635C10.176 18.6169 10.1422 18.6376 10.1201 18.6475C10.1001 18.6563 10.0667 18.667 10 18.667C9.93334 18.667 9.89988 18.6563 9.87988 18.6475C9.85776 18.6376 9.82401 18.6169 9.77051 18.5635C9.65357 18.4465 7.94233 16.7154 6.26465 14.4717C5.4258 13.3498 4.60397 12.1102 3.99316 10.8887C3.37814 9.65863 3 8.49053 3 7.5C3 3.15194 6.56501 0.5 10 0.5ZM10 4.5C8.30719 4.5 7 5.80719 7 7.5C7 9.19281 8.30719 10.5 10 10.5C11.6928 10.5 13 9.19281 13 7.5C13 5.80719 11.6928 4.5 10 4.5Z" fill="#FECC2A" stroke="white"/>
</svg>
