<svg width="20" height="20" viewBox="0 0 20 20" fill="none" xmlns="http://www.w3.org/2000/svg">
<g clip-path="url(#clip0_205_3121)">
<path d="M19.1667 4.16674H17.1708C17.3717 3.76973 17.484 3.33387 17.5 2.88924C17.4711 2.1032 17.1346 1.35996 16.5631 0.819578C15.9915 0.279195 15.2306 -0.0151001 14.4442 7.04167e-05C13.5074 0.0404161 12.5993 0.334368 11.8165 0.850549C11.0338 1.36673 10.406 2.08576 10 2.9309C9.59834 2.08813 8.97528 1.3703 8.19738 0.854097C7.41947 0.337893 6.51595 0.0427062 5.58333 7.04167e-05C5.55167 7.04167e-05 5.52 7.04167e-05 5.48833 7.04167e-05C4.71316 0.00131181 3.96867 0.303053 3.41137 0.841856C2.85408 1.38066 2.52739 2.11455 2.5 2.88924V2.94424C2.51626 3.36969 2.62398 3.78665 2.81583 4.16674H0.833333C0.61232 4.16674 0.400358 4.25453 0.244078 4.41081C0.0877974 4.5671 0 4.77906 0 5.00007L0 7.50007C0 7.72108 0.0877974 7.93305 0.244078 8.08933C0.400358 8.24561 0.61232 8.3334 0.833333 8.3334H19.1667C19.3877 8.3334 19.5996 8.24561 19.7559 8.08933C19.9122 7.93305 20 7.72108 20 7.50007V5.00007C20 4.77906 19.9122 4.5671 19.7559 4.41081C19.5996 4.25453 19.3877 4.16674 19.1667 4.16674ZM14.47 1.66674C14.8104 1.65791 15.1412 1.77963 15.3947 2.00694C15.6482 2.23425 15.8051 2.54992 15.8333 2.88924C15.8215 3.23034 15.6784 3.55368 15.4338 3.79174C15.1892 4.02979 14.8621 4.16415 14.5208 4.16674H11.2317C11.75 3.11757 12.7808 1.66674 14.47 1.66674ZM4.16667 2.91674C4.188 2.57573 4.33943 2.25592 4.58971 2.02332C4.83999 1.79072 5.17001 1.66308 5.51167 1.66674C7.23583 1.6734 8.24583 3.10924 8.77 4.16674H5.52C5.17783 4.16931 4.84751 4.04154 4.59614 3.80936C4.34478 3.57719 4.19122 3.25804 4.16667 2.91674V2.91674Z" fill="#BDBDBD"/>
<path d="M11.6666 10V20H15.8333C16.4963 20 17.1322 19.7366 17.6011 19.2678C18.0699 18.7989 18.3333 18.163 18.3333 17.5V10H11.6666Z" fill="#BDBDBD"/>
<path d="M8.33329 10H1.66663V17.5C1.66663 18.163 1.93002 18.7989 2.39886 19.2678C2.8677 19.7366 3.50358 20 4.16663 20H8.33329V10Z" fill="#BDBDBD"/>
</g>
<defs>
<clipPath id="clip0_205_3121">
<rect width="20" height="20" fill="white"/>
</clipPath>
</defs>
</svg>
