<svg width="20" height="20" viewBox="0 0 20 20" fill="none" xmlns="http://www.w3.org/2000/svg">
<rect width="20" height="20" fill="#F3F3F3"/>
<path d="M11.4642 17.5H4.16669C3.70669 17.5 3.33335 17.1267 3.33335 16.6667V3.33333C3.33335 2.87333 3.70669 2.5 4.16669 2.5H14.1667C14.6267 2.5 15 2.87333 15 3.33333V9.16667H16.6667V2.5C16.6667 1.12167 15.545 0 14.1667 0H4.16669C2.78835 0 1.66669 1.12167 1.66669 2.5V17.5C1.66669 18.8783 2.78835 20 4.16669 20H13.965L11.4642 17.5Z" fill="#959595"/>
<path d="M18.3334 14.6547L16.6667 16.3213V10.833H15V16.3213L13.3334 14.6547L12.155 15.833L15.8334 19.5113L19.5117 15.833L18.3334 14.6547Z" fill="#959595"/>
</svg>
