<svg width="23" height="20" viewBox="0 0 23 20" fill="none" xmlns="http://www.w3.org/2000/svg">
<path d="M22.4043 14.4827C21.7874 12.1244 20.8011 10.3158 19.6645 8.92922C20.8183 9.40868 21.6085 9.89262 21.7459 9.73408C21.8245 9.64138 21.6072 9.29234 21.1156 8.8685C20.6266 8.44529 19.848 7.96966 18.9025 7.66025C18.7747 7.6187 18.6513 7.59184 18.5254 7.5586C19.0502 7.33932 19.536 7.04142 19.9445 6.64315C20.9021 5.70596 21.3336 4.1704 20.7429 2.96727C20.2143 1.89136 18.9428 1.27573 17.7506 1.40231C16.5591 1.52825 15.4909 2.32734 14.9098 3.37577C14.7698 3.62892 14.6573 3.89487 14.5691 4.16848C14.5883 3.76062 14.6266 3.30353 14.7104 2.81384C14.9635 1.23161 15.5542 0.0482989 15.4596 0.00163127C15.3899 -0.0495114 14.6349 1.10695 14.3684 2.75758C14.3428 2.90973 14.3268 3.05613 14.3108 3.20252C14.1683 2.74863 14.0098 2.34333 13.8487 2.0077C13.4549 1.18047 13.0873 0.741285 12.9806 0.795624C12.7543 0.908777 13.4862 2.63867 13.786 4.97653C12.7735 4.66584 11.9623 4.56548 11.5615 4.56548C10.166 4.56548 7.85512 3.89487 4.57643 6.55109C3.59775 7.18207 2.58071 8.07259 1.7612 9.25526C0.479518 11.1085 0.0326865 13.1664 0.00392047 14.6137C-0.0158961 15.3432 0.0422781 15.9313 0.113873 16.3309C0.18419 16.731 0.250668 16.9458 0.271763 16.942C0.336966 16.9331 0.149031 16.0502 0.249392 14.6272C0.305645 13.7552 0.508923 12.6671 0.946166 11.5413C0.129851 14.3964 1.25748 16.7023 1.25748 16.7023L8.57491 15.5586C8.10379 13.9534 8.44961 11.4096 8.66824 10.163C9.95951 16.1391 15.0946 19.0139 15.0946 19.0139L22.7968 17.8018C22.6945 17.1057 22.5667 15.1028 22.4043 14.4827Z" fill="#263238"/>
</svg>
