<svg width="75" height="195" viewBox="0 0 75 195" fill="none" xmlns="http://www.w3.org/2000/svg">
<path d="M38.6742 188.936L37.4296 182.183L25.3115 184.332L27.0733 194.451L27.834 194.368C31.2124 193.968 44.9401 191.87 47.0496 190.765C49.402 189.533 38.6742 188.936 38.6742 188.936Z" fill="#FECC2A"/>
<path d="M47.2216 190.094C47.2427 190.208 42.7321 191.134 37.149 192.164C31.5639 193.193 27.0207 193.936 26.9996 193.822C26.9786 193.709 31.4878 192.782 37.0729 191.753C42.6567 190.723 47.2005 189.981 47.2216 190.094Z" fill="#263238"/>
<path d="M39.1415 190.275C39.0321 190.241 39.052 189.869 39.2469 189.469C39.4413 189.068 39.7232 188.822 39.8165 188.887C39.913 188.954 39.8018 189.281 39.6228 189.651C39.4432 190.02 39.2527 190.31 39.1415 190.275Z" fill="#263238"/>
<path d="M39.9955 190.578C39.883 190.558 39.8639 190.147 40.0243 189.683C40.1835 189.217 40.452 188.906 40.5523 188.959C40.6559 189.013 40.567 189.385 40.42 189.819C40.2704 190.25 40.1106 190.599 39.9955 190.578Z" fill="#263238"/>
<path d="M30.6376 193.103C30.5967 193.145 30.3838 193.001 30.0667 192.752C29.749 192.505 29.3265 192.152 28.8093 191.884C28.2954 191.616 27.768 191.531 27.394 191.553C27.0175 191.572 26.7861 191.674 26.7548 191.618C26.7254 191.577 26.9191 191.368 27.3506 191.261C27.775 191.152 28.4124 191.204 29.0005 191.512C29.5854 191.817 29.999 192.232 30.2707 192.537C30.5411 192.847 30.6778 193.063 30.6376 193.103Z" fill="#263238"/>
<path d="M38.944 188.999C39.0207 189.084 38.8564 189.356 38.5342 189.546C38.2127 189.737 37.8944 189.75 37.8566 189.642C37.8177 189.532 38.0388 189.355 38.3207 189.186C38.6039 189.02 38.8666 188.912 38.944 188.999Z" fill="#263238"/>
<path d="M38.6339 188.382C38.6659 188.493 38.361 188.65 37.9537 188.73C37.5459 188.811 37.2052 188.783 37.1917 188.668C37.1789 188.553 37.4832 188.397 37.8726 188.32C38.2612 188.243 38.6026 188.271 38.6339 188.382Z" fill="#263238"/>
<path d="M53.2503 117.56C49.4947 109.982 29.386 80.6816 29.386 80.6816L18.6518 81.8017L18.6391 81.739L6.62831 83.0559H6.62576L0 83.7828L23.9806 188.517L40.5613 188.217L36.5724 168.842C39.332 161.971 55.3285 121.752 53.2503 117.56ZM36.1448 122.079L30.2196 137.989L23.5037 105.368L36.1448 122.079Z" fill="#959595"/>
<path d="M22.8395 32.3049C22.688 31.213 23.2754 26.6671 23.2754 26.6671C23.2754 26.6671 27.4522 26.3602 27.8377 22.2401C28.2232 18.1199 28.2762 8.59139 28.2762 8.59139L20.8131 4.64062L12.2696 10.6914L10.0565 16.4418L12.9676 23.5896L12.8807 25.9575L12.8705 31.3741L22.8395 32.3049Z" fill="#FFBE9D"/>
<path d="M27.7187 15.4974C27.7098 15.7895 27.465 16.0184 27.1735 16.0088C26.8814 15.9992 26.6526 15.755 26.6622 15.4628C26.6717 15.1713 26.9153 14.9425 27.2074 14.9514C27.4988 14.9617 27.7283 15.2059 27.7187 15.4974Z" fill="#263238"/>
<path d="M27.7546 14.9437C27.6843 15.0101 27.3046 14.6656 26.7369 14.6164C26.1699 14.5595 25.7333 14.828 25.6758 14.7493C25.6483 14.7142 25.7224 14.5908 25.9136 14.4687C26.1009 14.3472 26.4148 14.2405 26.7683 14.2737C27.1218 14.307 27.4107 14.4693 27.5724 14.6234C27.738 14.7794 27.7885 14.9143 27.7546 14.9437Z" fill="#263238"/>
<path d="M21.0438 14.8523C21.2791 15.0249 21.3302 15.3554 21.1576 15.5912C20.985 15.8265 20.6545 15.8776 20.4187 15.705C20.1834 15.5324 20.1323 15.2019 20.3049 14.966C20.4775 14.7308 20.808 14.6797 21.0438 14.8523Z" fill="#263238"/>
<path d="M21.4491 14.7413C21.3788 14.8077 20.9991 14.4626 20.4315 14.4146C19.8644 14.3571 19.4278 14.6256 19.3709 14.5476C19.3428 14.5124 19.4176 14.3891 19.6087 14.267C19.796 14.1455 20.1099 14.0388 20.4634 14.0714C20.8169 14.1046 21.1052 14.267 21.2676 14.421C21.4325 14.577 21.483 14.7119 21.4491 14.7413Z" fill="#263238"/>
<path d="M23.3465 19.6122C23.3465 19.5803 23.7038 19.5489 24.281 19.5247C24.4261 19.5221 24.5692 19.5055 24.6025 19.4C24.6453 19.2907 24.5948 19.1207 24.5366 18.9385C24.4248 18.5607 24.3078 18.1637 24.1845 17.7469C23.6974 16.0523 23.3522 14.6646 23.4136 14.6467C23.4443 14.6377 23.5708 14.9733 23.7505 15.5224C23.9301 16.0715 24.1627 16.8354 24.4069 17.6824C24.5239 18.1011 24.6351 18.5 24.7412 18.879C24.7846 19.0561 24.8658 19.2587 24.7783 19.4761C24.7322 19.5841 24.6229 19.6557 24.5296 19.6736C24.4356 19.6947 24.3538 19.6896 24.2822 19.6877C23.7044 19.6704 23.3471 19.6435 23.3465 19.6122Z" fill="#263238"/>
<path d="M21.4504 20.0914C20.8872 19.6913 23.0095 21.0899 24.1704 21.127C24.1704 21.127 23.4212 22.1332 22.2673 21.602C21.0694 21.0497 21.4504 20.0914 21.4504 20.0914Z" fill="white"/>
<path d="M23.2754 26.6671C23.2754 26.6671 20.4942 26.6089 17.8657 24.6445C17.8657 24.6445 19.008 27.7154 23.1527 27.6771L23.2754 26.6671Z" fill="#EB996E"/>
<path d="M13.4554 17.5935C13.4394 17.5833 13.3966 17.6402 13.2956 17.6939C13.1971 17.7457 13.0258 17.7885 12.8379 17.731C12.4582 17.6172 12.1098 17.0464 12.0541 16.4129C12.026 16.0932 12.0746 15.7845 12.173 15.525C12.2645 15.261 12.4204 15.0711 12.6052 15.027C12.7886 14.9727 12.928 15.0769 12.9772 15.1734C13.0303 15.2686 13.0124 15.3402 13.0316 15.3453C13.0424 15.3536 13.1038 15.282 13.0667 15.1382C13.0482 15.0698 13.0015 14.9893 12.9152 14.926C12.8264 14.8627 12.7004 14.8352 12.5707 14.857C12.3009 14.8921 12.0714 15.1568 11.9634 15.4412C11.8406 15.7276 11.7786 16.0753 11.8106 16.434C11.8764 17.141 12.2791 17.7828 12.7969 17.8985C13.0482 17.9483 13.2496 17.8607 13.3518 17.7712C13.4541 17.6792 13.4675 17.5993 13.4554 17.5935Z" fill="#EB996E"/>
<path d="M29.3649 9.27848C29.1188 9.36414 28.8855 9.3993 28.6714 9.41017C29.441 9.00039 30.0956 8.37198 30.5073 7.60293C31.0858 6.52318 31.167 5.12826 30.5022 4.09902C29.8373 3.06978 28.3543 2.58137 27.2983 3.20275C27.8077 2.36081 27.4031 1.17495 26.5887 0.623248C25.7737 0.0715481 24.685 0.0664301 23.7498 0.372646C22.8146 0.678862 21.9977 1.25933 21.1967 1.83085C21.1085 1.16792 20.6278 0.596397 20.0301 0.297213C19.4324 -0.00197067 18.7331 -0.0531118 18.0721 0.0459769C16.1531 0.334293 14.509 1.95167 14.1906 3.86632C13.5923 3.24878 12.6616 2.97325 11.8235 3.16567C10.9855 3.35809 10.2682 4.01144 9.99911 4.82844C9.98888 4.85849 9.9844 4.88917 9.97545 4.91922C9.62642 5.06881 9.28315 5.3322 9.05303 5.72088C8.70592 6.27386 8.59726 7.05953 8.85359 7.76977C9.08628 8.48513 9.6277 9.02596 10.1167 9.37565C10.3539 9.56104 10.5616 9.74132 10.7003 9.94397C10.8333 10.139 10.8985 10.355 10.9254 10.5609C10.871 11.9436 10.164 13.2465 9.82139 14.6063C9.34899 16.4825 10.391 19.0493 10.9912 20.8885C11.5915 22.7277 11.8018 23.4673 12.9684 23.5914L13.1512 18.642C11.8612 19.6924 10.1679 16.0836 11.2853 14.6484C12.4039 13.212 13.5923 13.703 13.7975 14.612C13.9343 15.218 14.0954 15.6419 14.0954 15.6419H15.3918L15.2524 14.557C15.2524 14.557 14.991 9.75539 17.2877 9.46068C18.0977 9.35711 18.2875 9.43319 19.0246 9.78479C19.7616 10.1364 20.5415 10.137 21.3578 10.1083C22.1741 10.0801 23.2781 9.17875 23.248 8.36239C24.1717 9.45812 25.6541 10.0558 27.0797 9.90689C27.4504 9.8679 27.8135 9.77648 28.1612 9.64415C28.4924 9.7458 28.9788 9.77073 29.4749 9.60771C29.9875 9.43702 30.3769 9.11099 30.5763 8.82459C30.7802 8.53755 30.8186 8.31892 30.7809 8.30294C30.6958 8.25308 30.2886 8.98952 29.3649 9.27848ZM10.3174 9.12697C9.83482 8.75683 9.39503 8.29335 9.18088 7.65663C8.95779 7.0346 9.04281 6.37231 9.32727 5.88326C9.47685 5.61795 9.67884 5.41722 9.8981 5.2721C9.68012 6.72327 10.6262 8.19298 10.8749 9.70552C10.7221 9.48944 10.5258 9.30022 10.3174 9.12697Z" fill="#FECC2A"/>
<path d="M51.3164 15.2818V23.5177C51.3164 25.3863 52.8314 26.9014 54.6999 26.9014H68.955V31.6123L71.5139 27.1092C73.0858 26.9922 74.301 25.6829 74.301 24.1065V15.2818C74.301 13.4132 72.786 11.8975 70.9175 11.8975H54.6999C52.8314 11.8981 51.3164 13.4132 51.3164 15.2818Z" fill="#FED16C"/>
<path d="M62.5793 39.7719C62.2974 39.1211 44.1378 55.1626 40.5235 55.7073L29.9345 41.9161C29.9345 41.9161 27.7342 38.4282 23.0159 32.4573C19.9699 28.603 11.5645 29.4034 9.35466 34.0989C5.60102 42.0753 5.46997 52.6675 2.57227 69.6212L0.113115 84.0204C0.104165 84.0472 3.73699 83.5972 3.72804 83.624L29.4998 80.9199L30.1397 63.6893C35.2331 68.8522 36.8153 69.9319 39.4662 69.5209C46.1329 68.4884 69.4589 47.5047 69.4589 47.5047C69.4589 47.5047 62.8619 40.4227 62.5793 39.7719Z" fill="#49493D"/>
<path d="M66.3177 50.4429C66.2908 50.4755 65.7775 50.1054 65.0104 49.4303C64.2433 48.7565 63.2327 47.7651 62.2208 46.578C61.2095 45.389 60.3925 44.2326 59.8492 43.3683C59.3052 42.5034 59.022 41.9377 59.0584 41.9159C59.1006 41.8904 59.4548 42.4114 60.0448 43.2366C60.6342 44.0625 61.4728 45.1844 62.4745 46.3619C63.4769 47.5381 64.4504 48.545 65.1715 49.259C65.8919 49.9724 66.3503 50.4052 66.3177 50.4429Z" fill="#263238"/>
<path d="M39.495 61.173C39.4043 61.1571 39.5487 59.9201 39.8166 58.4115C40.085 56.9023 40.3753 55.6922 40.466 55.7082C40.5568 55.7241 40.413 56.9604 40.1445 58.4697C39.8767 59.9789 39.5858 61.189 39.495 61.173Z" fill="#263238"/>
<path d="M41.8071 60.6052C41.7182 60.6288 41.3539 59.5689 40.9934 58.2374C40.6328 56.9052 40.4123 55.8069 40.5012 55.7826C40.59 55.7583 40.9537 56.8182 41.3149 58.1504C41.6754 59.4813 41.8953 60.5809 41.8071 60.6052Z" fill="#263238"/>
<path opacity="0.2" d="M16.4534 45.5752L29.87 70.9438L30.173 63.4194L16.4534 45.5752Z" fill="black"/>
<path d="M15.5858 44.3403C15.6044 44.3269 15.8236 44.6005 16.2034 45.1062C16.6169 45.6611 17.1552 46.3828 17.8028 47.2516C19.1522 49.064 21.038 51.5514 23.1526 54.2741C25.2577 56.97 27.1614 59.4076 28.5888 61.2353C29.2491 62.0958 29.7976 62.8099 30.2189 63.359C30.5979 63.8653 30.7993 64.1517 30.7814 64.1664C30.7635 64.1805 30.5283 63.9216 30.1179 63.4402C29.6749 62.9083 29.0983 62.216 28.4047 61.3823C26.9702 59.6345 25.0077 57.2033 22.8893 54.4781C20.7734 51.7528 18.9144 49.2398 17.6123 47.3897C16.9602 46.4653 16.4431 45.7103 16.0972 45.1803C15.7501 44.6523 15.5667 44.3537 15.5858 44.3403Z" fill="#263238"/>
<path d="M16.0072 52.2702C15.9797 52.276 15.8954 51.9953 15.7694 51.4929C15.6429 50.9905 15.4748 50.2656 15.2785 49.3828L15.4748 49.4749C14.6917 49.9025 13.7987 50.3896 12.8391 50.9138L12.6602 51.0116L12.6039 50.8134C12.5048 50.465 12.4019 50.1019 12.2964 49.7318C12.1366 49.1603 11.9819 48.6061 11.8336 48.0756L12.0701 48.1715C11.11 48.7122 10.2323 49.2064 9.47161 49.6347L9.3118 49.7248L9.28687 49.5477C9.0772 48.082 8.97237 47.1659 9.02096 47.1583C9.06954 47.15 9.26258 48.0519 9.53234 49.5074L9.3476 49.4199C10.0974 48.9724 10.9623 48.4566 11.9091 47.8921L12.0874 47.7854L12.1449 47.988C12.2964 48.5179 12.4543 49.0709 12.6167 49.6417C12.7209 50.0124 12.8225 50.3762 12.9203 50.7246L12.6851 50.6242C13.6548 50.1192 14.5568 49.6494 15.3475 49.237L15.5106 49.152L15.5438 49.3291C15.71 50.2176 15.8398 50.9502 15.9209 51.4622C16.0015 51.9743 16.0341 52.2651 16.0072 52.2702Z" fill="#263238"/>
<path d="M19.1561 37.9318C19.1408 37.9548 18.8851 37.8116 18.4447 37.538C18.0049 37.2644 17.3797 36.8611 16.6254 36.3625L16.83 36.2928C16.5647 37.1449 16.261 38.1152 15.9356 39.1591L15.8749 39.3541L15.6966 39.2505C15.3833 39.069 15.0567 38.8798 14.7237 38.6867C14.2116 38.3869 13.7149 38.0961 13.2393 37.8174L13.4759 37.7221C13.1614 38.7788 12.8743 39.744 12.625 40.5808L12.5726 40.7566L12.4313 40.6466C11.2615 39.7389 10.5494 39.1534 10.5788 39.1137C10.6082 39.0741 11.3734 39.5881 12.579 40.4472L12.3853 40.513C12.6135 39.6705 12.8763 38.6982 13.1645 37.6345L13.2189 37.4332L13.4011 37.5386C13.8786 37.8148 14.3759 38.1025 14.8899 38.3991C15.2223 38.5934 15.5483 38.7839 15.8609 38.9667L15.6218 39.0581C15.9676 38.0206 16.2891 37.056 16.5717 36.2097L16.6299 36.0352L16.7769 36.1394C17.5146 36.6629 18.1167 37.0995 18.531 37.4108C18.9458 37.7221 19.1721 37.9088 19.1561 37.9318Z" fill="#263238"/>
<path d="M28.5722 42.8551C28.5517 42.8737 28.3338 42.6787 27.9643 42.3156C27.5948 41.9525 27.0732 41.4219 26.4461 40.7705L26.6615 40.7468C26.2159 41.5197 25.7077 42.4006 25.1612 43.348L25.0589 43.525L24.9074 43.3851C24.6415 43.1396 24.364 42.8832 24.0815 42.6218C23.6475 42.2171 23.2268 41.8246 22.8235 41.4487L23.0753 41.4072C22.5371 42.3693 22.0455 43.2483 21.6198 44.0102L21.5303 44.1701L21.4165 44.032C20.4742 42.8896 19.9072 42.1628 19.9449 42.1308C19.9827 42.0982 20.6168 42.7675 21.6051 43.8696L21.4018 43.8913C21.809 43.1191 22.2782 42.228 22.7921 41.2525L22.8893 41.0684L23.044 41.2116C23.4493 41.5856 23.8725 41.9749 24.3084 42.3776C24.5903 42.6397 24.8665 42.8967 25.1318 43.1441L24.8786 43.1811C25.4431 42.2446 25.9679 41.374 26.4288 40.6094L26.5234 40.4521L26.6442 40.5864C27.2496 41.2582 27.7418 41.8163 28.0774 42.2107C28.413 42.6052 28.5926 42.8366 28.5722 42.8551Z" fill="#E0E0E0"/>
<path d="M53.401 59.0043C53.3786 59.0209 53.1869 58.7997 52.866 58.3925C52.5444 57.986 52.0944 57.394 51.5536 56.6685L51.7703 56.6723C51.2308 57.3832 50.6165 58.1931 49.9555 59.0644L49.8321 59.2274L49.6992 59.0695C49.4659 58.7921 49.2229 58.5031 48.9756 58.2084C48.5959 57.7527 48.2277 57.3103 47.8748 56.8865L48.1299 56.8769C47.4753 57.7635 46.8769 58.5741 46.3585 59.2766L46.2498 59.4237L46.154 59.2722C45.3626 58.0205 44.8915 57.2285 44.9324 57.201C44.9733 57.1735 45.5186 57.9169 46.3611 59.1347L46.1565 59.1309C46.657 58.4162 47.2349 57.5909 47.8671 56.6883L47.9867 56.5176L48.1222 56.6787C48.477 57.1006 48.8477 57.5404 49.23 57.9943C49.4767 58.2896 49.719 58.5798 49.9504 58.8579L49.6947 58.863C50.3729 58.0045 51.0026 57.2067 51.5562 56.5068L51.67 56.3623L51.7729 56.51C52.2887 57.2528 52.7068 57.8677 52.9906 58.3018C53.2744 58.7358 53.4234 58.9877 53.401 59.0043Z" fill="#263238"/>
<path d="M38.0305 57.7065C38.0126 57.7276 37.7729 57.5594 37.3631 57.2417C36.9534 56.9247 36.3736 56.4587 35.6742 55.8846L35.8852 55.8361C35.533 56.6556 35.1315 57.5901 34.7 58.595L34.6195 58.7829L34.4526 58.6621C34.1599 58.4493 33.8536 58.2275 33.5423 58.0012C33.0642 57.6502 32.6001 57.3095 32.1558 56.9835L32.4013 56.9132C31.9794 57.9315 31.5946 58.8622 31.2602 59.6689L31.1899 59.8383L31.0601 59.7143C29.9907 58.6903 29.3425 58.035 29.3757 57.998C29.409 57.9615 30.1173 58.5522 31.2283 59.5309L31.0288 59.5763C31.3427 58.7619 31.7045 57.8215 32.1008 56.793L32.1756 56.5987L32.3463 56.722C32.7925 57.0455 33.2585 57.3837 33.7386 57.732C34.0493 57.9596 34.3535 58.1827 34.6457 58.3969L34.3983 58.4633C34.8496 57.4668 35.2689 56.5405 35.6371 55.728L35.7132 55.5605L35.8487 55.6794C36.5289 56.2759 37.0825 56.7725 37.4628 57.1248C37.8432 57.477 38.0484 57.6854 38.0305 57.7065Z" fill="#E0E0E0"/>
<path d="M60.0313 54.1054C60.0038 54.1085 59.9456 53.8215 59.867 53.3095C59.7877 52.7975 59.6874 52.0598 59.5742 51.1629L59.7609 51.2729C58.9414 51.6257 58.0074 52.0284 57.0032 52.4606L56.8153 52.5411L56.7776 52.3385C56.7111 51.9824 56.6427 51.611 56.5717 51.2326C56.4662 50.649 56.3633 50.0826 56.2655 49.5405L56.4918 49.6581C55.4856 50.1075 54.5658 50.5179 53.7687 50.874L53.6012 50.9488L53.5922 50.7698C53.52 49.2912 53.5008 48.3694 53.55 48.3662C53.5993 48.3624 53.7073 49.2784 53.8409 50.7525L53.6651 50.6483C54.4526 50.2731 55.3623 49.839 56.3569 49.3654L56.5449 49.2759L56.5839 49.483C56.6855 50.0251 56.791 50.5902 56.9003 51.1738C56.9693 51.5529 57.0371 51.9243 57.1016 52.2803L56.8766 52.1589C57.8892 51.7459 58.8308 51.3617 59.6573 51.0248L59.8274 50.9558L59.844 51.1354C59.9271 52.0361 59.9884 52.777 60.021 53.2942C60.0536 53.81 60.0588 54.1022 60.0313 54.1054Z" fill="#E0E0E0"/>
<path d="M29.377 47.2808C29.3898 47.3058 29.1424 47.4617 28.6917 47.7187C28.2417 47.975 27.589 48.3324 26.7912 48.7581L26.8276 48.5446C27.4496 49.1845 28.1586 49.9132 28.9212 50.6969L29.0638 50.8433L28.8879 50.9507C28.5792 51.1393 28.257 51.3368 27.9284 51.5369C27.4209 51.8437 26.9286 52.1416 26.4569 52.4274L26.4856 52.1742C27.2642 52.9541 27.9764 53.6669 28.5926 54.2844L28.7224 54.4141L28.5581 54.4864C27.2022 55.0815 26.3488 55.4286 26.3277 55.3839C26.3073 55.3391 27.1236 54.9115 28.4539 54.2607L28.4194 54.4627C27.7878 53.8605 27.0584 53.1657 26.2606 52.4056L26.1097 52.2618L26.2894 52.1519C26.7592 51.8636 27.2502 51.5637 27.7558 51.2531C28.085 51.0536 28.4085 50.858 28.7179 50.6701L28.6847 50.9239C27.9374 50.1248 27.2431 49.3827 26.6333 48.7306L26.508 48.5964L26.6697 48.5171C27.4816 48.1182 28.1522 47.7967 28.6233 47.5813C29.0932 47.3658 29.3648 47.2559 29.377 47.2808Z" fill="#263238"/>
<path d="M41.1116 61.1752C41.1244 61.2001 40.8764 61.3561 40.4263 61.6125C39.9763 61.8688 39.3236 62.2261 38.5258 62.6519L38.5616 62.4384C39.1836 63.0782 39.8932 63.8076 40.6552 64.5907L40.7977 64.7371L40.6219 64.8445C40.3132 65.0337 39.991 65.2306 39.6624 65.4313C39.1549 65.7381 38.662 66.036 38.1909 66.3218L38.2196 66.0686C38.9989 66.8485 39.7104 67.5613 40.3272 68.1788L40.457 68.3086L40.2927 68.3808C38.9369 68.9759 38.0828 69.323 38.0624 69.2777C38.0413 69.2335 38.8582 68.8052 40.1879 68.1545L40.1534 68.3559C39.5212 67.7543 38.7924 67.0595 37.994 66.2988L37.8438 66.1549L38.0234 66.045C38.4932 65.7567 38.9842 65.4562 39.4898 65.1462C39.819 64.9474 40.1419 64.7512 40.4519 64.5632L40.4187 64.8176C39.6714 64.0186 38.9765 63.2764 38.3673 62.6244L38.2414 62.4901L38.4031 62.4109C39.2149 62.012 39.8855 61.6904 40.3566 61.4744C40.8271 61.2602 41.0988 61.1509 41.1116 61.1752Z" fill="#E0E0E0"/>
<path d="M17.8106 60.9857C17.7831 60.9915 17.6994 60.7102 17.5728 60.2084C17.4469 59.706 17.2781 58.9811 17.0818 58.0983L17.2774 58.1903C16.4944 58.618 15.602 59.1051 14.6418 59.6293L14.4629 59.7271L14.4066 59.5289C14.3075 59.1805 14.204 58.8174 14.0985 58.4473C13.9387 57.8758 13.7846 57.3216 13.6363 56.791L13.8728 56.8869C12.9127 57.4277 12.035 57.9219 11.2743 58.3501L11.1145 58.4403L11.0889 58.2626C10.8799 56.7968 10.7744 55.8808 10.823 55.8731C10.8722 55.8648 11.0646 56.7667 11.3344 58.2223L11.1496 58.1347C11.8995 57.6873 12.7644 57.1714 13.7111 56.6069L13.8901 56.5002L13.9476 56.7022C14.0985 57.2328 14.2564 57.7857 14.4194 58.3559C14.5229 58.7267 14.6252 59.0904 14.723 59.4388L14.4878 59.3384C15.4575 58.8328 16.3595 58.3636 17.1509 57.9513L17.3139 57.8662L17.3471 58.0433C17.5133 58.9325 17.6431 59.6651 17.7243 60.1764C17.8048 60.6898 17.8381 60.9806 17.8106 60.9857Z" fill="#E0E0E0"/>
<path d="M28.4872 67.022C28.4603 67.0277 28.3759 66.7471 28.2494 66.2446C28.1234 65.7422 27.9547 65.0173 27.7584 64.1345L27.9547 64.2272C27.1716 64.6548 26.2792 65.1419 25.3184 65.6661L25.1395 65.7633L25.0832 65.5651C24.9841 65.2167 24.8812 64.8536 24.7757 64.4835C24.6166 63.9114 24.4619 63.3578 24.3136 62.8266L24.5501 62.9225C23.5893 63.4633 22.7122 63.9574 21.9515 64.3857L21.7917 64.4758L21.7668 64.2988C21.5571 62.833 21.4523 61.9169 21.5015 61.9092C21.5501 61.9009 21.7425 62.8029 22.0123 64.2585L21.8269 64.1709C22.5767 63.7241 23.4416 63.2075 24.3884 62.6431L24.5673 62.5363L24.6249 62.7383C24.7757 63.2689 24.9336 63.8219 25.0966 64.3927C25.2008 64.7635 25.3025 65.1266 25.4003 65.4756L25.165 65.3752C26.1348 64.8702 27.0367 64.4004 27.8281 63.9881L27.9911 63.9031L28.0244 64.0795C28.1906 64.9687 28.3203 65.7013 28.4015 66.2133C28.4821 66.7253 28.5147 67.0162 28.4872 67.022Z" fill="#263238"/>
<path d="M12.8584 80.3355C12.8309 80.3413 12.7472 80.06 12.6206 79.5582C12.494 79.0558 12.3253 78.3309 12.1297 77.4481L12.3259 77.5396C11.5428 77.9672 10.6504 78.4549 9.69029 78.9784L9.5113 79.0762L9.45504 78.8774C9.35596 78.5291 9.2524 78.166 9.14757 77.7959C8.98776 77.2244 8.83306 76.6702 8.68539 76.139L8.92191 76.2349C7.96112 76.7757 7.08343 77.2698 6.32336 77.6981L6.16355 77.7882L6.13797 77.6111C5.92894 76.1454 5.82346 75.2294 5.87268 75.2217C5.9219 75.2134 6.11433 76.1147 6.38409 77.5715L6.1987 77.4833C6.94854 77.0365 7.81344 76.5206 8.76017 75.9556L8.93916 75.8488L8.99671 76.0514C9.14757 76.5814 9.30545 77.1343 9.46846 77.7051C9.57202 78.0759 9.6743 78.4389 9.77211 78.788L9.53688 78.6876C10.5066 78.1826 11.4086 77.7128 12.2 77.3005L12.363 77.2155L12.3962 77.3925C12.5624 78.2817 12.6922 79.0136 12.7734 79.5256C12.8527 80.0389 12.8859 80.3298 12.8584 80.3355Z" fill="#E0E0E0"/>
<path d="M13.1601 66.3668C13.1422 66.3879 12.9012 66.2217 12.4882 65.9084C12.0753 65.5958 11.491 65.1356 10.7859 64.5692L10.9962 64.5187C10.6523 65.3421 10.2611 66.2805 9.83983 67.2899L9.76119 67.4778L9.59307 67.3583C9.29773 67.1486 8.99026 66.9294 8.67639 66.7062C8.1944 66.3598 7.72775 66.0248 7.27964 65.7032L7.52383 65.6304C7.11279 66.6532 6.73756 67.5872 6.41154 68.3971L6.34315 68.5678L6.21209 68.445C5.1324 67.4325 4.47718 66.7836 4.51042 66.7472C4.54366 66.7101 5.2577 67.2931 6.3783 68.2603L6.17885 68.3076C6.48441 67.49 6.83665 66.5464 7.22211 65.514L7.29497 65.3184L7.46694 65.4405C7.91697 65.7595 8.38618 66.0926 8.86945 66.4358C9.18268 66.6602 9.48951 66.8801 9.78357 67.0911L9.53745 67.1595C9.97789 66.159 10.3883 65.2283 10.7475 64.4113L10.8217 64.2432L10.9585 64.3608C11.6444 64.9502 12.2038 65.4405 12.5867 65.7889C12.9702 66.1392 13.1773 66.3451 13.1601 66.3668Z" fill="#263238"/>
<path d="M18.7375 66.744C18.7515 66.7676 18.5163 66.9415 18.0848 67.2285C17.6539 67.5162 17.0275 67.9183 16.2616 68.399L16.2827 68.1836C16.9482 68.778 17.707 69.455 18.5227 70.1837L18.6748 70.3199L18.5067 70.4394C18.212 70.6497 17.9045 70.869 17.5906 71.0921C17.1061 71.4341 16.6356 71.7658 16.1856 72.0835L16.1964 71.8291C17.0281 72.5527 17.7882 73.2131 18.4472 73.7858L18.5853 73.9067L18.4261 73.9897C17.1157 74.6788 16.2885 75.0854 16.2648 75.0419C16.2405 74.9985 17.0255 74.5146 18.306 73.7718L18.2855 73.9757C17.613 73.4196 16.8363 72.7778 15.9868 72.0752L15.8263 71.9423L15.9976 71.8202C16.4464 71.4999 16.9143 71.1662 17.3969 70.821C17.7115 70.5986 18.0196 70.3806 18.3156 70.1716L18.3002 70.4273C17.4986 69.6832 16.7539 68.9915 16.0999 68.3843L15.965 68.2596L16.1203 68.1688C16.9022 67.7137 17.5485 67.3462 18.0036 67.0975C18.46 66.8482 18.7228 66.7203 18.7375 66.744Z" fill="#263238"/>
<path d="M24.8915 71.1035C24.9132 71.1208 24.7502 71.3643 24.4428 71.7824C24.1359 72.1992 23.684 72.7905 23.1278 73.5033L23.0742 73.2936C23.902 73.626 24.8461 74.0038 25.8612 74.411L26.0505 74.4871L25.9335 74.6571C25.7276 74.955 25.5135 75.2657 25.2942 75.5827C24.9554 76.0692 24.6262 76.541 24.3111 76.9936L24.2344 76.75C25.2629 77.1463 26.2026 77.5094 27.017 77.8233L27.1883 77.8898L27.0675 78.0221C26.0703 79.1165 25.4304 79.78 25.3933 79.7474C25.3562 79.7148 25.929 78.9925 26.8802 77.8585L26.9307 78.0573C26.1086 77.7632 25.1606 77.4244 24.1225 77.0536L23.9263 76.984L24.0458 76.8107C24.3584 76.3569 24.685 75.8832 25.0213 75.3942C25.2412 75.0784 25.4566 74.7677 25.6637 74.4711L25.7359 74.7166C24.7291 74.2895 23.7927 73.8932 22.9712 73.5448L22.8018 73.4732L22.9175 73.3351C23.4973 72.6409 23.9799 72.0745 24.3232 71.6865C24.6665 71.2966 24.8698 71.0863 24.8915 71.1035Z" fill="#E0E0E0"/>
<path d="M21.3865 81.5215C21.3923 81.5196 21.4172 81.5912 21.4613 81.7325C21.5073 81.8904 21.568 82.0982 21.6454 82.3615C21.8014 82.9171 22.0257 83.7386 22.2891 84.8049C22.5448 85.8731 22.8753 87.1779 23.0984 88.7352C23.2384 89.5055 23.163 90.4165 22.7698 91.2322C22.3946 92.0556 21.8416 92.8394 21.134 93.5547L21.1679 93.4467C22.8427 101.396 25.19 112.538 27.7872 124.869C30.3122 136.994 32.5675 147.976 34.1624 155.933C34.9595 159.911 35.5917 163.134 36.0098 165.364C36.2188 166.479 36.3741 167.347 36.47 167.936C36.5672 168.525 36.5991 168.843 36.5729 168.842C36.5729 168.842 36.5224 168.535 36.4042 167.949C36.2808 167.344 36.1063 166.486 35.8826 165.389C35.4178 163.148 34.7524 159.938 33.9316 155.98C32.2728 148.02 29.9868 137.053 27.4612 124.936C24.9023 112.597 22.5902 101.448 20.941 93.4933L20.9282 93.4313L20.9748 93.3853C22.3326 92.0262 23.2473 90.3078 22.9169 88.7569C22.7142 87.2156 22.4016 85.9032 22.1657 84.8336C21.9158 83.7814 21.7202 82.9574 21.5821 82.3775C21.5182 82.1103 21.4677 81.9 21.4293 81.7402C21.3961 81.5976 21.3814 81.5228 21.3865 81.5215Z" fill="#455A64"/>
<path d="M7.93045 83.0569C7.94963 83.0498 8.02953 83.2007 8.12797 83.4916C8.22769 83.7812 8.32933 84.2184 8.36769 84.7694C8.45398 85.8568 8.18741 87.471 7.13202 88.83C6.06895 90.1846 4.56865 90.8347 3.4928 91.015C2.9488 91.1115 2.50005 91.1198 2.19449 91.0936C1.88893 91.0681 1.72336 91.0272 1.72592 91.0067C1.72784 90.944 2.40609 91.0297 3.44487 90.7842C4.46958 90.5528 5.87078 89.8995 6.86992 88.6248C7.86331 87.3457 8.15673 85.8281 8.13244 84.7771C8.11773 83.7115 7.86972 83.0741 7.93045 83.0569Z" fill="#455A64"/>
<path d="M18.6365 83.7378C18.6225 83.7243 18.6596 83.6451 18.7887 83.5633C18.9146 83.4814 19.1447 83.4143 19.4196 83.4782C19.6849 83.5281 20.0269 83.7838 20.071 84.1891C20.1215 84.5688 19.9348 85.0328 19.4938 85.2233C19.0463 85.394 18.5912 85.1965 18.3553 84.9005C18.0989 84.5911 18.1271 84.1846 18.2472 83.9442C18.5061 83.4258 18.93 83.4156 18.9153 83.4559C18.9402 83.5019 18.6103 83.6029 18.4665 84.0305C18.3981 84.2351 18.4077 84.5061 18.5905 84.7036C18.7625 84.9024 19.0981 85.0239 19.3685 84.9139C19.637 84.8059 19.791 84.4806 19.7661 84.2229C19.7514 83.9564 19.5539 83.7748 19.3525 83.7033C18.9274 83.5524 18.6602 83.7825 18.6365 83.7378Z" fill="#455A64"/>
<path d="M32.1468 85.1615C32.1641 85.1909 31.7243 85.4709 30.9074 85.5911C30.1058 85.7144 28.8963 85.609 27.8192 84.9147C26.7447 84.2154 26.1534 83.1555 25.938 82.3731C25.7123 81.5791 25.789 81.0626 25.8216 81.0664C25.8791 81.0626 25.89 81.565 26.161 82.2995C26.4219 83.0264 27.0068 83.9904 27.9995 84.6347C28.9941 85.2759 30.1128 85.4159 30.8824 85.3565C31.6642 85.3028 32.127 85.1078 32.1468 85.1615Z" fill="#455A64"/>
<path d="M39.1671 182.9C39.1677 182.923 38.9408 182.95 38.5291 182.979C38.0433 183.005 37.4635 183.038 36.7884 183.076C35.2319 183.149 33.2445 183.244 31.0468 183.349C28.8484 183.462 26.8616 183.565 25.3051 183.645C24.6294 183.675 24.0496 183.7 23.5631 183.721C23.1508 183.733 22.9226 183.729 22.9207 183.706C22.9187 183.684 23.1444 183.643 23.5529 183.592C23.962 183.54 24.5546 183.478 25.2878 183.411C26.7542 183.276 28.7845 183.128 31.0295 183.016C33.2739 182.905 35.3086 182.852 36.7814 182.841C37.5178 182.835 38.1136 182.838 38.5259 182.85C38.9389 182.86 39.1671 182.876 39.1671 182.9Z" fill="#455A64"/>
<path d="M9.98491 90.3526C10.0744 90.3315 15.1085 111.084 21.2274 136.7C27.3482 162.326 32.2365 183.11 32.147 183.131C32.0575 183.152 27.0247 162.403 20.9032 136.778C14.7844 111.162 9.89542 90.3737 9.98491 90.3526Z" fill="#455A64"/>
<path d="M26.3425 91.1535C26.347 91.1497 26.3867 91.1957 26.4595 91.2891C26.542 91.399 26.6455 91.5365 26.7747 91.7072C27.0604 92.099 27.4567 92.6431 27.9598 93.3335C28.9928 94.7751 30.4612 96.8253 32.2702 99.3498C34.0844 101.903 36.238 104.934 38.6275 108.297C39.8203 109.986 41.0713 111.757 42.3683 113.593C43.627 115.439 44.9189 117.501 45.2679 119.931C45.6138 122.368 44.8965 124.706 44.1563 126.811C43.3892 128.929 42.6221 130.957 41.8761 132.885C40.3835 136.74 38.9605 140.18 37.73 143.053C36.4969 145.925 35.4556 148.231 34.7217 149.817C34.3574 150.59 34.0697 151.198 33.8632 151.637C33.768 151.829 33.6919 151.984 33.6312 152.106C33.5768 152.211 33.5468 152.264 33.5417 152.261C33.5366 152.259 33.5557 152.201 33.5998 152.092C33.6523 151.965 33.7188 151.807 33.8019 151.609C33.9949 151.164 34.2634 150.547 34.6035 149.763C35.3009 148.161 36.309 145.843 37.5133 142.96C38.7151 140.077 40.115 136.631 41.5897 132.773C42.3268 130.845 43.0888 128.814 43.8488 126.701C44.5827 124.605 45.273 122.317 44.9381 119.978C44.605 117.64 43.3489 115.614 42.0998 113.777C40.8092 111.938 39.564 110.165 38.3775 108.473C36.0092 105.094 33.876 102.049 32.0785 99.484C30.3059 96.9339 28.8669 94.8627 27.8544 93.4064C27.373 92.7006 26.9933 92.1444 26.7197 91.7442C26.6014 91.5652 26.5068 91.4214 26.4314 91.307C26.3681 91.2092 26.3381 91.1567 26.3425 91.1535Z" fill="#455A64"/>
<path d="M58.8283 40.423L73.1051 30.0059L73.8076 31.1245L59.6235 41.6708L58.8283 40.423Z" fill="#263238"/>
<path d="M62.3568 40.1029C62.3568 40.1029 64.272 35.1184 64.7035 34.0565C65.135 32.9947 65.8637 31.1446 66.1367 31.1075C66.409 31.0704 67.4068 31.2271 66.1034 34.3973C64.8 37.5681 67.6459 35.6298 67.6459 35.6298L70.3953 33.6621C70.3953 33.6621 72.57 40.154 71.3312 42.109C69.9945 44.2186 68.0742 46.2381 68.0742 46.2381L62.3568 40.1029Z" fill="#FFBE9D"/>
</svg>
