<svg width="20" height="20" viewBox="0 0 20 20" fill="none" xmlns="http://www.w3.org/2000/svg">
<g clip-path="url(#clip0_173_11761)">
<path d="M19.1666 18.9167L17.5 6.58333C17.4689 6.38139 17.3689 6.19641 17.2171 6.05973C17.0652 5.92304 16.8707 5.84306 16.6666 5.83333H14.1666V4.16667C14.1666 3.0616 13.7277 2.00179 12.9463 1.22039C12.1649 0.438987 11.105 0 9.99998 0C8.89491 0 7.8351 0.438987 7.0537 1.22039C6.2723 2.00179 5.83331 3.0616 5.83331 4.16667V5.83333H3.33331C3.12922 5.84306 2.93477 5.92304 2.7829 6.05973C2.63103 6.19641 2.53108 6.38139 2.49998 6.58333L0.833313 19.0833C0.838957 19.3151 0.895876 19.5428 0.99998 19.75C1.18116 19.917 1.42034 20.0067 1.66665 20H18.3333C18.4445 20.0067 18.5558 19.9897 18.66 19.9502C18.7641 19.9107 18.8587 19.8495 18.9374 19.7708C19.0162 19.692 19.0773 19.5974 19.1168 19.4933C19.1564 19.3892 19.1733 19.2778 19.1666 19.1667V18.9167ZM7.49998 4.16667C7.49998 3.50363 7.76337 2.86774 8.23221 2.3989C8.70105 1.93006 9.33694 1.66667 9.99998 1.66667C10.663 1.66667 11.2989 1.93006 11.7677 2.3989C12.2366 2.86774 12.5 3.50363 12.5 4.16667V5.83333H7.49998V4.16667Z" fill="#959595"/>
</g>
<defs>
<clipPath id="clip0_173_11761">
<rect width="20" height="20" fill="white"/>
</clipPath>
</defs>
</svg>
