<svg width="14" height="14" viewBox="0 0 14 14" fill="none" xmlns="http://www.w3.org/2000/svg">
<g clip-path="url(#clip0_470_7039)">
<path d="M5.55555 6.66667C4.02166 6.66667 2.77777 4.86722 2.77777 3.33333V2.77778C2.77777 1.24389 4.02166 0 5.55555 0C7.08944 0 8.33333 1.24389 8.33333 2.77778V3.33333C8.33333 4.86722 7.08944 6.66667 5.55555 6.66667Z" fill="white"/>
<path d="M7.22221 12.2206C7.22221 11.7762 7.39554 11.3584 7.70943 11.0428L9.9861 8.76672C9.8261 8.62617 9.6411 8.51172 9.42999 8.44061C8.5161 8.13228 7.12443 7.77783 5.55554 7.77783C3.98665 7.77783 2.59499 8.13228 1.6811 8.44061C1.00554 8.66894 0.555542 9.30505 0.555542 10.0178V12.2223H7.22221V12.2206Z" fill="white"/>
<path d="M11.7128 8.61092L8.49609 11.8276C8.39165 11.932 8.33331 12.0731 8.33331 12.2204V13.3315H9.44442C9.59165 13.3315 9.73276 13.2731 9.8372 13.1687L13.0539 9.95204C13.4244 9.58148 13.4244 8.98148 13.0539 8.61092C12.6833 8.24037 12.0833 8.24037 11.7128 8.61092Z" fill="white"/>
</g>
<defs>
<clipPath id="clip0_470_7039">
<rect width="13.3333" height="13.3333" fill="white"/>
</clipPath>
</defs>
</svg>
