<svg width="16" height="16" viewBox="0 0 16 16" fill="none" xmlns="http://www.w3.org/2000/svg">
<path d="M3.99999 0.666992H1.33333V2.00033H3.99999V0.666992Z" fill="#BDBDBD"/>
<path d="M14.6667 2.66699H11.3333L10 0.666992H6L4.66667 2.66699H1.33333C0.979711 2.66699 0.640573 2.80747 0.390524 3.05752C0.140476 3.30756 0 3.6467 0 4.00033L0 13.3337C0 13.6873 0.140476 14.0264 0.390524 14.2765C0.640573 14.5265 0.979711 14.667 1.33333 14.667H14.6667C15.0203 14.667 15.3594 14.5265 15.6095 14.2765C15.8595 14.0264 16 13.6873 16 13.3337V4.00033C16 3.6467 15.8595 3.30756 15.6095 3.05752C15.3594 2.80747 15.0203 2.66699 14.6667 2.66699V2.66699ZM2.66667 6.00033C2.53481 6.00033 2.40592 5.96123 2.29629 5.88797C2.18665 5.81472 2.10121 5.7106 2.05075 5.58878C2.00029 5.46696 1.98709 5.33292 2.01281 5.2036C2.03853 5.07428 2.10203 4.95549 2.19526 4.86225C2.2885 4.76902 2.40729 4.70553 2.53661 4.6798C2.66593 4.65408 2.79997 4.66728 2.92179 4.71774C3.04361 4.7682 3.14773 4.85365 3.22098 4.96328C3.29423 5.07291 3.33333 5.2018 3.33333 5.33366C3.33333 5.51047 3.2631 5.68004 3.13807 5.80506C3.01305 5.93009 2.84348 6.00033 2.66667 6.00033ZM8 12.0003C7.34073 12.0003 6.69626 11.8048 6.1481 11.4386C5.59994 11.0723 5.17269 10.5517 4.9204 9.9426C4.66811 9.33352 4.6021 8.66329 4.73072 8.01669C4.85933 7.37009 5.1768 6.77614 5.64298 6.30997C6.10915 5.84379 6.7031 5.52633 7.3497 5.39771C7.9963 5.26909 8.66652 5.3351 9.27561 5.58739C9.8847 5.83969 10.4053 6.26693 10.7716 6.81509C11.1378 7.36326 11.3333 8.00772 11.3333 8.66699C11.3333 9.55105 10.9821 10.3989 10.357 11.024C9.7319 11.6491 8.88406 12.0003 8 12.0003V12.0003Z" fill="#BDBDBD"/>
</svg>
