<svg width="25" height="26" viewBox="0 0 25 26" fill="none" xmlns="http://www.w3.org/2000/svg">
<path d="M13.1367 0.307882L15.1951 1.78661C15.4735 1.98667 15.809 2.09435 16.1533 2.09435H18.6976C19.4037 2.09435 20.0298 2.54408 20.248 3.20821L21.0343 5.60074C21.1406 5.92447 21.3479 6.20658 21.6266 6.40664L23.6849 7.88537C24.2563 8.29584 24.4955 9.02345 24.2772 9.68758L23.4909 12.0801C23.3846 12.4038 23.3846 12.7525 23.4909 13.0762L24.2772 15.4687C24.4955 16.1329 24.2563 16.8605 23.6849 17.2709L21.6266 18.7497C21.3482 18.9497 21.1409 19.2318 21.0343 19.5556L20.248 21.9481C20.0298 22.6122 19.404 23.062 18.6976 23.062H16.1533C15.809 23.062 15.4735 23.1696 15.1951 23.3697L13.1367 24.8484C12.5654 25.2589 11.7917 25.2589 11.2204 24.8484L9.16203 23.3697C8.88361 23.1696 8.54812 23.062 8.20384 23.062H5.65952C4.95336 23.062 4.32733 22.6122 4.10906 21.9481L3.32277 19.5556C3.21649 19.2318 3.00916 18.9497 2.7305 18.7497L0.672169 17.2709C0.100821 16.8605 -0.138371 16.1329 0.0798974 15.4687L0.866185 13.0762C0.972466 12.7525 0.972466 12.4038 0.866185 12.0801L0.0798974 9.68735C-0.138371 9.02321 0.100821 8.2956 0.672169 7.88513L2.7305 6.4064C3.00892 6.20634 3.21625 5.92423 3.32277 5.60051L4.10906 3.20798C4.32733 2.54384 4.95312 2.09411 5.65952 2.09411H8.20384C8.54812 2.09411 8.88361 1.98644 9.16203 1.78638L11.2204 0.307647C11.7917 -0.102588 12.5654 -0.102588 13.1367 0.307882Z" fill="#FED16C"/>
</svg>
