<svg width="89" height="71" viewBox="0 0 89 71" fill="none" xmlns="http://www.w3.org/2000/svg">
<path d="M51.7984 44.9635C56.9447 44.0217 60.4395 38.554 59.6043 32.751C58.7692 26.948 53.9202 23.0072 48.774 23.949C43.6277 24.8908 40.1329 30.3586 40.9681 36.1616C41.8032 41.9646 46.6522 45.9054 51.7984 44.9635Z" fill="#F0F0F0"/>
<path d="M51.1705 41.0372C52.6958 39.4496 57.211 39.3703 59.3466 41.7515C61.482 44.1327 64.4107 48.0218 65.448 48.4981C66.4854 48.9743 69.9429 47.2282 72.7292 46.8312C75.5155 46.4343 76.6138 50.1649 77.6511 52.2286C78.6883 54.2924 79.7866 54.3717 80.2747 57.0703C80.7629 59.7688 81.6781 61.7533 83.0814 63.9756C84.4848 66.198 88.5727 69.2056 89 70.8965C86.8949 70.8965 43.9707 70.8965 43.9707 70.8965L43.4825 47.9425C44.7027 46.3552 49.645 42.6247 51.1705 41.0372Z" fill="#EBEBEB"/>
<path d="M10.5547 49.9576C11.6617 48.6968 15.2405 47.8642 17.2913 42.8726C19.342 37.8806 26.0777 27.4944 28.6387 26.0556C31.1997 24.6167 34.0517 18.3159 35.0786 17.4304C36.1055 16.5447 37.4266 18.9601 37.791 20.4093C38.7178 24.0962 43.1385 34.5798 45.7806 36.5925C48.4228 38.6053 48.5993 42.953 49.3338 45.4491C50.0683 47.9449 54.574 49.3941 55.5976 52.6148C56.6215 55.8353 68.016 70.9876 68.016 70.9876H0C3.38885 68.2118 6.28997 54.8153 10.5547 49.9576Z" fill="#F5F5F5"/>
<path d="M35.1911 20.8926C35.1911 22.1317 34.858 27.8705 33.7155 29.2661C32.5732 30.6617 33.5792 27.5485 31.6482 29.2661C29.7172 30.9837 28.8604 34.5264 25.6237 35.7609C22.3869 36.9954 22.6725 33.8822 24.2432 32.111C25.8139 30.3397 27.6764 27.2265 29.149 26.314C30.6214 25.4015 35.1911 17.0818 35.1911 20.8926Z" fill="#F0F0F0"/>
<path d="M27.1942 46.55C28.7343 44.1476 21.8154 46.9258 19.721 46.0669C17.6266 45.208 19.2451 44.0273 16.1987 47.033C13.1524 50.0388 7.86871 52.9372 10.7246 53.9572C13.5808 54.977 24.3383 51.0049 27.1942 46.55Z" fill="#F0F0F0"/>
<path d="M66.6427 47.7438C65.4594 46.1509 64.108 43.1546 62.3587 42.6312C60.6093 42.1078 59.4312 41.7858 59.7883 42.9935C60.1453 44.2012 68.4843 50.2232 66.6427 47.7438Z" fill="#F0F0F0"/>
<path d="M81.931 5.06C81.931 5.06 46.3738 5.06 41.233 5.06C36.0922 5.06 50.5149 3.8523 58.4403 1.83955C66.3657 -0.173205 67.0083 -0.817393 69.65 1.35647C72.2918 3.53033 80.1458 -1.30047 83.9301 1.59801C87.7144 4.49649 88.7138 5.06 81.931 5.06Z" fill="#FAFAFA"/>
<path d="M25.521 12.8273C30.598 12.8273 40.2858 12.3599 36.4004 10.4322C32.5151 8.50449 29.6397 12.3599 27.943 10.7242C26.2463 9.08853 23.5005 8.85472 21.2212 10.4322C18.9419 12.0097 19.6183 9.55518 16.8695 10.4322C13.0216 11.6599 0.669562 12.8273 11.1773 12.8273C15.9369 12.8273 21.7967 12.8273 25.521 12.8273Z" fill="#FAFAFA"/>
<path d="M68.3795 33.6004C72.2558 33.6004 79.6528 33.2437 76.6861 31.7717C73.7195 30.2997 71.5241 33.2437 70.2286 31.9946C68.9332 30.7456 66.8368 30.5674 65.0962 31.7717C63.3558 32.976 63.8725 31.1019 61.7735 31.7717C58.8356 32.7091 49.4044 33.6004 57.4274 33.6004C61.0617 33.6004 65.536 33.6004 68.3795 33.6004Z" fill="#FAFAFA"/>
</svg>
