<svg width="99" height="34" viewBox="0 0 99 34" fill="none" xmlns="http://www.w3.org/2000/svg">
<path d="M80.3775 27.6923C80.6127 27.8086 99.4947 31.5086 98.7986 29.0015C98.1031 26.4937 80.5456 22.4287 80.5456 22.4287L80.3775 27.6923Z" fill="#FED16C"/>
<path d="M88.9631 26.0246C89.0533 26.0137 89.1837 26.4632 89.1786 27.0321C89.1754 27.6024 89.0386 28.0499 88.9491 28.0371C88.8564 28.0244 88.843 27.5749 88.8455 27.0302C88.8506 26.4855 88.8704 26.0361 88.9631 26.0246Z" fill="#263238"/>
<path d="M87.957 25.6791C88.0446 25.6631 88.205 26.188 88.1456 26.851C88.0899 27.5146 87.8412 28.0043 87.7581 27.973C87.668 27.943 87.7626 27.4404 87.8138 26.8222C87.8694 26.2052 87.863 25.6938 87.957 25.6791Z" fill="#263238"/>
<path d="M86.7379 25.5763C86.8281 25.5667 86.9553 26.0762 86.9668 26.7161C86.9796 27.3567 86.8722 27.8706 86.7808 27.8642C86.6881 27.8585 86.6465 27.3471 86.6337 26.7225C86.6228 26.098 86.6452 25.5859 86.7379 25.5763Z" fill="#263238"/>
<path d="M84.4149 23.7297C84.4175 23.7182 84.5191 23.731 84.7102 23.7655C84.902 23.7994 85.1826 23.8563 85.5432 23.9355C86.2636 24.0934 87.303 24.3415 88.5764 24.6898C89.8491 25.0382 91.3571 25.4863 93.0102 26.0463C93.8355 26.3308 94.7048 26.6172 95.5876 26.9943C96.464 27.3734 97.3634 27.856 98.1075 28.5816C98.1957 28.6717 98.3057 28.7542 98.3837 28.9242C98.4764 29.0974 98.3818 29.3653 98.2264 29.4516C97.9349 29.6382 97.662 29.6018 97.4267 29.6286C96.9351 29.6676 96.45 29.683 95.9731 29.697C95.0193 29.7169 94.1001 29.6836 93.2269 29.6299C91.4805 29.5193 89.9207 29.2988 88.6167 29.0955C87.3132 28.8871 86.2649 28.6864 85.5419 28.5426C85.2133 28.4729 84.9391 28.4147 84.7109 28.3668C84.5217 28.3233 84.4232 28.2945 84.4251 28.283C84.429 28.26 84.8343 28.3092 85.5636 28.4147C86.3467 28.5285 87.3887 28.6794 88.6518 28.8628C89.9559 29.0361 91.5118 29.231 93.2461 29.3244C94.1122 29.3691 95.0238 29.3959 95.9667 29.371C96.4378 29.3563 96.9179 29.3384 97.4031 29.2994C97.6466 29.2815 97.901 29.2803 98.034 29.1818C98.0928 29.1358 98.0954 29.1115 98.0775 29.0533C98.0538 28.992 97.9669 28.9063 97.8767 28.8213C97.1761 28.1373 96.3151 27.6687 95.4585 27.2941C94.5987 26.9214 93.7306 26.6287 92.9117 26.3365C91.2689 25.7631 89.7737 25.2926 88.5125 24.9161C87.2506 24.5403 86.2233 24.2584 85.5131 24.0615C84.8017 23.8646 84.4092 23.7534 84.4149 23.7297Z" fill="#263238"/>
<path d="M94.4644 26.5405C94.5578 26.5712 94.3685 27.2858 94.4369 28.1705C94.4926 29.0558 94.779 29.7366 94.6914 29.7801C94.6204 29.8286 94.1685 29.1588 94.1052 28.1935C94.0329 27.2283 94.3871 26.5022 94.4644 26.5405Z" fill="#263238"/>
<path d="M17.9215 23.9544C17.662 23.9218 -1.39451 26.5843 0.0815069 28.7278C1.55752 30.8706 19.48 28.9854 19.48 28.9854L17.9215 23.9544Z" fill="#FED16C"/>
<path d="M10.3497 28.3316C10.2685 28.3726 9.99873 27.9896 9.81719 27.4495C9.63436 26.9099 9.61774 26.442 9.7066 26.4254C9.79801 26.4075 9.95718 26.8275 10.133 27.3433C10.3056 27.8605 10.4334 28.2914 10.3497 28.3316Z" fill="#263238"/>
<path d="M11.414 28.3305C11.3367 28.374 11.0138 27.9304 10.8534 27.2847C10.6897 26.6391 10.7645 26.0957 10.8534 26.0977C10.948 26.097 11.0228 26.6033 11.1762 27.2035C11.3245 27.8044 11.4978 28.2864 11.414 28.3305Z" fill="#263238"/>
<path d="M12.5998 28.0302C12.5173 28.0686 12.231 27.6288 12.0111 27.0279C11.7899 26.427 11.7247 25.9061 11.8123 25.8818C11.9018 25.8575 12.1076 26.3267 12.3236 26.9129C12.5378 27.4997 12.6842 27.9906 12.5998 28.0302Z" fill="#263238"/>
<path d="M15.3984 29.0186C15.3997 29.0295 15.2993 29.0512 15.1076 29.0813C14.9158 29.1119 14.6313 29.1496 14.265 29.1925C13.5318 29.2788 12.4688 29.383 11.1519 29.4699C9.83444 29.5556 8.26318 29.6233 6.51741 29.6342C5.64484 29.6342 4.72945 29.6476 3.77186 29.5779C2.82003 29.5057 1.81258 29.3433 0.871615 28.8997C0.759108 28.8441 0.628702 28.8019 0.498936 28.6664C0.354467 28.5328 0.357024 28.249 0.475284 28.1167C0.69007 27.845 0.95983 27.79 1.17398 27.6884C1.62592 27.4909 2.07978 27.3177 2.52534 27.1496C3.42028 26.8191 4.29987 26.5506 5.14304 26.3173C6.83064 25.8513 8.37697 25.5515 9.67591 25.3189C10.9761 25.0907 12.0328 24.9379 12.7634 24.8382C13.0971 24.7973 13.3746 24.7621 13.6066 24.7333C13.7997 24.7135 13.9019 24.7084 13.9039 24.7199C13.9077 24.7429 13.5082 24.8286 12.7845 24.9667C12.0079 25.1149 10.9736 25.3118 9.72001 25.5509C8.43066 25.8123 6.89584 26.1351 5.22678 26.6133C4.39256 26.853 3.52255 27.1253 2.63976 27.4557C2.19932 27.6245 1.75121 27.7971 1.30566 27.9927C1.08065 28.0892 0.840931 28.1729 0.747602 28.3091C0.707329 28.3724 0.712443 28.396 0.748241 28.4452C0.789792 28.4957 0.90102 28.5482 1.01417 28.5987C1.89952 29.0167 2.86605 29.1784 3.79807 29.2526C4.73264 29.3248 5.64868 29.3184 6.51805 29.3267C8.25807 29.3338 9.82485 29.2896 11.1404 29.234C12.456 29.1778 13.5197 29.1094 14.2548 29.0627C14.9887 29.0173 15.3959 28.9943 15.3984 29.0186Z" fill="#263238"/>
<path d="M4.98129 29.6394C4.88349 29.6413 4.82851 28.9043 4.47565 28.0899C4.1343 27.2711 3.6408 26.7201 3.70984 26.651C3.76162 26.582 4.40661 27.0672 4.78185 27.9602C5.16411 28.8487 5.06695 29.6509 4.98129 29.6394Z" fill="#263238"/>
<path d="M77.0387 0.821516H67.3414L31.5533 1.74654L21.3517 0.421967C19.7555 0.0729222 18.7084 -0.074114 18.3722 0.0358416C17.3813 0.359316 16.0287 1.31375 14.8761 2.69075C10.9748 7.34916 13.4276 14.5225 19.294 16.1085L24.8081 17.6L12.7481 21.4746L16.8226 33.0321C16.8226 33.0321 34.8231 29.1396 52.2808 25.0296L80.2189 32.5853L84.2448 19.6163C84.2448 19.6163 82.469 19.0345 79.5087 18.073C82.478 17.1685 84.3605 16.4493 84.6373 16.0184C86.3901 13.2919 89.5077 0.627175 77.0387 0.821516Z" fill="#959595"/>
<path opacity="0.2" d="M79.3247 18.1299L58.5614 26.7276L52.2809 25.0291L79.3247 18.1299Z" fill="black"/>
<path opacity="0.2" d="M24.8618 1.78906L51.446 9.40305L71.6883 2.4999L24.8618 1.78906Z" fill="black"/>
<path d="M21.0775 32.1917C21.0372 32.2096 20.7067 31.5742 20.2317 30.5195C19.7568 29.4654 19.145 27.9881 18.5397 26.3292C17.9349 24.6704 17.4523 23.1458 17.1365 22.0336C16.8201 20.9207 16.6641 20.222 16.7063 20.2092C16.7523 20.1958 16.9882 20.8708 17.3609 21.9626C17.7336 23.0544 18.2501 24.5611 18.8522 26.2148C19.4557 27.8673 20.031 29.3522 20.4491 30.428C20.8671 31.5032 21.1216 32.1719 21.0775 32.1917Z" fill="#263238"/>
<path d="M85.1571 5.12918C85.159 5.13494 85.1027 5.15986 84.9909 5.20269C84.8605 5.25064 84.6968 5.31074 84.4929 5.38618C84.0294 5.54855 83.3851 5.77422 82.5668 6.0619C80.8645 6.63853 78.4418 7.45999 75.4585 8.47069C69.4483 10.4799 61.1254 13.1969 51.8998 16.0928C42.6711 18.9887 34.288 21.5158 28.2076 23.3013C25.1814 24.1765 22.7248 24.8867 20.9982 25.3866C20.1627 25.6181 19.5055 25.8009 19.0319 25.932C18.8215 25.9869 18.6521 26.031 18.5179 26.0662C18.4016 26.0943 18.3415 26.1058 18.3396 26.1007C18.3383 26.095 18.3952 26.0726 18.5083 26.0336C18.64 25.9908 18.8056 25.9364 19.0127 25.868C19.4812 25.7223 20.1333 25.5196 20.9611 25.262C22.6807 24.7391 25.127 23.9937 28.1398 23.0763C34.2024 21.2333 42.5733 18.6704 51.8001 15.7751C61.0237 12.8798 69.3563 10.1993 75.385 8.24758C78.3817 7.27843 80.8153 6.49277 82.5253 5.93979C83.3518 5.67833 84.0026 5.47185 84.4705 5.32353C84.6789 5.26088 84.8464 5.21102 84.9787 5.17138C85.0951 5.1375 85.1551 5.12343 85.1571 5.12918Z" fill="#263238"/>
<path d="M65.8027 4.66196C65.8066 4.67347 65.6659 4.73228 65.3943 4.83519C65.09 4.94706 64.6949 5.09153 64.2027 5.27243C63.1646 5.64319 61.6585 6.1661 59.7926 6.79895C56.0613 8.06593 50.8905 9.76569 45.1654 11.5997C39.4378 13.4318 34.2408 15.051 30.4673 16.1875C28.5809 16.7565 27.0512 17.2052 25.9913 17.5056C25.4857 17.645 25.0798 17.7569 24.7678 17.8419C24.4872 17.9154 24.3382 17.9487 24.3344 17.9371C24.3312 17.9263 24.4738 17.8713 24.748 17.7773C25.0555 17.6763 25.4556 17.5453 25.953 17.3816C27.0397 17.0345 28.5489 16.5525 30.397 15.9619C34.1832 14.7537 39.3515 13.1045 45.0631 11.282C50.7697 9.44925 55.9341 7.79041 59.7178 6.57521C61.5658 5.98199 63.0744 5.49808 64.1605 5.15033C64.661 4.99435 65.0631 4.86908 65.3719 4.77255C65.6512 4.68945 65.7989 4.65109 65.8027 4.66196Z" fill="#263238"/>
<path d="M51.3098 9.3598C51.2842 9.44802 45.3431 7.82499 38.0404 5.73403C30.7357 3.64307 24.8362 1.87685 24.8611 1.78864C24.8867 1.69978 30.8272 3.32281 38.1318 5.41441C45.4345 7.50409 51.3354 9.27095 51.3098 9.3598Z" fill="#263238"/>
<path d="M80.3397 18.7483C80.4254 18.7822 79.4007 21.6275 78.0506 25.1037C76.7005 28.5812 75.5371 31.3722 75.4514 31.339C75.3658 31.3057 76.3905 28.4604 77.7406 24.9836C79.09 21.5073 80.2541 18.7157 80.3397 18.7483Z" fill="#263238"/>
<path d="M77.848 24.1006C77.8243 24.1894 75.4847 23.6422 72.6235 22.8795C69.7609 22.1169 67.4603 21.4265 67.4839 21.3376C67.5076 21.2487 69.8466 21.7953 72.7091 22.558C75.5704 23.3213 77.8717 24.0117 77.848 24.1006Z" fill="#263238"/>
<path d="M38.0858 13.5001C38.0794 13.5225 37.7272 13.4509 37.0944 13.3032C36.4059 13.1332 35.5071 12.9127 34.4236 12.6461C32.1741 12.0714 29.061 11.2909 25.6634 10.2681C22.2626 9.25112 19.2499 8.10753 17.1327 7.14228C16.0741 6.65837 15.2329 6.23456 14.662 5.92389C14.0918 5.61002 13.783 5.4272 13.7933 5.4061C13.8041 5.38629 14.134 5.53011 14.7202 5.80818C15.3083 6.08242 16.161 6.47235 17.2273 6.92621C19.3604 7.83265 22.3687 8.93533 25.7606 9.94853C29.1486 10.9688 32.2508 11.7844 34.4856 12.4173C35.5582 12.726 36.4481 12.9817 37.1289 13.1773C37.7502 13.3646 38.0922 13.4784 38.0858 13.5001Z" fill="#263238"/>
</svg>
