<svg width="20" height="20" viewBox="0 0 20 20" fill="none" xmlns="http://www.w3.org/2000/svg">
<g clip-path="url(#clip0_205_3088)">
<path d="M20 11.6667V8.33333L17.2183 7.98583C17.0573 7.40444 16.8261 6.84478 16.53 6.31917L18.25 4.1075L15.8925 1.75L13.6817 3.47C13.1561 3.17388 12.5964 2.94274 12.015 2.78167L11.6667 0H8.33333L7.98583 2.78167C7.40444 2.94274 6.84478 3.17388 6.31917 3.47L4.1075 1.75L1.75 4.1075L3.47 6.31833C3.17388 6.84395 2.94274 7.40361 2.78167 7.985L0 8.33333V11.6667L2.78167 12.0142C2.94274 12.5956 3.17388 13.1552 3.47 13.6808L1.75 15.8925L4.1075 18.25L6.31833 16.5308C6.84395 16.827 7.40361 17.0581 7.985 17.2192L8.33333 20H11.6667L12.0142 17.2183C12.5956 17.0573 13.1552 16.8261 13.6808 16.53L15.8925 18.25L18.25 15.8925L16.5308 13.6817C16.827 13.1561 17.0581 12.5964 17.2192 12.015L20 11.6667ZM10 13.3333C9.34073 13.3333 8.69626 13.1378 8.1481 12.7716C7.59994 12.4053 7.17269 11.8847 6.9204 11.2756C6.66811 10.6665 6.6021 9.9963 6.73072 9.3497C6.85933 8.7031 7.1768 8.10915 7.64298 7.64298C8.10915 7.1768 8.7031 6.85933 9.3497 6.73072C9.9963 6.6021 10.6665 6.66811 11.2756 6.9204C11.8847 7.17269 12.4053 7.59994 12.7716 8.1481C13.1378 8.69626 13.3333 9.34073 13.3333 10C13.3333 10.8841 12.9821 11.7319 12.357 12.357C11.7319 12.9821 10.8841 13.3333 10 13.3333Z" fill="#BDBDBD"/>
</g>
<defs>
<clipPath id="clip0_205_3088">
<rect width="20" height="20" fill="white"/>
</clipPath>
</defs>
</svg>
