<svg width="112" height="75" viewBox="0 0 112 75" fill="none" xmlns="http://www.w3.org/2000/svg">
<path d="M109.182 61.1589C110.31 54.2237 105.551 47.6957 98.5531 46.5782C91.555 45.4606 84.9677 50.1766 83.84 57.1118C82.7123 64.0469 87.4712 70.5749 94.4693 71.6925C101.467 72.8101 108.055 68.094 109.182 61.1589Z" fill="#49493D"/>
<path d="M101.627 64.5028C104.461 61.6945 104.461 57.1414 101.627 54.3331C98.7931 51.5249 94.1986 51.5249 91.3649 54.3331C88.5311 57.1414 88.5311 61.6945 91.3649 64.5028C94.1986 67.3111 98.7931 67.3111 101.627 64.5028Z" fill="white"/>
<path d="M78.6535 41.0234H95.9806C103.188 41.0234 109.03 46.8133 109.03 53.9557H78.6541V41.0234H78.6535Z" fill="#FED16C"/>
<path d="M90.9676 32.3184L80.3948 18.0626C79.4689 16.8146 78.8015 15.3972 78.4308 13.8926L78.38 13.6863L81.6367 12.8979C81.8832 12.838 82.0339 12.592 81.9741 12.3477L80.1641 5.00227C79.935 4.07355 78.9899 3.5049 78.0528 3.73135L74.8525 4.50576C72.2137 5.1443 70.5972 7.78175 71.2416 10.3963C71.2517 10.4371 71.2664 10.4757 71.2777 10.5165L71.2709 10.5148L74.4023 23.2207L76.9142 19.3632V53.9548H38.2734V59.1995C38.2734 61.7788 40.383 63.8695 42.9857 63.8695H74.123C77.4553 63.8695 80.3587 62.0746 81.9221 59.4126L81.9255 59.4159L91.669 44.0748C93.8045 40.365 93.5297 35.7543 90.9676 32.3184Z" fill="#FECC2A"/>
<path d="M55.3301 1.20562L57.9192 0.578822C60.303 0.00178653 62.6597 1.2565 63.1833 3.38124C63.7069 5.50598 62.1987 7.6956 59.815 8.27263L58.0637 8.69646C56.8895 8.9805 55.7284 8.36266 55.47 7.31594L54.3241 2.66554C54.1684 2.03203 54.6186 1.3784 55.3301 1.20562Z" fill="#FED16C"/>
<path d="M82.8554 7.7147C83.4998 10.3292 82.9525 12.7077 81.6334 13.0275C80.3142 13.3468 78.722 11.486 78.0777 8.87098C77.4334 6.25592 77.9807 3.87737 79.2998 3.55811C80.6195 3.23884 82.2111 5.09964 82.8554 7.7147Z" fill="#FFCA44"/>
<path d="M81.35 5.95314C81.7213 7.46058 81.4065 8.83215 80.6453 9.01611C79.8848 9.20007 78.9668 8.12709 78.5956 6.61964C78.2243 5.1122 78.5397 3.74062 79.3003 3.55666C80.0608 3.3727 80.9788 4.4457 81.35 5.95314Z" fill="white"/>
<path d="M71.1015 9.28472L68.1693 4.25415C67.5593 3.20688 66.3248 2.68465 65.1394 2.97148L60.69 4.0484" stroke="#FED16C" stroke-miterlimit="10" stroke-linecap="round" stroke-linejoin="round"/>
<path d="M71.3175 10.6064L62.052 12.8492C61.6982 12.9347 61.3411 12.72 61.2548 12.3694L61.011 11.3798C60.9247 11.0292 61.1414 10.6752 61.4951 10.5897L70.7607 8.34691C71.1144 8.26136 71.4716 8.47608 71.5579 8.82666L71.8016 9.81635C71.8885 10.1669 71.6719 10.5209 71.3175 10.6064Z" fill="#FECC2A"/>
<path d="M73.109 12.2096L71.8158 12.5227C71.2702 12.6546 70.7201 12.3236 70.587 11.7829L69.9229 9.08898L72.2034 8.53711L73.109 12.2096Z" fill="#FECC2A"/>
<path d="M63.0653 13.7403C62.3566 13.9118 61.6423 13.4815 61.4691 12.78L61.3297 12.2155C61.1565 11.5136 61.591 10.806 62.2991 10.6344C63.0077 10.4628 63.722 10.8932 63.8952 11.5946L64.0346 12.1591C64.2078 12.8611 63.7739 13.5692 63.0653 13.7403Z" fill="#FECC2A"/>
<path d="M6.97904 33.4796H29.2356C30.6771 33.4796 31.8456 32.3216 31.8456 30.893V2.58658C31.8456 1.15798 30.6771 0 29.2356 0H6.90625C3.30262 0 0.381683 2.89522 0.381683 6.46589V26.9416C0.381683 30.5525 3.33534 33.4796 6.97904 33.4796Z" fill="#FECC2A"/>
<path opacity="0.43" d="M6.95553 33.4806H29.2121C30.6536 33.4806 31.8221 30.1576 31.8221 28.729C31.8221 28.729 0.41347 27.9137 0.517286 28.3745C1.17572 31.2971 3.80835 33.4806 6.95553 33.4806Z" fill="#FECC2A"/>
<path opacity="0.43" d="M31.8456 8.90882V2.5866C31.8456 1.15799 30.6771 0 29.2356 0H6.90625C3.30262 0 0.381683 2.89524 0.381683 6.46592V9.05251L31.8456 8.90882Z" fill="#FECC2A"/>
<path d="M0.608307 28.7266H31.3857" stroke="#D89B00" stroke-miterlimit="10" stroke-linecap="round"/>
<path d="M0.608307 9.28125H31.3857" stroke="#D89B00" stroke-miterlimit="10" stroke-linecap="round"/>
<path d="M53.7145 53.9537L2.4116 49.4929C1.99183 49.4566 1.67756 49.0948 1.70577 48.6777C1.75204 47.9939 1.83385 47.002 1.94951 46.4054C3.37472 39.0415 9.90945 33.4775 17.7554 33.4775H50.6091C51.9722 33.4775 52.8118 34.9542 52.1054 36.11L50.1312 39.3395C47.6058 43.471 48.3043 48.7856 51.8143 52.1382L53.7145 53.9537Z" fill="#FECC2A"/>
<path opacity="0.17" d="M53.7148 33.4797H17.7558C10.1113 33.4797 3.71195 38.7613 2.07009 45.8433C1.80265 46.9957 1.66159 48.1962 1.66159 49.4296L28.7016 51.5191C28.7016 51.5191 24.5929 49.7864 24.5929 40.4823C24.5929 33.3735 34.588 33.3047 34.588 33.3047" fill="white"/>
<path opacity="0.17" d="M34.4644 33.4797H16.5106C11.6933 33.4797 2.95364 38.7613 1.91887 45.8433C1.75017 46.9957 1.66159 48.1961 1.66159 49.4296L17.9973 50.6921C17.9973 50.6921 15.3562 49.9188 16.1122 40.4823C16.6804 33.3958 22.4105 33.3047 22.4105 33.3047" fill="white"/>
<path d="M54.8134 37.4818C54.8935 38.1276 54.3818 38.6951 53.7256 38.6884L27.6747 38.4189C25.256 38.3937 23.077 36.8209 22.1793 34.4518L20.0624 28.8637C19.0942 26.3079 20.7626 23.5385 23.3647 23.3797L48.3001 22.7059C50.9384 22.6343 53.2218 24.6875 53.5642 27.4385L54.8134 37.4818Z" fill="#FED16C"/>
<path d="M20.4784 30.1434L38.5299 30.0908" stroke="#D89B00" stroke-miterlimit="10" stroke-linecap="round"/>
<path d="M42.9416 33.4432L54.2941 33.3057" stroke="#D89B00" stroke-miterlimit="10" stroke-linecap="round"/>
<path d="M85.25 33.7958C85.1457 33.4391 85.0272 33.1097 84.8951 32.848L76.9132 17.0283C73.7666 18.5268 72.3216 22.1786 73.6007 25.397L75.4118 29.9539C76.4517 32.569 76.9854 35.3552 76.9854 38.166V42.761C76.9854 48.9445 71.9272 53.9572 65.6876 53.9572H53.7144V53.9304L19.6037 50.958V58.9145H38.2719H53.7144H71.4398C74.7054 58.9145 78.9568 55.9008 81.3722 51.4964C83.7391 47.1799 84.9538 41.8848 85.4853 38.9673C85.7985 37.2468 85.7415 35.4738 85.25 33.7958Z" fill="#FECC2A"/>
<path d="M27.8771 61.9398C29.45 55.0904 25.1221 48.2742 18.2104 46.7155C11.2988 45.1568 4.42076 49.4458 2.84791 56.2952C1.27505 63.1447 5.60297 69.9608 12.5146 71.5195C19.4262 73.0782 26.3043 68.7893 27.8771 61.9398Z" fill="#49493D"/>
<path d="M22.4312 61.0214C23.3216 57.1491 20.876 53.2947 16.9686 52.4123C13.0612 51.5298 9.17176 53.9535 8.28128 57.8257C7.39079 61.6979 9.83647 65.5523 13.7439 66.4348C17.6512 67.3172 21.5407 64.8936 22.4312 61.0214Z" fill="white"/>
<path d="M35.1552 63.0799H16.0159C13.7337 63.0799 11.8836 61.2465 11.8836 58.9848C11.8836 56.7231 13.7337 54.8896 16.0159 54.8896H35.1552C37.4375 54.8896 39.2875 56.7231 39.2875 58.9848C39.2881 61.2465 37.4375 63.0799 35.1552 63.0799Z" fill="#FED16C"/>
</svg>
